<svg width="60" height="28" viewBox="0 0 60 28" fill="none" xmlns="http://www.w3.org/2000/svg">
<path d="M4.54883 14.0087C4.54883 19.1446 8.70886 23.323 13.8223 23.323H22.4843C23.0283 23.323 23.4501 22.8036 23.4501 22.3563V5.28786C23.4501 4.20961 24.3236 3.33211 25.3968 3.33211C26.0854 3.33211 26.727 3.69878 27.0709 4.28946C27.114 4.3638 29.7365 8.90504 32.5128 13.7133C35.1655 18.3079 37.9088 23.0589 37.9519 23.1335C38.0907 23.3713 38.3621 23.5247 38.6437 23.5247C39.0898 23.5247 39.4528 23.1603 39.4528 22.712V5.28786C39.4528 4.20961 40.3258 3.33211 41.3995 3.33211C42.0881 3.33211 42.7297 3.69878 43.0734 4.28946C43.117 4.3638 45.7372 8.90504 48.5118 13.7136C51.1619 18.3072 53.9028 23.0569 53.9469 23.1335C54.0857 23.3713 54.3571 23.5247 54.6387 23.5247C55.0847 23.5247 55.4473 23.1603 55.4473 22.712V0.121891H52.0331V13.5687C52.0331 13.5687 45.8469 2.87407 45.6465 2.53018C44.7435 0.979633 43.031 0 41.2084 0C38.3534 0 36.0381 2.32644 36.0381 5.19375V13.5687C36.0381 13.5687 29.8522 2.87407 29.6516 2.53018C28.7485 0.979632 27.036 0 25.2134 0C22.3584 0 20.0432 2.32644 20.0432 5.19375V18.9554C20.0449 19.4562 19.6701 19.8927 19.1244 19.8937H13.8589C10.6232 19.8937 7.99991 17.259 7.99991 14.0087C7.99991 10.7584 10.6232 8.12364 13.8589 8.12364H18.2694V4.69443H13.8223C8.70886 4.69443 4.54883 8.87276 4.54883 14.0087Z" fill="#203662" fill-opacity="0.2"/>
<path d="M56.5856 0.121582V22.7119C56.5856 23.7904 55.7126 24.6677 54.6389 24.6677C53.9503 24.6677 53.3087 24.301 52.9648 23.7106C52.9217 23.6363 50.3009 19.0948 47.5269 14.2865C44.8762 9.69314 42.1361 4.9429 42.0912 4.86657C41.9529 4.6288 41.6811 4.47512 41.3995 4.47512C40.9534 4.47512 40.5908 4.83954 40.5908 5.28756V22.7119C40.5908 23.7904 39.7174 24.6677 38.6439 24.6677C37.9554 24.6677 37.3142 24.301 36.9698 23.7106C36.9267 23.6363 34.3042 19.095 31.5279 14.2865C28.875 9.69214 26.1319 4.94116 26.0885 4.86657C25.9497 4.6288 25.6784 4.47512 25.3968 4.47512C24.9507 4.47512 24.5881 4.83954 24.5881 5.28756V22.3563C24.5881 23.4801 23.6051 24.466 22.4845 24.466H13.8225C8.08159 24.466 3.41071 19.775 3.41071 14.0084C3.41071 8.24222 8.08159 3.55105 13.8225 3.55105H18.2694V0.121582H13.8265C6.19046 0.121582 0 6.33877 0 14.0084C0 21.6782 6.19046 27.8957 13.8265 27.8957H22.5714C25.8842 27.8974 28.0145 25.9479 28.0101 22.352V14.4311C28.0101 14.4311 34.2404 25.2018 34.3969 25.4699C35.3 27.0202 37.0124 27.9998 38.835 27.9998C41.6903 27.9998 44.005 25.6734 44.005 22.8063V14.4311C44.005 14.4311 50.1913 25.126 50.3916 25.4699C51.2949 27.0202 53.0074 27.9998 54.83 27.9998C57.685 27.9998 60 25.6734 60 22.8063V0.121582H56.5856Z" fill="#203662" fill-opacity="0.2"/>
<path d="M3.41089 14.0089C3.41089 19.7753 8.08152 24.4665 13.8224 24.4665H22.4844C23.605 24.4665 24.5883 23.4806 24.5883 22.3565V5.28804C24.5883 4.84002 24.9509 4.4756 25.397 4.4756C25.6785 4.4756 25.9499 4.62903 26.0887 4.8668C26.1318 4.94164 28.8752 9.69263 31.5281 14.2869C34.3044 19.0953 36.9266 23.6365 36.97 23.7111C37.3141 24.3015 37.9553 24.6679 38.6438 24.6679C39.7176 24.6679 40.591 23.7907 40.591 22.7122V5.28804C40.591 4.84002 40.9536 4.4756 41.3997 4.4756C41.6812 4.4756 41.9529 4.62903 42.0914 4.8668C42.136 4.94339 44.8764 9.69339 47.5271 14.2867C50.3011 19.095 52.9216 23.6365 52.965 23.7111C53.3088 24.3015 53.9503 24.6679 54.6388 24.6679C55.7126 24.6679 56.5857 23.7907 56.5857 22.7122V0.12207H55.4474V22.7122C55.4474 23.1605 55.0848 23.5249 54.6388 23.5249C54.3572 23.5249 54.0858 23.3714 53.947 23.1337C53.9027 23.0571 51.162 18.3073 48.5119 13.7138C45.7374 8.90522 43.1171 4.36398 43.0735 4.28964C42.7296 3.69896 42.0882 3.33228 41.3997 3.33228C40.3259 3.33228 39.4527 4.20979 39.4527 5.28804V22.7122C39.4527 23.1605 39.0899 23.5249 38.6438 23.5249C38.3622 23.5249 38.0909 23.3714 37.9521 23.1337C37.9089 23.0591 35.1656 18.3081 32.5127 13.7135C29.7364 8.90522 27.1141 4.36398 27.0708 4.28964C26.7269 3.69896 26.0855 3.33229 25.397 3.33229C24.3234 3.33229 23.4503 4.20979 23.4503 5.28804V22.3565C23.4503 22.8038 23.0284 23.3231 22.4844 23.3231H13.8224C8.70898 23.3231 4.54895 19.1448 4.54895 14.0089C4.54895 8.87294 8.70898 4.69461 13.8224 4.69461H18.2693V3.55129H13.8224C8.08152 3.55129 3.41089 8.24246 3.41089 14.0089Z" fill="white"/>
</svg>
