<svg width="66" height="28" viewBox="0 0 66 28" fill="none" xmlns="http://www.w3.org/2000/svg">
<path d="M65.3333 27.9807C62.396 27.9807 59.4058 27.9807 56.5038 27.9807C56.4226 27.9807 56.2743 27.6215 56.2319 27.5468C55.0175 25.3381 53.803 23.1188 52.5956 20.9136C51.3035 23.261 50.0467 25.6476 48.7581 27.9985C45.8667 28.0056 43 27.9843 40.1333 27.9914C40.4581 27.3797 40.8041 26.7821 41.1501 26.1811C43.5613 21.9842 45.9373 17.7304 48.3521 13.5299C45.7855 9.01295 43.18 4.53152 40.5993 0.0252045C40.5923 0.0252045 40.5746 -0.00324901 40.5923 0.000307672C43.5507 0.000307672 46.5057 0.000307672 49.4641 0.000307672C50.555 1.99916 51.6177 4.02292 52.6909 6.036C53.8065 4.0407 54.8833 2.00628 55.9883 0.000307672C58.848 0.000307672 61.704 0.000307672 64.5637 0.000307672C64.5707 0.0358745 64.546 0.074998 64.5284 0.103452C62.0253 4.53508 59.4622 8.98094 56.9627 13.4197C59.7411 18.2781 62.5725 23.133 65.3333 27.9807Z" fill="#203662" fill-opacity="0.2"/>
<path fill-rule="evenodd" clip-rule="evenodd" d="M43.8667 14.3103C43.8667 13.2489 43.7336 12.2403 43.5033 11.3235C43.0463 9.52148 42.341 7.97692 41.4018 6.68979C39.9768 4.72559 38.2064 3.15282 35.8315 2.10195C35.065 1.76342 34.205 1.45662 33.2766 1.25562C32.3842 1.06167 31.2471 0.892399 30.1747 0.941769H30.1568C29.0592 0.941769 28.0445 1.0934 27.1269 1.31557C26.2093 1.53773 25.3673 1.84453 24.6152 2.20422C22.6972 3.12461 21.1103 4.34474 19.8581 5.9034C18.6058 7.46559 17.6163 9.27816 17.1125 11.5915C16.9146 12.5083 16.7778 13.5663 16.803 14.6383C16.857 16.8035 17.3248 18.5808 18.0373 20.1218C19.0988 22.421 20.6605 24.2442 22.6649 25.623C24.6692 26.9983 27.1449 27.9998 30.4986 27.9998C32.6433 27.9998 34.5036 27.4461 36.0438 26.7373C36.8174 26.3812 37.5155 25.958 38.1848 25.4925C39.1816 24.7978 40.074 23.9621 40.8117 23.0452C41.0635 22.7349 41.2974 22.4104 41.5277 22.0719C42.8879 20.076 43.8667 17.6216 43.8667 14.3103ZM32.7709 19.5416C32.7747 19.8994 32.7783 20.2378 32.708 20.5132C32.4705 21.4654 31.6861 22.1601 30.6174 22.2729C29.7897 22.3611 29.1492 22.0155 28.7354 21.6029C28.4151 21.282 28.1704 20.8518 28.0949 20.3158C28.0723 20.1694 28.0741 20.0078 28.0759 19.8396C28.0764 19.793 28.0769 19.746 28.0769 19.6986V9.50737C28.0769 9.48972 28.0769 9.47208 28.0769 9.45447C28.0767 9.03253 28.0766 8.62646 28.156 8.30487C28.318 7.64544 28.7138 7.14822 29.2356 6.82379C29.5162 6.651 29.8365 6.5311 30.2215 6.50289C31.0168 6.44294 31.6501 6.82026 32.0711 7.2399C32.287 7.45501 32.4705 7.71949 32.5893 8.00866C32.7188 8.32603 32.7692 8.66457 32.7692 9.10184V19.2931C32.7692 19.3766 32.7701 19.4596 32.7709 19.5416Z" fill="#203662" fill-opacity="0.2"/>
<path d="M17.7333 7.65519C14.5274 7.65519 11.3252 7.65519 8.11926 7.65519C8.07946 8.82582 8.11202 10.1206 8.10117 11.2983C10.6992 11.3196 13.337 11.3019 15.9531 11.3054C15.9531 13.8524 15.9531 16.3959 15.9531 18.9429C13.3189 18.95 10.663 18.9322 8.04327 18.95C8.04689 21.9794 8.06137 24.9521 8.06137 27.9815C8.06137 27.9922 8.05775 27.9957 8.05413 27.9993C5.38375 27.9993 2.70976 27.9993 0.0393878 27.9993C0.0249142 28.0028 0.0249142 27.9922 0.014059 27.9922C-0.00403292 18.691 -0.00403292 9.32955 0.0104407 0.0248315C0.0104407 0.0141894 0.0104407 0 0.0176774 0C5.74198 0 11.4663 0 17.187 0C17.1978 0 17.2014 0 17.205 0.00709471C17.386 2.5541 17.5597 5.10464 17.7333 7.65519Z" fill="#203662" fill-opacity="0.2"/>
</svg>
