<svg width="217" height="28" viewBox="0 0 217 28" fill="none" xmlns="http://www.w3.org/2000/svg">
<path fill-rule="evenodd" clip-rule="evenodd" d="M20.7697 1.43356L21.9963 2.79743C22.6774 1.43356 23.9066 0.615234 25.5424 0.615234C23.7062 2.35545 23.8559 5.19045 24.002 7.95756C24.0621 9.09552 24.1216 10.222 24.0421 11.2561C24.7418 10.8365 25.4407 10.2738 26.1577 9.69663C26.8403 9.14713 27.5394 8.58441 28.271 8.11923C29.6349 8.25472 30.7269 9.4831 31.4088 10.5733L31.6807 11.6653C31.4088 14.8022 31.5443 20.1213 31.6807 23.3946C32.499 24.7576 33.7265 23.9392 34.5448 23.1227L34.9549 22.709V12.209C37.0007 11.2543 38.911 9.75317 40.6832 8.25291C42.3207 9.61678 43.9565 11.117 45.4585 12.7546L38.3646 17.8009C38.3646 18.1648 38.3387 18.5545 38.3123 18.9524C38.1903 20.7919 38.0566 22.8073 40.4113 23.2573C41.3669 23.9383 42.0488 24.0747 43.139 23.5292C43.4248 23.3391 43.6775 23.0486 43.926 22.7629C44.3885 22.2312 44.837 21.7157 45.4585 21.8925C44.5643 22.7862 43.4293 23.7763 42.283 24.7762C41.5039 25.4558 40.7196 26.14 40.0021 26.8016L35.0904 23.6674C34.2527 23.719 33.4954 24.3945 32.7488 25.0603C31.5514 26.1283 30.3817 27.1715 28.953 25.5759L28.1346 24.0747V12.0727C28.1346 11.3907 27.4527 10.7088 26.7708 10.5715C25.6815 10.5715 24.8641 11.388 24.0462 12.205L24.0421 12.209L23.9066 22.439L25.5433 24.0756C25.328 24.2544 25.0941 24.5367 24.844 24.8385L24.844 24.8385C24.1414 25.6865 23.3108 26.6889 22.4055 25.9841L19.405 23.5292L13.1303 26.8016C8.08484 26.9388 3.174 24.8939 0.991811 20.3923C-0.372964 17.2554 -0.372964 14.3903 1.26458 11.3907C3.27177 9.69987 5.60757 8.41789 7.89047 7.16496L7.89048 7.16495L7.89049 7.16495L7.8905 7.16494C8.55388 6.80086 9.21279 6.43922 9.85787 6.07072C7.94665 5.52517 4.94613 5.2542 2.90033 5.52517C2.21839 5.38969 1.67284 6.20711 1.53646 6.88904C1.36491 7.40368 1.57096 7.7572 1.78144 8.11833C1.90564 8.33144 2.03139 8.54719 2.082 8.80027C0.718133 7.84556 0.990907 6.07162 1.26368 4.84414C3.06501 1.87655 6.10116 2.28468 9.03032 2.67844C9.87143 2.79151 10.7037 2.90339 11.4954 2.93382C12.1315 2.93382 12.8496 3.03645 13.5964 3.14318C15.5719 3.42551 17.7477 3.73647 19.134 2.25188C19.2382 2.14697 19.3025 1.96203 19.3652 1.78151C19.4661 1.49111 19.5631 1.21216 19.8159 1.29627L20.0878 1.43265L17.3601 6.2062C16.1317 6.47988 14.6314 6.47988 13.4039 6.34259C13.2665 9.56192 13.3013 12.4711 13.3354 15.3297V15.3298V15.3298V15.3298V15.3298V15.3299V15.3299C13.3692 18.1648 13.4025 20.9499 13.2666 23.9383C15.4497 24.8948 18.0411 23.6674 20.0869 22.439L20.3597 22.0298C20.3597 14.9377 20.3597 7.57098 20.7697 1.43356ZM153.578 6.05163C155.481 4.7771 157.388 3.50039 159.213 1.97911C161.532 3.48027 163.986 4.43498 166.443 5.38969L167.942 4.02491L168.352 4.43498C167.677 5.10938 166.84 5.87668 165.974 6.67002C164.741 7.80088 163.449 8.98467 162.487 10.0278C165.351 11.117 168.352 13.8457 168.216 17.2554C168.817 19.3557 167.364 20.7231 166.061 21.9482L166.061 21.9483L166.061 21.9484C165.587 22.3944 165.133 22.8215 164.805 23.2582C162.623 25.3031 160.169 26.5315 157.578 27.3489C152.802 27.4844 148.028 25.1676 146.119 20.8023C144.755 17.5299 144.755 14.2558 146.665 11.2543C148.856 9.21394 151.215 7.63447 153.578 6.05163ZM157.712 24.7567C155.53 24.6221 153.62 23.5301 151.984 22.3026C153.756 21.3461 155.256 19.9831 155.802 18.0746V5.2533C156.111 4.74029 156.725 4.99811 157.244 5.21555C157.415 5.28753 157.576 5.35509 157.712 5.38878V24.7567ZM108.337 4.97962L108.473 9.20852L111.883 9.34491C112.088 9.44811 112.06 9.70698 112.035 9.94541C112.026 10.0221 112.018 10.0966 112.018 10.1632C110.928 10.2996 109.427 10.2996 108.472 10.1632C108.201 12.6065 108.169 15.4708 108.139 18.2376V18.2377V18.2377V18.2378V18.2378V18.2379V18.238V18.2381V18.2381V18.2382V18.2385V18.2387V18.2389V18.2392V18.2394V18.2396V18.2398V18.2401V18.2403V18.2404V18.2406V18.2408V18.241V18.2412V18.2413V18.2415V18.2417V18.2418V18.242V18.2422V18.2423V18.2425C108.124 19.643 108.109 21.0185 108.063 22.3017C108.608 23.1209 109.426 23.9383 110.382 24.0747C111.001 23.9199 111.313 23.5009 111.616 23.0931C111.848 22.7822 112.074 22.4779 112.428 22.3017L112.564 12.0727C114.61 11.117 116.521 9.89046 118.292 8.25291C120.066 9.07123 121.839 10.0278 123.476 11.117C123.203 14.2558 123.203 19.4376 123.476 22.7099C121.294 23.6674 119.519 25.0303 117.61 26.8016C116.222 26.0095 114.833 25.1438 113.495 24.3103L113.495 24.3102L113.495 24.3099L113.493 24.3087L113.491 24.3078C112.992 23.9967 112.5 23.6902 112.018 23.3937L108.472 26.5315C107.45 26.0659 106.363 25.2203 105.342 24.4267L105.342 24.4266C104.866 24.0563 104.404 23.6974 103.97 23.3937L104.651 21.757L104.79 10.7097C104.59 10.4116 104.175 10.475 103.805 10.5314C103.667 10.5524 103.536 10.5724 103.425 10.5724L103.425 10.5726C101.924 12.0737 100.697 13.3002 99.1959 14.6649L101.924 16.7107L101.789 22.7108C99.8779 23.6683 98.1057 25.0312 96.3327 26.3969C96.2429 26.3295 96.1532 26.2616 96.0633 26.1937C94.5148 25.0236 92.9388 23.8328 90.8754 24.3484C89.377 24.7567 89.6488 26.5315 90.0589 27.3489C89.377 27.3489 89.377 26.396 89.377 25.7132C89.1886 23.9291 90.5525 22.598 91.9099 21.2733C92.5241 20.6738 93.137 20.0757 93.6041 19.4376L90.7408 17.1208C90.6727 16.0978 90.7407 15.178 90.8088 14.2584C90.8769 13.3373 90.945 12.4162 90.8763 11.3916C92.923 10.436 94.697 9.20852 96.3336 7.70736C98.243 8.93665 100.289 10.1641 102.607 10.436C103.693 9.63966 104.702 8.57432 105.696 7.52542C106.574 6.59827 107.441 5.68396 108.337 4.97962ZM100.016 12.7555C99.1115 13.8618 98.206 14.7452 97.1916 15.7348L97.1914 15.7349L97.1903 15.736C96.8296 16.088 96.455 16.4534 96.0618 16.8471C95.6413 16.8471 95.3239 16.5364 94.9825 16.2023C94.7701 15.9944 94.5484 15.7774 94.2869 15.6205L94.4242 10.1641C94.8807 10.4097 95.3282 10.6825 95.7782 10.9569C97.0759 11.748 98.3951 12.5523 100.016 12.7555ZM116.112 22.439L119.794 24.4857L120.067 12.7546L116.247 10.5715C116.229 11.0144 116.21 11.4826 116.189 11.9698L116.189 11.9723V11.9724V11.9726V11.9727C116.05 15.237 115.875 19.3543 116.112 22.439ZM92.3775 21.7579C94.697 21.6216 96.7428 22.5754 98.3794 24.0756C98.2549 23.5374 98.3442 22.7477 98.4412 21.8899C98.6637 19.922 98.9268 17.5951 96.7428 17.1208L92.3775 21.7579ZM67.1441 13.8457L67.0077 22.8481C67.8215 23.9672 68.7118 23.4937 69.6207 23.0103C69.9303 22.8456 70.2421 22.6798 70.5537 22.5754L70.6901 16.0297C69.7354 15.0732 68.5079 14.2558 67.1441 13.8457ZM164.123 23.1227C165.487 21.076 165.215 18.0755 164.123 16.0297C163.032 13.9821 160.714 12.0736 158.393 13.0283L158.667 24.8958C160.714 25.0312 162.759 24.4866 164.123 23.1227ZM152.342 20.5799L152.342 20.5801C152.202 21.0947 152.064 21.6008 151.574 21.8934C149.119 19.5758 148.436 16.0297 148.845 13.0283C149.119 11.1179 150.346 8.66388 152.391 7.4364L152.53 19.9831C152.453 20.1751 152.397 20.3782 152.342 20.5799ZM159.939 11.17C161.075 10.2531 162.318 9.25089 163.168 8.11833C161.804 7.16272 160.168 6.34349 158.393 5.79885L158.53 12.3454C158.949 11.9678 159.433 11.5773 159.939 11.17ZM199.587 13.0283L199.45 24.4866C198.612 24.5698 197.878 24.0364 197.12 23.4859C196.644 23.1399 196.158 22.7871 195.632 22.5763V12.7555C196.039 12.2099 196.722 11.6644 197.404 11.3916C198.359 11.3916 199.179 12.3454 199.587 13.0283ZM192.116 3.88303C192.42 4.06501 192.72 4.2447 193.041 4.29859C194.131 2.93472 195.768 1.97911 197.403 2.25188C195.32 2.98073 195.464 5.21989 195.588 7.14921C195.626 7.74706 195.663 8.31517 195.631 8.79936C195.688 9.26179 195.623 9.74876 195.561 10.2188C195.476 10.857 195.395 11.464 195.631 11.9363L199.586 8.79936C201.087 9.07033 202.587 10.7088 203.133 12.209C202.997 15.2078 202.859 19.8467 203.133 22.8472C202.777 23.0759 202.407 23.3047 202.03 23.5379L202.029 23.5381C200.382 24.5563 198.599 25.659 197.266 27.2125L191.54 23.8028L192.085 21.8934V6.20711C191.948 5.2533 191.403 4.1613 190.584 3.47936C191.165 3.31421 191.645 3.60137 192.116 3.88303ZM185.128 24.8958C184.226 24.5674 183.473 24.0915 182.719 23.6156C182.218 23.2997 181.717 22.9837 181.174 22.7108C181.174 21.8161 181.165 20.8648 181.157 19.8902V19.889V19.8878V19.8866V19.8854V19.8843V19.8832V19.882V19.8809V19.8798V19.8787V19.8776V19.8765V19.8755V19.8749C181.131 16.8446 181.103 13.5914 181.311 11.1179L185.128 13.1637V24.8958ZM171.064 3.65492C171.411 3.87009 171.775 4.09537 172.17 4.1613C172.989 2.93472 174.49 2.25278 175.717 2.25278C174.293 3.23735 174.275 4.39826 174.254 5.80557C174.248 6.15149 174.243 6.5123 174.216 6.88904C174.216 11.799 174.216 16.0297 174.079 21.076C174.109 21.3143 174.1 21.6045 174.09 21.9156V21.9157V21.9158V21.916V21.9161V21.9163V21.9164V21.9166V21.9167V21.9168V21.917V21.9171V21.9173C174.054 23.0302 174.01 24.4083 175.717 24.6221C176.227 24.5206 176.738 24.1878 177.25 23.8553L177.25 23.8552C177.421 23.7439 177.592 23.6326 177.763 23.5301L177.489 12.7555C179.672 11.799 181.718 10.5724 183.491 8.66388L188.812 11.528C188.538 15.0723 188.538 19.7112 188.812 23.2582C186.629 24.0756 184.72 25.7132 183.082 27.3489C182.174 26.9265 181.321 26.3963 180.486 25.8775C179.437 25.2259 178.417 24.5922 177.354 24.212L173.944 27.2125C172.592 26.4018 171.372 25.4543 170.155 24.5083L170.124 24.4848L170.944 22.8472L170.805 4.97872C170.731 4.60711 170.535 4.27585 170.35 3.96291C170.196 3.70233 170.05 3.45446 169.987 3.20659C170.339 3.20659 170.692 3.42498 171.064 3.65492ZM213.09 14.6649L209.408 17.2554C209.476 16.0965 209.476 15.0734 209.476 14.0842C209.476 13.0951 209.476 12.1399 209.544 11.117C210.771 11.9372 212.272 13.4383 213.09 14.6649ZM211.862 8.52749L216.499 13.0283L209.408 18.211L209.543 22.3026C209.647 22.3836 209.752 22.4666 209.858 22.5504L209.859 22.5514L209.86 22.5519C211.003 23.4557 212.262 24.4507 213.634 24.0756L216.498 21.8934C216.668 21.8096 216.681 21.882 216.698 21.9817C216.709 22.0432 216.721 22.1151 216.773 22.1671C215.882 23.2193 214.798 24.1756 213.694 25.1502L213.693 25.1506L213.693 25.151L213.693 25.1511L213.693 25.1513C212.937 25.8179 212.172 26.4931 211.452 27.2134C211.247 27.1039 211.04 26.9943 210.833 26.8843L210.817 26.876L210.811 26.8729C208.957 25.8912 207.039 24.8753 205.451 23.5301C206.057 21.9739 206.004 19.8675 205.953 17.8739V17.8735C205.924 16.7245 205.896 15.6129 205.996 14.6658L205.861 12.6191C207.273 12.002 208.514 11.0415 209.768 10.0709L209.768 10.0707L209.768 10.0706C210.452 9.5412 211.14 9.00881 211.862 8.52749ZM42.1834 13.9821L38.3637 16.8471L38.6365 10.5724C39.7257 11.5264 41.0878 12.8873 42.178 13.9766L42.1834 13.9821ZM6.17452 21.0751L6.58368 20.5296C7.402 16.0297 7.26562 12.6182 6.99284 7.98104L4.2642 10.0278C2.76484 13.3001 3.58226 18.0746 6.17452 21.0751ZM12.7211 23.9392C11.3581 23.9392 9.5842 23.2582 8.22033 22.5754C8.00526 22.2886 7.71482 22.1526 7.40844 22.0091C7.13194 21.8796 6.84247 21.744 6.58368 21.4861C10.8816 18.9622 10.699 15.223 10.5085 11.3203C10.4209 9.52608 10.3317 7.69729 10.6753 5.93614L12.5847 6.20711L12.7211 23.9392ZM84.467 24.0756L80.7846 22.0298C80.5109 18.2101 80.6473 13.5729 80.9201 10.1632L84.7389 12.209L84.467 24.0756ZM78.9867 10.7321C80.3999 9.8617 81.9446 8.91024 83.2386 7.70736L88.5586 10.5733C88.0149 13.8466 88.1495 18.7574 88.2868 22.3035C86.1037 23.3946 84.1943 24.7576 82.1485 26.3969C80.2399 25.304 78.1941 24.0756 76.4202 22.8481L76.9657 21.8934C77.2376 18.4828 77.2376 15.2087 77.1012 11.9372C77.6726 11.5416 78.3148 11.146 78.9867 10.7321ZM128.523 8.66388C128.01 8.32139 127.496 8.78483 126.948 9.27873C126.623 9.57157 126.287 9.87512 125.931 10.0278C125.413 10.5457 125.825 10.954 126.266 11.3917C126.521 11.6455 126.787 11.9092 126.887 12.2099L126.614 22.4399C126.531 22.8546 126.297 23.2187 126.095 23.5322C125.965 23.7348 125.849 23.9162 125.795 24.0765L129.204 26.8034L131.524 24.7576C131.524 24.3169 131.128 23.9949 130.72 23.6633C130.371 23.3796 130.013 23.0889 129.887 22.7108L130.297 12.3454C130.5 12.2241 130.702 12.0546 130.916 11.8761C131.42 11.4537 131.985 10.9816 132.752 10.9816C133.434 11.1179 134.253 11.9381 134.389 12.6191C134.526 15.8933 134.389 20.3941 134.116 24.0765C134.526 25.4404 135.617 26.3969 136.708 26.9407C138.209 25.985 139.71 24.623 140.799 23.531C140.528 23.3959 140.12 23.8019 139.847 24.0738L139.845 24.0765C139.299 25.0321 138.344 24.4866 137.798 23.9401C137.466 21.9514 137.587 19.4605 137.703 17.0774C137.778 15.5371 137.851 14.0418 137.798 12.7564C138.208 11.6653 137.388 10.5733 136.571 9.75407C135.222 7.59703 133.874 8.87629 132.525 10.1557C131.827 10.8172 131.13 11.4787 130.432 11.6653C130.287 11.4112 130.152 11.1378 130.013 10.8581L130.013 10.8576L130.013 10.857C129.631 10.0851 129.225 9.26432 128.523 8.66388ZM64.5534 11.3641C64.4622 8.28594 64.3632 4.93859 67.5532 3.48027C67.9274 4.11639 68.3735 4.73205 68.821 5.34976C70.0047 6.98351 71.1988 8.6316 71.1011 10.7106C70.0091 11.9381 68.6452 12.7564 67.2814 13.4392V7.57188C67.145 7.30091 66.7358 7.4373 66.7358 7.70827L66.1903 22.3035L66.1874 22.302C64.1416 21.2114 62.0966 20.1212 59.6428 19.8476C61.2794 18.8938 63.4616 17.3927 64.2799 15.485C64.6419 14.3537 64.5986 12.8921 64.5534 11.3641ZM53.6408 2.93472C52.5497 4.57136 52.6852 6.20711 53.6408 7.84556H53.7772C53.7772 7.68513 53.7304 7.57219 53.6916 7.47872C53.6642 7.41273 53.6408 7.35645 53.6408 7.30001C53.0953 6.48078 53.5045 5.38969 53.9145 4.70685C55.9322 3.82374 58.3016 4.34177 60.1575 4.74755C60.308 4.78045 60.4551 4.81262 60.5984 4.84323C58.1425 6.48078 55.823 8.93575 56.2322 12.0727H53.6408C53.5507 12.1266 53.4559 12.1806 53.3587 12.2358C52.7207 12.5988 51.9855 13.017 51.8687 13.8448C51.7314 14.5267 51.5959 15.4832 52.2779 15.8915C52.0042 15.2078 52.1415 14.6649 52.4143 13.9821C52.7774 13.7097 53.2613 13.6795 53.7455 13.6492C53.9887 13.634 54.232 13.6188 54.4601 13.5729C55.9612 13.8448 56.7786 14.9368 56.2322 16.3007C56.3686 17.6654 55.2784 18.7565 54.4601 19.4376L56.0967 18.8929C59.3146 17.6628 59.2491 14.8567 59.1808 11.9326C59.1507 10.6421 59.1201 9.32855 59.3709 8.11743C59.7801 5.2533 62.6442 3.20659 64.9628 2.25188C63.6151 2.29709 62.3119 2.0611 61.0433 1.83138C58.4597 1.36351 56.0198 0.921678 53.6408 2.93472ZM72.545 10.4794C73.3323 9.95502 74.1007 9.44319 74.6463 8.66388C74.0449 6.55848 72.7807 4.67403 71.5565 2.84925C71.1148 2.19086 70.6783 1.54024 70.2801 0.889815C69.3326 1.62198 68.3578 2.24534 67.3989 2.85865C65.321 4.18754 63.3169 5.46924 61.8232 7.70827C61.1134 9.48333 61.1543 11.5466 61.1942 13.5607C61.2157 14.6426 61.2369 15.7104 61.1412 16.7116C60.8325 19.2632 59.1642 19.6233 57.4045 20.0033C56.0601 20.2935 54.6623 20.5953 53.7763 21.8943C53.636 22.1471 53.4783 22.3997 53.32 22.6535C52.7086 23.633 52.0868 24.6294 52.4125 25.7141C52.4345 25.8015 52.4564 25.91 52.4806 26.0294C52.6072 26.655 52.7945 27.5804 53.3672 27.3498C52.6852 26.2587 52.8225 24.3484 53.7772 23.5301C57.3921 21.4319 61.1067 23.4207 64.4954 25.235C65.0701 25.5427 65.6355 25.8454 66.1894 26.1223C68.0284 23.9163 70.7499 23.0306 73.3617 22.1806C73.6554 22.085 73.9476 21.9899 74.2371 21.8934C74.2778 21.2376 74.2817 20.5202 74.2858 19.7745C74.2953 18.0389 74.3057 16.15 74.7826 14.5276C74.2519 14.1148 73.67 13.7532 73.0812 13.3873C72.3083 12.907 71.5236 12.4193 70.8274 11.799C71.3531 11.2733 71.9544 10.8728 72.545 10.4794Z" fill="#203662" fill-opacity="0.2"/>
</svg>
