<svg width="210" height="28" viewBox="0 0 210 28" fill="none" xmlns="http://www.w3.org/2000/svg">
<path d="M197.855 24.1845C197.151 24.8836 196.207 25.9371 195.388 26.9259C194.177 26.001 192.998 25.1785 192.308 24.6587V6.45611C192.308 5.55923 191.878 5.16636 191.461 4.96861V4.86711L195.658 1.78711L195.723 1.85361V23.2054C196.729 23.8117 197.144 24.0375 197.822 24.1154L197.855 24.1845Z" fill="#203662" fill-opacity="0.2"/>
<path d="M178.301 10.9893C177.621 12.4681 176.542 13.4271 175.155 13.4271C173.835 13.4271 173.302 13.0517 172.278 12.0726L171.972 12.3762V22.7309C173.534 23.6191 174.131 23.9454 174.612 23.9454C175.015 23.9454 175.327 23.7433 175.795 23.2699L176.033 23.5088C174.831 24.6909 173.714 25.8678 172.752 26.9257C171.353 25.9098 169.985 24.9718 168.557 24.0146V13.1208C168.064 12.6606 167.298 12.0306 166.63 11.8696L166.596 11.8004L168.895 9.23145C170.034 10.1773 170.878 10.8992 172.076 11.7681C173.079 10.8712 173.782 10.1852 174.682 9.26382C175.445 10.2202 176.845 10.8091 178.268 10.8869L178.301 10.9893Z" fill="#203662" fill-opacity="0.2"/>
<path d="M142.306 1.38019C141.409 3.41807 140.295 4.62732 138.819 4.62732C138.12 4.62732 136.703 3.91857 135.707 3.91857C134.587 3.91857 133.741 4.26594 133.102 5.40694L132.966 5.27132C133.253 2.45907 134.935 1.14307 136.891 1.14307C138.108 1.14307 139.313 1.88857 140.377 1.88857C141.024 1.88857 141.61 1.72494 142.236 1.24457L142.306 1.38019Z" fill="#203662" fill-opacity="0.2"/>
<path d="M156.109 1.58478C155.858 2.83603 154.866 3.96565 153.841 4.49415V23.066C154.835 23.3285 155.335 23.5447 156.074 24.0504L153.366 26.9248C152.36 26.0095 151.15 25.6044 149.95 25.6044C148.241 25.6044 146.955 26.2073 146.125 26.7874L146.093 26.6544C146.652 24.2762 148.536 22.8963 150.05 22.7633V14.6092H143.759V23.4064C143.957 23.5027 144.129 23.577 144.334 23.577C144.672 23.577 145.122 23.1255 145.451 22.6609L145.72 22.8963C144.903 23.885 143.467 25.5274 142.439 26.9248C140.87 25.8765 139.584 25.467 137.533 25.467C135.783 25.467 134.265 25.8993 133.171 26.5844L133.102 26.4147C134.111 23.9445 135.97 22.3205 139.259 22.3205C140.733 22.3205 141.88 22.6198 143.321 23.2358V0.772777H143.76V11.4277H150.051V4.66215C148.989 4.41628 148.078 3.99015 147.448 3.34178C148.28 2.52978 149.269 1.4719 150.051 0.603027C150.96 1.3914 152.116 1.9234 153.538 1.9234C154.394 1.9234 155.271 1.77378 156.04 1.44915L156.109 1.58478Z" fill="#203662" fill-opacity="0.2"/>
<path d="M142.135 4.62802C141.778 5.27465 141.628 6.18727 141.628 8.28202V16.1316C141.628 18.6464 139.787 20.7158 137.261 21.4753L137.097 21.3738C137.573 20.9511 137.872 20.224 137.872 19.4146V14.6091H136.993C135.641 14.6091 135.139 15.2829 134.997 16.031H134.896C134.508 15.7116 134.084 15.1298 134.084 14.0666C134.084 12.5231 135.303 11.4285 137.06 11.4285H137.872V9.7039C137.872 6.8059 139.645 5.27202 142.032 4.56152L142.135 4.62802Z" fill="#203662" fill-opacity="0.2"/>
<path d="M127.874 4.69613C127.318 5.27101 126.747 5.91763 125.979 6.82851C125.342 6.27201 124.486 5.66738 123.61 5.00063C124.229 4.34701 124.875 3.66188 125.575 2.80176C126.314 3.44576 127.103 4.10288 127.874 4.69613Z" fill="#203662" fill-opacity="0.2"/>
<path d="M129.867 24.1474C129.867 24.1474 128.98 25.1589 127.501 26.9255C126.57 26.1897 125.367 25.3112 124.421 24.6584V12.6814C123.743 12.1433 123.393 11.9342 123.037 11.8694L123 11.8003L125.268 9.26367C126.154 9.9488 126.92 10.5079 127.839 11.1589V23.205C128.779 23.7747 129.437 24.0319 129.835 24.0835L129.867 24.1474Z" fill="#203662" fill-opacity="0.2"/>
<path d="M122.934 24.1153C122.934 24.1153 122.272 24.8328 120.565 26.9258C119.544 26.1208 118.576 25.4129 117.487 24.6587V13.2565L114.781 11.5984L113.394 12.714V24.0514C113.884 24.355 114.373 24.6587 114.373 24.6587C113.75 25.2423 112.563 26.3693 112.007 26.9258C111.151 26.2407 109.976 25.335 109.976 25.335V13.1559L107.575 11.4978L105.882 12.8497V24.0505C106.191 24.2527 106.552 24.4784 106.83 24.6202C106.032 25.3744 105.199 26.175 104.496 26.9249C103.778 26.3457 102.983 25.706 102.465 25.3342V13.1559C101.349 12.1733 100.977 11.9624 100.403 11.902L100.368 11.8355C101.173 11.0288 102.067 10.1083 102.771 9.2648C103.839 10.1083 105.011 11.0559 106.256 12.0062C107.254 11.2292 108.378 10.3594 109.705 9.2998C110.792 10.0864 112.28 11.1233 113.494 12.0062C114.649 11.0909 115.728 10.2212 116.846 9.23242C117.825 9.91317 120.003 11.2178 120.902 11.8014V23.2053C121.622 23.669 122.266 23.9727 122.898 24.0514L122.934 24.1153Z" fill="#203662" fill-opacity="0.2"/>
<path d="M85.3457 4.69613C84.7892 5.27101 84.2187 5.91763 83.4531 6.82851C82.8161 6.27201 81.9603 5.66738 81.0845 5.00063C81.7005 4.34701 82.3515 3.66188 83.0462 2.80176C83.7891 3.44576 84.5775 4.10288 85.3457 4.69613Z" fill="#203662" fill-opacity="0.2"/>
<path d="M87.3416 24.1474C87.3416 24.1474 86.4544 25.1589 84.9748 26.9255C84.0438 26.1897 82.8406 25.3112 81.8956 24.6584V12.6814C81.2175 12.1433 80.8675 11.9342 80.5088 11.8694L80.4738 11.8003L82.7418 9.26367C83.6273 9.9488 84.3929 10.5079 85.3125 11.1589V23.205C86.2531 23.7747 86.9111 24.0319 87.3084 24.0835L87.3416 24.1474Z" fill="#203662" fill-opacity="0.2"/>
<path d="M58.5533 1.27961C57.6564 3.31748 56.5111 4.52673 55.0349 4.52673C54.3332 4.52673 52.9209 3.81623 51.9234 3.81623C50.8034 3.81623 49.9573 4.16536 49.3177 5.30636L49.1488 5.20486C49.4341 2.38998 51.1473 1.04248 53.1047 1.04248C54.3209 1.04248 55.5284 1.78798 56.5889 1.78798C57.2399 1.78798 57.8288 1.54911 58.3503 1.17898L58.5533 1.27961Z" fill="#203662" fill-opacity="0.2"/>
<path d="M34.4076 24.2168C33.7111 24.9116 32.9079 25.8767 32.004 26.9258C30.9295 26.1068 29.6284 25.1364 28.924 24.6587V13.7299C28.0385 13.0291 27.0909 12.3684 26.1511 11.6991C25.6498 12.1339 25.2726 12.4813 24.8308 12.8838V24.0506C25.1318 24.2763 25.3759 24.4233 25.746 24.6202L23.4465 26.9249C22.5663 26.2031 21.805 25.6693 21.3815 25.3342V6.49018C21.3815 5.66505 21.161 5.10593 20.671 4.83205V4.73143L24.7669 1.75293L24.8316 1.78793V12.3098L28.2835 9.2648C29.5619 10.2194 30.9146 11.1364 32.3426 11.9712V23.2053C33.1021 23.7111 33.7943 24.0514 34.3411 24.1477L34.4076 24.2168Z" fill="#203662" fill-opacity="0.2"/>
<path fill-rule="evenodd" clip-rule="evenodd" d="M203.571 26.9245C205.4 25.1955 207.396 23.5768 210 22.1182V10.7204C206.105 6.74879 202.742 3.30304 201.238 1.75342C200.449 2.44117 199.476 3.20679 198.296 4.05292L198.328 4.12204C198.901 4.32154 199.443 4.72404 200.189 5.47392L204.08 9.39917C202.214 10.4948 200.591 11.3781 199.123 12.1775C199.083 12.199 199.043 12.2206 199.004 12.242V23.7098C200.391 24.6434 202.148 25.8299 203.571 26.9245ZM206.583 11.9017V23.8113L205.976 24.2847C205.104 23.8297 203.416 22.721 202.424 21.9852V10.8184C202.646 10.6837 202.867 10.5591 203.097 10.4285C203.461 10.2222 203.851 10.0012 204.317 9.70279L206.583 11.9017Z" fill="#203662" fill-opacity="0.2"/>
<path fill-rule="evenodd" clip-rule="evenodd" d="M190.481 24.3864L188.347 26.888C187.206 26.0051 186.332 25.3384 184.866 24.2525C183.893 24.8127 183.223 25.2448 182.307 25.8353L182.307 25.8353L182.307 25.8353C181.83 26.1423 181.288 26.492 180.602 26.9248C178.85 25.936 177.624 24.2026 177.624 21.8148C177.624 19.9055 178.829 18.2868 181.21 17.4179C180.142 16.654 179.715 16.4011 178.812 15.9636V12.2746C180.834 11.2605 182.066 10.5728 183.986 9.26465C184.652 9.70846 185.248 10.1 185.862 10.5032L185.862 10.5032C186.698 11.0523 187.567 11.6229 188.689 12.3761V23.4396C189.627 24.1116 190.068 24.291 190.448 24.3181L190.481 24.3864ZM185.27 17.3811V13.8313C183.976 12.8976 183.088 12.2676 181.584 11.2605L181.379 11.3961V17.3811C182.017 17.2158 182.775 17.109 183.171 17.109C184.049 17.1099 184.678 17.2254 185.27 17.3811ZM185.27 17.8913V23.5079L182.97 24.8598C181.696 24.0233 181.04 22.6066 181.04 20.6974C181.04 18.9404 181.613 17.62 183.308 17.62C184.153 17.62 184.777 17.7399 185.27 17.8913Z" fill="#203662" fill-opacity="0.2"/>
<path fill-rule="evenodd" clip-rule="evenodd" d="M160.676 18.2639L166.697 14.5417C165.363 12.5344 164.25 10.8299 163.314 9.26367C161.884 10.297 159.009 12.2098 157.257 13.2563V24.0135C158.57 24.8824 160.101 25.963 161.419 26.9247C162.67 25.5177 163.96 24.262 165.241 23.0335L164.972 22.7623C164.885 22.8487 164.803 22.9307 164.726 23.008C164.085 23.6514 163.757 23.9812 163.347 23.9812C162.886 23.9812 162.364 23.6618 161.065 22.8666C160.942 22.7918 160.813 22.7127 160.676 22.6293V18.2639ZM160.945 11.361C161.661 12.6403 162.729 14.5075 163.617 15.9635L160.675 17.7905V11.529L160.945 11.361Z" fill="#203662" fill-opacity="0.2"/>
<path fill-rule="evenodd" clip-rule="evenodd" d="M100.64 24.3864L98.5074 26.888C97.3647 26.0051 96.4906 25.3384 95.0232 24.2525C94.0608 24.8066 93.3957 25.2354 92.495 25.816L92.4949 25.8161C92.0116 26.1277 91.4605 26.483 90.7593 26.9248C89.0093 25.936 87.7834 24.2026 87.7834 21.8148C87.7834 19.9055 88.9883 18.2868 91.3692 17.4179C90.2999 16.654 89.8747 16.4011 88.9682 15.9636V12.2746C90.9903 11.2605 92.2249 10.5728 94.1429 9.26465C94.7745 9.68473 95.343 10.058 95.9228 10.4386L95.9228 10.4386C96.7897 11.0078 97.6815 11.5933 98.8461 12.3761V23.4396C99.7867 24.1116 100.226 24.291 100.606 24.3181L100.64 24.3864ZM95.4301 17.3811V13.8313C94.1351 12.8976 93.2128 12.2676 91.7069 11.2605L91.5389 11.3961V17.3811C92.1759 17.2158 92.9328 17.109 93.3327 17.109C94.2068 17.1099 94.8351 17.2254 95.4301 17.3811ZM95.4301 17.8913V23.5079L93.1279 24.8598C91.8539 24.0233 91.2003 22.6066 91.2003 20.6974C91.2003 18.9404 91.7708 17.62 93.4657 17.62C94.3101 17.62 94.9374 17.7399 95.4301 17.8913Z" fill="#203662" fill-opacity="0.2"/>
<path fill-rule="evenodd" clip-rule="evenodd" d="M80.4746 23.9445C80.4746 23.9445 78.5724 25.7339 77.3631 26.9248C76.2729 25.936 74.7163 24.7259 73.4055 23.71C73.1406 23.9092 72.7707 24.1832 72.3547 24.4912L72.3545 24.4913C71.2135 25.3363 69.7261 26.4378 69.1093 26.9571C68.012 26.1661 66.4484 25.4346 64.2364 25.4346C62.7506 25.4346 61.6901 25.9404 60.8536 26.5153L60.7863 26.3499C61.2115 25.0391 62.4741 23.5254 64.0334 22.7624V14.6083H59.5674V23.3005C59.5674 25.6 58.0843 26.9895 55.6763 26.9895C54.8237 26.9895 53.9987 26.7754 53.1808 26.5632L53.1808 26.5631C52.3771 26.3546 51.5803 26.1478 50.771 26.1478C49.1111 26.1478 48.4164 26.6071 47.7951 27.3623L47.593 27.2975C47.726 24.676 49.1181 23.066 51.6863 23.066C52.5009 23.066 53.3516 23.2626 54.2171 23.4627L54.2171 23.4627C55.1134 23.6698 56.0256 23.8806 56.9301 23.8806C58.5034 23.8806 59.129 23.3521 59.129 21.7465V3.88426C58.6986 4.12518 58.4113 4.29761 58.1495 4.45468L58.1495 4.4547C57.9388 4.58115 57.7447 4.69764 57.5059 4.83189V17.4818C57.5059 20.2048 55.1714 21.5566 52.4991 21.8148L52.4641 21.7456C53.1676 21.309 53.7154 20.2188 53.7154 18.7698V14.6091H53.1388C51.7869 14.6091 51.2855 15.317 51.1429 16.0651L51.0414 16.031C50.6529 15.7116 50.1953 15.1298 50.1953 14.0666C50.1953 12.5231 51.4509 11.4285 53.2061 11.4285H53.7145V9.53589C53.7145 7.13489 55.237 5.68151 57.4035 4.42589L64.2364 0.468262L64.3749 0.568719L64.3749 0.568743C65.6813 1.51666 67.301 2.69179 68.6359 3.57976L73.9139 0.569762C74.8335 1.63201 75.8048 2.43264 77.5311 2.43264C78.4394 2.43264 79.2356 2.27601 79.6976 2.09226L79.7641 2.19551C79.5804 3.36189 78.9591 4.44689 77.8365 5.06989V22.6303C78.9451 23.3469 79.7799 23.8675 80.4423 23.8815L80.4746 23.9445ZM74.0819 11.4285V4.96839C72.6101 4.64376 71.6144 3.83701 70.7656 2.80189L69.783 3.41089V11.4285H74.0819ZM69.3455 3.61301V23.0336C69.1836 22.9798 69.0383 22.927 68.8995 22.8765L68.8995 22.8765C68.5419 22.7465 68.2283 22.6325 67.7889 22.5594V4.52564L69.3455 3.61301ZM63.9993 11.4285V4.89926C63.9993 4.89926 62.0559 3.49839 61.0558 2.76689L59.5683 3.64801V11.4285H63.9993ZM74.0819 14.6091V22.6941C73.7021 22.9925 73.0328 23.5394 73.0328 23.5403L73.0168 23.5531C72.7059 23.8037 72.3584 24.0836 72.0186 24.0836C71.4492 24.0836 70.9916 23.8319 70.0906 23.3363C69.9934 23.2829 69.8911 23.2266 69.783 23.1675V14.6091H74.0819Z" fill="#203662" fill-opacity="0.2"/>
<path fill-rule="evenodd" clip-rule="evenodd" d="M39.0075 18.2639L45.0302 14.5417C43.6958 12.5344 42.5837 10.8299 41.6457 9.26367C40.2177 10.297 37.3424 12.2098 35.5924 13.2563V24.0135C36.9005 24.8824 38.4668 25.963 39.7872 26.9247C41.0384 25.5177 42.294 24.262 43.575 23.0335L43.3055 22.7623C43.2191 22.8486 43.1378 22.9303 43.061 23.0076C42.4213 23.6512 42.0933 23.9812 41.6824 23.9812C41.2208 23.9812 40.6995 23.6627 39.4021 22.8701C39.2779 22.7942 39.1466 22.714 39.0075 22.6293V18.2639ZM39.2788 11.361C39.9919 12.6403 41.0629 14.5075 41.951 15.9635L39.0075 17.7905V11.529L39.2788 11.361Z" fill="#203662" fill-opacity="0.2"/>
<path fill-rule="evenodd" clip-rule="evenodd" d="M10.3189 27.5329C15.7649 27.5329 18.9499 24.5606 20.0952 20.5644L19.9955 20.4314C18.8248 21.8936 17.2996 23.4896 15.0553 24.1476V7.36944C18.3645 7.36944 19.6569 6.08144 19.6569 3.85107C19.6569 2.15882 18.5876 0.976691 17.1868 0.502441L16.982 0.638066C17.5481 1.07469 17.7966 1.49557 17.7966 2.26119C17.7966 3.15807 17.1964 3.71719 15.9679 3.71719C14.7406 3.71719 12.8698 3.1406 11.4909 2.71564C11.2782 2.65008 11.0772 2.58812 10.892 2.53244C8.96438 1.94882 7.08575 1.41507 5.85288 1.41507C2.82888 1.41507 0 2.64094 0 5.95019C0 7.18482 0.623 8.16919 1.42188 8.79132L1.624 8.75632C1.33875 8.29344 1.14975 7.79294 1.14975 7.23382C1.14975 5.60544 2.443 5.10144 4.29625 5.10144C5.71462 5.10144 7.70875 5.64919 9.60487 6.18644C9.86139 6.25857 10.1287 6.33575 10.4027 6.4149C11.8077 6.82061 13.3908 7.27778 14.6143 7.36857V24.2526C13.7743 24.4503 13.167 24.5238 12.4154 24.5238C9.52962 24.5238 7.41125 23.3697 5.9185 21.4753C7.2065 20.7937 10.2559 19.1154 11.739 18.2964V18.2273C11.5666 18.0348 11.3663 17.5194 11.3663 17.1791V9.16319L4.83787 12.0384C5.558 9.99357 6.73138 8.66444 8.11738 7.09819L7.95025 6.99669C3.22438 8.75894 0.33775 12.7944 0.33775 17.1467C0.33775 23.2183 4.15275 27.5329 10.3189 27.5329ZM7.64487 11.2929V20.0902C7.18365 20.354 6.47773 20.7323 5.8655 21.0603C5.8157 21.087 5.76651 21.1134 5.71812 21.1393C4.68475 19.5608 4.29625 17.7636 4.29625 15.5236C4.29625 14.4779 4.39512 13.5644 4.634 12.6124C5.17966 12.3605 5.7646 12.1092 6.34029 11.8618C6.78839 11.6692 7.23088 11.4791 7.64487 11.2929Z" fill="#203662" fill-opacity="0.2"/>
</svg>
