<svg width="64" height="25" viewBox="0 0 64 25" fill="none" xmlns="http://www.w3.org/2000/svg">
<path d="M12.6463 0.727051C5.4612 0.727051 0.453613 6.18132 0.453613 12.8154V12.8955C0.453613 19.6116 5.56322 24.9256 12.4644 24.9256C16.9622 24.9256 19.6496 23.3169 22.0516 20.7312L18.7742 17.4368C16.9414 19.1041 15.2909 20.1854 12.6245 20.1854C8.61509 20.1854 5.82703 16.8235 5.82703 12.8154V12.7548C5.82703 8.74539 8.67631 5.4673 12.6245 5.4673C14.9652 5.4673 16.7973 6.4649 18.6092 8.11399L21.8866 4.32712C19.7087 2.19087 17.0634 0.727051 12.6463 0.727051Z" fill="#203662" fill-opacity="0.2"/>
<path fill-rule="evenodd" clip-rule="evenodd" d="M23.9899 1.13232V24.5158H35.1224C40.3927 24.5158 43.8727 22.3814 43.8727 18.1089V18.0264C43.8727 14.8924 42.2058 13.3236 39.4964 12.2867C41.1663 11.3515 42.57 9.88636 42.57 7.2408V7.18015C42.57 5.57014 42.0402 4.26805 40.9616 3.18951C39.62 1.86737 37.5233 1.13232 34.8556 1.13232H23.9899ZM28.9945 5.62998H34.0841C36.2621 5.62998 37.461 6.50501 37.461 8.03165V8.11413C37.461 9.84397 36.0168 10.5764 33.7372 10.5764L28.9945 10.5789V5.62998ZM34.9599 14.8533H28.9945V20.0036L35.1224 20.0012C37.3811 20.0012 38.7637 19.208 38.7637 17.4782V17.3981C38.7637 15.8311 37.5833 14.8533 34.9599 14.8533Z" fill="#203662" fill-opacity="0.2"/>
<path d="M53.9622 0.787598C49.1999 0.787598 45.782 3.59537 45.782 7.84703V7.91011C45.782 12.5525 48.8329 13.8559 53.5352 15.0569C57.443 16.0729 58.2561 16.7236 58.2561 18.0262V18.1087C58.2561 19.4712 56.9726 20.3066 54.8768 20.3066C52.1895 20.3066 49.9921 19.2054 47.895 17.4755L44.8431 21.1193C47.6515 23.6228 51.2331 24.8455 54.7749 24.8455V24.8431C59.8224 24.8431 63.3626 22.2365 63.3626 17.5992V17.5386C63.3626 13.4485 60.6772 11.7556 55.9345 10.5156C51.9055 9.47608 50.8861 8.96854 50.8861 7.4419V7.38126C50.8861 6.24149 51.9244 5.3265 53.8991 5.3265C55.8738 5.3265 57.9094 6.19998 59.9858 7.64325L62.6518 3.75935C60.2902 1.86669 57.3815 0.787598 53.9622 0.787598Z" fill="#203662" fill-opacity="0.2"/>
</svg>
