<svg width="252" height="235" viewBox="0 0 252 235" fill="none" xmlns="http://www.w3.org/2000/svg">
<path fill-rule="evenodd" clip-rule="evenodd" d="M20.0973 140.811L103.71 187.09C108.716 189.856 115.02 188.401 118.31 183.722L220.836 36.5354C224.396 31.4685 223.175 24.4725 218.108 20.911C213.043 17.3513 206.047 18.5707 202.485 23.6393L105.744 162.591L30.9427 121.179C25.5236 118.183 18.701 120.15 15.7045 125.572C12.7098 130.991 14.6765 137.814 20.0973 140.811Z" fill="#23A4EF" fill-opacity="0.03"/>
<path fill-rule="evenodd" clip-rule="evenodd" d="M5.79314 173.87L114.366 233.603C119.371 236.369 125.677 234.914 128.964 230.235L249.027 57.9896C252.588 52.9245 251.367 45.9267 246.298 42.367C241.233 38.8055 234.237 40.0266 230.676 45.0935L116.401 209.104L16.6385 154.239C11.2194 151.242 4.39679 153.209 1.40029 158.632C-1.59443 164.051 0.372253 170.873 5.79314 173.87Z" fill="#23A4EF" fill-opacity="0.03"/>
<path fill-rule="evenodd" clip-rule="evenodd" d="M37.1933 109.981L92.3122 140.879C97.3165 143.643 103.622 142.189 106.91 137.511L189.575 17.6629C193.137 12.5978 191.916 5.60001 186.847 2.04032C181.782 -1.52116 174.786 -0.300031 171.224 4.76685L94.3468 116.378L48.0386 90.3496C42.6195 87.3531 35.7969 89.3198 32.8004 94.7424C29.8057 100.162 31.7724 106.984 37.1933 109.981Z" fill="#23A4EF" fill-opacity="0.03"/>
</svg>
