<svg width="50" height="40" viewBox="0 0 50 40" fill="none" xmlns="http://www.w3.org/2000/svg">
<path d="M48.404 11.2237L28.4749 1.48819L5.5106 30.9174C6.52901 30.4597 7.19467 29.4107 7.19467 28.2547C7.19467 27.0235 6.45412 26.0204 5.41919 25.5766V17.7279L8.1547 19.0698V30.8892C8.1547 31.0962 8.2241 31.2965 8.35171 31.4879L8.35615 31.4946L8.36129 31.5007C8.37172 31.5133 8.38881 31.5349 8.41257 31.5651C9.04538 32.3674 14.4121 39.1721 24.9714 39.1721C35.6229 39.1721 40.9905 32.1943 41.4947 31.5388C41.5092 31.5201 41.5196 31.5065 41.5261 31.4984L41.5265 31.4988L41.5337 31.4879C41.6614 31.2965 41.7308 31.0962 41.7308 30.8892V19.127L48.404 15.8469C48.4042 15.8468 48.4044 15.8467 48.4046 15.8466C49.1432 15.492 49.582 15.0581 49.8351 14.6362C50.0878 14.2151 50.15 13.815 50.15 13.5353V13.527L50.1491 13.5187C50.1196 13.2537 50.0594 12.8568 49.8147 12.4361C49.569 12.014 49.1444 11.5792 48.4045 11.2239C48.4043 11.2238 48.4042 11.2238 48.404 11.2237ZM10.3447 30.55V20.0162L21.9857 25.5836L21.987 25.5842C22.8696 25.9961 24.0376 26.2283 25.2005 26.2283C26.4185 26.2283 27.5892 25.9969 28.4761 25.5245L39.598 20.0759V30.55C38.6137 31.7642 33.7376 37.0966 24.9714 37.0966C16.2051 37.0966 11.329 31.7642 10.3447 30.55ZM2.06439 13.6623C2.03407 13.6297 2.01257 13.6014 1.99792 13.5799C2.01042 13.561 2.03026 13.5356 2.06053 13.5053C2.1377 13.4282 2.2786 13.3231 2.52369 13.2142L2.52372 13.2142L2.52772 13.2123L22.9157 3.4192C23.5227 3.14364 24.3593 2.97511 25.2005 2.97511C26.1035 2.97511 26.9944 3.1452 27.5389 3.41747L27.5401 3.41807L47.4714 13.1546L47.4713 13.1547L47.4763 13.1569C47.8724 13.3329 47.98 13.4893 48.008 13.5577C47.9882 13.5829 47.9586 13.6177 47.918 13.6583C47.828 13.7483 47.6837 13.867 47.4708 13.9735C47.4706 13.9737 47.4704 13.9738 47.4701 13.9739L40.6284 17.3377C40.3336 17.3467 40.0727 17.4669 39.9257 17.7168L27.5406 23.7096L27.5406 23.7095L27.5364 23.7117C26.9648 24.0111 26.1042 24.1671 25.2219 24.1671C24.3402 24.1671 23.4638 24.0113 22.8621 23.7104L22.8598 23.7093L8.03478 16.6022L25.1025 14.6008C25.1026 14.6007 25.1028 14.6007 25.103 14.6007C25.699 14.5342 26.104 14.003 26.0367 13.4604C25.9699 12.8645 25.4386 12.4598 24.896 12.5273C24.8958 12.5273 24.8957 12.5273 24.8955 12.5274L4.54978 14.9277L2.52682 13.9724L2.52684 13.9724L2.52369 13.971C2.2839 13.8644 2.14323 13.7472 2.06439 13.6623Z" fill="#23A4EF" stroke="#23A4EF" stroke-width="0.3"/>
</svg>
