<svg width="40" height="40" viewBox="0 0 40 40" fill="none" xmlns="http://www.w3.org/2000/svg">
<path d="M23.8058 0.000976562C14.8628 0.000976562 7.6139 7.2499 7.6139 16.1928C7.6139 20.0414 8.96409 23.5712 11.206 26.3563L0.504447 37.0553C-0.168149 37.7304 -0.168149 38.8215 0.504447 39.4941C1.17704 40.1691 2.27058 40.1691 2.94318 39.4941L13.6447 28.795C16.4248 31.0344 19.957 32.3846 23.8082 32.3846C32.7511 32.3846 40.0001 25.1357 40.0001 16.1928C40.0001 7.24981 32.7461 0.000976562 23.8058 0.000976562ZM23.8058 29.8935C16.2479 29.8935 10.105 23.7481 10.105 16.1928C10.105 8.63745 16.2528 2.49199 23.8058 2.49199C31.3587 2.49199 37.5065 8.63745 37.5065 16.1928C37.5065 23.7481 31.3611 29.8935 23.8058 29.8935Z" fill="#23A4EF"/>
</svg>
