<svg width="23" height="23" viewBox="0 0 23 23" fill="none" xmlns="http://www.w3.org/2000/svg">
<g opacity="0.2" clip-path="url(#clip0)">
<path d="M11.5 0H6.51667C6.30497 0 6.13333 0.171639 6.13333 0.383333V3.06667H0.383333C0.171639 3.06667 0 3.23831 0 3.45V22.6167C0 22.8284 0.171639 23 0.383333 23H11.5C11.7117 23 11.8833 22.8284 11.8833 22.6167V0.383333C11.8833 0.171639 11.7117 0 11.5 0ZM11.1167 19.9333H6.9V19.1667H11.1167V19.9333ZM0.766667 5.75H6.13333V17.25H0.766667V5.75ZM11.1167 4.21667H6.9V3.06667H11.1167V4.21667ZM0.766667 18.0167H6.13333V19.1667H0.766667V18.0167ZM6.9 18.4V4.98333H11.1167V18.4H6.9ZM11.1167 0.766667V2.3H6.9V0.766667H11.1167ZM6.13333 3.83333V4.98333H0.766667V3.83333H6.13333ZM0.766667 19.9333H6.13333V22.2333H0.766667V19.9333ZM6.9 22.2333V20.7H11.1167V22.2333H6.9Z" fill="white" stroke="white" stroke-width="0.3"/>
<path d="M22.9877 20.9869L18.3877 3.35358C18.3621 3.25475 18.2981 3.17033 18.2097 3.11886C18.1216 3.06757 18.0166 3.05354 17.9179 3.07993L12.1679 4.61326C11.9643 4.66754 11.8426 4.87605 11.8958 5.08007L16.4958 22.7134C16.5214 22.8122 16.5856 22.8967 16.674 22.9479C16.7621 22.999 16.8671 23.0129 16.9656 22.9863L22.7156 21.453C22.9189 21.3987 23.0403 21.1906 22.9877 20.9869ZM13.3447 7.59701L18.354 6.26152L18.5343 6.95145L13.5253 8.28899L13.3447 7.59701ZM18.7278 7.69528L20.9511 16.2235L15.9436 17.5596L13.7203 9.03077L18.7278 7.69528ZM21.1463 16.9657L21.5388 18.47L16.5295 19.8055L16.1385 18.3017L21.1463 16.9657ZM17.7431 3.91978L18.1605 5.52012L13.1512 6.85524L12.7341 5.25564L17.7431 3.91978ZM17.1404 22.1472L16.723 20.5469L21.7324 19.211L22.1494 20.8106L17.1404 22.1472Z" fill="white" stroke="white" stroke-width="0.3"/>
<path d="M4.98332 6.8999H1.91666C1.70496 6.8999 1.53333 7.07154 1.53333 7.28324V10.3499C1.53333 10.5616 1.70496 10.7332 1.91666 10.7332H4.98332C5.19502 10.7332 5.36666 10.5616 5.36666 10.3499V7.28324C5.36666 7.07154 5.19502 6.8999 4.98332 6.8999ZM4.59999 9.96657H2.29999V7.66657H4.59999V9.96657Z" fill="white" stroke="white" stroke-width="0.3"/>
</g>
<defs>
<clipPath id="clip0">
<rect width="23" height="23" fill="white"/>
</clipPath>
</defs>
</svg>
