<svg width="743" height="731" viewBox="0 0 743 731" fill="none" xmlns="http://www.w3.org/2000/svg">
<path d="M530.207 537.559C421 600.5 249.5 609.5 139.914 537.559C50.7278 432.528 69.6388 313.655 165.723 232.067C261.806 150.478 546.89 127.037 636.076 232.067C683.183 287.543 587.768 307.099 579.718 385.866C572.527 456.227 575.54 499.064 530.207 537.559Z" fill="#23A4EF" fill-opacity="0.04"/>
<g filter="url(#filter0_d)">
<rect x="126" y="514" width="317" height="465" transform="rotate(-90 126 514)" fill="white"/>
</g>
<path d="M276.606 242.509V250.237H272.434V230.609H285.958V234.445H276.606V238.701H285.314V242.509H276.606ZM297.237 236.349V240.185H296.621C295.445 240.185 294.512 240.559 293.821 241.305C293.149 242.052 292.813 243.116 292.813 244.497V250.237H288.837V236.517H292.757V237.749C293.579 236.797 294.717 236.321 296.173 236.321C296.715 236.321 297.069 236.331 297.237 236.349ZM300.598 248.501C299.217 247.12 298.526 245.412 298.526 243.377C298.526 241.343 299.217 239.635 300.598 238.253C302.017 236.872 303.743 236.181 305.778 236.181C307.831 236.181 309.549 236.872 310.93 238.253C312.33 239.635 313.03 241.343 313.03 243.377C313.03 245.412 312.339 247.12 310.958 248.501C309.595 249.864 307.869 250.545 305.778 250.545C303.687 250.545 301.961 249.864 300.598 248.501ZM305.778 239.905C304.845 239.905 304.079 240.232 303.482 240.885C302.885 241.539 302.586 242.369 302.586 243.377C302.586 244.385 302.885 245.216 303.482 245.869C304.079 246.523 304.845 246.849 305.778 246.849C306.711 246.849 307.477 246.523 308.074 245.869C308.671 245.216 308.97 244.385 308.97 243.377C308.97 242.369 308.671 241.539 308.074 240.885C307.477 240.232 306.711 239.905 305.778 239.905ZM325.175 249.257V248.893C324.41 249.584 323.299 249.929 321.843 249.929C319.864 249.929 318.25 249.313 316.999 248.081C315.748 246.849 315.123 245.179 315.123 243.069C315.123 240.941 315.776 239.261 317.083 238.029C318.39 236.797 319.976 236.181 321.843 236.181C323.15 236.181 324.288 236.62 325.259 237.497V236.517H329.179V248.809C329.179 250.937 328.516 252.664 327.191 253.989C325.866 255.315 324.055 255.977 321.759 255.977C319.071 255.977 316.99 255.053 315.515 253.205L318.287 250.545C319.09 251.721 320.238 252.309 321.731 252.309C322.776 252.309 323.607 252.029 324.223 251.469C324.858 250.909 325.175 250.172 325.175 249.257ZM325.259 243.069C325.259 242.117 324.96 241.333 324.363 240.717C323.784 240.101 323.066 239.793 322.207 239.793C321.348 239.793 320.63 240.101 320.051 240.717C319.472 241.333 319.183 242.117 319.183 243.069C319.183 244.003 319.472 244.777 320.051 245.393C320.63 246.009 321.348 246.317 322.207 246.317C323.066 246.317 323.784 246.009 324.363 245.393C324.96 244.777 325.259 244.003 325.259 243.069ZM339.51 234.445V230.609H354.91V234.445H349.282V250.237H345.138V234.445H339.51ZM363.676 243.545V236.517H367.68V250.237H363.76V249.285C362.939 250.125 361.8 250.545 360.344 250.545C358.739 250.545 357.479 250.023 356.564 248.977C355.668 247.913 355.22 246.42 355.22 244.497V236.517H359.224V244.329C359.224 245.113 359.401 245.739 359.756 246.205C360.129 246.653 360.652 246.877 361.324 246.877C362.892 246.877 363.676 245.767 363.676 243.545ZM376.489 250.293C373.297 250.293 371.701 248.66 371.701 245.393V240.185H369.909V236.517H371.701V232.681H375.649V236.517H378.701V240.185H375.649V244.917C375.649 245.552 375.789 245.991 376.069 246.233C376.367 246.476 376.834 246.597 377.469 246.597H378.645V250.237C377.711 250.275 376.993 250.293 376.489 250.293ZM382.848 248.501C381.467 247.12 380.776 245.412 380.776 243.377C380.776 241.343 381.467 239.635 382.848 238.253C384.267 236.872 385.993 236.181 388.028 236.181C390.081 236.181 391.799 236.872 393.18 238.253C394.58 239.635 395.28 241.343 395.28 243.377C395.28 245.412 394.589 247.12 393.208 248.501C391.845 249.864 390.119 250.545 388.028 250.545C385.937 250.545 384.211 249.864 382.848 248.501ZM388.028 239.905C387.095 239.905 386.329 240.232 385.732 240.885C385.135 241.539 384.836 242.369 384.836 243.377C384.836 244.385 385.135 245.216 385.732 245.869C386.329 246.523 387.095 246.849 388.028 246.849C388.961 246.849 389.727 246.523 390.324 245.869C390.921 245.216 391.22 244.385 391.22 243.377C391.22 242.369 390.921 241.539 390.324 240.885C389.727 240.232 388.961 239.905 388.028 239.905ZM406.421 236.349V240.185H405.805C404.629 240.185 403.696 240.559 403.005 241.305C402.333 242.052 401.997 243.116 401.997 244.497V250.237H398.021V236.517H401.941V237.749C402.762 236.797 403.901 236.321 405.357 236.321C405.898 236.321 406.253 236.331 406.421 236.349ZM412.938 250.237H408.934V236.517H412.938V250.237ZM408.626 232.625C408.626 231.972 408.85 231.421 409.298 230.973C409.746 230.525 410.288 230.301 410.922 230.301C411.576 230.301 412.126 230.525 412.574 230.973C413.022 231.421 413.246 231.972 413.246 232.625C413.246 233.26 413.013 233.801 412.546 234.249C412.098 234.697 411.557 234.921 410.922 234.921C410.288 234.921 409.746 234.697 409.298 234.249C408.85 233.801 408.626 233.26 408.626 232.625ZM420.891 243.377V250.237H416.915V236.517H420.835V237.469C421.713 236.611 422.795 236.181 424.083 236.181C425.801 236.181 427.163 236.723 428.171 237.805C429.179 238.869 429.683 240.353 429.683 242.257V250.237H425.679V242.565C425.679 241.744 425.483 241.091 425.091 240.605C424.718 240.12 424.158 239.877 423.411 239.877C421.731 239.877 420.891 241.044 420.891 243.377ZM437.329 250.237H433.325V236.517H437.329V250.237ZM433.017 232.625C433.017 231.972 433.241 231.421 433.689 230.973C434.137 230.525 434.678 230.301 435.313 230.301C435.966 230.301 436.517 230.525 436.965 230.973C437.413 231.421 437.637 231.972 437.637 232.625C437.637 233.26 437.404 233.801 436.937 234.249C436.489 234.697 435.948 234.921 435.313 234.921C434.678 234.921 434.137 234.697 433.689 234.249C433.241 233.801 433.017 233.26 433.017 232.625Z" fill="#203662"/>
<rect x="156" y="311" width="168" height="91" fill="#CCCCCC" fill-opacity="0.3"/>
<rect x="339" y="311" width="222" height="8" fill="#CCCCCC" fill-opacity="0.2"/>
<rect x="339" y="327" width="222" height="8" fill="#CCCCCC" fill-opacity="0.2"/>
<rect x="339" y="343" width="222" height="8" fill="#CCCCCC" fill-opacity="0.2"/>
<rect x="339" y="359" width="222" height="8" fill="#CCCCCC" fill-opacity="0.2"/>
<rect x="339" y="375" width="132" height="8" fill="#CCCCCC" fill-opacity="0.2"/>
<rect x="339" y="391" width="132" height="8" fill="#CCCCCC" fill-opacity="0.2"/>
<rect x="156" y="412" width="405" height="8" fill="#CCCCCC" fill-opacity="0.3"/>
<rect x="156" y="428" width="405" height="8" fill="#CCCCCC" fill-opacity="0.3"/>
<rect x="156" y="444" width="405" height="8" fill="#CCCCCC" fill-opacity="0.3"/>
<rect x="156" y="460" width="405" height="8" fill="#CCCCCC" fill-opacity="0.3"/>
<rect x="156" y="476" width="405" height="8" fill="#CCCCCC" fill-opacity="0.3"/>
<line x1="156" y1="280.5" x2="561" y2="280.5" stroke="#D5E0FD" stroke-opacity="0.3"/>
<path d="M263.406 351.188C267.807 351.188 271.375 347.62 271.375 343.219C271.375 338.818 267.807 335.25 263.406 335.25C259.005 335.25 255.438 338.818 255.438 343.219C255.438 347.62 259.005 351.188 263.406 351.188Z" fill="#979797" fill-opacity="0.2"/>
<path d="M250.714 356.611C245.885 356.611 246.385 366.896 239.771 366.896C233.173 366.896 229.581 340.584 221.373 340.584C213.171 340.584 207.646 377.883 207.646 377.883H272.172C272.172 377.883 255.549 356.611 250.714 356.611Z" fill="#979797" fill-opacity="0.2"/>
<defs>
<filter id="filter0_d" x="86" y="166" width="545" height="397" filterUnits="userSpaceOnUse" color-interpolation-filters="sRGB">
<feFlood flood-opacity="0" result="BackgroundImageFix"/>
<feColorMatrix in="SourceAlpha" type="matrix" values="0 0 0 0 0 0 0 0 0 0 0 0 0 0 0 0 0 0 127 0"/>
<feOffset dy="9"/>
<feGaussianBlur stdDeviation="20"/>
<feColorMatrix type="matrix" values="0 0 0 0 0 0 0 0 0 0 0 0 0 0 0 0 0 0 0.08 0"/>
<feBlend mode="normal" in2="BackgroundImageFix" result="effect1_dropShadow"/>
<feBlend mode="normal" in="SourceGraphic" in2="effect1_dropShadow" result="shape"/>
</filter>
</defs>
</svg>
