<svg width="21" height="20" viewBox="0 0 21 20" fill="none" xmlns="http://www.w3.org/2000/svg">
<g clip-path="url(#clip0)">
<path d="M10.1636 0C4.55914 0 0 4.48578 0 10C0 15.5142 4.55914 20 10.1636 20C15.768 20 20.3271 15.5142 20.3271 10C20.3271 4.48578 15.768 0 10.1636 0Z" fill="#69C153"/>
<path d="M15.3148 7.88074L9.80948 13.2973C9.64431 13.4598 9.42751 13.5416 9.2107 13.5416C8.99389 13.5416 8.77709 13.4598 8.61192 13.2973L5.85934 10.589C5.52809 10.2632 5.52809 9.73651 5.85934 9.41074C6.19045 9.08481 6.72564 9.08481 7.0569 9.41074L9.2107 11.5299L14.1172 6.70245C14.4483 6.37653 14.9835 6.37653 15.3148 6.70245C15.6459 7.02823 15.6459 7.55481 15.3148 7.88074Z" fill="#FAFAFA"/>
</g>
<defs>
<clipPath id="clip0">
<rect width="20.3271" height="20" fill="white"/>
</clipPath>
</defs>
</svg>
