<svg width="24" height="24" viewBox="0 0 24 24" fill="none" xmlns="http://www.w3.org/2000/svg">
<path d="M12.6346 23.6068L12.6346 23.6068L19.1616 12.709C19.9308 11.4219 20.3375 9.9448 20.3375 8.4375C20.3375 3.84029 16.5972 0.1 12 0.1C7.40279 0.1 3.6625 3.84029 3.6625 8.4375C3.6625 9.99086 4.09276 11.5066 4.90695 12.8216L12.6346 23.6068ZM12.6346 23.6068C12.5266 23.7871 12.3326 23.8982 12.1224 23.9H12.1224H12.1224H12.1223H12.1223H12.1223H12.1223H12.1223H12.1222H12.1222H12.1222H12.1222H12.1221H12.1221H12.1221H12.1221H12.1221H12.122H12.122H12.122H12.122H12.122H12.1219H12.1219H12.1219H12.1219H12.1218H12.1218H12.1218H12.1218H12.1218H12.1217H12.1217H12.1217H12.1217H12.1216H12.1216H12.1216H12.1216H12.1216H12.1215H12.1215H12.1215H12.1215H12.1215H12.1214H12.1214H12.1214H12.1214H12.1213H12.1213H12.1213H12.1213H12.1213H12.1212H12.1212H12.1212H12.1212H12.1211H12.1211H12.1211H12.1211H12.1211H12.121H12.121H12.121H12.121H12.1209H12.1209H12.1209H12.1209H12.1209H12.1208H12.1208H12.1208H12.1208H12.1208H12.1207H12.1207H12.1207H12.1207H12.1206H12.1206H12.1206H12.1206H12.1206H12.1205H12.1205H12.1205H12.1205H12.1205H12.1204H12.1204H12.1204H12.1204H12.1203H12.1203H12.1203H12.1203H12.1203H12.1202H12.1202H12.1202H12.1202H12.1201H12.1201H12.1201H12.1201H12.1201H12.12H12.12H12.12H12.12H12.12H12.1199H12.1199H12.1199H12.1199H12.1198H12.1198H12.1198H12.1198H12.1198H12.1197H12.1197H12.1197H12.1197H12.1196H12.1196H12.1196H12.1196H12.1196H12.1195H12.1195H12.1195H12.1195H12.1195H12.1194H12.1194H12.1194H12.1194H12.1193H12.1193H12.1193H12.1193H12.1193H12.1192H12.1192H12.1192H12.1192H12.1191H12.1191H12.1191H12.1191H12.1191H12.119H12.119H12.119H12.119H12.119H12.1189H12.1189H12.1189H12.1189H12.1188H12.1188H12.1188H12.1188H12.1188H12.1187H12.1187H12.1187H12.1187H12.1186H12.1186H12.1186H12.1186H12.1186H12.1185H12.1185H12.1185H12.1185H12.1185H12.1184H12.1184H12.1184H12.1184H12.1183H12.1183H12.1183H12.1183H12.1183H12.1182H12.1182H12.1182H12.1182H12.1181H12.1181H12.1181H12.1181H12.1181H12.118H12.118H12.118H12.118H12.118H12.1179H12.1179H12.1179H12.1179H12.1178H12.1178H12.1178H12.1178H12.1178H12.1177H12.1177H12.1177H12.1177H12.1176H12.1176H12.1176H12.1176H12.1176H12.1175H12.1175H12.1175H12.1175H12.1174H12.1174H12.1174H12.1174H12.1174H12.1173H12.1173H12.1173H12.1173H12.1172H12.1172H12.1172H12.1172H12.1172H12.1171C11.9086 23.9 11.7147 23.7922 11.6047 23.6149L4.90701 12.8217L12.6346 23.6068ZM18.1264 12.0897L18.1264 12.0896C18.7836 10.99 19.1359 9.72699 19.1359 8.4375C19.1359 4.50533 15.9323 1.29687 12 1.29687C8.06774 1.29687 4.85938 4.50524 4.85938 8.4375C4.85938 9.76663 5.23667 11.0628 5.93218 12.1861L5.93223 12.1861L12.0215 21.9989L12.108 22.1383L12.1923 21.9976L18.1264 12.0897Z" fill="#23A4EF" stroke="#23A4EF" stroke-width="0.2"/>
<path d="M7.88125 8.4375C7.88125 6.16651 9.72901 4.31875 12 4.31875C14.271 4.31875 16.1187 6.16651 16.1187 8.4375C16.1187 10.6698 14.3293 12.5562 12 12.5562C9.69892 12.5562 7.88125 10.6943 7.88125 8.4375ZM9.07813 8.4375C9.07813 10.0473 10.3858 11.3594 12 11.3594C13.6403 11.3594 14.9172 10.0233 14.9172 8.4375C14.9172 6.83168 13.6063 5.51563 12 5.51563C10.394 5.51563 9.07813 6.83146 9.07813 8.4375Z" fill="#23A4EF" stroke="#23A4EF" stroke-width="0.2"/>
</svg>
