<svg width="20" height="20" viewBox="0 0 20 20" fill="none" xmlns="http://www.w3.org/2000/svg">
<path d="M18.6854 17.7944H0.89C0.398333 17.7944 0 18.1928 0 18.6849C0 19.1761 0.398333 19.5744 0.89 19.5744H18.685C19.1767 19.5744 19.575 19.1761 19.575 18.6849C19.5746 18.1928 19.1763 17.7944 18.6854 17.7944Z" fill="#302A32"/>
<path fill-rule="evenodd" clip-rule="evenodd" d="M1.11206 16.3705C1.11206 15.8788 1.51039 15.4805 2.00206 15.4805V15.4801H2.22456V7.47217H2.00206C1.75664 7.47217 1.55748 7.27301 1.55748 7.02759C1.55748 6.78217 1.75623 6.58301 2.00206 6.58301H17.5729C17.8183 6.58301 18.0175 6.78217 18.0175 7.02759C18.0175 7.27301 17.8191 7.47217 17.5729 7.47217H17.3508V15.4805H17.5729C18.0646 15.4805 18.4629 15.8788 18.4629 16.3705C18.4629 16.8622 18.0646 17.2609 17.5729 17.2609H2.00206C1.51039 17.2609 1.11206 16.8622 1.11206 16.3705ZM15.5708 15.4801V7.47217H12.9016V15.4801H15.5708ZM11.1216 7.47217V15.4801H8.45248V7.47217H11.1216ZM6.67289 7.47217H4.00373V15.4801H6.67289V7.47217Z" fill="#302A32"/>
<path d="M0.890017 5.78312H18.685C18.6879 5.78312 18.6913 5.78312 18.6938 5.78312C19.1859 5.78312 19.5838 5.38479 19.5838 4.89313C19.5838 4.50229 19.3321 4.17104 18.9825 4.05104L10.1533 0.078125C9.92127 -0.0260417 9.65585 -0.0260417 9.42335 0.078125L0.525017 4.08187C0.1421 4.25437 -0.0683164 4.67021 0.0200169 5.08021C0.107934 5.49021 0.470434 5.78312 0.890017 5.78312Z" fill="#302A32"/>
</svg>
