<svg width="20" height="20" viewBox="0 0 20 20" fill="none" xmlns="http://www.w3.org/2000/svg">
<path d="M18.6854 17.7993H0.89C0.398333 17.7993 0 18.1976 0 18.6897C0 19.181 0.398333 19.5793 0.89 19.5793H18.685C19.1767 19.5793 19.575 19.181 19.575 18.6897C19.5746 18.1976 19.1763 17.7993 18.6854 17.7993Z" fill="#23A4EF"/>
<path fill-rule="evenodd" clip-rule="evenodd" d="M1.11206 16.3754C1.11206 15.8837 1.51039 15.4854 2.00206 15.4854V15.485H2.22456V7.47706H2.00206C1.75664 7.47706 1.55748 7.27789 1.55748 7.03247C1.55748 6.78706 1.75623 6.58789 2.00206 6.58789H17.5729C17.8183 6.58789 18.0175 6.78706 18.0175 7.03247C18.0175 7.27789 17.8191 7.47706 17.5729 7.47706H17.3508V15.4854H17.5729C18.0646 15.4854 18.4629 15.8837 18.4629 16.3754C18.4629 16.8671 18.0646 17.2658 17.5729 17.2658H2.00206C1.51039 17.2658 1.11206 16.8671 1.11206 16.3754ZM15.5708 15.485V7.47706H12.9016V15.485H15.5708ZM11.1216 7.47706V15.485H8.45248V7.47706H11.1216ZM6.67289 7.47706H4.00373V15.485H6.67289V7.47706Z" fill="#23A4EF"/>
<path d="M0.890017 5.78801H18.685C18.6879 5.78801 18.6913 5.78801 18.6938 5.78801C19.1859 5.78801 19.5838 5.38967 19.5838 4.89801C19.5838 4.50717 19.3321 4.17592 18.9825 4.05592L10.1533 0.0830078C9.92127 -0.0211589 9.65585 -0.0211589 9.42335 0.0830078L0.525017 4.08676C0.1421 4.25926 -0.0683164 4.67509 0.0200169 5.08509C0.107934 5.49509 0.470434 5.78801 0.890017 5.78801Z" fill="#23A4EF"/>
</svg>
