<svg width="35" height="35" viewBox="0 0 35 35" fill="none" xmlns="http://www.w3.org/2000/svg">
<rect width="35" height="35" rx="17.5" fill="white" fill-opacity="0.2"/>
<path d="M21.1613 10.0028L19.3788 10C17.3763 10 16.0822 11.3102 16.0822 13.3382V14.8773H14.29C14.1352 14.8773 14.0098 15.0012 14.0098 15.1541V17.3841C14.0098 17.5369 14.1353 17.6607 14.29 17.6607H16.0822V23.2877C16.0822 23.4406 16.2076 23.5643 16.3625 23.5643H18.7007C18.8556 23.5643 18.981 23.4404 18.981 23.2877V17.6607H21.0765C21.2313 17.6607 21.3567 17.5369 21.3567 17.3841L21.3576 15.1541C21.3576 15.0807 21.328 15.0104 21.2755 14.9585C21.223 14.9065 21.1516 14.8773 21.0772 14.8773H18.981V13.5726C18.981 12.9455 19.1324 12.6271 19.9603 12.6271L21.161 12.6267C21.3157 12.6267 21.4411 12.5028 21.4411 12.3501V10.2794C21.4411 10.1269 21.3159 10.0031 21.1613 10.0028Z" fill="white"/>
</svg>
