<svg width="442" height="289" viewBox="0 0 442 289" fill="none" xmlns="http://www.w3.org/2000/svg">
<path d="M111.111 95.534C110.74 101.294 108.125 106.444 105.709 111.581C103.174 116.943 100.613 122.292 98.0111 127.628C93.0338 137.848 87.7778 147.935 82.7606 158.142C82.6942 158.102 82.6279 158.063 82.5615 158.023C80.9555 157.08 79.6813 159.337 81.0882 160.425C81.5793 160.81 82.0704 161.168 82.5881 161.527C83.2119 161.978 84.2604 161.699 84.6188 161.036C90.5385 150.205 95.914 139.056 101.316 127.96C103.971 122.518 106.585 117.049 109.16 111.568C111.549 106.497 114.018 101.294 114.204 95.587C114.244 93.6094 111.231 93.5696 111.111 95.534Z" fill="#F18634"/>
<path d="M397.66 138.79C391.621 127.867 382.595 118.868 372.773 111.315C362.248 103.219 350.607 96.4895 338.675 90.676C314.134 78.7171 287.628 71.0587 260.644 67.1033C257.764 66.6786 254.883 66.307 252.003 65.9619C244.584 65.6035 237.151 65.6168 229.731 65.63C220.6 65.6433 211.415 65.0859 202.323 66.068C194.08 66.9573 185.931 69.0943 178.272 72.2665C170.163 75.6245 162.969 80.3629 155.761 85.3137C151.965 87.9152 148.076 90.3574 143.816 92.1227C142.648 92.6138 141.467 93.0518 140.272 93.4766C138.268 95.003 136.303 96.609 134.405 98.2814C115 115.47 101.9 141.352 107.939 167.592C113.886 193.421 134.405 212.76 157.102 224.732C169.658 231.355 183.064 236.173 196.576 240.447C211.481 245.159 226.572 249.393 241.916 252.459C270.227 258.113 299.958 259.719 328.004 251.822C351.337 245.252 373.463 232.377 388.329 212.919C396.465 202.261 402.319 189.705 404.296 176.379C406.221 163.372 404.031 150.298 397.66 138.79Z" fill="#EFF8FE"/>
<path d="M339.909 214.021C339.87 213.649 339.657 213.397 339.405 213.264C338.98 212.494 338.224 211.963 337.162 212.016C335.569 212.109 334.056 212.813 332.49 213.131C330.95 213.437 329.384 213.503 327.818 213.49C324.672 213.463 321.593 212.799 318.607 211.698C312.939 209.614 308.187 205.645 302.971 202.54C302.533 201.995 301.909 201.624 301.219 201.664C300.715 201.597 300.263 201.796 299.945 202.155C295.127 205.207 293.799 212.136 291.437 217.339C288.596 223.617 285.013 229.43 281.376 235.151C277.726 240.898 273.89 246.566 270.718 252.671C267.692 258.511 266.816 266.873 269.484 273.257C271.753 278.686 297.994 309.652 326.875 263.728C330.857 257.396 336.074 245.822 338.237 238.429C340.374 231.09 340.839 221.732 339.909 214.021Z" fill="#8ED0F7"/>
<path d="M343.055 202.567C336.631 188.059 309.315 196.859 308.2 196.435C302.719 194.337 298.989 200.947 298.405 202.288C298.033 203.124 297.728 204 297.463 204.876C296.507 207.079 296.109 209.721 295.804 211.831C295.299 215.282 295.299 218.799 296.135 222.211C297.688 228.555 302.281 233.785 308.227 236.426C321.234 242.186 335.914 234.992 341.953 222.688C343.732 219.065 346.546 210.438 343.055 202.567Z" fill="#EFF8FE"/>
<path d="M335.038 195.518C330.233 192.213 322.031 192.638 316.881 193.169C313.311 193.54 309.515 194.549 307.072 197.27C306.17 198.266 305.095 199.885 304.511 201.225C303.356 203.84 303.011 206.906 303.356 209.362C303.953 213.636 306.727 217.272 310.457 219.555C310.921 219.847 311.386 219.914 311.811 219.847C313.311 221.068 315.063 222.077 317.093 222.807C322.084 224.586 327.645 223.723 331.932 220.723C336.366 217.631 340.653 212.68 341.635 207.371C342.484 202.659 339.962 196.739 335.038 195.518Z" fill="#203662"/>
<path d="M327.791 115.948C327.619 110.878 325.973 105.529 322.124 102.038C321.261 101.255 320.279 100.578 319.244 100.047C319.124 99.7682 318.991 99.4894 318.859 99.2107C316.549 94.6448 311.851 90.8488 306.78 89.8666C301.843 88.9109 297.197 90.716 293.64 94.1537C291.663 96.065 290.043 98.3745 288.689 100.75C287.402 103.033 286.446 105.582 284.8 107.626C280.739 112.669 273.625 108.648 268.276 110.586C265.979 111.422 266.882 114.992 269.298 114.289C273.213 113.16 277.261 114.713 281.243 114.116C285.106 113.532 287.734 110.878 289.605 107.612C292.963 101.799 296.573 92.9326 304.803 93.6361C308.254 93.9281 311.506 96.0119 313.709 98.7063C312.103 98.7462 310.497 99.1841 309.01 100.1C305.267 102.409 303.821 107.4 306.289 111.196C308.798 115.045 313.908 114.899 317.2 112.178C319.283 110.44 320.226 108.117 320.345 105.661C326.65 112.298 322.933 124.004 321.633 131.862C321.447 133.003 323.093 133.972 323.677 132.725C326.172 127.429 328.004 121.921 327.791 115.948ZM313.629 109.869C310.55 111.395 307.935 108.289 309.289 105.303C310.497 102.662 313.457 102.224 316.005 102.927C316.775 105.568 316.456 108.475 313.629 109.869Z" fill="white"/>
<path d="M278.124 115.921C275.138 116.067 272.045 116.12 269.032 115.921C269.099 117.381 269.205 118.482 269.324 118.496C272.231 118.735 274.965 118.403 277.872 118.456C278.589 118.469 279.279 117.806 279.279 117.036C279.279 116.638 279.266 116.093 279.279 115.722C278.881 115.735 278.509 115.907 278.124 115.921Z" fill="#A2BCBA"/>
<path d="M279.279 108.409C279.266 108.143 279.226 107.878 279.12 107.679C278.987 107.44 278.708 107.294 278.416 107.214C278.018 107.028 270.758 106.736 269.245 107.254C268.793 107.413 268.966 117.076 269.337 117.116C272.244 117.355 274.978 117.023 277.885 117.076C278.602 117.089 279.292 116.426 279.292 115.656C279.292 112.922 279.451 110.984 279.279 108.409Z" fill="white"/>
<path d="M314.426 127.907C311.24 127.907 307.497 129.699 305.798 132.247C303.475 135.724 302.307 139.852 301.551 143.927C300.024 152.116 300.011 161.421 302.799 169.358C303.807 172.225 305.519 175.092 308.546 176.127C311.824 177.242 315.448 175.782 317.784 173.419C320.478 170.685 321.699 166.876 322.641 163.252C323.69 159.244 324.486 155.09 324.725 150.948C325.203 142.202 322.562 127.907 314.426 127.907Z" fill="#BFD1D0"/>
<path d="M322.124 134.901C321.089 132.419 319.297 129.579 316.509 128.915C313.324 128.145 310.191 131.649 308.957 134.038C303.489 144.604 303.396 153.191 305.294 162.562C305.825 165.176 307.736 167.951 309.953 169.557C312.342 171.282 313.496 170.897 316.35 170.366C319.39 169.795 321.049 167.605 321.739 164.699C322.562 161.221 323.093 157.664 323.425 154.12C324.009 147.935 324.566 140.768 322.124 134.901Z" fill="white"/>
<path d="M320.266 141.153C319.814 139.772 319.336 138.405 319.005 136.998C318.713 135.711 318.699 134.33 318.129 133.136C318.062 132.99 317.943 132.897 317.823 132.83C317.744 132.658 317.598 132.512 317.399 132.459C314.85 131.808 315.912 136.281 316.124 137.502C316.43 139.294 316.921 143.064 319.602 142.307C320.093 142.175 320.425 141.63 320.266 141.153Z" fill="#BFD1D0"/>
<path d="M125.765 17.5291C131.499 17.9804 271.302 17.8211 280.42 17.5424C281.15 14.0384 281.243 12.366 281.057 11.6227C280.075 7.70719 276.996 7.04355 272.722 7.00374C247.026 6.7781 143.59 7.0701 142.581 7.08337C139.807 7.12319 135.852 7.26919 132.308 7.41519C127.848 7.60101 124.663 9.4194 125.061 12.8703C125.207 14.1313 125.499 15.7904 125.765 17.5291Z" fill="#C6DBDB"/>
<path d="M136.011 161.832C136.794 165.256 141.559 172.092 148.183 172.092C163.632 172.092 257.803 172.118 260.737 172.118C267.187 172.118 270.333 165.004 270.373 160.412C265.024 160.412 137.1 161.673 136.011 161.832Z" fill="#EFEFEF"/>
<path d="M217.029 163.464C212.463 163.451 207.897 163.623 203.318 163.557C201.181 163.53 199.058 163.597 196.921 163.65C194.823 163.703 192.501 163.57 190.563 164.46C189.687 164.858 189.674 166.397 190.563 166.796C192.408 167.619 194.571 167.512 196.562 167.526C198.819 167.552 201.062 167.605 203.318 167.539C207.897 167.419 213.153 167.632 215.98 167.273C218.542 166.968 219.617 163.477 217.029 163.464Z" fill="#778786"/>
<path d="M280.673 14.3962C280.58 11.7018 277.115 9.525 272.828 9.48518C247.132 9.25954 143.696 9.55155 142.688 9.56482C139.914 9.60464 135.958 9.75064 132.414 9.89665C127.955 10.0825 125.088 12.5778 125.473 15.4314C127.105 27.6558 134.06 65.3242 136.224 67.6204C137.511 68.9875 139.887 69.7839 142.409 69.8105C159.385 69.9565 175.14 69.9432 191.479 69.9565C192.036 69.9565 211.415 70.129 215.622 69.9565C218.914 69.8237 260.272 70.1025 263.352 69.837C267.015 69.5317 269.523 67.5673 269.815 65.3906C270.054 63.6651 280.912 21.3644 280.673 14.3962Z" fill="#203662"/>
<path d="M248.672 68.258C223.851 67.82 199.031 67.9792 174.211 68.3907C170.76 68.4438 167.296 68.5102 163.845 68.5898C160.407 68.6562 156.664 68.4969 153.425 69.7578C151.979 70.3285 151.872 72.2796 153.425 72.8106C156.292 73.7928 159.385 73.6202 162.371 73.6069C165.464 73.5937 168.543 73.5273 171.636 73.4875C177.808 73.4211 183.98 73.368 190.165 73.3548C202.641 73.3017 215.118 73.4211 227.581 73.5273C234.616 73.5804 241.664 73.66 248.698 73.7529C252.215 73.8193 252.215 68.3243 248.672 68.258Z" fill="#15223E"/>
<path d="M270.572 111.329C270.545 107.546 270.214 72.3863 267.546 69.3601C266.431 68.0859 263.524 67.5151 259.542 67.1966C258.467 67.1169 254.578 66.9444 252.149 67.1833C250.875 67.3028 249.826 68.2186 249.521 69.4662C249.388 70.0502 249.362 70.7006 249.242 71.2183C249.083 71.8952 248.486 72.373 247.782 72.373C223.599 72.1739 199.403 72.0943 175.233 72.373C169.021 72.4394 162.703 72.227 156.491 72.6783C155.642 72.7447 154.912 72.1208 154.832 71.2846C154.806 71.0325 154.792 70.7935 154.792 70.5679C154.766 69.3999 154.726 67.9664 153.532 68.0062C147.253 68.1655 136.94 67.9531 135.202 73.7401C134.1 77.3769 133.941 80.5889 133.582 84.3186C133.171 88.7119 133.41 132.897 134.711 150.524C135.016 154.665 134.658 159.841 136.808 163.558C138.361 166.239 141.467 167.102 144.519 167.141C160.911 167.354 176.228 167.327 192.076 167.354C192.633 167.354 193.443 166.411 193.908 165.801C194.16 165.469 194.532 165.257 194.943 165.23C199.416 164.965 210.048 165.097 213.153 165.177C213.512 165.19 213.844 165.323 214.096 165.575C214.746 166.239 215.436 167.234 216.233 167.354C219.485 167.885 260.883 167.579 263.962 167.168C267.625 166.664 270.134 163.491 270.426 159.961C270.665 157.173 270.744 139.919 270.572 111.329Z" fill="#E0F1FD"/>
<path d="M264.493 122.969C264.307 122.372 262.21 82.5398 262.091 80.6019C262.064 80.1772 262.051 79.0357 262.037 77.8677C262.024 76.0493 260.551 74.5628 258.732 74.5495C245.473 74.4566 195.554 74.1248 170.043 74.2575C161.601 74.2973 153.16 74.3106 144.732 74.576C144.095 74.5893 143.511 75.0671 143.418 75.7042C143.258 75.8901 143.165 76.129 143.139 76.4077C142.356 84.4378 141.851 116.306 141.413 124.363C141.374 125.225 142.17 125.929 142.993 125.942C144.718 125.955 177.728 125.557 192.142 125.504C207.167 125.451 222.205 125.398 237.23 125.265C245.805 125.186 254.366 125.079 262.94 125.04C263.949 125.026 264.811 123.991 264.493 122.969Z" fill="white"/>
<path d="M226.254 156.828C226.134 152.594 225.802 148.692 225.577 144.458C225.338 140.011 225.617 135.485 225.086 131.079C224.979 130.189 224.356 129.22 223.307 129.3C219.617 129.592 215.542 129.406 211.853 129.406C208.03 129.406 204.221 129.419 200.398 129.459C196.695 129.499 192.992 129.552 189.289 129.632C188.559 129.645 187.669 129.751 186.846 129.658C185.214 129.499 183.555 130.256 182.944 131.902C182.413 133.375 182.174 150.324 182.427 154.134C182.546 155.979 182.546 157.89 182.825 159.708C183.024 160.956 183.688 161.646 184.962 161.805C186.78 162.031 189.74 161.858 191.572 161.925C193.602 162.004 195.646 162.031 197.677 162.058C201.526 162.111 205.362 162.164 209.211 162.204C213.167 162.243 217.122 161.951 221.077 161.965C222.484 161.965 223.957 161.885 225.033 160.863C226.147 159.828 226.293 158.275 226.254 156.828Z" fill="#BFD1D0"/>
<path d="M265.873 70.6202C265.475 70.2619 264.997 70.0229 264.44 70.0229C263.922 70.0229 263.378 70.2486 263.006 70.6202C262.621 71.0051 262.436 71.5095 262.409 72.0537C262.383 72.5979 262.648 73.1023 263.006 73.4872C263.365 73.8854 263.896 74.0446 264.413 74.0712C264.878 74.0977 265.303 73.9119 265.648 73.6332C266.086 73.3014 266.338 72.8633 266.404 72.3192C266.51 71.7086 266.351 71.045 265.873 70.6202Z" fill="#BAC6C6"/>
<path d="M249.733 63.6923C250.915 63.4534 252.069 63.1216 253.145 62.6968C257.007 61.2103 258.6 57.162 259.874 53.5253C261.467 48.9992 263.258 44.3935 264.254 39.7082C265.249 35.0096 264.028 30.3906 263.736 25.7053C262.409 24.7364 261.029 23.8604 259.555 23.1436C250.171 23.0507 240.827 24.4576 231.43 24.2984C225.988 24.2055 220.653 23.2631 215.237 22.7985C210.738 22.4136 206.238 22.2411 201.725 22.334C200.902 22.3871 200.08 22.4136 199.257 22.4136C197.863 22.3871 197.252 21.2058 197.425 20.1572C190.032 20.1705 182.904 20.1838 176.587 20.197C176.905 21.0996 176.467 22.2278 175.206 22.2145C171.012 22.1747 166.884 21.3252 162.677 21.6305C158.854 21.9092 154.899 22.4933 151.129 23.2233C146.178 24.1922 142.196 27.2317 138.719 30.7623C140.922 42.2964 145.289 60.3343 146.829 61.8606C147.917 62.949 149.935 63.5728 152.072 63.5994C166.459 63.7188 179.825 63.7056 193.669 63.7188C194.147 63.7188 210.565 63.8648 214.136 63.7188C216.392 63.6259 239.354 63.7454 249.733 63.6923Z" fill="#61FFFF"/>
<path d="M232.372 121.217L231.443 112.536C231.337 111.528 230.488 110.758 229.479 110.745C224.568 110.691 210.379 110.572 198.819 110.625C188.917 110.665 173.136 110.824 167.787 110.877C166.751 110.891 165.889 111.687 165.822 112.722L165.172 121.549C165.092 122.69 165.981 123.672 167.123 123.686C172.459 123.765 186.528 123.951 192.859 123.951C201.115 123.938 209.357 123.925 217.613 123.885C220.984 123.871 227.236 123.579 230.488 123.407C231.642 123.367 232.492 122.358 232.372 121.217Z" fill="#15223E"/>
<path d="M232.227 119.571L231.297 110.891C231.191 109.882 230.342 109.112 229.333 109.099C224.422 109.046 210.233 108.927 198.673 108.98C188.771 109.019 172.99 109.179 167.641 109.232C166.605 109.245 165.743 110.041 165.676 111.077L165.026 119.903C164.946 121.045 165.836 122.027 166.977 122.04C172.313 122.12 186.382 122.306 192.713 122.306C200.969 122.292 209.211 122.279 217.467 122.239C220.838 122.226 227.09 121.934 230.342 121.761C231.483 121.708 232.346 120.7 232.227 119.571Z" fill="#203662"/>
<path d="M250.623 114.581L250.543 111.488C250.53 111.13 250.45 110.851 250.357 110.851C249.906 110.838 248.605 110.784 247.543 110.811C246.641 110.824 245.194 110.877 244.703 110.904C244.61 110.904 244.53 111.196 244.517 111.568L244.451 114.713C244.438 115.125 244.53 115.47 244.637 115.47C245.128 115.496 246.415 115.563 246.999 115.563C247.756 115.563 248.512 115.549 249.269 115.536C249.574 115.536 250.145 115.43 250.45 115.364C250.543 115.337 250.623 114.979 250.623 114.581Z" fill="#15223E"/>
<path d="M250.755 121.96L250.676 118.867C250.663 118.509 250.583 118.23 250.49 118.23C250.039 118.217 248.738 118.164 247.676 118.19C246.774 118.204 245.327 118.257 244.836 118.283C244.743 118.283 244.663 118.575 244.65 118.947L244.584 122.093C244.57 122.504 244.663 122.849 244.769 122.849C245.26 122.876 246.548 122.942 247.132 122.942C247.888 122.942 248.645 122.929 249.402 122.916C249.707 122.916 250.278 122.809 250.583 122.743C250.676 122.73 250.755 122.371 250.755 121.96Z" fill="#15223E"/>
<path d="M242.911 121.96L242.832 118.867C242.818 118.509 242.739 118.23 242.646 118.23C242.194 118.217 240.894 118.164 239.832 118.19C238.929 118.204 237.483 118.257 236.991 118.283C236.899 118.283 236.819 118.575 236.806 118.947L236.739 122.093C236.726 122.504 236.819 122.849 236.925 122.849C237.416 122.876 238.704 122.942 239.288 122.942C240.044 122.942 240.801 122.929 241.557 122.916C241.863 122.916 242.433 122.809 242.739 122.743C242.845 122.73 242.924 122.371 242.911 121.96Z" fill="#15223E"/>
<path d="M258.799 121.96L258.719 118.867C258.706 118.509 258.626 118.23 258.533 118.23C258.082 118.217 256.781 118.164 255.72 118.19C254.817 118.204 253.37 118.257 252.879 118.283C252.786 118.283 252.707 118.575 252.693 118.947L252.627 122.093C252.614 122.504 252.707 122.849 252.813 122.849C253.304 122.876 254.591 122.942 255.175 122.942C255.932 122.942 256.688 122.929 257.445 122.916C257.75 122.916 258.321 122.809 258.626 122.743C258.733 122.73 258.812 122.371 258.799 121.96Z" fill="#15223E"/>
<path d="M250.623 113.651L250.543 110.558C250.53 110.2 250.45 109.921 250.357 109.921C249.906 109.908 248.605 109.855 247.543 109.881C246.641 109.895 245.194 109.948 244.703 109.974C244.61 109.974 244.53 110.266 244.517 110.638L244.451 113.784C244.438 114.195 244.53 114.54 244.637 114.54C245.128 114.567 246.415 114.633 246.999 114.633C247.756 114.633 248.512 114.62 249.269 114.606C249.574 114.606 250.145 114.5 250.45 114.434C250.543 114.407 250.623 114.049 250.623 113.651Z" fill="#203662"/>
<path d="M250.755 121.031L250.676 117.938C250.663 117.58 250.583 117.301 250.49 117.301C250.039 117.288 248.738 117.235 247.676 117.261C246.774 117.275 245.327 117.328 244.836 117.354C244.743 117.354 244.663 117.646 244.65 118.018L244.584 121.163C244.57 121.575 244.663 121.92 244.769 121.92C245.26 121.947 246.548 122.013 247.132 122.013C247.888 122.013 248.645 122 249.402 121.986C249.707 121.986 250.278 121.88 250.583 121.814C250.676 121.801 250.755 121.442 250.755 121.031Z" fill="#203662"/>
<path d="M242.911 121.031L242.832 117.938C242.818 117.58 242.739 117.301 242.646 117.301C242.194 117.288 240.894 117.235 239.832 117.261C238.929 117.275 237.483 117.328 236.991 117.354C236.899 117.354 236.819 117.646 236.806 118.018L236.739 121.163C236.726 121.575 236.819 121.92 236.925 121.92C237.416 121.947 238.704 122.013 239.288 122.013C240.044 122.013 240.801 122 241.557 121.986C241.863 121.986 242.433 121.88 242.739 121.814C242.845 121.801 242.924 121.442 242.911 121.031Z" fill="#203662"/>
<path d="M258.799 121.031L258.719 117.938C258.706 117.58 258.626 117.301 258.533 117.301C258.082 117.288 256.781 117.235 255.72 117.261C254.817 117.275 253.37 117.328 252.879 117.354C252.786 117.354 252.707 117.646 252.693 118.018L252.627 121.163C252.614 121.575 252.707 121.92 252.813 121.92C253.304 121.947 254.591 122.013 255.175 122.013C255.932 122.013 256.688 122 257.445 121.986C257.75 121.986 258.321 121.88 258.626 121.814C258.733 121.801 258.812 121.442 258.799 121.031Z" fill="#203662"/>
<path d="M256.795 90.9015C258.082 90.9015 259.104 89.8396 259.064 88.5522C258.985 86.5745 258.945 84.6366 258.932 84.3977C258.905 84.0128 258.892 82.9775 258.892 81.9024C258.878 80.2433 257.538 78.9028 255.879 78.8895C243.814 78.8099 196.536 79.2479 173.321 79.3673C168.145 79.3939 157.739 79.2346 151.514 79.3806C148.727 79.4469 146.537 81.7564 146.616 84.5437C146.656 85.7648 146.683 87.1452 146.696 88.6318C146.709 89.8794 147.718 90.8882 148.966 90.8749C163.141 90.8218 236.315 90.9015 256.795 90.9015Z" fill="#15223E"/>
<path d="M259.808 100.697C259.688 99.0381 259.582 97.6975 259.476 96.2507C259.396 95.1358 258.374 94.2731 257.153 94.2864C244.119 94.4987 188.559 94.1802 176.6 94.1802C175.352 94.1802 174.343 95.096 174.317 96.2375C174.251 99.5026 174.237 101.427 174.237 105.09C174.237 106.259 175.286 107.201 176.56 107.188C197.199 106.909 238.757 106.285 254.233 106.179C257.472 106.166 260.007 103.657 259.808 100.697Z" fill="#15223E"/>
<path d="M148.461 110.545C147.36 110.559 146.457 111.448 146.431 112.55C146.338 116.77 146.218 120.208 146.125 121.973C146.086 122.756 146.816 123.407 147.559 123.407C148.05 123.407 152.934 123.447 158.111 123.433C160.726 123.42 162.916 121.442 163.194 118.841C163.393 116.916 163.632 114.74 163.858 112.802C163.991 111.594 163.048 110.532 161.827 110.532C158.336 110.532 151.899 110.506 148.461 110.545Z" fill="#15223E"/>
<path d="M146.696 95.9319C146.683 99.0377 146.643 102.316 146.59 105.462C146.577 106.484 147.479 107.32 148.594 107.32C153.319 107.28 164.269 107.28 168.769 107.28C169.857 107.28 170.733 106.484 170.76 105.488C170.839 102.276 170.893 99.2236 171.092 96.0381C171.158 94.9762 170.229 94.087 169.074 94.1002C164.747 94.1533 154.952 94.2462 148.727 94.1135C147.612 94.1002 146.696 94.9099 146.696 95.9319Z" fill="#15223E"/>
<path d="M256.688 89.6007C257.976 89.6007 258.998 88.5388 258.958 87.2514C258.878 85.2737 258.839 83.3359 258.825 83.097C258.799 82.712 258.786 81.6768 258.786 80.6017C258.772 78.9426 257.432 77.602 255.773 77.5887C243.708 77.5091 196.429 77.9471 173.215 78.0665C168.039 78.0931 157.633 77.9338 151.408 78.0798C148.621 78.1462 146.431 80.4556 146.51 83.243C146.55 84.4641 146.577 85.8444 146.59 87.331C146.603 88.5787 147.612 89.5874 148.859 89.5741C163.035 89.521 236.222 89.6007 256.688 89.6007Z" fill="#203662"/>
<path d="M259.701 99.5155C259.582 97.8564 259.476 96.5158 259.37 95.0691C259.29 93.9542 258.268 93.0914 257.047 93.1047C244.013 93.3171 188.453 92.9985 176.494 92.9985C175.246 92.9985 174.237 93.9144 174.211 95.0558C174.144 98.321 174.131 100.246 174.131 103.909C174.131 105.077 175.18 106.019 176.454 106.006C197.093 105.727 238.651 105.103 254.127 104.997C257.365 104.971 259.914 102.462 259.701 99.5155Z" fill="#203662"/>
<path d="M148.355 109.245C147.254 109.258 146.351 110.147 146.324 111.249C146.231 115.47 146.112 118.907 146.019 120.673C145.979 121.456 146.709 122.106 147.453 122.106C147.944 122.106 152.828 122.146 158.005 122.133C160.619 122.119 162.809 120.142 163.088 117.54C163.287 115.616 163.526 113.439 163.752 111.501C163.884 110.293 162.942 109.231 161.721 109.231C158.243 109.231 151.793 109.205 148.355 109.245Z" fill="#203662"/>
<path d="M146.59 94.7507C146.577 97.8566 146.537 101.135 146.484 104.281C146.47 105.303 147.373 106.139 148.488 106.139C153.213 106.099 164.163 106.099 168.663 106.099C169.751 106.099 170.627 105.303 170.654 104.307C170.733 101.095 170.786 98.0424 170.985 94.8569C171.052 93.7951 170.123 92.9058 168.968 92.9191C164.641 92.9722 154.846 93.0651 148.621 92.9324C147.506 92.9058 146.59 93.7287 146.59 94.7507Z" fill="#203662"/>
<path d="M268.607 18.0332C258.547 17.6483 248.472 17.4625 238.412 17.4758C233.501 17.489 228.59 17.7412 223.679 17.6483C219.126 17.5687 216.206 17.2103 211.999 17.7014C211.906 17.1041 211.534 16.5201 210.95 16.2016C210.008 15.6839 208.641 15.8299 207.619 15.8034C207.619 15.8034 198.036 15.8565 196.403 15.9361C195.514 15.9759 194.571 16.1485 193.921 16.8254C193.403 17.3563 193.217 18.0332 193.324 18.657C191.811 18.6703 190.297 18.5243 188.798 18.4845C186.223 18.3916 183.634 18.3385 181.06 18.2854C176.016 18.1925 170.985 18.1792 165.942 18.219C155.868 18.2987 145.793 18.6305 135.733 19.1747C135.016 19.2145 134.458 19.8516 134.657 20.5816C135.799 24.7891 136.94 28.9966 138.069 33.2041C138.44 34.5845 140.551 34.0005 140.206 32.6201C139.011 27.8684 141.944 23.2893 146.59 22.3734C146.961 22.3204 147.333 22.2805 147.718 22.2274C148.488 22.1213 148.846 21.4045 148.767 20.8205C154.739 20.6082 160.712 20.4754 166.685 20.4223C171.729 20.3825 176.759 20.4091 181.803 20.4622C184.378 20.4887 186.966 20.5418 189.541 20.5949C191.957 20.648 194.279 20.9798 196.549 20.0374C196.775 19.9445 196.934 19.7852 197.027 19.6127C197.81 19.5729 198.779 19.5861 199.031 19.5729C200.013 19.4932 200.982 19.4269 201.964 19.3472C202.429 19.3074 207.167 19.0685 207.127 19.1614C206.835 19.9976 208.017 20.648 208.601 20.0241C208.601 20.0241 208.601 20.0109 208.614 20.0109C208.72 20.0772 208.84 20.1171 208.972 20.1303C213.804 20.5816 218.847 19.9976 223.705 19.8914C228.736 19.7852 233.766 19.7321 238.81 19.7189C240.801 19.7189 242.792 19.7321 244.783 19.7454C244.968 19.9578 245.221 20.1038 245.566 20.1303C249.587 20.4489 253.543 21.2054 257.392 22.4265C260.604 23.4485 266.524 25.2404 265.674 29.7001C265.409 31.0937 267.373 31.6645 267.824 30.2974C269.006 26.6871 269.643 22.9707 269.749 19.1614C269.736 18.5243 269.191 18.0598 268.607 18.0332Z" fill="#FCCC55"/>
<path d="M208.295 61.1167C204.858 60.9309 201.42 60.9575 197.969 61.1831C197.385 61.2229 197.093 66.4922 197.624 66.4657C200.61 66.3197 203.61 66.1737 206.597 66.0277C207.048 66.0011 209.145 61.1565 208.295 61.1167Z" fill="#F18634"/>
<path d="M202.455 60.3604C202.482 62.8291 202.973 65.1519 205.137 66.5853C207.327 68.0321 210.14 68.2312 212.689 68.3639C219.551 68.6957 226.36 67.4348 233.116 66.3995C236.753 65.842 240.416 65.351 244.106 65.205C247.344 65.0722 250.702 65.789 253.901 65.4306C256.582 65.1253 258.228 63.4795 259.33 61.1169C260.737 58.0907 261.825 54.8787 262.874 51.7064C264.931 45.4549 267.891 35.3675 268.382 32.6466C269.908 23.9794 240.137 27.0189 226.904 26.0632C223.055 25.7845 219.259 25.1208 215.476 24.3908C212.45 23.8201 209.079 22.6388 205.986 22.745C203.398 22.8379 202.562 23.1034 202.522 25.373C202.455 29.1558 202.376 52.9806 202.455 60.3604Z" fill="#EBEDED"/>
<path d="M202.495 25.1874C202.469 22.9177 201.659 22.7452 199.071 22.6523C195.978 22.5461 192.594 23.7141 189.581 24.2981C185.798 25.0149 182.002 25.6918 178.153 25.9572C164.933 26.9129 135.839 23.8601 137.365 32.5273C137.843 35.2482 140.113 45.3622 142.183 51.6004C143.232 54.7594 144.32 57.9847 145.727 61.0109C146.829 63.3735 148.475 65.0193 151.156 65.3246C154.354 65.6963 157.713 64.9795 160.951 65.099C164.641 65.245 168.291 65.7361 171.941 66.2935C178.697 67.3155 185.506 68.5898 192.368 68.2579C194.916 68.1385 197.73 67.9261 199.92 66.4793C202.084 65.0591 202.495 62.7497 202.509 60.2809C202.575 52.9012 202.548 28.9702 202.495 25.1874Z" fill="white"/>
<path d="M255.082 36.854C251.154 36.27 246.973 36.5221 243.017 36.6018C238.996 36.6814 234.974 36.9203 230.992 37.4778C226.944 38.0353 223.095 39.1104 219.166 40.1589C214.68 41.3668 210.804 41.4198 206.65 39.2298C206.411 39.0971 206.172 39.4023 206.358 39.6014C208.627 42.0702 212.503 42.3888 215.635 42.0437C219.803 41.5658 223.785 40.0527 227.9 39.2962C232.306 38.4865 236.792 38.1016 241.265 37.9689C245.791 37.8229 250.45 38.3273 254.95 37.876C255.467 37.8096 255.706 36.9469 255.082 36.854Z" fill="white"/>
<path d="M253.49 42.7475C246.336 40.9291 238.093 41.7786 230.979 43.3846C227.236 44.2341 223.546 45.349 219.737 45.9197C217.706 46.225 215.636 46.371 213.578 46.2648C211.401 46.1453 209.371 45.5082 207.234 45.1631C206.955 45.1233 206.809 45.4419 207.048 45.6144C209.822 47.6186 213.963 47.685 217.255 47.4461C221.104 47.1674 224.86 46.1984 228.603 45.2959C232.638 44.3137 236.673 43.5439 240.814 43.3182C245.061 43.0793 249.123 43.6235 253.331 43.9155C254.007 43.9553 254.127 42.9068 253.49 42.7475Z" fill="white"/>
<path d="M228.935 49.4904C225.205 50.4063 221.608 51.5344 217.732 51.7601C213.963 51.9724 210.751 50.9903 207.154 50.1275C206.889 50.0612 206.769 50.393 206.981 50.5522C209.809 52.6228 214.003 52.9281 217.401 52.8086C221.369 52.6759 225.471 51.8397 229.2 50.4859C229.824 50.2603 229.585 49.3311 228.935 49.4904Z" fill="white"/>
<path d="M237.337 55.4363C235.16 55.0248 232.784 55.4496 230.607 55.7814C227.873 56.1928 225.179 56.8034 222.444 57.268C219.976 57.6927 217.48 57.9581 214.972 57.8519C212.344 57.7458 210.008 56.9892 207.499 56.3256C207.327 56.2858 207.154 56.5247 207.313 56.6441C210.884 59.4182 216.432 59.1792 220.679 58.6616C223.281 58.343 225.855 57.8121 228.444 57.3609C231.404 56.8299 234.39 56.8299 237.337 56.4052C237.828 56.3388 237.814 55.5159 237.337 55.4363Z" fill="white"/>
<path d="M147.559 21.7501C145.541 21.697 143.524 21.8297 141.506 21.8828C140.391 21.9226 138.454 21.6174 137.538 22.4668C136.967 22.9977 137.047 23.7012 137.153 24.4047C137.365 25.878 137.684 27.4707 138.201 28.9174C138.215 28.9838 138.321 29.3024 138.374 29.3687C138.44 29.528 138.493 29.674 138.56 29.82C138.679 30.0722 139.051 29.6209 139.051 29.5944C139.303 29.5413 146.736 23.0641 147.546 22.9977C148.368 22.9446 148.382 21.7766 147.559 21.7501Z" fill="#F18634"/>
<path d="M267.493 23.2099C267.453 22.4799 267.506 21.7234 266.802 21.3119C265.953 20.8075 264.48 21.0199 263.537 20.9668C262.462 20.9005 261.387 20.8075 260.312 20.7943C259.914 20.7014 259.516 20.6217 259.117 20.5288C258.786 20.4624 258.52 20.6217 258.374 20.8606C258.228 20.9403 258.188 21.1526 258.281 21.2721C258.294 21.4579 258.401 21.6305 258.6 21.7499C261.692 23.5418 264.121 25.8911 266.351 28.6651C266.709 29.1164 267.373 28.7049 267.4 28.2271C267.506 26.5547 267.585 24.8823 267.493 23.2099Z" fill="#F18634"/>
<path d="M209.225 31.6644C215.104 33.8279 221.741 33.6819 227.78 32.7794C240.588 30.8681 255.242 25.1076 267.134 33.151C267.572 33.4563 268.223 33.151 268.355 32.6599C269.563 27.948 262.728 20.1436 255.746 19.9578C252.269 19.8648 248.791 19.8648 245.314 19.825C231.417 19.6392 217.998 19.6658 204.101 19.4534C203.517 19.4401 203.119 19.9312 203.079 20.4754C203.039 21.3381 202.827 29.3151 209.225 31.6644Z" fill="#FFEDBF"/>
<path d="M202.668 20.4627C202.628 19.9185 202.23 19.4274 201.646 19.4407C187.749 19.6531 174.33 19.6265 160.434 19.8123C156.956 19.8654 153.479 19.8522 150.001 19.9451C143.019 20.1309 136.184 27.9353 137.392 32.6472C137.524 33.1383 138.175 33.4436 138.613 33.1383C150.505 25.0949 165.159 30.8687 177.967 32.7667C184.019 33.6692 190.656 33.8152 196.522 31.6518C202.933 29.3157 202.721 21.3387 202.668 20.4627Z" fill="#FFEDBF"/>
<path d="M209.517 18.896C204.672 18.9624 199.827 19.0287 194.97 19.0818C194.386 19.0818 194.306 19.7056 194.651 20.2631C195.262 21.2453 197.399 25.5059 202.349 25.5059C205.721 25.5059 209.596 23.2628 210.101 19.6791C210.167 19.2942 209.955 18.896 209.517 18.896Z" fill="#C96C26"/>
<path d="M179.254 38.2212C172.91 40.2519 166.778 38.7123 160.447 37.4381C155.377 36.4161 149.722 35.6064 144.918 38.0354C144.692 38.1548 144.851 38.5265 145.09 38.4468C151.156 36.7213 157.009 37.8363 163.035 39.1105C168.371 40.2387 174.29 41.3669 179.52 39.2299C180.157 38.991 179.918 38.0088 179.254 38.2212Z" fill="#F18634"/>
<path d="M156.253 42.2161C154.58 41.5658 152.496 41.6985 150.718 41.8047C149.152 41.8976 147.373 41.9374 145.966 42.6674C145.86 42.7205 145.873 42.9196 146.006 42.9329C147.546 43.2116 149.165 42.9063 150.731 42.9196C152.51 42.9329 154.394 43.3045 156.146 43.0921C156.624 43.0258 156.73 42.4152 156.253 42.2161Z" fill="#F18634"/>
<path d="M208.614 18.6572C206.119 18.6572 204.181 18.551 201.991 18.5245C200.026 18.4979 198.221 18.5245 195.938 18.697C195.328 18.7368 195.673 19.7323 195.899 20.1703C197.385 22.9045 199.681 23.8602 202.601 23.6876C205.588 23.5151 208.203 22.5727 209.211 19.8252C209.331 19.4668 209.583 18.6572 208.614 18.6572Z" fill="#F18634"/>
<path d="M350.554 153.191C349.585 151.213 347.674 148.599 345.338 148.36C344.993 148.32 344.701 148.612 344.608 148.944C344.369 149.209 344.236 149.594 344.356 150.045C345.63 155.434 344.223 160.65 343.082 165.906C341.847 165.429 340.533 165.097 339.286 164.672C337.786 164.168 336.313 163.478 334.959 162.615C331.893 160.637 330.167 157.133 330.326 153.483C330.433 151.306 332.556 135.976 322.708 126.114C321.341 124.747 317.624 122.398 315.779 122.398C313.151 122.398 310.815 124.548 311.386 127.282C311.944 129.924 314.704 131.716 316.085 133.919C317.744 136.56 318.739 139.547 319.244 142.613C319.801 146.024 319.668 149.528 319.297 152.952C318.925 156.363 318.447 159.92 317.571 163.252C317.173 164.778 315.235 167.698 313.496 167.645C312.899 167.632 310.563 168.096 308.851 165.176C308.612 166.198 303.316 181.821 303.316 184.794C306.502 192.028 308.745 195.731 309.05 197.018C310.696 203.947 305.851 209.229 307.059 216.144C307.922 221.122 321.54 228.993 330.579 220.989C335.503 216.635 338.715 202.885 340.082 200.097C348.948 182.153 349.931 173.883 350.528 171.64C351.324 168.601 351.855 164.088 351.975 160.956C352.081 158.275 351.736 155.607 350.554 153.191Z" fill="#F7D5BF"/>
<path d="M346.785 160.119C347.117 157.345 347.594 154.425 347.143 151.638C346.307 146.448 345.71 142.254 341.343 138.962C338.078 136.507 336.485 137.967 336.379 138.179C335.994 138.524 335.795 139.082 336.074 139.705C338.569 145.32 339.206 151.558 337.64 157.358C337.016 159.681 335.981 162.163 337.202 164.566C338.33 166.782 340.865 167.645 343.082 166.663C345.696 165.508 346.466 162.721 346.785 160.119Z" fill="#E2B7A3"/>
<path d="M340.281 157.505C341.117 152.673 340.945 147.006 339.272 142.267C337.693 137.768 335.025 133.268 330.671 131.437C329.185 130.813 326.902 131.702 327.566 133.149C329.955 138.378 330.127 143.887 330.074 149.342C330.048 152.288 329.941 155.222 330.114 158.181C330.247 160.332 330.592 162.787 332.662 164.075C337.069 166.822 339.75 160.637 340.281 157.505Z" fill="#EDC4AE"/>
<path d="M307.59 186.546C312.023 185.882 314.518 181.529 314.611 177.361C314.718 172.835 311.771 170.167 309.594 166.477C305.692 159.894 305.918 155.793 306.409 154.253C306.9 152.713 307.271 148.214 306.502 146.011C305.838 144.099 303.794 143.276 301.949 143.98C300.25 144.617 298.153 146.422 296.945 152.289C294.45 164.447 298.445 175.702 302.852 184.077C303.714 185.71 305.44 186.745 307.271 186.586C307.378 186.572 307.484 186.559 307.59 186.546Z" fill="#EEC19A"/>
<path d="M305.373 146.236C305.135 145.705 304.325 144.391 302.56 144.033C302.294 143.98 301.577 143.993 301.285 144.033C300.688 144.113 300.224 144.604 299.719 145.241C299.427 145.599 299.175 145.984 298.949 146.382C298.219 147.418 297.741 148.625 297.542 149.913C297.383 150.922 297.33 152.13 297.98 152.992C298.591 153.815 299.626 153.908 300.555 153.629C302.759 152.939 304.431 150.67 305.161 148.572C305.373 147.895 305.705 147.006 305.373 146.236Z" fill="#EDCEC3"/>
<path d="M299.387 148.705C298.83 148.585 297.861 148.453 297.702 149.103C297.436 150.205 297.33 150.762 297.41 151.479C297.516 152.527 297.675 153.204 298.737 153.616C299.613 153.961 300.675 153.695 301.458 153.31C302.082 153.005 302.905 152.434 303.077 151.678C303.436 149.979 300.715 148.997 299.387 148.705Z" fill="white"/>
<path d="M303.568 144.312C302.652 143.887 301.192 143.688 300.409 144.471C300.316 144.551 300.21 144.67 300.21 144.67C300.21 144.67 301.564 144.192 303.104 144.883C304.962 145.719 305.241 148.334 305.241 148.334C305.241 148.334 305.533 147.55 305.519 146.86C305.506 145.626 304.696 144.83 303.568 144.312Z" fill="white"/>
<path d="M301.803 153.802C300.98 154.107 300.224 154.545 299.321 154.545C298.259 154.545 297.436 153.988 297.118 152.966C297.078 152.859 296.919 152.873 296.919 152.992C296.812 155.7 300.542 155.156 301.962 154.213C302.175 154.08 302.055 153.709 301.803 153.802Z" fill="#D3A484"/>
<path d="M301.524 161.367C300.157 161.075 297.834 160.359 296.693 161.54C296.6 161.633 296.693 161.779 296.812 161.752C297.516 161.593 298.14 161.434 298.883 161.5C299.719 161.566 300.542 161.779 301.378 161.898C301.723 161.938 301.883 161.447 301.524 161.367Z" fill="#D3A484"/>
<path d="M299.759 162.576C299.374 162.376 298.87 162.39 298.445 162.416C298.073 162.443 297.609 162.469 297.343 162.775C297.277 162.841 297.303 162.934 297.396 162.974C297.728 163.106 298.1 163 298.445 162.987C298.843 162.974 299.241 163.08 299.626 163.04C299.852 163.027 299.998 162.708 299.759 162.576Z" fill="#D3A484"/>
<path d="M322.708 126.128C321.978 125.252 320.783 124.535 319.828 123.924C318.726 123.221 317.598 122.557 316.377 122.119C315.978 121.973 314.279 123.062 313.974 123.805C313.629 124.641 314.333 125.424 314.863 125.982C316.297 127.468 318.288 128.357 320.345 128.45C321.128 128.49 322.097 128.464 322.668 127.827C323.146 127.309 323.146 126.645 322.708 126.128Z" fill="#EDCEC3"/>
<path d="M316.363 122.106C315.74 122.026 315.195 122.504 314.757 122.889C314.187 123.393 313.895 123.792 313.842 124.11C313.775 124.535 314.067 124.933 314.067 124.933C314.067 124.933 314.744 123.805 315.275 123.327C315.713 122.929 316.695 122.239 316.695 122.239C316.695 122.239 316.456 122.119 316.363 122.106Z" fill="white"/>
<path d="M322.947 126.5C322.761 125.876 322.097 125.438 321.619 125.053C321.035 124.575 320.398 124.296 319.721 123.845C319.642 123.792 319.496 123.712 319.496 123.712C319.496 123.712 318.009 125.504 318.354 128.106C318.354 128.106 320.093 128.663 321.513 128.477C322.495 128.345 323.292 127.628 322.947 126.5Z" fill="white"/>
<path d="M323.411 127.88C322.695 130.189 320.332 129.3 318.62 129.14C318.514 129.127 318.474 129.3 318.567 129.353C320.186 130.216 323.411 130.362 323.81 127.986C323.836 127.734 323.491 127.627 323.411 127.88Z" fill="#E2B28F"/>
<path d="M329.477 140.754C328.216 140.529 326.61 140.98 325.535 141.657C325.402 141.737 325.482 141.989 325.654 141.923C326.225 141.697 326.783 141.458 327.393 141.312C328.07 141.153 328.747 141.166 329.437 141.086C329.596 141.06 329.676 140.781 329.477 140.754Z" fill="#E2B28F"/>
<path d="M329.052 142.215C328.336 142.161 327.552 142.281 326.929 142.666C326.809 142.732 326.889 142.918 327.022 142.878C327.712 142.719 328.349 142.586 329.052 142.626C329.318 142.639 329.318 142.241 329.052 142.215Z" fill="#E2B28F"/>
<path d="M338.569 142.533C337.56 142.082 336.339 142.162 335.344 142.626C335.224 142.679 335.304 142.879 335.436 142.839C336.485 142.56 337.388 142.613 338.423 142.865C338.609 142.905 338.755 142.613 338.569 142.533Z" fill="#E2B28F"/>
<path d="M338.941 143.834C338.317 143.542 337.494 143.568 336.843 143.767C336.671 143.821 336.684 144.126 336.883 144.099C337.215 144.059 337.534 144.02 337.865 144.046C338.197 144.073 338.516 144.152 338.834 144.192C339.033 144.205 339.113 143.9 338.941 143.834Z" fill="#E2B28F"/>
<path d="M345.458 145.241C344.555 144.816 343.241 144.551 342.259 144.75C342.139 144.777 342.153 144.949 342.259 144.976C342.763 145.108 343.281 145.108 343.798 145.201C344.316 145.294 344.807 145.467 345.325 145.573C345.511 145.613 345.657 145.334 345.458 145.241Z" fill="#D3A484"/>
<path d="M345.232 146.316C344.608 146.17 343.851 146.143 343.228 146.196C343.108 146.209 343.068 146.382 343.201 146.422C343.812 146.594 344.555 146.727 345.192 146.714C345.404 146.714 345.457 146.369 345.232 146.316Z" fill="#D3A484"/>
<path d="M162.929 265.4C165.052 262.732 172.844 253.786 175.989 252.273C177.702 251.45 158.204 211.193 157.089 211.087C151.567 210.596 145.913 213.211 141.201 215.839C135.719 218.892 115.757 230.811 109.121 254.689C106.466 264.232 111.536 274.492 119.726 280.332C123.402 282.947 130.915 285.575 135.454 285.614C140.856 285.654 145.807 283.398 149.961 280.066C155.111 275.965 158.881 270.497 162.929 265.4Z" fill="#8ED0F7"/>
<path d="M180.927 247.243C182.705 243.831 182.095 239.505 180.17 235.815C178.485 232.563 170.109 216.742 169.34 215.839C164.561 210.198 155.947 209.495 149.377 212.733C144.679 215.056 140.352 220.763 139.064 225.395C135.812 237.076 143.604 248.742 154.58 253.428C159.996 255.737 166.114 256.812 171.676 254.901C175.512 253.587 179.029 250.879 180.927 247.243Z" fill="#EFF8FE"/>
<path d="M179.467 238.496C179.639 234.249 177.715 230.214 175.525 226.696C172.976 222.608 169.831 218.666 165.344 216.609C161.19 214.698 155.934 214.578 152.218 217.525C150.466 218.905 147.346 221.772 146.656 228.594C146.205 233.107 148.554 237.474 151.103 241.044C153.691 244.668 157.288 247.814 161.562 249.22C169.247 251.729 179.108 247.309 179.467 238.496Z" fill="#203662"/>
<path d="M197.783 230.572C198.779 227.001 199.907 223.471 201.141 219.98C202.389 216.489 203.836 213.078 205.216 209.64C205.322 209.375 205.11 209.189 204.884 209.189C204.871 209.163 204.845 209.136 204.831 209.109C205.229 208.963 205.614 208.817 205.999 208.671C206.172 208.605 206.079 208.3 205.893 208.353C203.318 209.149 200.796 209.853 198.5 211.352C196.642 212.56 195.049 214.206 194.133 216.25C193.204 218.294 193.271 220.444 193.961 222.555C194.85 225.289 196.045 227.944 197.106 230.611C197.213 230.903 197.704 230.877 197.783 230.572Z" fill="#E2B7A3"/>
<path d="M243.535 209.747C244.637 203.933 238.04 198.398 232.293 196.235C225.816 193.806 219.883 192.943 213.047 193.447C198.739 194.509 184.882 200.256 173.069 208.233C172.711 208.472 165.782 213.304 162.876 215.799C160.248 218.055 157.739 220.458 155.363 222.98C153.585 224.878 151.036 227.107 150.054 229.55C147.851 235.058 148.461 239.478 154.262 244.681C161.309 251.012 167.004 250.468 168.981 248.941C170.733 247.574 172.79 244.03 174.675 243.022C177.516 241.495 179.653 239.849 182.692 240.964C183.608 241.296 184.524 241.641 185.44 241.973C188.439 243.075 194.916 243.38 197.624 241.177C203.637 236.266 193.191 226.882 195.049 220.551C196.257 216.436 203.982 204.716 218.781 207.185C226.572 208.486 236.819 212.282 241.703 211.286C241.942 211.26 243.256 211.22 243.535 209.747Z" fill="#F7D5BF"/>
<path d="M244.345 207.928C244.318 206.946 243.801 206.03 243.27 205.221C241.305 202.261 239.978 201.013 239.42 200.655C239.354 200.615 237.775 199.487 237.695 199.553C235.824 200.96 236.992 203.774 237.934 205.367C238.929 207.066 240.721 209.309 242.925 209.043C243.708 208.95 244.371 208.831 244.345 207.928Z" fill="#EDCEC3"/>
<path d="M240.442 201.571C239.978 201.093 238.345 199.5 237.934 199.487C237.164 199.461 236.792 200.775 236.713 201.359C236.62 202.022 236.66 203.336 237.562 203.429C238.584 203.522 239.872 202.633 240.588 201.996C240.761 201.823 240.575 201.704 240.442 201.571Z" fill="white"/>
<path d="M244.212 208.632C244.411 208.459 244.345 207.756 244.345 207.756C244.345 207.756 243.562 208.207 243.15 208.287C242.778 208.353 242.393 208.367 242.009 208.3C241.69 208.247 241.371 208.154 241.079 207.995C240.774 207.836 240.522 207.583 240.19 207.451C240.084 207.411 239.925 207.491 239.978 207.623C240.469 208.99 243.15 209.561 244.212 208.632Z" fill="white"/>
<path d="M181.59 228.502C184.803 225.369 189.78 226.02 193.151 228.462C196.814 231.117 197.16 235.072 198.779 239.041C201.659 246.128 205.057 248.438 206.583 248.969C208.096 249.513 211.906 251.942 213.207 253.88C214.335 255.565 213.751 257.689 212.065 258.738C210.525 259.706 207.818 260.277 202.429 257.689C191.24 252.313 184.696 242.332 180.701 233.745C179.918 232.072 180.144 230.068 181.378 228.701C181.431 228.661 181.511 228.582 181.59 228.502Z" fill="#EEC19A"/>
<path d="M210.326 253.415C208.229 252.725 205.402 252.685 203.517 254.025C202.734 254.583 202.19 255.472 202.469 256.454C202.761 257.49 203.756 258.18 204.659 258.671C205.8 259.295 207.061 259.64 208.322 259.68C208.773 259.746 209.238 259.773 209.702 259.759C210.512 259.746 211.189 259.666 211.614 259.242C211.826 259.029 212.264 258.472 212.384 258.233C213.167 256.6 212.622 255.167 212.33 254.649C211.932 253.919 211.016 253.641 210.326 253.415Z" fill="#EDCEC3"/>
<path d="M206.597 253.202C205.893 252.87 204.937 253.189 204.314 253.494C203.531 253.892 202.681 254.569 202.416 255.472C202.097 256.573 202.681 257.224 203.451 257.954C203.982 258.445 204.805 259.002 205.442 259.002C206.119 259.002 206.318 258.339 206.597 257.848C207.207 256.759 208.176 253.932 206.597 253.202Z" fill="white"/>
<path d="M212.782 257.25C212.569 258.246 211.866 259.401 210.764 259.666C210.645 259.693 210.353 259.732 210.353 259.732C210.353 259.732 211.614 258.856 211.892 257.038C212.131 255.525 210.924 253.627 210.924 253.627C210.924 253.627 211.667 253.866 211.906 254.105C212.768 254.981 213.047 256.043 212.782 257.25Z" fill="white"/>
<path d="M204.154 252.924C203.411 253.389 202.615 253.734 202.071 254.45C201.42 255.3 201.367 256.295 202.004 257.158C202.071 257.251 201.951 257.37 201.858 257.304C199.642 255.751 202.323 253.11 203.942 252.552C204.154 252.459 204.367 252.778 204.154 252.924Z" fill="#D3A484"/>
<path d="M197.956 248.557C197.359 249.831 196.522 252.101 194.903 252.3C194.77 252.313 194.717 252.154 194.81 252.074C195.368 251.61 195.859 251.198 196.257 250.574C196.708 249.858 197.04 249.088 197.451 248.345C197.624 248.066 198.115 248.238 197.956 248.557Z" fill="#D3A484"/>
<path d="M195.925 249.234C195.846 249.658 195.54 250.057 195.262 250.375C195.009 250.654 194.704 251.012 194.306 251.039C194.213 251.039 194.16 250.959 194.173 250.88C194.266 250.534 194.585 250.309 194.797 250.03C195.049 249.725 195.208 249.34 195.474 249.061C195.633 248.889 195.978 248.968 195.925 249.234Z" fill="#D3A484"/>
<path d="M250.49 221.865C248.645 213.463 242.473 207.079 234.908 204C234.855 203.947 234.775 203.894 234.682 203.867C232.492 203.111 229.333 202.009 228.922 199.633C228.776 198.81 228.895 197.947 228.908 197.111C228.948 195.479 229.267 193.753 229.134 192.134C228.948 189.785 227.422 188.749 225.179 188.471C223.201 188.232 221.529 188.603 221.024 190.714C220.387 193.395 220.998 196.501 220.175 199.275C219.524 201.478 217.374 202.381 215.317 203.336C210.977 204.584 206.955 206.854 203.769 210.119C195.036 219.065 193.841 233.081 200.73 243.434C208.003 254.37 222.365 258.339 234.363 253.123C246.11 247.999 253.251 234.435 250.49 221.865ZM205.15 244.15C197.876 235.762 197.319 223.498 203.889 214.525C206.756 210.623 210.711 207.836 215.197 206.309C215.41 206.402 215.662 206.442 215.954 206.376C220.148 205.433 224.369 204.929 228.537 205.513C229.519 205.686 230.488 205.885 231.47 206.11C232.173 206.309 232.877 206.535 233.567 206.8C239.288 209.004 244.119 213.503 246.375 219.237C250.556 229.816 245.712 242.425 236.354 248.477C226.479 254.862 212.848 253.043 205.15 244.15Z" fill="#F18634"/>
<path d="M248.234 228.595C248.313 221.002 245.101 213.663 239.182 208.871C235.983 206.296 229.983 204.226 225.564 204.239C215.065 204.265 203.663 209.468 200.066 219.503C197.239 227.387 199.801 237.66 204.858 244.164C208.203 248.464 216.565 252.074 220.374 252.499C235.306 254.158 248.074 243.938 248.234 228.595Z" fill="#F4E6ED"/>
<path d="M231.311 241.987C239.155 237.288 241.69 226.125 236.938 218.294C232.519 211.021 223.082 209.853 216.273 213.636C215.184 214.127 214.149 214.737 213.233 215.467C206.597 220.75 205.044 230.28 209.809 237.314C214.587 244.376 224.037 246.34 231.311 241.987Z" fill="#453C4A"/>
<path d="M238.359 225.993C237.655 221.546 236.58 217.618 233.235 215.375C229.851 212.813 224.316 212.441 220.745 213.583C219.883 213.861 219.657 215.295 220.467 215.773C225.404 218.679 228.046 223.511 228.178 229.192C228.258 232.51 229.572 238.177 234.257 236.651C238.398 235.297 238.889 229.391 238.359 225.993Z" fill="#352E36"/>
<path d="M236.46 203.721C236.036 202.898 235.505 202.274 235.651 201.266C235.757 200.443 236.275 199.885 236.699 199.221C236.766 199.115 236.633 198.996 236.527 199.036C234.602 199.633 234.43 203.15 236.182 204.053C236.394 204.159 236.567 203.907 236.46 203.721Z" fill="#E2B28F"/>
<path d="M216.299 199.142C216.472 198.213 216.273 197.191 216.087 196.275C215.914 195.465 215.728 194.51 215.224 193.833C215.118 193.7 214.932 193.82 214.958 193.966C215.012 194.828 215.357 195.691 215.503 196.554C215.649 197.417 215.649 198.319 215.848 199.169C215.901 199.447 216.246 199.394 216.299 199.142Z" fill="#E2B28F"/>
<path d="M217.334 198.558C217.52 197.828 217.507 197.071 217.454 196.328C217.414 195.717 217.441 194.708 216.963 194.257C216.923 194.231 216.857 194.217 216.83 194.27C216.551 194.828 216.79 195.664 216.817 196.261C216.843 197.018 216.79 197.788 216.843 198.544C216.87 198.77 217.281 198.796 217.334 198.558Z" fill="#E2B28F"/>
<path d="M369.88 171.932C368.42 174.176 367.172 178.211 368.592 180.427C369.468 181.794 369.561 181.701 370.795 182.737C372.242 183.944 387.904 194.563 394.448 198.359C395.987 199.248 399.691 201.226 401.522 201.119C403.261 201.013 404.933 199.367 406.101 197.921C406.553 197.35 434.479 157.412 441.646 144.816C442.429 143.449 441.792 141.206 440.518 140.356C435.381 136.919 371.791 173.193 369.88 171.932Z" fill="#15223E"/>
<path d="M422.573 127.667C421.232 126.765 409.048 119.491 407.336 119.704C406.619 119.797 405.703 120.673 404.641 122.013C404.349 122.372 403.354 123.712 402.85 124.615C402.584 125.093 371.817 168.893 371.539 169.318C370.079 171.574 367.504 175.158 369.123 177.175C370.145 178.436 371.234 179.286 372.468 180.308C373.915 181.516 389.577 192.134 396.12 195.93C397.66 196.819 399.399 198.2 401.23 198.346C402.558 198.452 403.606 197.562 404.363 196.487C408.411 190.753 440.16 144.736 440.757 143.542C441.474 142.122 440.956 140.476 439.775 139.52C438.846 138.764 432.714 134.516 422.573 127.667Z" fill="#203662"/>
<g filter="url(#filter0_d)">
<path d="M420.848 130.92C419.733 130.163 409.632 124.296 408.199 124.469C407.601 124.549 406.845 125.279 405.942 126.394C405.703 126.699 404.867 127.814 404.442 128.57C404.217 128.968 378.507 165.31 378.281 165.668C377.06 167.553 374.923 170.539 376.264 172.225C377.113 173.287 378.029 173.977 379.051 174.84C380.259 175.848 393.32 184.701 398.775 187.874C400.062 188.617 401.509 189.772 403.035 189.891C404.137 189.971 405.013 189.227 405.65 188.338C409.021 183.547 435.514 145.188 436.005 144.192C436.602 143.011 436.164 141.631 435.196 140.834C434.426 140.184 429.302 136.64 420.848 130.92Z" fill="#EFF8FE"/>
</g>
<path d="M419.666 158.315C419.865 157.2 421.697 154.054 419.533 148.32C419.149 147.298 418.233 145.958 417.609 145.095C416.64 143.754 415.366 142.759 413.8 141.896C409.313 139.441 404.084 140.728 400.089 143.516C395.642 146.621 393.519 151.4 395.496 156.603C396.133 158.288 397.009 160.014 398.111 161.54C400.168 164.659 403.606 166.942 407.389 166.624C412.592 166.544 418.684 163.823 419.666 158.315Z" fill="white"/>
<path d="M389.696 185.497C389.723 184.555 389.298 183.626 388.502 183.095C388.117 182.83 387.639 182.67 387.174 182.63C386.365 182.577 385.435 182.949 385.011 183.666C385.011 183.679 384.997 183.679 384.997 183.692C384.639 184.117 384.4 184.661 384.36 185.205C384.281 186.121 384.719 187.117 385.502 187.608C386.311 188.125 387.307 188.205 388.183 187.794C389.046 187.382 389.67 186.466 389.696 185.497Z" fill="#15223E"/>
<path d="M419.759 159.402C419.188 157.796 418.405 156.27 417.649 154.757C416.879 153.23 416.083 151.717 415.286 150.204C414.53 148.757 413.8 147.231 412.725 145.983C412.446 145.665 412.021 146.05 412.247 146.382C413.747 148.691 414.954 151.173 416.215 153.615C416.826 154.797 417.436 155.991 418.007 157.212C418.286 157.823 418.551 158.433 418.817 159.044C419.149 159.84 419.958 161.061 419.135 161.845C418.976 161.991 419.135 162.296 419.348 162.19C420.41 161.606 420.091 160.345 419.759 159.402Z" fill="#FCCC55"/>
<path d="M411.318 145.479C409.154 145.4 406.964 145.267 404.814 145.174C402.664 145.081 400.527 144.975 398.377 144.882C397.381 144.842 395.47 144.524 395.443 146.023C395.443 146.249 395.802 146.355 395.855 146.103C396.08 145.041 399.345 145.638 400.089 145.678C401.456 145.745 402.823 145.798 404.19 145.864C405.491 145.917 406.792 145.984 408.092 146.037C408.809 146.063 409.526 146.103 410.242 146.13C410.415 146.143 412.472 146.382 412.26 146.581C411.928 146.886 412.366 147.417 412.711 147.112C413.72 146.209 412.287 145.519 411.318 145.479Z" fill="#FCCC55"/>
<path d="M419.68 161.075C418.883 158.474 413.202 147.563 412.605 146.568C412.393 146.223 411.915 146.01 411.384 145.984C409.526 145.891 407.668 145.824 405.796 145.745C405.517 145.732 397.341 145.453 396.226 145.413C395.165 145.373 394.992 146.422 395.523 147.417C397.992 152.076 401.615 155.7 405.358 158.195C409.048 160.65 411.742 161.739 417.702 162.363C418.724 162.469 420.011 162.163 419.68 161.075Z" fill="#F18634"/>
<path d="M397.62 150.058C397.461 150.284 395.948 152.355 396.08 153.045C396.173 153.523 398.191 156.018 403.46 159.628C408.544 163.119 412.061 164.194 412.472 163.968C412.738 163.822 412.884 163.637 413.07 163.438C413.295 163.199 415.114 160.491 415.711 159.336C415.857 159.057 416.109 158.779 416.043 158.407C416.003 158.142 413.893 154.452 409.207 151.24C404.694 148.147 400.314 147.377 399.664 147.497C399.465 147.523 398.801 148.306 397.62 150.058Z" fill="#FCCC55"/>
<path d="M411.995 161.95C410.667 160.504 408.491 158.287 405.212 156.031C402.584 154.226 398.589 152.261 397.992 152.367C397.487 152.447 397.368 152.686 397.514 152.898C399.863 156.442 406.194 161.061 411.663 162.442C411.928 162.521 412.207 162.189 411.995 161.95Z" fill="#F18634"/>
<path d="M406.911 167.871C407.004 167.605 407.017 167.34 406.951 167.074C407.017 167.061 407.084 167.035 407.15 166.981C407.296 166.875 407.336 166.716 407.336 166.583C409.406 163.557 411.464 160.531 413.534 157.518C414.53 156.058 415.658 154.638 416.521 153.098C416.879 152.474 417.198 151.625 416.521 151.16C416.361 151.054 416.096 151.107 415.963 151.2C415.817 151.319 415.91 151.505 416.056 151.492C416.852 151.452 415.976 152.846 415.883 153.005C415.711 153.297 415.499 153.563 415.299 153.841C414.888 154.439 414.463 155.049 414.078 155.66C414.065 155.673 414.065 155.686 414.065 155.699C413.348 156.735 412.632 157.757 411.928 158.792C410.243 161.234 408.53 163.676 406.845 166.119C406.792 166.119 406.738 166.132 406.685 166.159C406.659 166.172 406.646 166.185 406.619 166.198C406.579 166.198 406.539 166.225 406.5 166.251C406.367 166.371 406.34 166.517 406.354 166.65C406.141 166.849 405.955 167.074 405.743 167.3C405.557 167.499 405.809 167.831 406.022 167.632C406.048 167.605 406.075 167.579 406.101 167.552C406.062 167.658 406.022 167.751 405.982 167.857C405.862 168.176 406.327 168.322 406.473 168.03C406.486 168.017 406.486 168.003 406.486 167.977C406.632 168.083 406.831 168.083 406.911 167.871Z" fill="#F18634"/>
<path d="M108.616 89.9063C107.355 88.8179 78.1415 150.829 77.4779 151.373C78.3141 152.302 80.8492 159.018 82.9729 160.412C86.6229 153.351 106.36 113.492 109.89 105.409C113.421 97.3391 112.107 92.8926 108.616 89.9063Z" fill="#EFE1E5"/>
<path d="M9.67997 91.5785C8.76415 93.4499 0.362411 110.877 0.946418 113.014C1.18533 113.917 2.48607 114.912 4.37082 116.027C4.88846 116.332 6.75994 117.354 8.02086 117.846C8.68451 118.098 71.3856 148.678 71.9829 148.957C75.1153 150.404 80.159 153.032 82.4154 150.603C83.8489 149.077 104.541 108.05 108.191 99.0378C109.054 96.9142 110.488 94.4587 110.328 92.0961C110.222 90.3972 108.895 89.2159 107.395 88.4461C99.3516 84.3447 37.4734 54.9187 35.8408 54.3746C33.903 53.7242 31.8988 54.6798 30.89 56.3522C30.1069 57.6662 16.5553 77.4296 9.67997 91.5785Z" fill="#FCCC55"/>
<path d="M84.1011 161.155C84.1144 160.106 81.8049 158.898 81.5527 156.031C81.3802 154.04 82.15 152.315 82.9862 151.054C83.7958 149.846 83.3578 148.2 82.0571 147.537C69.116 141.006 14.7901 113.598 3.83996 107.851C2.77813 107.293 1.45084 107.798 1.03938 108.926C-2.25229 118.018 2.93741 122.265 7.37055 124.575C7.90146 124.853 9.75967 125.902 11.0206 126.38C11.6046 126.605 67.2578 155.487 81.4731 161.951C82.4818 162.416 83.5702 161.991 84.1011 161.155Z" fill="#F18634"/>
<path d="M45.9947 72.9034C43.141 71.3106 40.2873 69.7179 37.4336 68.1517C36.7302 67.7668 35.8542 67.9924 35.4294 68.6826C29.231 78.7169 23.3644 89.0963 18.5596 99.8739C18.2543 100.551 17.7898 101.865 19.5285 102.754C22.5282 104.267 24.7846 104.652 27.7843 105.979C28.501 106.298 29.4566 106.086 29.8017 105.448C35.3763 95.2682 40.951 85.1012 46.5256 74.9341C46.9105 74.244 46.7114 73.3016 45.9947 72.9034Z" fill="#F4E6ED"/>
<path d="M26.3507 96.6881C25.8596 96.489 25.3154 96.3695 24.8642 96.7279C24.3332 97.1261 24.2934 97.6702 24.4925 98.1481C24.3863 98.095 24.2802 98.0419 24.1607 98.0021C23.8952 97.9091 23.6696 98.3073 23.882 98.4932C24.4129 98.9312 25.0367 99.2364 25.634 99.5683C26.218 99.9001 26.802 100.298 27.4524 100.484C27.678 100.55 27.8506 100.245 27.678 100.086C27.1869 99.6081 26.5498 99.3028 25.9658 98.971C25.78 98.8648 25.5942 98.7586 25.4216 98.6392C25.2491 98.4003 25.1163 98.1215 25.1031 97.8428C25.0633 97.1393 25.6605 97.1791 26.1384 97.3915C26.8551 97.6968 27.5055 98.1215 28.1691 98.5064C28.5806 98.7453 28.9389 98.1215 28.5275 97.8561C27.8373 97.4313 27.1206 96.9933 26.3507 96.6881Z" fill="#2F3333"/>
<path d="M26.4701 93.9938C25.687 94.2327 26.0321 95.4804 26.4303 95.9715C27.1603 96.874 28.4743 97.3784 29.5096 96.6749C31.5138 95.3078 28.0762 92.786 26.4701 93.9938ZM29.2707 96.0378C28.7929 96.5953 27.9169 96.4095 27.386 96.0511C26.802 95.6529 26.5498 95.1751 26.6825 94.5778C27.2267 94.2593 27.7576 94.1265 28.3947 94.4451C28.9522 94.7238 29.8016 95.414 29.2707 96.0378Z" fill="#2F3333"/>
<path d="M30.6777 90.7821C30.4786 90.7025 30.2795 90.9812 30.399 91.1538C30.6113 91.4458 30.9564 91.6449 31.129 91.9634C31.3944 92.428 31.2484 93.0518 30.5981 93.0783C30.4123 93.0916 30.2264 93.0252 30.0539 92.9721C29.8813 92.9323 29.7221 92.866 29.5628 92.8129C29.669 92.6138 29.7486 92.4147 29.8017 92.2023C29.8813 91.8572 29.377 91.6316 29.2044 91.9634C29.0982 92.1625 29.0186 92.3616 28.9257 92.5607C28.4479 92.3483 27.97 92.136 27.4789 91.9634C27.2799 91.897 27.1206 92.189 27.2799 92.3218C27.678 92.6669 28.1691 92.9323 28.6602 93.1447C28.6204 93.2641 28.5939 93.3969 28.6204 93.5296C28.6337 93.6225 28.7399 93.6623 28.8195 93.649C28.9921 93.6225 29.1115 93.5031 29.2177 93.3703C29.3504 93.4234 29.4832 93.4632 29.6159 93.503C30.1601 93.6756 30.8237 93.8614 31.3414 93.5429C32.5492 92.8129 31.6599 91.1538 30.6777 90.7821Z" fill="#2F3333"/>
<path d="M32.735 87.6626C32.443 87.5963 32.2572 88.0077 32.5359 88.167C33.2129 88.5519 33.3323 89.4014 32.6421 89.8792C32.1245 90.2243 31.4874 90.1048 30.983 89.8128C31.567 88.9766 32.2174 87.5697 30.8901 87.4768C29.5495 87.3972 28.9788 88.459 29.7354 89.5208C29.9079 89.7597 30.107 89.9721 30.3459 90.1579C30.3592 90.2641 30.4521 90.3438 30.5583 90.3039C31.3679 90.8349 32.4032 90.9809 33.1996 90.3039C34.0756 89.5607 34.0092 87.9414 32.735 87.6626ZM30.0805 88.5519C30.1203 88.2068 30.3725 88.0741 30.691 88.1272C30.9432 88.313 30.9565 88.4855 30.8768 88.7112C30.7706 88.9634 30.691 89.2421 30.5716 89.4943C30.2397 89.2023 30.0274 89.0297 30.0805 88.5519Z" fill="#2F3333"/>
<path d="M33.4251 84.5969C32.6155 84.9288 32.3766 85.7782 32.6022 86.495C32.0315 86.256 31.4607 86.0304 30.8502 85.8977C30.6644 85.8579 30.5582 86.1101 30.7307 86.2162C31.5669 86.7604 32.6155 87.2383 33.5977 87.5833C33.6375 87.5966 33.6773 87.6232 33.7304 87.6364H33.7437C33.8233 87.663 33.9162 87.7028 33.9959 87.7294C34.6462 87.9417 35.0046 87.6364 35.2966 87.0392C35.8673 85.7782 34.978 83.9598 33.4251 84.5969ZM33.1198 86.057C33.1198 85.4862 33.6906 84.9819 34.248 85.1544C34.3808 85.1942 34.487 85.2739 34.5799 85.3535C34.9382 85.672 34.9382 86.1101 34.7126 86.4817C34.5533 86.7472 34.2879 87.1719 33.6773 86.933C33.3455 86.7471 33.1597 86.4551 33.1198 86.057Z" fill="#2F3333"/>
<path d="M35.3896 78.2259C34.6065 78.4648 34.9516 79.7125 35.3498 80.2036C36.0798 81.1062 37.3938 81.6105 38.4291 80.9071C40.4465 79.5532 36.9956 77.0181 35.3896 78.2259ZM38.2034 80.27C37.7256 80.8274 36.8496 80.6416 36.3187 80.2832C35.7347 79.885 35.4825 79.4072 35.6152 78.8099C36.1594 78.4914 36.6903 78.3587 37.3274 78.6772C37.8716 78.9559 38.7211 79.6461 38.2034 80.27Z" fill="#2F3333"/>
<path d="M33.6243 81.3583C32.8412 81.5972 33.1863 82.8449 33.5845 83.336C34.3145 84.2385 35.6285 84.7429 36.6638 84.0394C38.668 82.6723 35.2303 80.1372 33.6243 81.3583ZM36.4382 83.3891C35.9603 83.9465 35.0843 83.7607 34.5534 83.4023C33.9694 83.0041 33.7172 82.5263 33.85 81.9291C34.3941 81.6105 34.9251 81.4778 35.5622 81.7963C36.1063 82.0751 36.9558 82.7785 36.4382 83.3891Z" fill="#2F3333"/>
<path d="M40.8182 76.1817C40.1015 76.3542 39.398 76.6462 38.8273 77.1108C38.522 76.6197 38.2035 76.1153 37.6991 75.8233C37.5796 75.757 37.4469 75.8897 37.5133 76.0224C37.7389 76.4604 38.0707 76.8453 38.3229 77.2701C38.1769 77.2037 38.0442 77.1373 37.8982 77.071C37.354 76.8321 36.8364 76.5135 36.2391 76.4737C36.0665 76.4604 35.9869 76.6993 36.1063 76.8055C36.5444 77.2303 37.1682 77.4293 37.7256 77.6815C38.3627 77.9735 38.9998 78.2522 39.6369 78.531C39.982 78.677 40.2873 78.1726 39.9289 78.0001C39.6635 77.8806 39.4113 77.7612 39.1458 77.6417C39.7298 77.2833 40.3006 76.9648 40.9908 76.8055C41.4022 76.7126 41.2297 76.0888 40.8182 76.1817Z" fill="#2F3333"/>
<path d="M394.501 54.1757C393.638 46.0793 388.82 40.8099 386.285 38.6066C385.475 37.3722 384.36 36.3237 383.02 35.4875C380.206 33.7487 376.835 33.4036 373.636 33.032C366.867 32.2356 359.898 31.8507 353.74 35.3017C341.688 42.0443 341.914 57.2417 346.718 68.537C348.019 71.5897 349.705 74.2443 351.948 76.6865C353.089 77.9342 354.311 79.0358 355.691 80.0047C356.076 80.2702 356.447 80.5888 356.832 80.8808C363.96 87.0394 374.406 84.8228 380.777 81.3055C393.24 74.4169 395.642 65.0728 394.501 54.1757Z" fill="#F18634"/>
<path d="M391.222 58.6353C391.621 48.6142 384.865 39.8541 375.521 37.1199C373.994 36.4164 372.402 35.8457 370.703 35.4741C365.155 34.2397 359.872 35.567 355.279 38.8454C350.806 42.0441 347.302 46.4109 346.466 51.959C345.657 57.2682 346.798 62.9489 349.2 67.7272C353.673 76.6333 363.694 82.553 373.716 80.3497C383.75 78.1331 390.838 68.7227 391.222 58.6353Z" fill="#453C4A"/>
<path d="M384.413 56.1796C386.962 50.5519 386.232 41.2343 385.714 38.1019C383.843 26.7802 376.484 11.6756 356.004 2.10585C354.773 1.53089 353 0.5 351.5 0C351 0.5 350.116 2.34128 349.5 3.12787C349 4 348.152 6.15411 347.886 7.22921C347.541 8.63614 347.276 10.0696 347.077 11.5031C346.732 14.1046 346.599 16.7326 346.652 19.3474C346.851 29.2622 349.147 40.1062 355.532 47.9504C359.115 52.357 363.92 55.8345 369.495 57.1883C369.787 57.2547 372.335 58.3962 373.291 58.8873C374.817 59.6837 376.37 60.6924 378.016 61.2233C381.427 62.3117 383.259 58.7546 384.413 56.1796Z" fill="#8ED0F7"/>
<path d="M377.737 57.8257C368.22 44.075 351.643 43.9158 346.546 44.7121C340.785 45.628 335.158 47.2605 329.782 49.5036C327.154 50.6053 324.579 51.8662 322.097 53.2731C320.916 53.9501 319.748 54.6535 318.62 55.3835C317.624 56.0206 314 57.4985 313 58.4985C314 58.9985 315.5 59.9985 316.894 60.9316C317.943 61.9536 319.164 62.8562 320.305 63.772C322.456 65.4975 324.646 67.1831 326.929 68.7228C335.476 74.5098 346.015 78.5314 356.421 76.0494C357.058 75.8901 357.775 75.7043 358.518 75.4521C358.77 75.3725 359.036 75.3061 359.288 75.2663C361.717 74.8549 364.119 73.7665 366.07 72.625C367.968 71.5234 369.707 70.1828 371.419 68.829C371.844 68.4839 372.295 68.152 372.733 67.8202C373.662 67.13 374.777 66.7584 375.932 66.7318C376.596 66.7186 377.259 66.6389 377.87 66.3469C381.254 64.7675 379.184 59.9096 377.737 57.8257Z" fill="#EFF8FE"/>
<defs>
<filter id="filter0_d" x="371.837" y="124.465" width="68.4401" height="73.4317" filterUnits="userSpaceOnUse" color-interpolation-filters="sRGB">
<feFlood flood-opacity="0" result="BackgroundImageFix"/>
<feColorMatrix in="SourceAlpha" type="matrix" values="0 0 0 0 0 0 0 0 0 0 0 0 0 0 0 0 0 0 127 0"/>
<feOffset dy="4"/>
<feGaussianBlur stdDeviation="2"/>
<feColorMatrix type="matrix" values="0 0 0 0 0 0 0 0 0 0 0 0 0 0 0 0 0 0 0.25 0"/>
<feBlend mode="normal" in2="BackgroundImageFix" result="effect1_dropShadow"/>
<feBlend mode="normal" in="SourceGraphic" in2="effect1_dropShadow" result="shape"/>
</filter>
</defs>
</svg>
