<svg width="21" height="21" viewBox="0 0 21 21" fill="none" xmlns="http://www.w3.org/2000/svg">
<path d="M19.1482 6.839C18.1574 4.52901 16.4737 2.84902 14.1444 1.8556C12.9802 1.35908 11.7606 1.10547 10.4863 1.10547C9.21234 1.10547 8.00166 1.35669 6.83876 1.8556C4.52877 2.84638 2.8376 4.52529 1.84504 6.839C1.34766 7.99815 1.10522 9.21255 1.10522 10.4865C1.10522 11.7608 1.34766 12.9853 1.84504 14.1447C2.8376 16.4584 4.52898 18.1474 6.83876 19.1384C8.00187 19.6373 9.21231 19.8883 10.4863 19.8883C11.7604 19.8883 12.9802 19.6346 14.1443 19.1384C16.4735 18.1449 18.1572 16.4544 19.1483 14.1447C19.6471 12.9816 19.8984 11.7608 19.8984 10.4865C19.8984 9.21255 19.6474 8.00208 19.1482 6.839ZM17.6482 14.6379C16.9106 15.9029 15.9001 16.9065 14.6273 17.6484C13.3623 18.3861 11.9763 18.7581 10.4866 18.7581C9.36665 18.7581 8.29802 18.5424 7.28067 18.1005C6.26336 17.6588 5.38499 17.0781 4.65022 16.3435C3.91544 15.6087 3.33061 14.7218 2.89331 13.7028C2.45729 12.6874 2.24599 11.6067 2.24599 10.4866C2.24599 8.99664 2.61205 7.61762 3.34554 6.35612C4.08163 5.09001 5.09238 4.08538 6.35609 3.34553C7.61959 2.60572 8.99665 2.2357 10.4863 2.2357C11.9763 2.2357 13.3621 2.6079 14.6271 3.34553C15.8998 4.08756 16.9082 5.09216 17.648 6.35609C18.3878 7.6198 18.7576 8.99664 18.7576 10.4865C18.7576 11.9765 18.3902 13.3649 17.6482 14.6379Z" fill="#302A32" stroke="#302A32" stroke-width="0.9"/>
<path d="M11.0824 10.4033V5.08077C11.0824 4.76227 10.8049 4.50537 10.4864 4.50537C10.1885 4.50537 9.92126 4.76227 9.92126 5.08077V10.4855C9.92126 10.4958 9.94187 10.537 9.94187 10.5677C9.92127 10.7527 9.97279 10.9068 10.096 11.0302L13.1684 14.1024C13.374 14.308 13.7541 14.308 13.9595 14.1024C14.1958 13.8661 14.1802 13.5233 13.9595 13.301L11.0824 10.4033Z" fill="#302A32" stroke="#302A32" stroke-width="0.9"/>
</svg>
