<svg width="35" height="35" viewBox="0 0 35 35" fill="none" xmlns="http://www.w3.org/2000/svg">
<rect width="35" height="35" rx="17.5" fill="white" fill-opacity="0.2"/>
<path fill-rule="evenodd" clip-rule="evenodd" d="M14.6875 10H20.3125C22.9009 10 25 12.0991 25 14.6875V20.3125C25 22.9009 22.9009 25 20.3125 25H14.6875C12.0991 25 10 22.9009 10 20.3125V14.6875C10 12.0991 12.0991 10 14.6875 10ZM20.3125 23.5938C22.1219 23.5938 23.5938 22.1219 23.5938 20.3125V14.6875C23.5938 12.8781 22.1219 11.4062 20.3125 11.4062H14.6875C12.8781 11.4062 11.4062 12.8781 11.4062 14.6875V20.3125C11.4062 22.1219 12.8781 23.5938 14.6875 23.5938H20.3125Z" fill="white"/>
<path fill-rule="evenodd" clip-rule="evenodd" d="M13.75 17.5C13.75 15.4291 15.4291 13.75 17.5 13.75C19.5709 13.75 21.25 15.4291 21.25 17.5C21.25 19.5709 19.5709 21.25 17.5 21.25C15.4291 21.25 13.75 19.5709 13.75 17.5ZM15.1562 17.5C15.1562 18.7919 16.2081 19.8438 17.5 19.8438C18.7919 19.8438 19.8438 18.7919 19.8438 17.5C19.8438 16.2072 18.7919 15.1562 17.5 15.1562C16.2081 15.1562 15.1562 16.2072 15.1562 17.5Z" fill="white"/>
<path d="M21.5314 13.9686C21.8074 13.9686 22.0311 13.7449 22.0311 13.4689C22.0311 13.193 21.8074 12.9692 21.5314 12.9692C21.2555 12.9692 21.0317 13.193 21.0317 13.4689C21.0317 13.7449 21.2555 13.9686 21.5314 13.9686Z" fill="white"/>
</svg>
