<svg width="16" height="20" viewBox="0 0 16 20" fill="none" xmlns="http://www.w3.org/2000/svg">
<path d="M7.99995 3.03271C5.59626 3.03271 3.64062 4.98827 3.64062 7.39196C3.64062 9.79566 5.59626 11.7512 7.99995 11.7512C10.4036 11.7512 12.3593 9.79566 12.3593 7.39196C12.3593 4.98827 10.4036 3.03271 7.99995 3.03271ZM7.99995 10.5786C6.24279 10.5786 4.81316 9.14905 4.81316 7.39189C4.81316 5.63473 6.24279 4.20525 7.99995 4.20525C9.75711 4.20525 11.1867 5.6348 11.1867 7.39196C11.1867 9.14912 9.75719 10.5786 7.99995 10.5786Z" fill="#302A32" fill-opacity="0.2"/>
<path d="M7.99998 0C3.92393 0 0.607849 3.31608 0.607849 7.39213C0.607849 9.74282 2.57927 13.245 3.75438 15.1234C4.52755 16.3591 5.35841 17.5353 6.09383 18.435C7.27426 19.8791 7.69676 19.9999 8.00006 19.9999C8.30788 19.9999 8.70678 19.879 9.88354 18.4341C10.6206 17.529 11.4518 16.3536 12.2242 15.1243C13.4074 13.2414 15.3922 9.7329 15.3922 7.39205C15.3922 3.31608 12.0761 0 7.99998 0ZM11.4113 14.2114C9.89518 16.6723 8.50323 18.3353 7.99302 18.7598C7.48015 18.3484 6.11079 16.725 4.57344 14.2191C2.79846 11.3257 1.78046 8.83732 1.78046 7.39213C1.78038 3.96262 4.57047 1.17253 7.99998 1.17253C11.4295 1.17253 14.2196 3.96262 14.2196 7.39213C14.2196 8.82903 13.196 11.3145 11.4113 14.2114Z" fill="#302A32" fill-opacity="0.2"/>
</svg>
