<svg width="178" height="48" viewBox="0 0 178 48" fill="none" xmlns="http://www.w3.org/2000/svg">
<path fill-rule="evenodd" clip-rule="evenodd" d="M63.7474 25.9304H66.5432V27.6039C65.7556 28.1683 64.7712 28.4505 63.5899 28.4505C62.4086 28.4505 61.4012 28.037 60.5677 27.2101C59.7408 26.3832 59.3273 25.2872 59.3273 23.9221C59.3273 22.5571 59.7474 21.4742 60.5874 20.6735C61.4275 19.8729 62.3988 19.4725 63.5013 19.4725C64.2692 19.4791 64.9812 19.6497 65.6375 19.9844C66.2938 20.3191 66.832 20.7884 67.252 21.3922L69.2701 19.3347C67.8459 17.5627 66.0215 16.6768 63.7966 16.6768C61.5718 16.6768 59.7605 17.3494 58.3626 18.6948C56.9516 20.0205 56.2461 21.7662 56.2461 23.932C56.2461 26.0977 56.9516 27.8598 58.3626 29.2183C59.7999 30.5769 61.5521 31.2561 63.6194 31.2561C64.7942 31.2495 65.8869 31.0297 66.8976 30.5965C67.9083 30.1634 68.7713 29.576 69.4866 28.8344V23.1641H63.7474V25.9304ZM78.1397 23.7942H78.5827V21.0279C78.4646 21.0148 78.2119 21.0082 77.8247 21.0082C76.7747 21.0148 75.9543 21.3593 75.3636 22.0419V21.1461H72.5383V31.0297H75.403V26.8951C75.403 25.9041 75.6458 25.1395 76.1315 24.6014C76.6172 24.0632 77.2866 23.7942 78.1397 23.7942ZM83.4359 27.1904C83.1406 27.3742 82.9929 27.6105 82.9929 27.8992C82.9929 28.188 83.1078 28.4177 83.3375 28.5883C83.5672 28.759 83.8625 28.841 84.2235 28.8344C84.8666 28.8344 85.4606 28.631 86.0053 28.2241V27.1018C84.824 26.8262 83.9675 26.8557 83.4359 27.1904ZM81.0536 30.38C81.6771 30.9575 82.5007 31.2496 83.5245 31.2561C84.5483 31.2561 85.3884 30.9641 86.0447 30.38V31.0297H88.8896V24.8574C88.8831 23.6301 88.4663 22.6654 87.6394 21.9631C86.8125 21.2609 85.7821 20.9098 84.5483 20.9098C82.8814 20.9098 81.5032 21.5628 80.4137 22.8688L82.2349 24.6014C82.7337 23.8335 83.4392 23.4496 84.3514 23.4496C84.8633 23.4496 85.267 23.5973 85.5623 23.8926C85.8576 24.1879 86.0053 24.5784 86.0053 25.0641V25.2216C85.3293 25.0378 84.6697 24.946 84.0266 24.946C82.924 24.9394 81.9954 25.2117 81.2407 25.763C80.4925 26.3209 80.1184 27.0854 80.1184 28.0567C80.1184 29.028 80.4301 29.8024 81.0536 30.38ZM98.8717 26.0879C98.8717 25.3397 98.6519 24.7228 98.2122 24.2371C97.7724 23.7515 97.2245 23.5087 96.5682 23.5087C95.9119 23.5087 95.3606 23.7515 94.9143 24.2371C94.4812 24.7359 94.2646 25.3528 94.2646 26.0879C94.2646 26.8229 94.4812 27.4431 94.9143 27.9484C95.3606 28.4341 95.9119 28.6769 96.5682 28.6769C97.2245 28.6769 97.7724 28.4341 98.2122 27.9484C98.6519 27.4628 98.8717 26.8426 98.8717 26.0879ZM91.3507 26.0977C91.3507 27.6531 91.82 28.9033 92.7584 29.8484C93.6969 30.7934 94.8717 31.2627 96.2827 31.2561C97.3787 31.2495 98.2417 30.9378 98.8717 30.3209V31.0297H101.687V16.8933H98.8225V21.7761C98.1662 21.1986 97.3196 20.9098 96.2827 20.9098C94.8717 20.9098 93.6969 21.3856 92.7584 22.3372C91.82 23.2888 91.3507 24.5423 91.3507 26.0977ZM110.38 23.8532C110.071 23.571 109.674 23.4299 109.189 23.4299C108.703 23.4299 108.296 23.5645 107.968 23.8335C107.64 24.1026 107.43 24.457 107.338 24.8967H110.882C110.855 24.4833 110.688 24.1354 110.38 23.8532ZM111.837 27.4858C111.233 28.2471 110.426 28.6277 109.415 28.6277C108.805 28.6277 108.303 28.4604 107.909 28.1256C107.515 27.7909 107.279 27.3545 107.2 26.8164H113.894L113.914 25.9698C113.914 24.6244 113.497 23.4431 112.664 22.4258C111.823 21.4151 110.672 20.9098 109.208 20.9098C107.745 20.9098 106.56 21.402 105.654 22.3864C104.749 23.384 104.296 24.6441 104.296 26.1666C104.296 27.6892 104.785 28.9197 105.763 29.8582C106.76 30.7902 108.004 31.2561 109.494 31.2561C111.253 31.2561 112.664 30.59 113.727 29.2577L111.837 27.4858ZM126.347 25.9304H123.551V23.1641H129.29V28.8344C128.575 29.576 127.712 30.1634 126.701 30.5965C125.691 31.0297 124.598 31.2495 123.423 31.2561C121.356 31.2561 119.604 30.5769 118.166 29.2183C116.755 27.8598 116.05 26.0977 116.05 23.932C116.05 21.7662 116.755 20.0205 118.166 18.6948C119.564 17.3494 121.376 16.6768 123.601 16.6768C125.825 16.6768 127.65 17.5627 129.074 19.3347L127.056 21.3922C126.636 20.7884 126.098 20.3191 125.441 19.9844C124.785 19.6497 124.073 19.4791 123.305 19.4725C122.203 19.4725 121.231 19.8729 120.391 20.6735C119.551 21.4742 119.131 22.5571 119.131 23.9221C119.131 25.2872 119.545 26.3832 120.372 27.2101C121.205 28.037 122.212 28.4505 123.394 28.4505C124.575 28.4505 125.56 28.1683 126.347 27.6039V25.9304ZM136.9 23.4299C137.386 23.4299 137.783 23.571 138.091 23.8532C138.4 24.1354 138.567 24.4833 138.593 24.8967H135.049C135.141 24.457 135.351 24.1026 135.679 23.8335C136.008 23.5645 136.414 23.4299 136.9 23.4299ZM137.127 28.6277C138.137 28.6277 138.944 28.2471 139.548 27.4858L141.438 29.2577C140.375 30.59 138.964 31.2561 137.205 31.2561C135.716 31.2561 134.472 30.7902 133.474 29.8582C132.496 28.9197 132.008 27.6892 132.008 26.1666C132.008 24.6441 132.46 23.384 133.366 22.3864C134.272 21.402 135.456 20.9098 136.92 20.9098C138.383 20.9098 139.535 21.4151 140.375 22.4258C141.209 23.4431 141.625 24.6244 141.625 25.9698L141.606 26.8164H134.912C134.99 27.3545 135.227 27.7909 135.62 28.1256C136.014 28.4604 136.516 28.6277 137.127 28.6277ZM144.362 27.5448C144.362 29.8943 145.511 31.0691 147.808 31.0691C148.169 31.0691 148.687 31.0559 149.363 31.0297V28.4111H148.516C148.057 28.4111 147.722 28.3258 147.512 28.1552C147.302 27.9845 147.201 27.6662 147.207 27.2003V23.7941H149.402V21.146H147.207V18.3896H144.362V21.146H143.072V23.7941H144.362V27.5448ZM156.018 31.0691C153.721 31.0691 152.572 29.8943 152.572 27.5448V23.7941H151.283V21.146H152.572V18.3896H155.417V21.146H157.612V23.7941H155.417V27.2003C155.411 27.6662 155.512 27.9845 155.722 28.1552C155.932 28.3258 156.267 28.4111 156.726 28.4111H157.573V31.0297C156.897 31.0559 156.379 31.0691 156.018 31.0691ZM164.631 23.4299C165.117 23.4299 165.514 23.571 165.823 23.8532C166.131 24.1354 166.298 24.4833 166.325 24.8967H162.781C162.873 24.457 163.083 24.1026 163.411 23.8335C163.739 23.5645 164.146 23.4299 164.631 23.4299ZM164.858 28.6277C165.868 28.6277 166.676 28.2471 167.279 27.4858L169.17 29.2577C168.106 30.59 166.695 31.2561 164.937 31.2561C163.447 31.2561 162.203 30.7902 161.206 29.8582C160.228 28.9197 159.739 27.6892 159.739 26.1666C159.739 24.6441 160.192 23.384 161.097 22.3864C162.003 21.402 163.188 20.9098 164.651 20.9098C166.115 20.9098 167.266 21.4151 168.106 22.4258C168.94 23.4431 169.357 24.6244 169.357 25.9698L169.337 26.8164H162.643C162.722 27.3545 162.958 27.7909 163.352 28.1256C163.745 28.4604 164.247 28.6277 164.858 28.6277ZM177.557 23.7942H178V21.0279C177.882 21.0148 177.629 21.0082 177.242 21.0082C176.192 21.0148 175.371 21.3593 174.781 22.0419V21.1461H171.956V31.0297H174.82V26.8951C174.82 25.9041 175.063 25.1395 175.549 24.6014C176.034 24.0632 176.704 23.7942 177.557 23.7942Z" fill="#23A4EF"/>
<path fill-rule="evenodd" clip-rule="evenodd" d="M24.3575 3.30811C12.7589 3.30811 3.35645 12.7105 3.35645 24.3092C3.35645 35.9079 12.7589 45.3103 24.3575 45.3103C35.9562 45.3103 45.3586 35.9079 45.3586 24.3092C45.3586 12.7105 35.9562 3.30811 24.3575 3.30811Z" fill="#23A4EF"/>
<mask id="mask0" mask-type="alpha" maskUnits="userSpaceOnUse" x="0" y="0" width="48" height="48">
<path fill-rule="evenodd" clip-rule="evenodd" d="M0 23.7359C0 36.845 10.6268 47.4718 23.7357 47.4718C36.845 47.4718 47.4716 36.845 47.4716 23.7359C47.4716 10.6268 36.845 0 23.7357 0C10.6268 0 0 10.6268 0 23.7359Z" fill="white"/>
</mask>
<g mask="url(#mask0)">
<path fill-rule="evenodd" clip-rule="evenodd" d="M12.1821 26.5436L20.9415 31.392C21.466 31.6818 22.1264 31.5293 22.4711 31.0391L33.212 15.6195C33.5849 15.0887 33.457 14.3558 32.9261 13.9827C32.3955 13.6098 31.6626 13.7375 31.2895 14.2685L21.1547 28.8254L13.3183 24.4871C12.7506 24.1731 12.0358 24.3792 11.7219 24.9473C11.4082 25.515 11.6142 26.2297 12.1821 26.5436Z" fill="white"/>
<path fill-rule="evenodd" clip-rule="evenodd" d="M10.6836 30.0069L22.0579 36.2647C22.5822 36.5545 23.2428 36.402 23.5873 35.9118L36.1653 17.867C36.5384 17.3364 36.4104 16.6033 35.8794 16.2303C35.3488 15.8572 34.6159 15.9852 34.2428 16.516L22.2711 33.6981L11.8197 27.9503C11.252 27.6364 10.5373 27.8424 10.2234 28.4105C9.90962 28.9782 10.1157 29.693 10.6836 30.0069Z" fill="white"/>
<path fill-rule="evenodd" clip-rule="evenodd" d="M13.9731 23.3138L19.7475 26.5508C20.2718 26.8404 20.9324 26.6881 21.2768 26.1979L29.937 13.6424C30.3101 13.1118 30.1822 12.3787 29.6512 12.0057C29.1205 11.6326 28.3876 11.7606 28.0145 12.2914L19.9606 23.984L15.1093 21.2572C14.5416 20.9433 13.8268 21.1493 13.5129 21.7174C13.1992 22.2851 13.4052 22.9999 13.9731 23.3138Z" fill="white"/>
</g>
</svg>
