<svg width="248" height="244" viewBox="0 0 248 244" fill="none" xmlns="http://www.w3.org/2000/svg">
<path d="M134.194 243.858C181.781 243.858 220.357 241.106 220.357 237.712C220.357 234.318 181.781 231.566 134.194 231.566C86.6079 231.566 48.0316 234.318 48.0316 237.712C48.0316 241.106 86.6079 243.858 134.194 243.858Z" fill="#203662" fill-opacity="0.2"/>
<g opacity="0.9">
<path opacity="0.9" d="M189.45 144.67C186.099 139.2 181.632 134.83 176.047 131.575C175.52 131.271 174.986 130.966 174.435 130.671C169.114 127.771 162.532 125.108 154.69 122.699C153.501 122.31 152.36 121.938 151.275 121.583C149.783 121.084 148.403 120.619 147.119 120.179C143.624 118.979 140.88 117.973 138.877 117.153C135.598 115.826 132.838 113.941 130.612 111.497C128.378 109.054 127.261 105.918 127.261 102.063C127.261 97.1852 129.104 93.4486 132.806 90.8618C136.508 88.2749 141.422 86.9815 147.573 86.9815C152.943 86.9815 158.272 87.9368 163.561 89.8558C164.902 90.3377 166.242 90.8872 167.582 91.5043C167.686 91.5466 167.782 91.5888 167.885 91.6395C170.773 92.9752 173.582 94.4715 176.318 96.1116C180.969 98.9013 186.73 95.4775 186.73 89.8135V72.906C186.73 70.5305 185.437 68.3241 183.387 67.3519C182.661 67.0053 181.935 66.6756 181.217 66.3543C179.86 65.7541 178.528 65.1962 177.212 64.6805C175.401 63.9704 173.614 63.3448 171.858 62.7953C167.112 61.3159 161.95 60.2761 156.365 59.6843V48.5338C156.365 46.8092 155.583 45.2791 154.371 44.3323C153.541 43.656 152.512 43.2671 151.395 43.2671H137.465C134.721 43.2671 132.495 45.6257 132.495 48.5338V60.3522C119.371 62.7192 109.462 68.155 102.761 76.6595C96.0593 85.164 92.7086 95.038 92.7086 106.281C92.7086 118.26 95.6046 127.289 101.397 133.35C102.37 134.373 103.407 135.362 104.508 136.301C109.917 141.001 116.802 144.822 125.163 147.773C125.969 148.145 127.908 148.863 130.995 149.92C131.649 150.156 132.359 150.393 133.125 150.655C133.803 150.892 134.473 151.129 135.128 151.365C143.449 154.333 149.552 157.021 153.437 159.422C154.937 160.352 156.166 161.408 157.123 162.592C158.854 164.714 159.716 167.242 159.716 170.183C159.716 179.39 154.674 184.563 144.598 185.705C143.178 185.865 141.654 185.941 140.034 185.941C132.958 185.941 125.746 184.715 118.374 182.264C117.744 182.061 117.113 181.841 116.475 181.613C115.733 181.342 114.991 181.063 114.265 180.776C111.106 179.525 108.082 178.079 105.202 176.439C100.591 173.802 95.0142 177.31 95.0142 182.856V199.56C95.0142 201.944 96.2907 204.159 98.357 205.114C99.075 205.453 99.809 205.774 100.543 206.087C101.867 206.653 103.216 207.186 104.596 207.676C112.247 210.474 120.64 212.258 129.782 213.027C130.676 213.103 131.585 213.171 132.495 213.23V230.881C132.495 233.79 134.721 236.148 137.465 236.148H151.395C154.139 236.148 156.365 233.79 156.365 230.881V212.562C168.372 210.347 177.722 204.988 184.424 196.483C191.125 187.97 194.476 177.733 194.476 165.745C194.476 157.173 192.801 150.14 189.45 144.67Z" fill="#473865"/>
<path opacity="0.9" d="M105.202 176.439C108.082 178.079 111.106 179.525 114.265 180.776L100.543 206.087C99.8091 205.774 99.0751 205.453 98.3571 205.114C96.2908 204.159 95.0143 201.944 95.0143 199.56V182.856C95.0143 177.31 100.591 173.802 105.202 176.439Z" fill="#203662" fill-opacity="0.1"/>
<path opacity="0.9" d="M177.212 64.6805L163.561 89.8558C158.272 87.9368 152.943 86.9815 147.573 86.9815C141.422 86.9815 136.508 88.2749 132.806 90.8618C129.104 93.4486 127.261 97.1852 127.261 102.063C127.261 105.918 128.378 109.054 130.612 111.497C132.838 113.941 135.598 115.826 138.877 117.153C140.88 117.973 143.624 118.979 147.119 120.179L130.995 149.92C127.908 148.863 125.969 148.144 125.163 147.773C116.802 144.822 109.917 141.001 104.508 136.301L154.371 44.3323C155.583 45.2791 156.365 46.8092 156.365 48.5338V59.6843C161.95 60.2761 167.112 61.3159 171.859 62.7953C173.614 63.3448 175.401 63.9704 177.212 64.6805Z" fill="white" fill-opacity="0.2"/>
<path opacity="0.9" d="M144.597 185.705L129.782 213.027C120.639 212.258 112.247 210.474 104.596 207.676L118.374 182.264C125.745 184.715 132.958 185.941 140.034 185.941C141.654 185.941 143.177 185.865 144.597 185.705Z" fill="white" fill-opacity="0.2"/>
<path opacity="0.9" d="M174.435 130.671L157.123 162.592C156.166 161.408 154.937 160.352 153.437 159.422C149.552 157.021 143.449 154.333 135.128 151.365L151.275 121.583C152.36 121.938 153.501 122.31 154.69 122.699C162.532 125.108 169.114 127.771 174.435 130.671Z" fill="white" fill-opacity="0.2"/>
<path opacity="0.9" d="M186.73 72.906V89.8135C186.73 95.4776 180.97 98.9013 176.318 96.1116C173.582 94.4716 170.774 92.9752 167.886 91.6395C167.782 91.5888 167.686 91.5466 167.583 91.5043L181.217 66.3543C181.935 66.6756 182.661 67.0053 183.387 67.3519C185.437 68.3241 186.73 70.5305 186.73 72.906Z" fill="#203662" fill-opacity="0.1"/>
</g>
<path d="M151.395 232.868H137.473C136.436 232.868 135.59 231.972 135.59 230.873V210.136L132.678 209.958C120.313 209.189 109.183 206.552 99.5936 202.105C98.7001 201.691 98.1017 200.668 98.1017 199.552V182.847C98.1017 180.353 100.08 178.806 101.907 178.806C102.538 178.806 103.152 178.975 103.734 179.305C107.412 181.41 111.369 183.219 115.478 184.699C123.783 187.683 132.048 189.196 140.026 189.196C158.846 189.196 162.803 178.849 162.803 170.167C162.803 164.435 160.099 159.735 154.985 156.573C150.565 153.842 143.72 150.883 134.083 147.527C128.546 145.634 126.878 144.974 126.384 144.746L126.136 144.645C116.579 141.272 108.984 136.681 103.567 131C98.4129 125.607 95.7961 117.28 95.7961 106.265C95.7961 95.7142 98.8517 86.711 105.13 78.7391C111.313 70.894 120.695 65.7795 133.014 63.5646L135.582 63.0996V48.5338C135.582 47.4348 136.428 46.5387 137.465 46.5387H151.387C152.424 46.5387 153.27 47.4348 153.27 48.5338V62.6516L156.054 62.9474C161.415 63.5138 166.441 64.5198 170.989 65.9401C174.555 67.056 178.297 68.5354 182.118 70.3445C183.028 70.7756 183.634 71.807 183.634 72.906V89.8135C183.634 92.3243 181.687 93.829 179.813 93.829C179.127 93.829 178.464 93.6346 177.842 93.2626C175.026 91.5719 172.09 90.0164 169.122 88.6384C162.062 85.3668 154.809 83.7014 147.573 83.7014C140.848 83.7014 135.303 85.1893 131.107 88.1228C126.567 91.3014 124.166 96.12 124.166 102.063C124.166 106.772 125.586 110.711 128.386 113.771C130.923 116.544 134.075 118.708 137.768 120.205C141.119 121.566 146.504 123.459 153.772 125.827C162.189 128.413 169.178 131.313 174.547 134.441C179.653 137.417 183.786 141.458 186.841 146.445C189.849 151.357 191.373 157.849 191.373 165.737C191.373 176.879 188.229 186.508 182.038 194.37C175.856 202.223 167.032 207.253 155.823 209.324L153.262 209.798V230.865C153.27 231.972 152.432 232.868 151.395 232.868ZM101.907 179.026C100.168 179.026 98.3012 180.489 98.3012 182.856V199.56C98.3012 200.592 98.8517 201.538 99.6734 201.919C109.239 206.349 120.352 208.986 132.686 209.747L135.694 209.933C135.75 209.933 135.79 209.984 135.79 210.043V230.881C135.79 231.862 136.548 232.665 137.473 232.665H151.395C152.32 232.665 153.078 231.862 153.078 230.881V209.722C153.078 209.671 153.11 209.629 153.158 209.62L155.799 209.13C166.96 207.067 175.744 202.063 181.895 194.243C188.054 186.423 191.181 176.837 191.181 165.745C191.181 157.892 189.665 151.441 186.69 146.564C183.65 141.601 179.541 137.586 174.459 134.627C169.098 131.507 162.125 128.616 153.724 126.029C146.449 123.662 141.063 121.769 137.705 120.408C133.987 118.894 130.804 116.713 128.251 113.924C125.41 110.821 123.974 106.831 123.974 102.063C123.974 96.0439 126.408 91.1661 131.003 87.9452C135.231 84.9864 140.808 83.4901 147.581 83.4901C154.849 83.4901 162.125 85.1555 169.21 88.444C172.186 89.822 175.122 91.3859 177.946 93.0767C178.544 93.4317 179.174 93.6177 179.821 93.6177C181.6 93.6177 183.443 92.1975 183.443 89.8135V72.906C183.443 71.8831 182.884 70.9278 182.046 70.5305C178.233 68.7214 174.491 67.242 170.941 66.1345C166.402 64.7227 161.391 63.7167 156.046 63.1503L153.174 62.846C153.126 62.8375 153.086 62.7953 153.086 62.7446V48.5338C153.086 47.5531 152.328 46.75 151.403 46.75H137.481C136.556 46.75 135.798 47.5531 135.798 48.5338V63.2011C135.798 63.2518 135.766 63.294 135.718 63.3025L133.061 63.7844C120.791 65.9993 111.457 71.08 105.298 78.8912C99.0511 86.8209 96.0115 95.7819 96.0115 106.281C96.0115 117.246 98.6043 125.514 103.726 130.873C109.127 136.529 116.691 141.102 126.216 144.467L126.48 144.569C126.974 144.797 128.634 145.456 134.162 147.341C143.824 150.706 150.669 153.665 155.105 156.404C160.282 159.608 163.019 164.367 163.019 170.175C163.019 178.95 159.03 189.416 140.042 189.416C132.04 189.416 123.759 187.903 115.43 184.901C111.305 183.422 107.34 181.596 103.654 179.491C103.088 179.187 102.506 179.026 101.907 179.026Z" fill="#A8CFEF"/>
<path d="M113.06 235.945C113.06 237.898 110.827 238.955 105.09 239.741C100.91 240.307 95.3652 240.62 89.4854 240.62C83.6056 240.62 78.0609 240.307 73.8804 239.741C68.1442 238.963 65.9103 237.898 65.9103 235.945V228.836H113.06V235.945Z" fill="#FCCC55"/>
<path d="M89.4854 233.511C83.6056 233.511 78.0609 233.198 73.8804 232.631C68.1442 231.854 65.9104 230.788 65.9104 228.836C65.9104 226.883 68.1442 225.826 73.8804 225.04C78.0609 224.474 83.6056 224.161 89.4854 224.161C95.3652 224.161 100.91 224.474 105.09 225.04C110.827 225.818 113.06 226.883 113.06 228.836C113.06 230.788 110.827 231.845 105.09 232.631C100.91 233.198 95.3652 233.511 89.4854 233.511Z" fill="#FFB83B"/>
<path d="M89.4854 225.065C77.4545 225.065 67.6974 226.697 67.6974 228.717H111.273C111.273 226.697 101.516 225.065 89.4854 225.065Z" fill="#BA5511"/>
<path d="M111.273 228.709C111.273 230.281 101.516 231.558 89.4854 231.558C77.4545 231.558 67.6974 230.281 67.6974 228.709C67.6974 227.136 77.4545 225.86 89.4854 225.86C101.516 225.86 111.273 227.136 111.273 228.709Z" fill="#FF8939"/>
<path d="M112.183 227.72C112.183 229.673 109.949 230.729 104.213 231.515C100.033 232.082 94.488 232.395 88.6082 232.395C82.7284 232.395 77.1837 232.082 73.0032 231.515C67.267 230.738 65.0331 229.673 65.0331 227.72V220.61H112.183V227.72Z" fill="#FCCC55"/>
<path d="M88.6159 225.285C82.7361 225.285 77.1914 224.972 73.0109 224.406C67.2747 223.628 65.0408 222.563 65.0408 220.61C65.0408 218.657 67.2747 217.601 73.0109 216.814C77.1914 216.248 82.7361 215.935 88.6159 215.935C94.4957 215.935 100.04 216.248 104.221 216.814C109.957 217.592 112.191 218.657 112.191 220.61C112.191 222.563 109.957 223.62 104.221 224.406C100.032 224.972 94.4957 225.285 88.6159 225.285Z" fill="#FFB83B"/>
<path d="M88.6159 216.831C76.5851 216.831 66.8279 218.463 66.8279 220.483H110.404C110.404 218.471 100.647 216.831 88.6159 216.831Z" fill="#BA5511"/>
<path d="M110.396 220.483C110.396 222.056 100.639 223.332 88.6082 223.332C76.5773 223.332 66.8202 222.056 66.8202 220.483C66.8202 218.911 76.5773 217.634 88.6082 217.634C100.647 217.634 110.396 218.911 110.396 220.483Z" fill="#FF8939"/>
<path d="M113.06 219.934C113.06 221.887 110.827 222.943 105.09 223.73C100.91 224.296 95.3652 224.609 89.4854 224.609C83.6056 224.609 78.0609 224.296 73.8804 223.73C68.1442 222.952 65.9103 221.887 65.9103 219.934V212.824H113.06V219.934Z" fill="#FCCC55"/>
<path d="M89.4854 217.499C83.6056 217.499 78.0609 217.186 73.8804 216.62C68.1442 215.842 65.9104 214.777 65.9104 212.824C65.9104 210.871 68.1442 209.815 73.8804 209.028C78.0609 208.462 83.6056 208.149 89.4854 208.149C95.3652 208.149 100.91 208.462 105.09 209.028C110.827 209.806 113.06 210.871 113.06 212.824C113.06 214.777 110.827 215.834 105.09 216.62C100.91 217.186 95.3652 217.499 89.4854 217.499Z" fill="#FFB83B"/>
<path d="M89.4854 209.054C77.4545 209.054 67.6974 210.685 67.6974 212.706H111.273C111.273 210.685 101.516 209.054 89.4854 209.054Z" fill="#BA5511"/>
<path d="M89.4854 215.546C101.519 215.546 111.273 214.271 111.273 212.697C111.273 211.124 101.519 209.848 89.4854 209.848C77.4522 209.848 67.6974 211.124 67.6974 212.697C67.6974 214.271 77.4522 215.546 89.4854 215.546Z" fill="#FF8939"/>
<path d="M114.529 211.708C114.529 213.661 112.295 214.718 106.559 215.504C102.378 216.07 96.8334 216.383 90.9536 216.383C85.0738 216.383 79.5291 216.07 75.3486 215.504C69.6124 214.726 67.3785 213.661 67.3785 211.708V204.599H114.529V211.708Z" fill="#FCCC55"/>
<path d="M90.9536 209.274C85.0738 209.274 79.5291 208.961 75.3486 208.394C69.6124 207.617 67.3785 206.551 67.3785 204.599C67.3785 202.646 69.6124 201.589 75.3486 200.803C79.5291 200.237 85.0738 199.924 90.9536 199.924C96.8334 199.924 102.378 200.237 106.559 200.803C112.295 201.581 114.529 202.646 114.529 204.599C114.529 206.551 112.295 207.608 106.559 208.394C102.378 208.961 96.8334 209.274 90.9536 209.274Z" fill="#FFB83B"/>
<path d="M90.9535 200.82C78.9226 200.82 69.1655 202.451 69.1655 204.472H112.741C112.741 202.46 102.984 200.82 90.9535 200.82Z" fill="#BA5511"/>
<path d="M90.9535 207.321C102.987 207.321 112.741 206.045 112.741 204.472C112.741 202.898 102.987 201.623 90.9535 201.623C78.9203 201.623 69.1655 202.898 69.1655 204.472C69.1655 206.045 78.9203 207.321 90.9535 207.321Z" fill="#FF8939"/>
<path d="M112.183 203.474C112.183 205.427 109.949 206.484 104.213 207.27C100.033 207.837 94.488 208.149 88.6082 208.149C82.7284 208.149 77.1837 207.837 73.0032 207.27C67.267 206.492 65.0331 205.427 65.0331 203.474V196.365H112.183V203.474Z" fill="#FCCC55"/>
<path d="M88.6159 201.048C82.7361 201.048 77.1914 200.735 73.0109 200.169C67.2747 199.391 65.0408 198.326 65.0408 196.373C65.0408 194.42 67.2747 193.364 73.0109 192.578C77.1914 192.011 82.7361 191.698 88.6159 191.698C94.4957 191.698 100.04 192.011 104.221 192.578C109.957 193.355 112.191 194.42 112.191 196.373C112.191 198.326 109.957 199.383 104.221 200.169C100.032 200.735 94.4957 201.048 88.6159 201.048Z" fill="#FFB83B"/>
<path d="M88.6159 192.594C76.5851 192.594 66.8279 194.226 66.8279 196.246H110.404C110.404 194.234 100.647 192.594 88.6159 192.594Z" fill="#FCCC55"/>
<path d="M110.404 196.246C110.404 197.819 100.647 199.095 88.6159 199.095C76.5851 199.095 66.8279 197.819 66.8279 196.246C66.8279 194.674 76.5851 193.398 88.6159 193.398C100.647 193.398 110.404 194.674 110.404 196.246Z" fill="#FCCC55"/>
<path d="M63.8444 195.274C63.8444 197.227 66.0782 198.284 71.8144 199.07C75.9949 199.636 81.5396 199.949 87.4194 199.949C93.2992 199.949 98.8439 199.636 103.024 199.07C108.761 198.292 110.994 197.227 110.994 195.274V188.165H63.8444V195.274Z" fill="#FCCC55"/>
<path d="M87.4194 192.84C93.2992 192.84 98.8439 192.527 103.024 191.96C108.761 191.183 110.994 190.117 110.994 188.165C110.994 186.212 108.761 185.155 103.024 184.369C98.8439 183.802 93.2992 183.49 87.4194 183.49C81.5396 183.49 75.9949 183.802 71.8144 184.369C66.0782 185.147 63.8444 186.212 63.8444 188.165C63.8444 190.117 66.0782 191.174 71.8144 191.96C75.9949 192.527 81.5396 192.84 87.4194 192.84Z" fill="#FFB83B"/>
<path d="M87.4192 184.394C99.45 184.394 109.207 186.026 109.207 188.046H65.6312C65.6312 186.026 75.3883 184.394 87.4192 184.394Z" fill="#BA5511"/>
<path d="M87.4192 190.887C99.4524 190.887 109.207 189.611 109.207 188.038C109.207 186.464 99.4524 185.189 87.4192 185.189C75.386 185.189 65.6312 186.464 65.6312 188.038C65.6312 189.611 75.386 190.887 87.4192 190.887Z" fill="#FF8939"/>
<path d="M64.7218 187.049C64.7218 189.002 66.9556 190.058 72.6918 190.844C76.8723 191.411 82.417 191.724 88.2968 191.724C94.1766 191.724 99.7214 191.411 103.902 190.844C109.638 190.067 111.872 189.002 111.872 187.049V179.939H64.7218V187.049Z" fill="#FCCC55"/>
<path d="M88.2889 184.614C94.1687 184.614 99.7134 184.301 103.894 183.735C109.63 182.957 111.864 181.892 111.864 179.939C111.864 177.986 109.63 176.93 103.894 176.143C99.7134 175.577 94.1687 175.264 88.2889 175.264C82.4091 175.264 76.8644 175.577 72.6839 176.143C66.9477 176.921 64.7139 177.986 64.7139 179.939C64.7139 181.892 66.9477 182.949 72.6839 183.735C76.8724 184.301 82.4091 184.614 88.2889 184.614Z" fill="#FFB83B"/>
<path d="M88.2889 176.16C100.32 176.16 110.077 177.792 110.077 179.812H66.5009C66.5089 177.8 76.258 176.16 88.2889 176.16Z" fill="#BA5511"/>
<path d="M66.5092 179.812C66.5092 181.385 76.2663 182.661 88.2972 182.661C100.328 182.661 110.085 181.385 110.085 179.812C110.085 178.24 100.328 176.963 88.2972 176.963C76.2584 176.963 66.5092 178.24 66.5092 179.812Z" fill="#FF8939"/>
<path d="M63.8444 179.263C63.8444 181.216 66.0782 182.272 71.8144 183.059C75.9949 183.625 81.5396 183.938 87.4194 183.938C93.2992 183.938 98.8439 183.625 103.024 183.059C108.761 182.281 110.994 181.216 110.994 179.263V172.153H63.8444V179.263Z" fill="#FCCC55"/>
<path d="M87.4194 176.828C93.2992 176.828 98.8439 176.515 103.024 175.949C108.761 175.171 110.994 174.106 110.994 172.153C110.994 170.2 108.761 169.144 103.024 168.357C98.8439 167.791 93.2992 167.478 87.4194 167.478C81.5396 167.478 75.9949 167.791 71.8144 168.357C66.0782 169.135 63.8444 170.2 63.8444 172.153C63.8444 174.106 66.0782 175.163 71.8144 175.949C75.9949 176.515 81.5396 176.828 87.4194 176.828Z" fill="#FFB83B"/>
<path d="M87.4192 168.383C99.45 168.383 109.207 170.014 109.207 172.035H65.6312C65.6312 170.014 75.3883 168.383 87.4192 168.383Z" fill="#BA5511"/>
<path d="M87.4192 174.875C99.4524 174.875 109.207 173.6 109.207 172.026C109.207 170.453 99.4524 169.178 87.4192 169.178C75.386 169.178 65.6312 170.453 65.6312 172.026C65.6312 173.6 75.386 174.875 87.4192 174.875Z" fill="#FF8939"/>
<path d="M62.3761 171.037C62.3761 172.99 64.6099 174.047 70.3461 174.833C74.5266 175.399 80.0713 175.712 85.9511 175.712C91.8309 175.712 97.3757 175.399 101.556 174.833C107.292 174.055 109.526 172.99 109.526 171.037V163.928H62.3761V171.037Z" fill="#FCCC55"/>
<path d="M85.9512 168.603C91.831 168.603 97.3757 168.29 101.556 167.723C107.292 166.946 109.526 165.881 109.526 163.928C109.526 161.975 107.292 160.918 101.556 160.132C97.3757 159.566 91.831 159.253 85.9512 159.253C80.0714 159.253 74.5267 159.566 70.3462 160.132C64.61 160.91 62.3762 161.975 62.3762 163.928C62.3762 165.881 64.61 166.937 70.3462 167.723C74.5267 168.29 80.0714 168.603 85.9512 168.603Z" fill="#FFB83B"/>
<path d="M85.951 160.149C97.9818 160.149 107.739 161.78 107.739 163.801H64.163C64.163 161.789 73.9201 160.149 85.951 160.149Z" fill="#BA5511"/>
<path d="M85.951 166.65C97.9842 166.65 107.739 165.374 107.739 163.801C107.739 162.227 97.9842 160.952 85.951 160.952C73.9178 160.952 64.163 162.227 64.163 163.801C64.163 165.374 73.9178 166.65 85.951 166.65Z" fill="#FF8939"/>
<path d="M64.7218 162.803C64.7218 164.756 66.9556 165.813 72.6918 166.599C76.8723 167.165 82.417 167.478 88.2968 167.478C94.1766 167.478 99.7214 167.165 103.902 166.599C109.638 165.821 111.872 164.756 111.872 162.803V155.694H64.7218V162.803Z" fill="#FCCC55"/>
<path d="M88.2889 160.369C94.1687 160.369 99.7134 160.056 103.894 159.489C109.63 158.712 111.864 157.647 111.864 155.694C111.864 153.741 109.63 152.684 103.894 151.898C99.7134 151.332 94.1687 151.019 88.2889 151.019C82.4091 151.019 76.8644 151.332 72.6839 151.898C66.9477 152.676 64.7139 153.741 64.7139 155.694C64.7139 157.647 66.9477 158.703 72.6839 159.489C76.8724 160.056 82.4091 160.369 88.2889 160.369Z" fill="#FFB83B"/>
<path d="M88.2889 151.923C100.32 151.923 110.077 153.555 110.077 155.575H66.5009C66.5089 153.555 76.258 151.923 88.2889 151.923Z" fill="#FF8939"/>
<path d="M88.2889 158.424C100.322 158.424 110.077 157.149 110.077 155.575C110.077 154.002 100.322 152.726 88.2889 152.726C76.2557 152.726 66.5009 154.002 66.5009 155.575C66.5009 157.149 76.2557 158.424 88.2889 158.424Z" fill="#FCCC55"/>
</svg>
