<svg width="21" height="21" viewBox="0 0 21 21" fill="none" xmlns="http://www.w3.org/2000/svg">
<path d="M18.6243 2.37475C17.0174 0.763755 14.4043 0.763755 12.7975 2.37475L2.1145 13.0551C2.03098 13.1386 1.97928 13.246 1.96337 13.3613L1.17188 19.2246C1.14802 19.3916 1.20768 19.5587 1.32302 19.6741C1.42245 19.7735 1.56166 19.8332 1.70087 19.8332C1.72473 19.8332 1.74859 19.8332 1.77246 19.8292L5.30429 19.3519C5.59861 19.3121 5.80543 19.0416 5.76566 18.7472C5.72589 18.4529 5.45543 18.246 5.16111 18.2858L2.32928 18.6677L2.88212 14.5785L7.18556 18.8825C7.28499 18.9819 7.42419 19.0416 7.5634 19.0416C7.7026 19.0416 7.84181 18.9859 7.94124 18.8825L18.6243 8.20218C19.4038 7.42254 19.8334 6.38832 19.8334 5.28648C19.8334 4.18463 19.4038 3.15042 18.6243 2.37475ZM13.0043 3.68741L14.7981 5.48139L5.04975 15.2309L3.25599 13.4369L13.0043 3.68741ZM7.56738 17.7448L5.81339 15.9906L15.5617 6.24114L17.3157 7.99534L7.56738 17.7448ZM18.0635 7.22763L13.772 2.93562C14.3168 2.48613 14.997 2.23951 15.7129 2.23951C16.5282 2.23951 17.2919 2.55773 17.8686 3.13053C18.4453 3.70332 18.7595 4.47103 18.7595 5.28648C18.7595 6.00645 18.5129 6.68267 18.0635 7.22763Z" fill="#302A32" stroke="#302A32" stroke-width="0.5"/>
</svg>
