<svg width="22" height="22" viewBox="0 0 22 22" fill="none" xmlns="http://www.w3.org/2000/svg">
<path d="M17.387 13.6281C16.9366 13.1592 16.3933 12.9084 15.8176 12.9084C15.2464 12.9084 14.6985 13.1545 14.2296 13.6235L12.7623 15.0861C12.6416 15.0211 12.5209 14.9608 12.4048 14.9004C12.2376 14.8168 12.0797 14.7379 11.9451 14.6543C10.5707 13.7814 9.32166 12.6438 8.1237 11.1719C7.54329 10.4382 7.15326 9.82068 6.87002 9.19384C7.25077 8.8456 7.60366 8.48343 7.94726 8.13518C8.07727 8.00517 8.20728 7.87052 8.33729 7.74051C9.31237 6.76543 9.31237 5.50246 8.33729 4.52738L7.06968 3.25977C6.92574 3.11583 6.77716 2.96725 6.63786 2.81866C6.35926 2.53078 6.06674 2.23361 5.76493 1.95502C5.31453 1.50927 4.77592 1.27246 4.20944 1.27246C3.64296 1.27246 3.09506 1.50927 2.63074 1.95502C2.62609 1.95966 2.62609 1.95966 2.62145 1.96431L1.04274 3.55694C0.448408 4.15128 0.109451 4.87562 0.0351585 5.71605C-0.0762795 7.07188 0.32304 8.33484 0.629494 9.16134C1.3817 11.1904 2.50537 13.071 4.18158 15.0861C6.21532 17.5145 8.66232 19.4322 11.4576 20.7834C12.5255 21.2895 13.951 21.8885 15.5436 21.9906C15.6411 21.9953 15.7433 21.9999 15.8361 21.9999C16.9087 21.9999 17.8095 21.6145 18.5153 20.8484C18.5199 20.8391 18.5292 20.8345 18.5339 20.8252C18.7753 20.5327 19.0539 20.268 19.3464 19.9848C19.5461 19.7944 19.7504 19.5947 19.9501 19.3858C20.4097 18.9075 20.6512 18.3503 20.6512 17.7792C20.6512 17.2035 20.4051 16.6509 19.9361 16.1866L17.387 13.6281ZM19.0493 18.5175C19.0446 18.5175 19.0446 18.5221 19.0493 18.5175C18.8682 18.7125 18.6824 18.889 18.4828 19.084C18.181 19.3718 17.8745 19.6737 17.5866 20.0126C17.1177 20.5141 16.5651 20.7509 15.8408 20.7509C15.7711 20.7509 15.6968 20.7509 15.6272 20.7463C14.2481 20.658 12.9666 20.1194 12.0055 19.6597C9.37738 18.3875 7.06968 16.5813 5.15202 14.2921C3.56867 12.3838 2.51001 10.6193 1.80888 8.72488C1.37706 7.56871 1.21919 6.66792 1.28884 5.8182C1.33527 5.27494 1.54421 4.82455 1.9296 4.43916L3.51295 2.85581C3.74047 2.64222 3.98192 2.52614 4.21873 2.52614C4.51125 2.52614 4.74806 2.70258 4.89664 2.85117C4.90128 2.85581 4.90593 2.86045 4.91057 2.8651C5.19381 3.12976 5.46312 3.40371 5.74636 3.69624C5.8903 3.84482 6.03888 3.99341 6.18746 4.14663L7.45507 5.41424C7.94726 5.90642 7.94726 6.36146 7.45507 6.85365C7.32042 6.9883 7.19041 7.12296 7.05575 7.25297C6.66572 7.65229 6.29426 8.02375 5.8903 8.38592C5.88101 8.39521 5.87172 8.39985 5.86708 8.40914C5.46776 8.80846 5.54205 9.19849 5.62563 9.46315C5.63027 9.47708 5.63492 9.49101 5.63956 9.50494C5.96923 10.3036 6.43356 11.0558 7.13933 11.9519L7.14397 11.9566C8.42551 13.5353 9.7767 14.7657 11.2672 15.7083C11.4576 15.829 11.6526 15.9266 11.8383 16.0194C12.0055 16.103 12.1633 16.1819 12.298 16.2655C12.3166 16.2748 12.3351 16.2887 12.3537 16.298C12.5116 16.377 12.6602 16.4141 12.8134 16.4141C13.1988 16.4141 13.4402 16.1726 13.5192 16.0937L15.1071 14.5057C15.265 14.3479 15.5158 14.1575 15.8083 14.1575C16.0962 14.1575 16.333 14.3386 16.4769 14.4964C16.4815 14.5011 16.4816 14.5011 16.4862 14.5057L19.0446 17.0642C19.5229 17.5378 19.5229 18.0253 19.0493 18.5175Z" fill="#FFA800"/>
<path d="M11.8894 5.23324C13.1059 5.43755 14.211 6.01331 15.0932 6.89552C15.9754 7.77774 16.5466 8.88284 16.7555 10.0994C16.8066 10.4058 17.0713 10.6194 17.3731 10.6194C17.4102 10.6194 17.4427 10.6148 17.4799 10.6101C17.8235 10.5544 18.051 10.2294 17.9953 9.88578C17.7445 8.41387 17.048 7.07197 15.9847 6.00866C14.9214 4.94536 13.5795 4.24887 12.1076 3.99814C11.764 3.94242 11.4436 4.16994 11.3833 4.5089C11.3229 4.84785 11.5458 5.17752 11.8894 5.23324Z" fill="#FFA800"/>
<path d="M21.9744 9.70466C21.5612 7.28089 20.4189 5.07534 18.6638 3.32019C16.9086 1.56505 14.7031 0.422806 12.2793 0.0095565C11.9403 -0.0508058 11.62 0.181357 11.5596 0.520314C11.5039 0.863915 11.7314 1.1843 12.075 1.24466C14.2388 1.61148 16.2121 2.63764 17.7816 4.20241C19.351 5.77183 20.3725 7.74521 20.7393 9.90897C20.7904 10.2154 21.055 10.429 21.3569 10.429C21.394 10.429 21.4265 10.4244 21.4637 10.4197C21.8026 10.3686 22.0348 10.0436 21.9744 9.70466Z" fill="#FFA800"/>
</svg>
