<svg width="55" height="55" viewBox="0 0 55 55" fill="none" xmlns="http://www.w3.org/2000/svg">
<g clip-path="url(#clip0)">
<path d="M10.7043 11.4611L9.94184 6.8788H7.20161C6.79194 5.30247 5.36959 4.12939 3.66587 4.12939C1.64414 4.12939 0 5.77354 0 7.79527C0 9.817 1.64414 11.4611 3.66587 11.4611C5.36959 11.4611 6.79194 10.2881 7.20161 8.71173H8.38752L8.84575 11.4611H8.82009L9.02354 12.5252V12.5279L11.3688 24.7848L12.3256 29.7905H12.3265L13.5564 36.2195C11.2946 36.39 9.40938 38.1294 9.18668 40.3207C9.05654 41.6084 9.47995 42.8978 10.3488 43.8565C11.2185 44.8187 12.4576 45.3705 13.7461 45.3705H15.579C15.579 48.403 18.0453 50.8693 21.0779 50.8693C24.1104 50.8693 26.5767 48.403 26.5767 45.3705H36.6578C36.6578 48.403 39.124 50.8693 42.1566 50.8693C45.1892 50.8693 47.6554 48.403 47.6554 45.3705H51.3213C51.8281 45.3705 52.2378 44.9608 52.2378 44.454C52.2378 43.9472 51.8281 43.5375 51.3213 43.5375H47.3347C46.5777 41.4049 44.5458 39.8717 42.1566 39.8717C39.7674 39.8717 37.7356 41.4049 36.9786 43.5375H26.2559C25.4989 41.4049 23.4671 39.8717 21.0779 39.8717C18.6886 39.8717 16.6568 41.4049 15.8998 43.5375H13.747C12.9754 43.5375 12.233 43.2058 11.7088 42.6275C11.18 42.0418 10.9316 41.2885 11.0114 40.5049C11.1507 39.122 12.4282 38.0396 13.9193 38.0396H14.6351C14.6534 38.0396 14.6699 38.0396 14.6901 38.0396L20.3062 38.0378L30.2434 38.0341V38.0332L36.7916 38.0314L46.7399 38.0295V38.0286L50.4277 38.0277C52.9489 38.0277 54.9991 35.9776 54.9991 33.4573V11.4501L10.7043 11.4611ZM3.66587 9.6282C2.65501 9.6282 1.83294 8.80613 1.83294 7.79527C1.83294 6.7844 2.65501 5.96233 3.66587 5.96233C4.67674 5.96233 5.49881 6.7844 5.49881 7.79527C5.49881 8.80613 4.67674 9.6282 3.66587 9.6282ZM42.1575 41.7046C44.1793 41.7046 45.8234 43.3487 45.8234 45.3705C45.8234 47.3922 44.1793 49.0363 42.1575 49.0363C40.1358 49.0363 38.4917 47.3922 38.4917 45.3705C38.4917 43.3487 40.1358 41.7046 42.1575 41.7046ZM21.0788 41.7046C23.1005 41.7046 24.7446 43.3487 24.7446 45.3705C24.7446 47.3922 23.1005 49.0363 21.0788 49.0363C19.057 49.0363 17.4129 47.3922 17.4129 45.3705C17.4129 43.3487 19.057 41.7046 21.0788 41.7046ZM53.1671 19.7094H46.7399V13.284L53.1671 13.2822V19.7094ZM38.4917 36.1984V29.7914H44.9069V36.1966L38.4917 36.1984ZM38.4917 27.9576V21.5423H44.9069V27.9576H38.4917ZM21.9952 36.203V29.7905H28.4105V36.2012L21.9952 36.203ZM21.9952 27.9576V21.5423H28.4105V27.9576H21.9952ZM12.6152 21.5423H20.1623V27.9576H13.8433L12.6152 21.5423ZM44.9069 19.7094H38.4917V13.2941H44.9069V19.7094ZM36.6587 19.7094H30.2434V13.2886L36.6587 13.2867V19.7094ZM28.4105 13.2941V19.7094H21.9952V13.2941H28.4105ZM30.2434 21.5423H36.6587V27.9576H30.2434V21.5423ZM46.7399 21.5423H53.1551V27.9576H46.7399V21.5423ZM20.1623 13.2922V19.7103H12.2642L11.0361 13.295L20.1623 13.2922ZM14.1933 29.7905H20.1623V36.203L15.4214 36.2049L14.1933 29.7905ZM30.2434 29.7905H36.6587V36.1984L30.2434 36.2003V29.7905ZM50.4277 36.1948L46.7399 36.1957V29.7905H53.1671V33.4564C53.1671 34.9667 51.9381 36.1948 50.4277 36.1948Z" fill="#23A4EF"/>
</g>
<defs>
<clipPath id="clip0">
<rect width="55" height="55" fill="white"/>
</clipPath>
</defs>
</svg>
