<svg width="43" height="43" viewBox="0 0 43 43" fill="none" xmlns="http://www.w3.org/2000/svg">
<g clip-path="url(#clip0)">
<path d="M39.1116 0H3.8888C1.97243 0 0.41731 1.5503 0.411684 3.46667V6.66611C0.402442 8.20234 1.40825 9.56015 2.88058 9.99896V28.8758C2.88058 31.067 4.69127 32.8053 6.87205 32.8053H20.4715V36.4882L14.4226 41.1483C14.0758 41.4176 13.938 41.8773 14.0798 42.2928C14.2213 42.7083 14.6111 42.9883 15.0503 42.9895C15.2777 42.9887 15.4983 42.9128 15.678 42.7738L21.4592 38.3298L27.2919 42.7838C27.4707 42.9244 27.6917 43.0008 27.9196 43C28.2403 42.9972 28.5428 42.8497 28.7426 42.599C28.9093 42.3824 28.9825 42.1083 28.9459 41.8379C28.9089 41.567 28.7655 41.3227 28.5469 41.1588L22.5289 36.581V32.8158H36.0769C37.1225 32.8234 38.1275 32.4119 38.8677 31.6738C39.6079 30.9356 40.0218 29.9314 40.017 28.8862V10.0195C41.5423 9.63128 42.6044 8.25016 42.5887 6.67615V3.46667C42.5831 1.5503 41.028 0 39.1116 0V0ZM36.0769 30.7584H6.87205C5.82285 30.7584 4.938 29.9354 4.938 28.8862V10.1842H37.9595V28.8862C37.9624 29.3853 37.7647 29.8647 37.4106 30.2167C37.0566 30.5687 36.5764 30.764 36.0769 30.7584ZM40.5313 6.7071C40.5297 7.49068 39.8952 8.12519 39.1116 8.12679H3.8888C3.10521 8.12519 2.47071 7.49068 2.4691 6.7071V3.47711C2.47071 2.69353 3.10521 2.05902 3.8888 2.05742H39.1116C39.8952 2.05902 40.5297 2.69353 40.5313 3.47711V6.7071Z" fill="#23A4EF"/>
<path d="M9.97842 16.1507H19.2368C19.805 16.1507 20.2655 15.6902 20.2655 15.122C20.2655 14.5538 19.805 14.0933 19.2368 14.0933H9.97842C9.41021 14.0933 8.94971 14.5538 8.94971 15.122C8.94971 15.6902 9.41021 16.1507 9.97842 16.1507Z" fill="#23A4EF"/>
<path d="M33.0215 19.2368H9.97842C9.41021 19.2368 8.94971 19.6973 8.94971 20.2655C8.94971 20.8337 9.41021 21.2942 9.97842 21.2942H33.0215C33.5897 21.2942 34.0502 20.8337 34.0502 20.2655C34.0502 19.6973 33.5897 19.2368 33.0215 19.2368Z" fill="#23A4EF"/>
<path d="M33.0215 24.3804H9.97842C9.41021 24.3804 8.94971 24.8409 8.94971 25.4091C8.94971 25.9773 9.41021 26.4378 9.97842 26.4378H33.0215C33.5897 26.4378 34.0502 25.9773 34.0502 25.4091C34.0502 24.8409 33.5897 24.3804 33.0215 24.3804Z" fill="#23A4EF"/>
</g>
<defs>
<clipPath id="clip0">
<rect width="43" height="43" fill="white"/>
</clipPath>
</defs>
</svg>
