<svg width="47" height="47" viewBox="0 0 47 47" fill="none" xmlns="http://www.w3.org/2000/svg">
<path d="M44.1627 2.56445H2.83736C1.27286 2.56445 0 3.83731 0 5.40181V33.9341C0 35.4986 1.27286 36.7714 2.83736 36.7714H16.998V38.8359C16.998 40.7285 15.4582 42.2683 13.5656 42.2683H10.4448C9.84643 42.2683 9.36128 42.7534 9.36128 43.3518C9.36128 43.9502 9.84643 44.4353 10.4448 44.4353H36.5551C37.1535 44.4353 37.6386 43.9502 37.6386 43.3518C37.6386 42.7534 37.1535 42.2683 36.5551 42.2683H33.4342C31.5417 42.2683 30.0018 40.7285 30.0018 38.8359V36.7715H44.1625C45.727 36.7715 46.9999 35.4987 46.9999 33.9342V5.40181C47.0001 3.83731 45.7272 2.56445 44.1627 2.56445ZM17.9849 42.2685C18.7235 41.3197 19.1651 40.1289 19.1651 38.8361V36.7716H27.8351V38.8361C27.8351 40.1289 28.2767 41.3198 29.0153 42.2685H17.9849ZM44.8331 33.9342C44.8331 34.3038 44.5324 34.6047 44.1626 34.6047H2.83736C2.46769 34.6047 2.16687 34.3039 2.16687 33.9342V28.2397H44.8331V33.9342ZM44.8331 26.0727H2.16696V5.40181C2.16696 5.03214 2.46769 4.73132 2.83745 4.73132H44.1626C44.5323 4.73132 44.8332 5.03205 44.8332 5.40181V26.0727H44.8331Z" fill="#23A4EF"/>
<path d="M23.5004 32.592C24.1462 32.592 24.6697 32.0685 24.6697 31.4227C24.6697 30.7769 24.1462 30.2534 23.5004 30.2534C22.8546 30.2534 22.3311 30.7769 22.3311 31.4227C22.3311 32.0685 22.8546 32.592 23.5004 32.592Z" fill="#23A4EF"/>
<path d="M25.3579 10.0292C24.9347 9.60614 24.2489 9.60614 23.8256 10.0292L16.1684 17.6864C15.7453 18.1095 15.7453 18.7956 16.1684 19.2188C16.3801 19.4304 16.6572 19.5361 16.9346 19.5361C17.212 19.5361 17.4892 19.4304 17.7008 19.2188L25.3579 11.5616C25.781 11.1385 25.781 10.4524 25.3579 10.0292Z" fill="#23A4EF"/>
<path d="M29.8961 14.4667C29.4731 14.0437 28.7873 14.0437 28.3638 14.4667L25.3134 17.5169C24.8903 17.9401 24.8903 18.6262 25.3134 19.0493C25.525 19.2608 25.8022 19.3666 26.0795 19.3666C26.3568 19.3666 26.6341 19.2608 26.8457 19.0493L29.8961 15.999C30.3192 15.5759 30.3192 14.8898 29.8961 14.4667Z" fill="#23A4EF"/>
</svg>
