<svg width="421" height="404" viewBox="0 0 421 404" fill="none" xmlns="http://www.w3.org/2000/svg">
<g clip-path="url(#clip0)">
<path d="M220.13 372.89L90.83 298.24C87.92 296.56 87.92 292.37 90.83 290.69L213.77 219.72L351.32 299.14C354.23 300.82 354.23 305.01 351.32 306.69L236.63 372.9C231.53 375.84 225.24 375.84 220.13 372.89Z" fill="#203662" fill-opacity="0.1"/>
<path d="M216.4 180C216.41 171.79 210.63 168.44 203.51 172.54L82.59 242.21C80.63 243.34 79.05 246.08 79.04 248.34C79.04 250.6 80.62 251.51 82.58 250.39L203.51 180.72C206.72 178.87 209.33 180.38 209.32 184.08L209.31 197.6C211.66 197.45 214.01 197.45 216.39 197.49L216.4 180Z" fill="#8ED0F7"/>
<path d="M82.53 274.7L203.46 230.63C210.57 226.53 216.37 216.52 216.38 208.31L216.39 197.49C214.01 197.45 211.66 197.45 209.31 197.6L209.3 212.4C209.3 216.1 206.68 220.62 203.48 222.47L82.54 266.53C80.58 267.66 79 270.4 78.99 272.66C78.99 274.91 80.58 275.83 82.53 274.7Z" fill="#8ED0F7"/>
<path d="M79.9099 274.87L227.01 359.99L351.56 285.71L361.44 270.96L360.41 276.19L357.76 262.51L126.57 271.33L85.8399 268.7L79.9099 274.87Z" fill="#8ED0F7"/>
<path d="M84.79 249.18L84.75 267.29L226.92 349.54L230.76 332.28L84.79 249.18Z" fill="#EFF8FE"/>
<path d="M359.61 256.69L212.74 171.72L80.32 248.72L80.05 250.61L227.13 335.71L359.61 256.69Z" fill="#203662"/>
<path d="M312.79 300.32L347.32 279.84C350.23 277.8 352.51 273.66 352.51 270.21L352.54 267.5C352.54 265.31 351.62 263.89 350.21 263.48L282.23 301.3L226.87 331.24L226.92 349.55L312.79 300.32Z" fill="white"/>
<path d="M231.84 332.9L85.9 248.47L82.81 246.68L79.98 245.05C79.4 246.11 79.04 247.28 79.04 248.34C79.04 249.45 79.42 250.23 80.05 250.61V250.62L80.07 250.63L80.08 250.64L227.13 335.72L231.84 332.9Z" fill="#8ED0F7"/>
<path d="M225.18 358.93L227.01 359.99L227.35 359.4L226.21 358.5L225.18 358.93Z" fill="white"/>
<path d="M225.23 334.6L227.11 335.69L226.64 334.67L225.23 334.6Z" fill="white"/>
<path d="M229.67 327.31L350.6 257.64C357.71 253.54 363.5 256.89 363.49 265.1L363.46 267.81C363.45 276.02 357.66 286.03 350.54 290.13L229.62 359.8C227.66 360.93 226.08 360.01 226.08 357.75C226.08 355.49 227.67 352.75 229.63 351.62L350.56 281.95C353.77 280.1 356.38 275.59 356.38 271.88L356.41 269.17C356.41 265.47 353.81 263.96 350.6 265.81L229.67 335.48C227.71 336.61 226.13 335.69 226.13 333.43C226.13 331.18 227.71 328.43 229.67 327.31Z" fill="#8ED0F7"/>
<path d="M226.08 357.75C226.08 355.49 227.67 352.75 229.63 351.62L350.56 281.95C353.77 280.1 356.38 275.59 356.38 271.88L356.41 269.17C356.41 266.75 355.29 265.27 353.62 265.05C354.16 265.76 354.47 266.77 354.47 268.05L354.44 270.76C354.44 274.46 351.82 278.98 348.62 280.83L227.69 350.5C225.73 351.63 224.15 354.37 224.14 356.63C224.14 358.34 225.05 359.28 226.34 359.14C226.18 358.76 226.08 358.3 226.08 357.75Z" fill="white"/>
<path d="M226.12 333.43C226.12 331.17 227.71 328.43 229.67 327.3L350.6 257.63C353.66 255.86 356.48 255.49 358.69 256.28C356.33 254.26 352.71 254.18 348.66 256.51L227.73 326.18C225.77 327.31 224.19 330.05 224.18 332.31C224.18 334.02 225.09 334.96 226.38 334.82C226.22 334.45 226.12 333.98 226.12 333.43Z" fill="white"/>
<path d="M364.54 131.86L234.07 56.5302C232.55 55.6602 231.01 55.5202 229.65 55.9902L229.66 55.9802L229.42 56.0702C229.4 56.0802 229.38 56.0802 229.36 56.0902L224.64 57.8902L228.87 59.9602C228.85 60.0402 228.83 60.1102 228.81 60.1902L207.56 156.93C206.5 161.77 208.63 167.42 212.32 169.55L339.65 243.07L339.2 248.47L344.35 246.47C346.08 245.66 347.47 243.83 348.04 241.22L369.29 144.48C370.36 139.64 368.23 133.99 364.54 131.86Z" fill="#203662"/>
<path d="M364.54 131.86L234.07 56.5302C232.55 55.6602 231.01 55.5202 229.65 55.9902L229.66 55.9802L229.42 56.0702C229.4 56.0802 229.38 56.0802 229.36 56.0902L224.64 57.8902L228.87 59.9602C228.85 60.0402 228.83 60.1102 228.81 60.1902L214.8 123.95L278.64 173.69L368.65 137.06C367.8 134.82 366.36 132.91 364.54 131.86Z" fill="#203662"/>
<path d="M359.62 146.73L369.55 142.5C369.73 138.65 368.14 134.68 365.53 132.55L349.81 139.16L359.62 146.73Z" fill="#18587C"/>
<path d="M334.67 247.95L204.2 172.63C200.51 170.5 198.38 164.85 199.44 160.01L220.69 63.2704C221.75 58.4304 225.61 56.2304 229.3 58.3604L359.77 133.69C363.46 135.82 365.59 141.47 364.53 146.31L343.28 243.05C342.22 247.89 338.36 250.08 334.67 247.95Z" fill="#8ED0F7"/>
<path d="M361.03 133.23L230.55 57.9001C228.76 56.8701 226.94 56.8701 225.41 57.6801C226.64 57.4101 227.97 57.6001 229.29 58.3601L359.76 133.69C363.45 135.82 365.58 141.47 364.52 146.31L343.27 243.05C342.72 245.55 341.43 247.32 339.8 248.18C342 247.7 343.84 245.7 344.52 242.59L365.77 145.85C366.85 141.01 364.72 135.36 361.03 133.23Z" fill="#E0F1FD"/>
<path d="M331.84 240.76L209.13 169.95C205.75 168 203.8 162.83 204.78 158.4L224.23 69.88C225.2 65.45 228.73 63.44 232.11 65.39L354.82 136.2C358.2 138.15 360.15 143.32 359.17 147.75L339.72 236.27C338.75 240.7 335.22 242.71 331.84 240.76Z" fill="white"/>
<path d="M331.84 240.76L209.13 169.95C205.75 168 203.8 162.83 204.78 158.4L224.23 69.88C225.2 65.45 228.73 63.44 232.11 65.39L354.82 136.2C358.2 138.15 360.15 143.32 359.17 147.75L339.72 236.27C338.75 240.7 335.22 242.71 331.84 240.76Z" fill="#E0F1FD" fill-opacity="0.5"/>
<path d="M332.91 240.32L210.2 169.51C206.82 167.56 204.87 162.39 205.85 157.96L225.3 69.4403C225.79 67.2003 226.94 65.5803 228.39 64.7803C226.44 65.2803 224.84 67.1003 224.23 69.8703L204.78 158.39C203.81 162.82 205.76 167.99 209.13 169.94L331.84 240.75C333.51 241.71 335.21 241.7 336.63 240.92C335.46 241.23 334.18 241.05 332.91 240.32Z" fill="#203662"/>
<path d="M336.47 251.23L318.64 248.88L203.51 182.41C199.82 180.28 193.37 180.55 189.11 183.01L107.53 230.09L96.75 228.67V234.79H96.76C96.69 236.2 97.49 237.56 99.24 238.57L229.71 313.9C233.4 316.03 239.85 315.76 244.11 313.3L332.95 262.02C335.35 260.64 336.54 258.85 336.47 257.18V251.23Z" fill="#8ED0F7"/>
<path d="M249.97 209.23L241.79 204.51H151.86L107.53 230.09L96.75 228.67V234.79H96.76C96.69 236.2 97.49 237.56 99.24 238.57L229.71 313.9C231.66 315.03 234.38 315.48 237.14 315.29L249.97 209.23Z" fill="#8ED0F7"/>
<path d="M101.53 229.3L96.74 228.67V234.79H96.75C96.68 236.2 97.48 237.56 99.23 238.57L101.53 239.9V229.3Z" fill="#7ABAE1"/>
<path d="M231.02 314.5C234.52 315.83 239.52 315.54 243.26 313.74V300.1H231.02V314.5Z" fill="#7ABAE1"/>
<path d="M229.71 307.78L99.24 232.45C95.55 230.32 96.01 226.6 100.27 224.14L189.11 172.86C193.37 170.4 199.82 170.13 203.51 172.26L333.98 247.59C337.67 249.72 337.21 253.44 332.95 255.9L244.11 307.18C239.85 309.65 233.4 309.91 229.71 307.78Z" fill="#E0F1FD"/>
<path d="M332.95 253.67L244.11 304.95C239.85 307.41 233.4 307.68 229.71 305.55L99.2399 230.22C98.0299 229.52 97.2799 228.65 96.9499 227.71C96.3699 229.46 97.1099 231.22 99.2399 232.46L229.71 307.79C233.4 309.92 239.85 309.65 244.11 307.19L332.95 255.91C335.81 254.26 336.95 252.03 336.28 250.11C335.86 251.38 334.75 252.64 332.95 253.67Z" fill="white"/>
<path d="M154.73 207.52L148.83 204.11C148.36 203.84 148.42 203.36 148.96 203.04L155.93 199.02C156.48 198.7 157.31 198.67 157.78 198.94L163.68 202.35C164.15 202.62 164.09 203.1 163.55 203.42L156.58 207.44C156.03 207.76 155.2 207.79 154.73 207.52Z" fill="#203662"/>
<path d="M163.84 212.78L157.94 209.37C157.47 209.1 157.53 208.62 158.07 208.3L165.04 204.28C165.59 203.96 166.42 203.93 166.89 204.2L172.79 207.61C173.26 207.88 173.2 208.36 172.66 208.68L165.69 212.7C165.15 213.02 164.32 213.05 163.84 212.78Z" fill="#203662"/>
<path d="M172.96 218.04L167.06 214.63C166.59 214.36 166.65 213.88 167.19 213.56L174.16 209.54C174.71 209.22 175.54 209.19 176.01 209.46L181.91 212.87C182.38 213.14 182.32 213.62 181.78 213.94L174.81 217.96C174.26 218.28 173.43 218.32 172.96 218.04Z" fill="#203662"/>
<path d="M185.57 213.7L179.67 210.29C179.2 210.02 179.26 209.54 179.8 209.22L185.65 205.84C186.2 205.52 187.03 205.49 187.5 205.76L193.4 209.17C193.87 209.44 193.81 209.92 193.27 210.24L187.42 213.62C186.87 213.94 186.04 213.97 185.57 213.7Z" fill="#203662"/>
<path d="M194.69 218.96L188.79 215.55C188.32 215.28 188.38 214.8 188.92 214.48L194.77 211.1C195.32 210.78 196.15 210.75 196.62 211.02L202.52 214.43C202.99 214.7 202.93 215.18 202.39 215.5L196.54 218.88C195.99 219.2 195.16 219.23 194.69 218.96Z" fill="#203662"/>
<path d="M203.8 224.22L197.9 220.81C197.43 220.54 197.49 220.06 198.03 219.74L203.88 216.36C204.43 216.04 205.26 216.01 205.73 216.28L211.63 219.69C212.1 219.96 212.04 220.44 211.5 220.76L205.65 224.14C205.1 224.46 204.28 224.5 203.8 224.22Z" fill="#203662"/>
<path d="M212.92 229.49L207.02 226.08C206.55 225.81 206.61 225.33 207.15 225.01L213 221.63C213.55 221.31 214.38 221.28 214.85 221.55L220.75 224.96C221.22 225.23 221.16 225.71 220.62 226.03L214.77 229.41C214.22 229.73 213.39 229.76 212.92 229.49Z" fill="#203662"/>
<path d="M222.04 234.75L216.14 231.34C215.67 231.07 215.73 230.59 216.27 230.27L222.12 226.89C222.67 226.57 223.5 226.54 223.97 226.81L229.87 230.22C230.34 230.49 230.28 230.97 229.74 231.29L223.89 234.67C223.34 234.99 222.51 235.02 222.04 234.75Z" fill="#203662"/>
<path d="M231.15 240.01L225.25 236.6C224.78 236.33 224.84 235.85 225.38 235.53L231.23 232.15C231.78 231.83 232.61 231.8 233.08 232.07L238.98 235.48C239.45 235.75 239.39 236.23 238.85 236.55L233 239.93C232.45 240.25 231.63 240.29 231.15 240.01Z" fill="#203662"/>
<path d="M240.27 245.28L234.37 241.87C233.9 241.6 233.96 241.12 234.5 240.8L240.35 237.42C240.9 237.1 241.73 237.07 242.2 237.34L248.1 240.75C248.57 241.02 248.51 241.5 247.97 241.82L242.12 245.2C241.57 245.52 240.74 245.55 240.27 245.28Z" fill="#203662"/>
<path d="M249.38 250.54L243.48 247.13C243.01 246.86 243.07 246.38 243.61 246.06L249.46 242.68C250.01 242.36 250.84 242.33 251.31 242.6L257.21 246.01C257.68 246.28 257.62 246.76 257.08 247.08L251.23 250.46C250.69 250.78 249.86 250.81 249.38 250.54Z" fill="#203662"/>
<path d="M258.5 255.8L252.6 252.39C252.13 252.12 252.19 251.64 252.73 251.32L258.58 247.94C259.13 247.62 259.96 247.59 260.43 247.86L266.33 251.27C266.8 251.54 266.74 252.02 266.2 252.34L260.35 255.72C259.8 256.04 258.98 256.08 258.5 255.8Z" fill="#203662"/>
<path d="M267.62 261.07L261.72 257.66C261.25 257.39 261.31 256.91 261.85 256.59L267.7 253.21C268.25 252.89 269.08 252.86 269.55 253.13L275.45 256.54C275.92 256.81 275.86 257.29 275.32 257.61L269.47 260.99C268.92 261.31 268.09 261.34 267.62 261.07Z" fill="#203662"/>
<path d="M199 211.2L193.1 207.79C192.63 207.52 192.69 207.04 193.23 206.72L199.08 203.34C199.63 203.02 200.46 202.99 200.93 203.26L206.83 206.67C207.3 206.94 207.24 207.42 206.7 207.74L200.85 211.12C200.3 211.44 199.48 211.48 199 211.2Z" fill="#203662"/>
<path d="M189.75 205.86L183.85 202.45C183.38 202.18 183.44 201.7 183.98 201.38L189.83 198C190.38 197.68 191.21 197.65 191.68 197.92L197.58 201.33C198.05 201.6 197.99 202.08 197.45 202.4L191.6 205.78C191.05 206.1 190.22 206.14 189.75 205.86Z" fill="#203662"/>
<path d="M180.48 200.51L167.77 193.17C167.3 192.9 167.36 192.42 167.9 192.1L173.75 188.72C174.3 188.4 175.13 188.37 175.6 188.64L188.31 195.98C188.78 196.25 188.72 196.73 188.18 197.05L182.33 200.43C181.78 200.75 180.96 200.79 180.48 200.51Z" fill="#203662"/>
<path d="M186.96 194L176.64 188.04C176.17 187.77 176.23 187.29 176.77 186.97L182.62 183.59C183.17 183.27 184 183.24 184.47 183.51L194.79 189.47C195.26 189.74 195.2 190.22 194.66 190.54L188.81 193.92C188.26 194.24 187.43 194.28 186.96 194Z" fill="#203662"/>
<path d="M208.12 216.47L202.22 213.06C201.75 212.79 201.81 212.31 202.35 211.99L208.2 208.61C208.75 208.29 209.58 208.26 210.05 208.53L215.95 211.94C216.42 212.21 216.36 212.69 215.82 213.01L209.97 216.39C209.42 216.71 208.59 216.74 208.12 216.47Z" fill="#203662"/>
<path d="M217.23 221.73L211.33 218.32C210.86 218.05 210.92 217.57 211.46 217.25L217.31 213.87C217.86 213.55 218.69 213.52 219.16 213.79L225.06 217.2C225.53 217.47 225.47 217.95 224.93 218.27L219.08 221.65C218.54 221.97 217.71 222 217.23 221.73Z" fill="#203662"/>
<path d="M226.35 226.99L220.45 223.58C219.98 223.31 220.04 222.83 220.58 222.51L226.43 219.13C226.98 218.81 227.81 218.78 228.28 219.05L234.18 222.46C234.65 222.73 234.59 223.21 234.05 223.53L228.2 226.91C227.65 227.23 226.83 227.27 226.35 226.99Z" fill="#203662"/>
<path d="M235.47 232.26L229.57 228.85C229.1 228.58 229.16 228.1 229.7 227.78L235.55 224.4C236.1 224.08 236.93 224.05 237.4 224.32L243.3 227.73C243.77 228 243.71 228.48 243.17 228.8L237.32 232.18C236.77 232.5 235.94 232.53 235.47 232.26Z" fill="#203662"/>
<path d="M244.58 237.52L238.68 234.11C238.21 233.84 238.27 233.36 238.81 233.04L244.66 229.66C245.21 229.34 246.04 229.31 246.51 229.58L252.41 232.99C252.88 233.26 252.82 233.74 252.28 234.06L246.43 237.44C245.89 237.76 245.06 237.79 244.58 237.52Z" fill="#203662"/>
<path d="M253.7 242.78L247.8 239.37C247.33 239.1 247.39 238.62 247.93 238.3L253.78 234.92C254.33 234.6 255.16 234.57 255.63 234.84L261.53 238.25C262 238.52 261.94 239 261.4 239.32L255.55 242.7C255 243.02 254.17 243.06 253.7 242.78Z" fill="#203662"/>
<path d="M262.82 248.05L256.92 244.64C256.45 244.37 256.51 243.89 257.05 243.57L262.9 240.19C263.45 239.87 264.28 239.84 264.75 240.11L270.65 243.52C271.12 243.79 271.06 244.27 270.52 244.59L264.67 247.97C264.12 248.29 263.29 248.32 262.82 248.05Z" fill="#203662"/>
<path d="M271.93 253.31L266.03 249.9C265.56 249.63 265.62 249.15 266.16 248.83L272.01 245.45C272.56 245.13 273.39 245.1 273.86 245.37L279.76 248.78C280.23 249.05 280.17 249.53 279.63 249.85L273.78 253.23C273.24 253.55 272.41 253.59 271.93 253.31Z" fill="#203662"/>
<path d="M281.05 258.58L275.15 255.17C274.68 254.9 274.74 254.42 275.28 254.1L281.13 250.72C281.68 250.4 282.51 250.37 282.98 250.64L288.88 254.05C289.35 254.32 289.29 254.8 288.75 255.12L282.9 258.5C282.35 258.81 281.52 258.85 281.05 258.58Z" fill="#203662"/>
<path d="M297.26 267.93L284.38 260.49C283.91 260.22 283.97 259.74 284.51 259.42L290.36 256.04C290.91 255.72 291.74 255.69 292.21 255.96L305.09 263.4C305.56 263.67 305.5 264.15 304.96 264.47L299.11 267.85C298.56 268.17 297.73 268.21 297.26 267.93Z" fill="#203662"/>
<path d="M315.01 257.68L304.14 251.4C303.67 251.13 303.73 250.65 304.27 250.33L310.12 246.95C310.67 246.63 311.5 246.6 311.97 246.87L322.84 253.15C323.31 253.42 323.25 253.9 322.71 254.22L316.86 257.6C316.31 257.92 315.48 257.96 315.01 257.68Z" fill="#203662"/>
<path d="M224.08 215.44L218.18 212.03C217.71 211.76 217.77 211.28 218.31 210.96L224.16 207.58C224.71 207.26 225.54 207.23 226.01 207.5L231.91 210.91C232.38 211.18 232.32 211.66 231.78 211.98L225.93 215.36C225.39 215.68 224.56 215.71 224.08 215.44Z" fill="#203662"/>
<path d="M214.74 210.04L208.84 206.63C208.37 206.36 208.43 205.88 208.97 205.56L214.82 202.18C215.37 201.86 216.2 201.83 216.67 202.1L222.57 205.51C223.04 205.78 222.98 206.26 222.44 206.58L216.59 209.96C216.04 210.28 215.21 210.32 214.74 210.04Z" fill="#203662"/>
<path d="M205.4 204.65L199.5 201.24C199.03 200.97 199.09 200.49 199.63 200.17L205.48 196.79C206.03 196.47 206.86 196.44 207.33 196.71L213.23 200.12C213.7 200.39 213.64 200.87 213.1 201.19L207.25 204.57C206.7 204.89 205.87 204.92 205.4 204.65Z" fill="#203662"/>
<path d="M196.05 199.25L190.15 195.84C189.68 195.57 189.74 195.09 190.28 194.77L196.13 191.39C196.68 191.07 197.51 191.04 197.98 191.31L203.88 194.72C204.35 194.99 204.29 195.47 203.75 195.79L197.9 199.17C197.36 199.49 196.53 199.53 196.05 199.25Z" fill="#203662"/>
<path d="M233.2 220.7L227.3 217.29C226.83 217.02 226.89 216.54 227.43 216.22L233.28 212.84C233.83 212.52 234.66 212.49 235.13 212.76L241.03 216.17C241.5 216.44 241.44 216.92 240.9 217.24L235.05 220.62C234.5 220.94 233.67 220.97 233.2 220.7Z" fill="#203662"/>
<path d="M242.32 225.96L236.42 222.55C235.95 222.28 236.01 221.8 236.55 221.48L242.4 218.1C242.95 217.78 243.78 217.75 244.25 218.02L250.15 221.43C250.62 221.7 250.56 222.18 250.02 222.5L244.17 225.88C243.62 226.2 242.79 226.24 242.32 225.96Z" fill="#203662"/>
<path d="M251.43 231.23L245.53 227.82C245.06 227.55 245.12 227.07 245.66 226.75L251.51 223.37C252.06 223.05 252.89 223.02 253.36 223.29L259.26 226.7C259.73 226.97 259.67 227.45 259.13 227.77L253.28 231.15C252.73 231.47 251.91 231.5 251.43 231.23Z" fill="#203662"/>
<path d="M260.55 236.49L254.65 233.08C254.18 232.81 254.24 232.33 254.78 232.01L260.63 228.63C261.18 228.31 262.01 228.28 262.48 228.55L268.38 231.96C268.85 232.23 268.79 232.71 268.25 233.03L262.4 236.41C261.85 236.73 261.02 236.77 260.55 236.49Z" fill="#203662"/>
<path d="M269.67 241.75L263.77 238.34C263.3 238.07 263.36 237.59 263.9 237.27L269.75 233.89C270.3 233.57 271.13 233.54 271.6 233.81L277.5 237.22C277.97 237.49 277.91 237.97 277.37 238.29L271.52 241.67C270.97 241.99 270.14 242.03 269.67 241.75Z" fill="#203662"/>
<path d="M278.78 247.02L272.88 243.61C272.41 243.34 272.47 242.86 273.01 242.54L278.86 239.16C279.41 238.84 280.24 238.81 280.71 239.08L286.61 242.49C287.08 242.76 287.02 243.24 286.48 243.56L280.63 246.94C280.08 247.26 279.26 247.29 278.78 247.02Z" fill="#203662"/>
<path d="M287.9 252.28L282 248.87C281.53 248.6 281.59 248.12 282.13 247.8L287.98 244.42C288.53 244.1 289.36 244.07 289.83 244.34L295.73 247.75C296.2 248.02 296.14 248.5 295.6 248.82L289.75 252.2C289.2 252.52 288.37 252.56 287.9 252.28Z" fill="#203662"/>
<path d="M297.02 257.55L291.12 254.14C290.65 253.87 290.71 253.39 291.25 253.07L297.1 249.69C297.65 249.37 298.48 249.34 298.95 249.61L304.85 253.02C305.32 253.29 305.26 253.77 304.72 254.09L298.87 257.47C298.32 257.78 297.49 257.82 297.02 257.55Z" fill="#203662"/>
<path d="M306.13 262.81L300.23 259.4C299.76 259.13 299.82 258.65 300.36 258.33L306.21 254.95C306.76 254.63 307.59 254.6 308.06 254.87L313.96 258.28C314.43 258.55 314.37 259.03 313.83 259.35L307.98 262.73C307.43 263.05 306.61 263.08 306.13 262.81Z" fill="#203662"/>
<path d="M219.28 202.42L213.38 199.01C212.91 198.74 212.97 198.26 213.51 197.94L219.36 194.56C219.91 194.24 220.74 194.21 221.21 194.48L227.11 197.89C227.58 198.16 227.52 198.64 226.98 198.96L221.13 202.34C220.58 202.66 219.76 202.69 219.28 202.42Z" fill="#203662"/>
<path d="M210.21 197.18L204.31 193.77C203.84 193.5 203.9 193.02 204.44 192.7L210.29 189.32C210.84 189 211.67 188.97 212.14 189.24L218.04 192.65C218.51 192.92 218.45 193.4 217.91 193.72L212.06 197.1C211.51 197.42 210.69 197.46 210.21 197.18Z" fill="#203662"/>
<path d="M201.14 191.94L195.24 188.53C194.77 188.26 194.83 187.78 195.37 187.46L201.22 184.08C201.77 183.76 202.6 183.73 203.07 184L208.97 187.41C209.44 187.68 209.38 188.16 208.84 188.48L202.99 191.86C202.44 192.18 201.61 192.22 201.14 191.94Z" fill="#203662"/>
<path d="M192.07 186.71L186.17 183.3C185.7 183.03 185.76 182.55 186.3 182.23L192.15 178.85C192.7 178.53 193.53 178.5 194 178.77L199.9 182.18C200.37 182.45 200.31 182.93 199.77 183.25L193.92 186.63C193.37 186.95 192.54 186.98 192.07 186.71Z" fill="#203662"/>
<path d="M201.4 181.32L195.5 177.91C195.03 177.64 195.09 177.16 195.63 176.84L197.56 175.72C198.11 175.4 198.94 175.37 199.41 175.64L205.31 179.05C205.78 179.32 205.72 179.8 205.18 180.12L203.25 181.24C202.7 181.56 201.87 181.6 201.4 181.32Z" fill="#203662"/>
<path d="M213.24 188.16L207.34 184.75C206.87 184.48 206.93 184 207.47 183.68L209.4 182.56C209.95 182.24 210.78 182.21 211.25 182.48L217.15 185.89C217.62 186.16 217.56 186.64 217.02 186.96L215.09 188.08C214.54 188.4 213.71 188.43 213.24 188.16Z" fill="#203662"/>
<path d="M222.27 193.37L216.37 189.96C215.9 189.69 215.96 189.21 216.5 188.89L218.43 187.77C218.98 187.45 219.81 187.42 220.28 187.69L226.18 191.1C226.65 191.37 226.59 191.85 226.05 192.17L224.12 193.29C223.57 193.61 222.74 193.65 222.27 193.37Z" fill="#203662"/>
<path d="M231.3 198.59L225.4 195.18C224.93 194.91 224.99 194.43 225.53 194.11L227.46 192.99C228.01 192.67 228.84 192.64 229.31 192.91L235.21 196.32C235.68 196.59 235.62 197.07 235.08 197.39L233.15 198.51C232.6 198.83 231.78 198.86 231.3 198.59Z" fill="#203662"/>
<path d="M240.34 203.8L234.44 200.39C233.97 200.12 234.03 199.64 234.57 199.32L236.5 198.2C237.05 197.88 237.88 197.85 238.35 198.12L244.25 201.53C244.72 201.8 244.66 202.28 244.12 202.6L242.19 203.72C241.64 204.04 240.81 204.08 240.34 203.8Z" fill="#203662"/>
<path d="M290.77 232.92L284.87 229.51C284.4 229.24 284.46 228.76 285 228.44L286.93 227.32C287.48 227 288.31 226.97 288.78 227.24L294.68 230.65C295.15 230.92 295.09 231.4 294.55 231.72L292.62 232.84C292.07 233.16 291.24 233.19 290.77 232.92Z" fill="#203662"/>
<path d="M299.8 238.13L293.9 234.72C293.43 234.45 293.49 233.97 294.03 233.65L295.96 232.53C296.51 232.21 297.34 232.18 297.81 232.45L303.71 235.86C304.18 236.13 304.12 236.61 303.58 236.93L301.65 238.05C301.1 238.37 300.27 238.41 299.8 238.13Z" fill="#203662"/>
<path d="M308.83 243.35L302.93 239.94C302.46 239.67 302.52 239.19 303.06 238.87L304.99 237.75C305.54 237.43 306.37 237.4 306.84 237.67L312.74 241.08C313.21 241.35 313.15 241.83 312.61 242.15L310.68 243.27C310.14 243.59 309.31 243.62 308.83 243.35Z" fill="#203662"/>
<path d="M317.87 248.57L311.97 245.16C311.5 244.89 311.56 244.41 312.1 244.09L314.03 242.97C314.58 242.65 315.41 242.62 315.88 242.89L321.78 246.3C322.25 246.57 322.19 247.05 321.65 247.37L319.72 248.49C319.17 248.81 318.34 248.84 317.87 248.57Z" fill="#203662"/>
<path d="M228.4 207.68L222.5 204.27C222.03 204 222.09 203.52 222.63 203.2L228.48 199.82C229.03 199.5 229.86 199.47 230.33 199.74L236.23 203.15C236.7 203.42 236.64 203.9 236.1 204.22L230.25 207.6C229.7 207.92 228.87 207.96 228.4 207.68Z" fill="#203662"/>
<path d="M237.52 212.95L231.62 209.54C231.15 209.27 231.21 208.79 231.75 208.47L237.6 205.09C238.15 204.77 238.98 204.74 239.45 205.01L245.35 208.42C245.82 208.69 245.76 209.17 245.22 209.49L239.37 212.87C238.82 213.19 237.99 213.22 237.52 212.95Z" fill="#203662"/>
<path d="M246.63 218.21L240.73 214.8C240.26 214.53 240.32 214.05 240.86 213.73L246.71 210.35C247.26 210.03 248.09 210 248.56 210.27L254.46 213.68C254.93 213.95 254.87 214.43 254.33 214.75L248.48 218.13C247.93 218.45 247.11 218.48 246.63 218.21Z" fill="#203662"/>
<path d="M255.75 223.47L249.85 220.06C249.38 219.79 249.44 219.31 249.98 218.99L255.83 215.61C256.38 215.29 257.21 215.26 257.68 215.53L263.58 218.94C264.05 219.21 263.99 219.69 263.45 220.01L257.6 223.39C257.05 223.71 256.22 223.75 255.75 223.47Z" fill="#203662"/>
<path d="M264.87 228.74L258.97 225.33C258.5 225.06 258.56 224.58 259.1 224.26L264.95 220.88C265.5 220.56 266.33 220.53 266.8 220.8L272.7 224.21C273.17 224.48 273.11 224.96 272.57 225.28L266.72 228.66C266.17 228.98 265.34 229.01 264.87 228.74Z" fill="#203662"/>
<path d="M273.98 234L268.08 230.59C267.61 230.32 267.67 229.84 268.21 229.52L274.06 226.14C274.61 225.82 275.44 225.79 275.91 226.06L281.81 229.47C282.28 229.74 282.22 230.22 281.68 230.54L275.83 233.92C275.28 234.24 274.46 234.27 273.98 234Z" fill="#203662"/>
<path d="M283.1 239.26L277.2 235.85C276.73 235.58 276.79 235.1 277.33 234.78L283.18 231.4C283.73 231.08 284.56 231.05 285.03 231.32L290.93 234.73C291.4 235 291.34 235.48 290.8 235.8L284.95 239.18C284.4 239.5 283.57 239.54 283.1 239.26Z" fill="#203662"/>
<path d="M292.22 244.53L286.32 241.12C285.85 240.85 285.91 240.37 286.45 240.05L292.3 236.67C292.85 236.35 293.68 236.32 294.15 236.59L300.05 240C300.52 240.27 300.46 240.75 299.92 241.07L294.07 244.45C293.52 244.77 292.69 244.8 292.22 244.53Z" fill="#203662"/>
<path d="M301.33 249.79L295.43 246.38C294.96 246.11 295.02 245.63 295.56 245.31L301.41 241.93C301.96 241.61 302.79 241.58 303.26 241.85L309.16 245.26C309.63 245.53 309.57 246.01 309.03 246.33L303.18 249.71C302.63 250.03 301.81 250.06 301.33 249.79Z" fill="#203662"/>
<path d="M176.28 208.33L158.89 198.29C158.42 198.02 158.48 197.54 159.02 197.22L164.87 193.84C165.42 193.52 166.25 193.49 166.72 193.76L184.11 203.8C184.58 204.07 184.52 204.55 183.98 204.87L178.13 208.25C177.58 208.57 176.75 208.61 176.28 208.33Z" fill="#203662"/>
<path d="M288.28 272.99L270.89 262.95C270.42 262.68 270.48 262.2 271.02 261.88L276.87 258.5C277.42 258.18 278.25 258.15 278.72 258.42L296.11 268.46C296.58 268.73 296.52 269.21 295.98 269.53L290.13 272.91C289.58 273.23 288.75 273.27 288.28 272.99Z" fill="#203662"/>
<path d="M251.82 263.57L245.92 260.16C245.45 259.89 245.51 259.41 246.05 259.09L253.02 255.07C253.57 254.75 254.4 254.72 254.87 254.99L260.77 258.4C261.24 258.67 261.18 259.15 260.64 259.47L253.67 263.49C253.12 263.81 252.29 263.85 251.82 263.57Z" fill="#203662"/>
<path d="M185.61 225.35L176.17 219.9C175.7 219.63 175.76 219.15 176.3 218.83L183.27 214.81C183.82 214.49 184.65 214.46 185.12 214.73L194.56 220.18C195.03 220.45 194.97 220.93 194.43 221.25L187.46 225.27C186.92 225.59 186.09 225.62 185.61 225.35Z" fill="#203662"/>
<path d="M243.04 258.5L233.6 253.05C233.13 252.78 233.19 252.3 233.73 251.98L240.7 247.96C241.25 247.64 242.08 247.61 242.55 247.88L251.99 253.33C252.46 253.6 252.4 254.08 251.86 254.4L244.89 258.42C244.34 258.74 243.51 258.77 243.04 258.5Z" fill="#203662"/>
<path d="M198.77 232.94L189.33 227.49C188.86 227.22 188.92 226.74 189.46 226.42L196.43 222.4C196.98 222.08 197.81 222.05 198.28 222.32L207.72 227.77C208.19 228.04 208.13 228.52 207.59 228.84L200.62 232.86C200.07 233.18 199.24 233.22 198.77 232.94Z" fill="#203662"/>
<path d="M198.34 222.36L239.39 246.06C239.9 246.35 239.9 246.83 239.39 247.12L232.28 251.22C231.77 251.51 230.94 251.51 230.44 251.22L189.39 227.52L198.34 222.36Z" fill="#203662"/>
<path d="M277.3 273.12L283.88 276.92C284.27 277.14 284.22 277.54 283.77 277.8L280.92 279.45C280.47 279.71 279.79 279.74 279.4 279.51L272.82 275.71C272.43 275.49 272.48 275.09 272.93 274.83L275.78 273.18C276.23 272.92 276.91 272.89 277.3 273.12Z" fill="#203662"/>
<path d="M268.11 267.81L274.69 271.61C275.08 271.83 275.03 272.23 274.58 272.49L271.73 274.14C271.28 274.4 270.6 274.43 270.21 274.2L263.63 270.4C263.24 270.18 263.29 269.78 263.74 269.52L266.59 267.87C267.04 267.61 267.72 267.58 268.11 267.81Z" fill="#203662"/>
<path d="M258.99 262.54L265.57 266.34C265.96 266.56 265.91 266.96 265.46 267.22L262.61 268.87C262.16 269.13 261.48 269.16 261.09 268.93L254.51 265.13C254.12 264.91 254.17 264.51 254.62 264.25L257.47 262.6C257.92 262.35 258.6 262.32 258.99 262.54Z" fill="#203662"/>
<path d="M273.14 264.9L279.72 268.7C280.11 268.92 280.06 269.32 279.61 269.58L276.76 271.23C276.31 271.49 275.63 271.52 275.24 271.29L268.66 267.49C268.27 267.27 268.32 266.87 268.77 266.61L271.62 264.96C272.07 264.71 272.75 264.68 273.14 264.9Z" fill="#203662"/>
<path d="M309.15 162.2L260.05 133.85L260.68 130.65L309.78 159.01L309.15 162.2Z" fill="#23A4EF"/>
<path d="M291.56 167.58L257.29 147.79L257.92 144.6L292.2 164.39L291.56 167.58Z" fill="#23A4EF"/>
<path d="M288.32 157.94L258.67 140.82L259.3 137.63L288.95 154.75L288.32 157.94Z" fill="#F18634"/>
<path d="M307.77 169.17L292.94 160.61L293.58 157.42L308.4 165.98L307.77 169.17Z" fill="#FCCC55"/>
<path d="M254.82 105.99L239.99 97.4302L240.62 94.2402L255.45 102.8L254.82 105.99Z" fill="#23A4EF"/>
<path d="M253.21 113.41L238.38 104.85L239.01 101.66L253.84 110.22L253.21 113.41Z" fill="#F18634"/>
<path d="M325.82 216.75L311 208.19L311.63 205L326.45 213.56L325.82 216.75Z" fill="#23A4EF"/>
<path d="M249.99 128.25L235.16 119.69L235.79 116.5L250.62 125.06L249.99 128.25Z" fill="#23A4EF"/>
<path d="M282.03 130.55C281.56 131.58 280.36 131.95 279.36 131.37C278.36 130.79 277.93 129.49 278.41 128.46C278.89 127.43 280.08 127.06 281.08 127.64C282.07 128.21 282.5 129.52 282.03 130.55Z" fill="#23A4EF"/>
<path d="M288.41 134.24C287.94 135.27 286.74 135.64 285.74 135.06C284.74 134.48 284.31 133.18 284.79 132.15C285.26 131.12 286.46 130.75 287.46 131.33C288.46 131.9 288.89 133.21 288.41 134.24Z" fill="#23A4EF"/>
<path d="M294.8 137.92C294.33 138.95 293.13 139.32 292.13 138.74C291.13 138.16 290.7 136.86 291.18 135.83C291.66 134.8 292.85 134.43 293.85 135.01C294.84 135.59 295.27 136.89 294.8 137.92Z" fill="#23A4EF"/>
<path d="M301.19 141.61C300.72 142.64 299.52 143.01 298.52 142.43C297.52 141.85 297.09 140.55 297.57 139.52C298.05 138.49 299.24 138.12 300.24 138.7C301.23 139.28 301.66 140.58 301.19 141.61Z" fill="#23A4EF"/>
<path d="M365.66 345.37C363.67 344.22 360.46 344.22 358.47 345.37L265.73 398.93C263.74 400.08 263.74 401.93 265.73 403.08C267.72 404.23 270.93 404.23 272.92 403.08L365.66 349.52C367.65 348.38 367.65 346.52 365.66 345.37Z" fill="#203662" fill-opacity="0.1"/>
<path d="M381.51 316.36C381.42 316.21 381.25 316.13 381.07 316.17L375.46 317.39L377.67 321.15L381.46 316.84C381.58 316.7 381.6 316.51 381.51 316.36Z" fill="#D4ECFF"/>
<path d="M379.3 319.13C379.29 318.32 378.72 317.34 378.01 316.94C377.68 316.76 377.39 316.73 377.17 316.84C370.69 316.79 364.31 318.49 358.72 321.78L358.32 322.02L365.29 333.87L367.35 332.51C371.7 329.62 375.38 325.82 378.1 321.36L378.98 319.92C379.18 319.77 379.3 319.51 379.3 319.13Z" fill="#23A4EF"/>
<path d="M366.69 330.71C366.67 327.61 364.46 323.86 361.76 322.33C359.06 320.8 356.9 322.07 356.92 325.17C356.94 328.27 359.15 332.02 361.85 333.55C364.54 335.09 366.71 333.81 366.69 330.71Z" fill="#E0F1FD"/>
<path d="M323.93 359.64L365.29 333.87L358.32 322.02L315.7 345.63L323.93 359.64Z" fill="#E0F1FD"/>
<path d="M325.59 355.9C325.56 352.24 322.95 347.8 319.77 346C316.58 344.19 314.02 345.7 314.05 349.36C314.08 353.02 316.69 357.46 319.87 359.26C323.06 361.07 325.62 359.57 325.59 355.9Z" fill="#E0F1FD"/>
<path d="M323.23 357.29C323.2 353.63 320.59 349.19 317.41 347.39C314.22 345.58 311.66 347.09 311.69 350.75C311.72 354.41 314.33 358.85 317.51 360.65C320.7 362.46 323.26 360.95 323.23 357.29Z" fill="#D4ECFF"/>
<path d="M313.322 347.026L258.613 379.181L266.847 393.19L321.556 361.035L313.322 347.026Z" fill="#E0F1FD"/>
<path d="M268.52 389.45C268.49 385.79 265.88 381.35 262.7 379.55C259.51 377.74 256.95 379.25 256.98 382.91C257.01 386.57 259.62 391.01 262.8 392.81C265.99 394.62 268.55 393.11 268.52 389.45Z" fill="#E0F1FD"/>
<path d="M266.45 388.28C266.32 386.12 264.56 383.42 262.52 382.26C260.47 381.1 258.92 381.91 259.04 384.07C259.17 386.23 260.93 388.93 262.97 390.09C265.02 391.25 266.58 390.44 266.45 388.28Z" fill="#23A4EF"/>
<path d="M326 355.66C325.97 352 323.36 347.56 320.18 345.76C318.9 345.03 317.72 344.85 316.77 345.12C317.8 344.04 319.5 343.91 321.43 345.01C324.62 346.82 327.22 351.25 327.25 354.91C327.27 357.1 326.36 358.51 324.95 358.91C325.62 358.2 326.01 357.1 326 355.66Z" fill="white"/>
<path d="M326 355.66C325.97 352 323.36 347.56 320.18 345.76C318.59 344.86 317.15 344.78 316.11 345.39L313.01 347.21L314.49 349.72C314.76 353.05 316.99 356.85 319.77 358.7L321.25 361.21L324.35 359.39C325.38 358.78 326.02 357.49 326 355.66Z" fill="#23A4EF"/>
<path d="M322.9 357.48C322.87 353.82 320.26 349.38 317.08 347.58C313.89 345.77 311.33 347.28 311.36 350.94C311.39 354.6 314 359.04 317.18 360.84C320.37 362.65 322.93 361.14 322.9 357.48Z" fill="#D4ECFF"/>
<path d="M263.88 389.9L260.33 383.86L248.73 390.68C247.06 391.66 246.5 393.81 247.48 395.48C248.46 397.15 250.61 397.71 252.28 396.73L263.88 389.9Z" fill="#FCCC55"/>
<path d="M264.59 388.29C264.58 386.71 263.45 384.8 262.08 384.02C260.7 383.24 259.6 383.89 259.61 385.47C259.62 387.05 260.75 388.96 262.12 389.74C263.5 390.52 264.6 389.87 264.59 388.29Z" fill="#FCCC55"/>
<path d="M277.48 366.96L275.74 365.97C274.74 365.4 273.42 365.55 272.02 366.37L266.06 369.87C264.94 370.53 264.03 372.13 264.04 373.44L264.06 376.42C264.06 376.92 263.82 377.5 263.46 377.92L263.68 379.3L262.19 378.45C261.98 378.34 261.84 378.09 261.84 377.72L261.82 374.74C261.8 372.02 263.69 368.68 266.04 367.31L272 363.81C273.99 362.64 275.87 362.44 277.29 363.24L279.03 364.23C280.03 364.8 281.35 364.65 282.75 363.83L306.77 349.71C307.08 349.53 307.36 349.51 307.56 349.63L309.04 350.48L307.77 350.97C307.59 351.5 307.22 352.02 306.78 352.28L282.76 366.4C280.78 367.57 278.9 367.77 277.48 366.96Z" fill="#23A4EF"/>
<path d="M277.25 366.84C276.25 366.27 274.93 366.42 273.53 367.24L267.57 370.74C266.45 371.4 265.54 373 265.55 374.31L265.57 377.29C265.58 378 265.08 378.87 264.47 379.22C263.86 379.58 263.36 379.3 263.35 378.59L263.33 375.61C263.31 372.89 265.2 369.55 267.54 368.18L273.5 364.68C275.49 363.51 277.37 363.31 278.79 364.11L280.53 365.1C281.53 365.67 282.85 365.52 284.25 364.7L308.27 350.58C308.88 350.22 309.38 350.5 309.39 351.21C309.4 351.92 308.9 352.79 308.29 353.14L284.27 367.26C282.28 368.43 280.4 368.63 278.98 367.83L277.25 366.84Z" fill="#23A4EF"/>
<path d="M265.47 374.79L265.49 377.77C265.49 377.79 265.48 377.81 265.48 377.83C265.54 377.64 265.57 377.45 265.56 377.28L265.54 374.3C265.54 374.22 265.55 374.13 265.56 374.04C265.51 374.3 265.47 374.55 265.47 374.79Z" fill="#4061A4"/>
<path d="M45.33 336.34C45.64 337.38 46.13 338.4 46.78 339.4C39.17 345.81 40.28 354.64 50.15 360.34C61.29 366.77 79.34 366.77 90.48 360.34C98.69 355.6 100.84 348.69 96.95 342.81C98.06 341.86 98.99 340.85 99.73 339.82C106.83 346.71 106.04 355.56 97.37 362.02L106.61 367.43C110.09 366.19 114.4 366.28 117.05 367.81L150.64 387.2C153.82 389.03 153.42 392.24 149.75 394.36C146.08 396.48 140.53 396.71 137.35 394.87L103.76 375.48C101.35 374.09 101 371.91 102.57 370.01L93.25 364.55C79.8 371.61 59 371.41 46.01 363.91C32.86 356.32 32.64 344.1 45.33 336.34Z" fill="#203662" fill-opacity="0.1"/>
<path opacity="0.5" d="M49.04 318.85C61.18 311.84 80.86 311.84 93.01 318.85C98.04 321.76 100.98 325.41 101.84 329.19C101.08 332.53 98.7 335.76 94.7 338.47C93.7 337.65 92.58 336.87 91.31 336.14C79.17 329.13 59.49 329.13 47.34 336.14C46.74 336.49 46.18 336.84 45.64 337.21C42.66 334.78 40.85 332.02 40.21 329.19C41.07 325.41 44.01 321.75 49.04 318.85Z" fill="#D4ECFF"/>
<path d="M102.58 334.79L97.8401 328.61L83.4401 321.92L71.0301 320.82L56.5001 322.6L46.4201 327.81L39.9801 331.92L38.8201 325.23L40.9901 317.52C40.9901 317.52 46.5001 313.88 46.8401 313.54C47.1801 313.2 59.7201 308.71 59.7201 308.71L72.2601 307.86L82.3401 309.13L92.5901 312.18L99.3701 316.92L104.45 323.36L105.02 331.41L102.58 334.79Z" fill="#23A4EF"/>
<path d="M35.3301 326.84V339.87L38.8101 334.22L35.3301 326.84Z" fill="#8ED0F7"/>
<path d="M93.0102 327.52C80.8702 320.51 61.1902 320.51 49.0402 327.52C45.2202 329.72 42.6102 332.36 41.1902 335.16C40.1202 334.2 38.7402 333.45 38.1702 332.16C39.9102 329.79 42.4402 327.57 45.7802 325.64C59.7202 317.59 82.3202 317.59 96.2502 325.64C99.3002 327.4 101.68 329.4 103.4 331.54C102.84 332.85 101.99 334.12 100.85 335.17C99.4502 332.37 96.8302 329.73 93.0102 327.52Z" fill="#8ED0F7"/>
<path opacity="0.5" d="M49.04 318.85C61.18 311.84 80.86 311.84 93.01 318.85C98.04 321.76 100.98 325.41 101.84 329.19C100.98 332.97 98.04 336.63 93.01 339.53C80.87 346.54 61.19 346.54 49.04 339.53C44.01 336.62 41.07 332.97 40.21 329.19C41.07 325.41 44.01 321.75 49.04 318.85Z" fill="#D4ECFF"/>
<path d="M38.17 332.16C38.41 332.71 38.81 333.16 39.25 333.57L39.26 333.43L42.48 335.35L46.43 339.02L51.91 341.45L59.48 344.16L66.2 345.74L75.46 346.14L81.45 345.52L93.31 342.41L101.04 335.58C100.98 335.44 100.93 335.31 100.86 335.17C101.99 334.12 102.85 332.85 103.41 331.54C103.62 331.8 103.82 332.06 104.01 332.33L106.72 326.69V340.22L106.71 340.21C106.72 345.49 103.24 350.77 96.26 354.79C82.32 362.84 59.72 362.84 45.79 354.79C35.19 348.67 32.66 339.66 38.17 332.16Z" fill="#8ED0F7"/>
<path d="M98.26 338.04L101.05 335.58C100.99 335.44 100.94 335.31 100.87 335.17C102 334.12 102.86 332.85 103.42 331.54C103.63 331.8 103.83 332.06 104.02 332.33L106.73 326.69V340.22L106.72 340.21C106.72 344.95 103.9 349.7 98.27 353.53V338.04H98.26Z" fill="#23A4EF"/>
<path d="M45.78 341.42C59.72 349.47 82.32 349.47 96.25 341.42C110.19 333.37 110.19 320.33 96.25 312.28C82.31 304.23 59.71 304.23 45.78 312.28C31.85 320.32 31.85 333.37 45.78 341.42ZM49.04 314.15C61.18 307.14 80.86 307.14 93.01 314.15C105.15 321.16 105.15 332.52 93.01 339.53C80.87 346.54 61.19 346.54 49.04 339.53C36.9 332.53 36.9 321.16 49.04 314.15Z" fill="#23A4EF"/>
<path d="M119.6 356.18L99.8199 344.67L97.1899 348.93L117.06 360.51L119.6 356.18Z" fill="#E0F1FD"/>
<path d="M116.56 359.37C116.56 360.5 117.35 360.96 118.33 360.39C119.31 359.82 120.1 358.45 120.1 357.32C120.1 356.19 119.31 355.73 118.33 356.3C117.35 356.87 116.56 358.24 116.56 359.37Z" fill="#E0F1FD"/>
<path d="M116.56 359.37C116.56 360.5 117.35 360.96 118.33 360.39C119.31 359.82 120.1 358.45 120.1 357.32C120.1 356.19 119.31 355.73 118.33 356.3C117.35 356.87 116.56 358.24 116.56 359.37Z" fill="#E0F1FD"/>
<path d="M96.77 347.85C96.77 348.98 97.56 349.44 98.54 348.87C99.52 348.3 100.31 346.93 100.31 345.8C100.31 344.67 99.52 344.21 98.54 344.78C97.56 345.35 96.77 346.72 96.77 347.85Z" fill="#E0F1FD"/>
<path d="M106.83 360.2C106.83 355.33 110.25 349.42 114.46 346.98C116.62 345.73 118.56 345.65 119.95 346.51L161.77 370.82L150.84 389.42L109.46 365.33C109.18 365.21 108.91 365.06 108.66 364.87L108.63 364.85C107.51 363.96 106.83 362.37 106.83 360.2Z" fill="#8ED0F7"/>
<path d="M158.75 375.97L111.94 348.94C112.73 348.16 113.58 347.49 114.46 346.98C116.62 345.73 118.56 345.65 119.95 346.51L161.77 370.82L158.75 375.97Z" fill="#E0F1FD"/>
<path d="M161.695 383.23C164.675 378.069 164.675 372.491 161.695 370.771C158.715 369.051 153.884 371.839 150.905 377C147.925 382.161 147.925 387.739 150.905 389.459C153.885 391.18 158.716 388.391 161.695 383.23Z" fill="#E0F1FD"/>
<path d="M154.87 382.25C154.87 384.99 157.1 387.22 159.84 387.22C162.58 387.22 164.81 384.99 164.81 382.25C164.81 379.51 162.58 377.28 159.84 377.28C157.1 377.28 154.87 379.51 154.87 382.25Z" fill="#FCCC55"/>
<path d="M162.22 381.9C163.032 381.9 163.69 381.242 163.69 380.43C163.69 379.618 163.032 378.96 162.22 378.96C161.408 378.96 160.75 379.618 160.75 380.43C160.75 381.242 161.408 381.9 162.22 381.9Z" fill="white"/>
<path d="M155.75 370.98C158 369.68 160.02 369.65 161.42 370.64C160.07 370.01 158.28 370.17 156.31 371.31C152.1 373.74 148.68 379.66 148.68 384.53C148.68 386.79 149.42 388.42 150.64 389.28C149.1 388.56 148.12 386.8 148.12 384.21C148.12 379.33 151.53 373.42 155.75 370.98Z" fill="white"/>
<path d="M49.04 314.15C61.18 307.14 80.86 307.14 93.01 314.15C99.33 317.8 102.35 322.63 102.09 327.41C101.85 323.01 98.83 318.65 93.01 315.29C80.87 308.28 61.19 308.28 49.04 315.29C43.22 318.65 40.2 323.01 39.96 327.41C39.7 322.63 42.72 317.8 49.04 314.15Z" fill="white"/>
<path d="M45.78 341.42C59.72 349.47 82.32 349.47 96.25 341.42C102.97 337.54 106.44 332.5 106.68 327.42C106.94 332.88 103.47 338.39 96.25 342.56C82.31 350.61 59.71 350.61 45.78 342.56C38.56 338.39 35.09 332.88 35.35 327.42C35.6 332.5 39.07 337.54 45.78 341.42Z" fill="white"/>
<path d="M164.55 314.31C164.55 314.31 160.8 312.42 158.5 315.23C156.2 318.05 152.91 324.69 152.8 329.18C152.7 333.67 156.35 333.37 158.53 332.31C160.7 331.25 167.05 322.04 167.44 320.23C167.82 318.43 166.99 315.99 166.38 315.51C165.76 315.03 164.55 314.31 164.55 314.31Z" fill="#203662"/>
<path d="M165.37 313.4L165.54 317.28C165.58 318.11 165.16 318.89 164.44 319.3C163.79 319.67 162.83 319.96 161.55 319.75C158.73 319.3 158.47 318.49 158.27 314.61C158.07 310.73 165.37 313.4 165.37 313.4Z" fill="#D4ECFF"/>
<path d="M150.82 306.841C150.82 306.841 147.07 304.951 144.77 307.761C142.47 310.581 139.18 317.221 139.07 321.711C138.97 326.201 142.62 325.901 144.8 324.841C146.98 323.781 153.32 314.571 153.71 312.761C154.09 310.961 153.26 308.521 152.65 308.041C152.03 307.561 150.82 306.841 150.82 306.841Z" fill="#203662"/>
<path d="M151.64 305.93L151.81 309.81C151.85 310.64 151.43 311.42 150.71 311.83C150.06 312.2 149.1 312.49 147.82 312.28C145 311.83 144.74 311.02 144.54 307.14C144.34 303.26 151.64 305.93 151.64 305.93Z" fill="#D4ECFF"/>
<path d="M185.1 234.61C183.99 216.55 165.55 237.27 165.55 237.27L152.93 249.64L141.56 262.13C139.34 264.57 138.31 267.86 138.74 271.13L143.34 306.15C143.57 307.88 145.05 309.15 146.79 309.14C147.28 309.14 147.85 309.09 148.49 308.99C152.59 308.35 152.29 304.45 152.29 304.45L151.45 271.7L175.32 257.31C175.31 257.31 186.21 252.67 185.1 234.61Z" fill="#F18634"/>
<path d="M198.82 241.49C197.71 223.43 179.26 244.15 179.26 244.15L166.64 256.52L155.27 269.01C153.05 271.45 152.02 274.74 152.45 278.01L157.05 313.03C157.28 314.76 158.76 316.03 160.5 316.02C160.99 316.02 161.56 315.97 162.2 315.87C166.3 315.23 166 311.33 166 311.33L165.18 279.52L189.03 264.19C189.04 264.19 199.93 259.55 198.82 241.49Z" fill="#F18634"/>
<path d="M187.91 183.53C201.89 189.33 201.61 197.59 201.61 197.59C201.61 197.59 198.87 227.9 199.81 248.13C200.2 256.59 154.86 257.24 161.62 234.66C169.59 208.05 166.6 186.5 170.34 183.25C174.07 180.01 184.29 182.03 187.91 183.53Z" fill="#FCCC55"/>
<path d="M192.41 190.86C191.68 193.7 187.96 195.2 184.1 194.2C180.24 193.21 177.71 190.1 178.44 187.26C179.17 184.42 182.89 182.92 186.75 183.92C190.61 184.91 193.14 188.02 192.41 190.86Z" fill="#FFC2B0"/>
<path d="M186.81 194.26L184.24 197.05C183.91 197.41 183.75 197.9 183.8 198.39L185.57 213.69C185.62 214.12 185.5 214.55 185.24 214.89L179.7 222.13C179.45 222.45 178.95 222.36 178.83 221.98L175.82 212.49C175.71 212.13 175.72 211.74 175.85 211.39L181.15 197.5C181.27 197.2 181.29 196.87 181.22 196.55L180.44 192.87L186.81 194.26Z" fill="white"/>
<path d="M186.49 195.18C185.65 195.18 184.79 195.07 183.94 194.85C181.94 194.33 180.2 193.27 179.04 191.85C177.83 190.37 177.39 188.68 177.8 187.1C178.62 183.91 182.71 182.19 186.92 183.28C191.13 184.37 193.88 187.84 193.06 191.03C192.65 192.61 191.45 193.88 189.68 194.59C188.7 194.98 187.62 195.18 186.49 195.18ZM184.36 184.28C181.76 184.28 179.59 185.49 179.09 187.43C178.79 188.59 179.14 189.86 180.07 191C181.05 192.2 182.54 193.11 184.27 193.55C186 194 187.74 193.92 189.18 193.34C190.55 192.79 191.46 191.85 191.76 190.68C192.4 188.2 190.07 185.45 186.58 184.55C185.83 184.37 185.07 184.28 184.36 184.28Z" fill="white"/>
<path d="M182.3 182.9C182.3 182.9 182.42 183.46 182.18 187.89C182.1 189.28 186.98 190.58 188.24 189.32C189.5 188.06 189 186.75 189.3 182.01C189.61 177.27 182.3 182.9 182.3 182.9Z" fill="#FFC2B0"/>
<path d="M189.3 182.01C189.3 182.01 188.1 186.41 182.18 188.09L182.27 184.09L189.3 182.01Z" fill="#EA9C92"/>
<path d="M193.044 176.225C194.522 170.469 191.055 164.605 185.3 163.126C179.544 161.648 173.68 165.115 172.202 170.87C170.723 176.626 174.19 182.49 179.946 183.969C185.701 185.447 191.565 181.98 193.044 176.225Z" fill="#FFC2B0"/>
<path d="M185.11 173.93C185.11 173.93 179.18 176.47 175.08 176.5C170.98 176.53 171.88 173.09 171.88 173.09L184.06 171.33L185.11 173.93Z" fill="#EA9C92"/>
<path d="M173.85 174.6C173.85 174.6 179.01 172.41 183.54 173.32C184.6 173.53 185.59 174.1 186.28 174.95C186.5 175.23 186.79 175.48 187.11 175.55C187.91 175.73 189.23 172.4 190.79 172.32C192.35 172.24 193.39 173.35 192.11 175.4C190.83 177.45 191.26 179.74 191.85 180.07C192.44 180.4 199.73 175.31 194.22 164.4C188.71 153.48 173.67 159.67 171.49 161.88C171.49 161.88 169.2 163.88 167.33 162.1C167.34 162.1 165.25 177.76 173.85 174.6Z" fill="#281B15"/>
<path d="M193.77 219.74V227.93C193.77 228.87 193.37 229.76 192.68 230.4L175.86 245.74L177.77 248.66L200.95 233.46C201.99 232.71 202.66 231.55 202.79 230.28L204.37 215.08L193.77 219.74Z" fill="#FFC2B0"/>
<path d="M200.43 193.5C200.43 193.5 205.53 201.18 207.43 221.38C207.43 221.38 198.71 224.2 193.76 222.6C188.82 221 200.43 193.5 200.43 193.5Z" fill="#FCCC55"/>
<path d="M192.84 203.2C192.84 203.2 190.84 213.89 190.73 218.92C190.7 220.3 191.54 221.55 192.84 222.02V203.2Z" fill="#F18634"/>
<path d="M188.47 256.381L184.75 255.891L160.75 242.031C159.98 241.591 158.64 241.641 157.75 242.151L140.74 251.971L138.49 251.671V253.911C138.48 254.201 138.64 254.491 139.01 254.701L166.21 270.401C166.98 270.841 168.32 270.791 169.21 270.281L187.73 259.591C188.23 259.301 188.48 258.931 188.46 258.581V256.381H188.47Z" fill="#5793CE"/>
<path d="M170.44 247.62L168.73 246.64H149.98L140.74 251.97L138.49 251.67V253.91C138.48 254.2 138.64 254.49 139.01 254.7L166.21 270.4C166.62 270.63 167.18 270.73 167.76 270.69L170.44 247.62Z" fill="#396CAA"/>
<path d="M139.5 251.8L138.5 251.67V253.91C138.49 254.2 138.65 254.49 139.02 254.7L139.5 254.98V251.8Z" fill="#5793CE"/>
<path d="M166.49 270.531C167.22 270.811 168.26 270.751 169.04 270.371V266.561H166.49V270.531Z" fill="#5793CE"/>
<path d="M166.22 268.16L139.02 252.46C138.25 252.02 138.35 251.24 139.24 250.73L157.76 240.04C158.65 239.53 159.99 239.47 160.76 239.92L187.96 255.62C188.73 256.06 188.63 256.84 187.74 257.35L169.22 268.04C168.33 268.55 166.99 268.61 166.22 268.16Z" fill="white"/>
<path d="M165.76 265.78L143.14 252.72C142.5 252.35 142.58 251.71 143.32 251.28L153.25 245.7C153.99 245.27 155.11 245.23 155.75 245.6L178.37 258.66C179.01 259.03 178.93 259.67 178.19 260.1L168.27 265.68C167.51 266.11 166.4 266.15 165.76 265.78Z" fill="#D4ECFF"/>
<path d="M158.8 239.52L158.52 241.4C158.28 243 158.32 244.63 158.64 246.21L158.97 247.86C159.16 248.79 159.9 249.52 160.83 249.69C161.56 249.82 162.25 249.31 162.33 248.57L162.78 244.56C162.78 244.56 163.81 245.91 164.3 245.91C164.8 245.91 163.75 241.89 162.62 239.62C161.52 237.34 158.8 239.52 158.8 239.52Z" fill="#FFC2B0"/>
<path d="M168.02 209.69L165.1 215.47C164.41 216.84 164 218.33 163.91 219.85L162.64 239.61L158.8 239.52L157.06 217.33C157.01 216.64 157.04 215.96 157.16 215.28L159.15 204.03L168.02 209.69Z" fill="#FFC2B0"/>
<path d="M165.29 269.67L163.01 266.69L139.03 252.8C138.26 252.35 137.64 251.16 137.64 250.14L137.66 230.5L136.28 228.7L137.58 227.95C137.83 227.79 138.16 227.79 138.52 228L165.7 243.74C166.47 244.19 167.09 245.38 167.09 246.4L167.07 267.78C167.07 268.36 166.87 268.76 166.56 268.92L165.29 269.67Z" fill="#23A4EF"/>
<path d="M148.71 258.41L147.01 257.42L137.66 241.17L137.67 230.5L136.29 228.7L137.59 227.95C137.84 227.79 138.17 227.79 138.53 228L165.71 243.74C166.12 243.98 166.48 244.42 166.73 244.94L148.71 258.41Z" fill="#23A4EF"/>
<path d="M136.89 229.51L136.28 228.71L137.58 227.96C137.83 227.8 138.16 227.8 138.52 228.01L139 228.29L136.89 229.51Z" fill="#23A4EF"/>
<path d="M165.95 243.93C166.55 244.42 167.02 245.36 167.09 246.22L164.43 247.75L163.16 245.54L165.95 243.93Z" fill="#23A4EF"/>
<path d="M164.41 244.5L137.23 228.76C136.46 228.31 135.84 228.79 135.84 229.81L135.82 251.19C135.82 252.22 136.44 253.41 137.21 253.85L164.39 269.59C165.16 270.04 165.78 269.56 165.78 268.54L165.8 247.16C165.8 246.14 165.17 244.95 164.41 244.5Z" fill="#23A4EF"/>
<path d="M177.77 248.65L177.33 249.55C176.83 250.59 176.04 251.46 175.06 252.07L172.36 253.73C171.52 254.25 170.46 254.29 169.6 253.79C169.57 253.77 169.54 253.75 169.51 253.73C168.65 253.19 168.57 251.96 169.28 251.23L172.1 248.33C172.1 248.33 170.51 249.54 170.07 249.06C169.74 248.7 171.61 246.95 173.04 246.9C174.47 246.84 175.85 245.72 175.85 245.72L177.77 248.65Z" fill="#FFC2B0"/>
<path d="M170.62 183.22C170.62 183.22 160.28 194.47 156.1 204.8C156.1 204.8 159.64 211.17 168.29 213.67C176.95 216.17 170.62 183.22 170.62 183.22Z" fill="#FCCC55"/>
<path d="M166.35 213L168.03 196.81L164.08 211.98C164.78 212.35 165.54 212.69 166.35 213Z" fill="#F18634"/>
<path d="M178.36 180.95L175.58 180.19C175.58 180.19 176.91 182.28 178.84 182.81C180.78 183.34 181.08 181.7 181.08 181.7L178.36 180.95Z" fill="white"/>
<path d="M191.66 178.05C192.516 178.05 193.21 177.356 193.21 176.5C193.21 175.644 192.516 174.95 191.66 174.95C190.804 174.95 190.11 175.644 190.11 176.5C190.11 177.356 190.804 178.05 191.66 178.05Z" fill="white"/>
<path d="M41.8101 280.62C32.9601 285.73 18.6101 285.73 9.76006 280.62C0.910058 275.51 0.910058 267.23 9.76006 262.12C18.6101 257.01 32.9601 257.01 41.8101 262.12C50.6601 267.22 50.6601 275.51 41.8101 280.62Z" fill="#203662" fill-opacity="0.1"/>
<path d="M51.5601 260.18V252.94H50.2001C48.9701 250.83 46.9301 248.84 44.0201 247.16C33.9501 241.35 17.6301 241.35 7.56012 247.16C4.65012 248.84 2.60012 250.83 1.38012 252.94H0.000118111V260.14C-0.0198819 263.96 2.50012 267.79 7.55012 270.7C17.6201 276.51 33.9401 276.51 44.0101 270.7C49.0501 267.8 51.5601 263.99 51.5601 260.18Z" fill="#FCCC55"/>
<path d="M25.78 267.83C40.0179 267.83 51.56 261.163 51.56 252.94C51.56 244.716 40.0179 238.05 25.78 238.05C11.5421 238.05 0 244.716 0 252.94C0 261.163 11.5421 267.83 25.78 267.83Z" fill="#FCCC55"/>
<path d="M44.01 263.46C33.94 269.27 17.62 269.27 7.55 263.46C2.72 260.67 0.240003 257.06 0.0400035 253.41C-0.179997 257.38 2.31 261.38 7.55 264.41C17.62 270.22 33.94 270.22 44.01 264.41C49.25 261.38 51.74 257.38 51.52 253.41C51.32 257.06 48.84 260.68 44.01 263.46Z" fill="white"/>
<path d="M13.3602 257.87C12.9302 257.62 12.6802 257.28 12.6802 256.92L12.7102 247.22C12.7102 246.48 13.7502 245.88 15.0302 245.88C16.3102 245.88 17.3502 246.48 17.3502 247.22L17.3302 255.26L40.6702 252.4C41.9202 252.25 43.1602 252.71 43.4202 253.43C43.6902 254.15 42.8802 254.87 41.6302 255.02L15.4802 258.22C14.7902 258.3 14.0802 258.2 13.5402 257.95C13.4702 257.93 13.4102 257.9 13.3602 257.87Z" fill="white"/>
<path d="M194.04 108.75L155.56 86.5399C154.8 86.0999 154.03 86.0798 153.37 86.3798L153.38 86.3599L148.79 88.5198C148.79 88.5198 150.51 89.1199 151.52 89.4799L145.97 117.5C145.52 119.78 146.54 122.43 148.25 123.41L185.03 144.64L184.38 147.93L189.01 145.76L188.99 145.75C189.78 145.36 190.4 144.51 190.64 143.28L196.31 114.67C196.77 112.38 195.75 109.74 194.04 108.75Z" fill="#F18634"/>
<path d="M182.06 147.8L143.58 125.59C141.87 124.6 140.85 121.96 141.3 119.68L146.97 91.0698C147.42 88.7898 149.17 87.7398 150.88 88.7298L189.36 110.94C191.07 111.93 192.09 114.57 191.64 116.85L185.97 145.46C185.52 147.74 183.77 148.79 182.06 147.8Z" fill="#FCCC55"/>
<path d="M190.24 110.59L151.76 88.3798C150.86 87.8598 149.96 87.9198 149.23 88.3998C149.75 88.3098 150.32 88.3998 150.88 88.7198L189.36 110.93C191.07 111.92 192.09 114.57 191.64 116.84L185.97 145.45C185.76 146.53 185.24 147.33 184.58 147.77C185.65 147.59 186.54 146.64 186.84 145.11L192.51 116.5C192.97 114.23 191.95 111.58 190.24 110.59Z" fill="white"/>
<path d="M159.95 115.73C159.62 117.39 158.19 118.06 156.76 117.23C155.33 116.4 154.43 114.39 154.76 112.73C155.09 111.07 156.52 110.4 157.95 111.23C159.39 112.06 160.28 114.07 159.95 115.73Z" fill="white"/>
<path d="M166.574 121.979C167.842 121.446 168.266 119.578 167.521 117.806C166.776 116.034 165.145 115.03 163.877 115.563C162.609 116.096 162.185 117.964 162.93 119.736C163.675 121.508 165.306 122.512 166.574 121.979Z" fill="white"/>
<path d="M175.69 124.81C175.36 126.47 173.93 127.14 172.5 126.31C171.07 125.48 170.17 123.47 170.5 121.81C170.83 120.15 172.26 119.48 173.69 120.31C175.12 121.14 176.01 123.15 175.69 124.81Z" fill="white"/>
<path d="M344.12 61.5399L305.64 39.3299C304.88 38.8899 304.11 38.8699 303.45 39.1699L303.46 39.1499L298.87 41.3099C298.87 41.3099 300.59 41.9099 301.6 42.2699L296.05 70.2899C295.6 72.5699 296.62 75.2199 298.33 76.1999L335.11 97.4299L334.46 100.72L339.09 98.5499L339.07 98.5399C339.86 98.1499 340.48 97.2999 340.72 96.0699L346.39 67.4599C346.85 65.1699 345.82 62.5199 344.12 61.5399Z" fill="#23A4EF"/>
<path d="M332.14 100.59L293.66 78.3798C291.95 77.3898 290.93 74.7498 291.38 72.4698L297.05 43.8598C297.5 41.5798 299.25 40.5298 300.96 41.5198L339.44 63.7298C341.15 64.7198 342.17 67.3598 341.72 69.6398L336.05 98.2498C335.6 100.53 333.85 101.57 332.14 100.59Z" fill="#E0F1FD"/>
<path d="M340.32 63.3798L301.84 41.1698C300.94 40.6498 300.04 40.7098 299.31 41.1898C299.83 41.0998 300.4 41.1898 300.96 41.5098L339.44 63.7198C341.15 64.7098 342.17 67.3598 341.72 69.6298L336.05 98.2398C335.84 99.3198 335.32 100.12 334.66 100.56C335.73 100.38 336.62 99.4298 336.92 97.8998L342.59 69.2898C343.05 67.0198 342.03 64.3698 340.32 63.3798Z" fill="white"/>
<path d="M310.03 68.5197C309.7 70.1797 308.27 70.8497 306.84 70.0197C305.41 69.1897 304.51 67.1797 304.84 65.5197C305.17 63.8597 306.6 63.1897 308.03 64.0197C309.46 64.8497 310.36 66.8597 310.03 68.5197Z" fill="white"/>
<path d="M317.9 73.0597C317.57 74.7197 316.14 75.3897 314.71 74.5597C313.28 73.7297 312.38 71.7197 312.71 70.0597C313.04 68.3997 314.47 67.7297 315.9 68.5597C317.33 69.3897 318.23 71.3997 317.9 73.0597Z" fill="white"/>
<path d="M325.76 77.5997C325.43 79.2597 324 79.9297 322.57 79.0997C321.14 78.2697 320.24 76.2597 320.57 74.5997C320.9 72.9397 322.33 72.2697 323.76 73.0997C325.19 73.9297 326.09 75.9397 325.76 77.5997Z" fill="white"/>
</g>
<defs>
<clipPath id="clip0">
<rect width="420.01" height="403.95" fill="white"/>
</clipPath>
</defs>
</svg>
