<svg width="462" height="324" viewBox="0 0 462 324" fill="none" xmlns="http://www.w3.org/2000/svg">
<path d="M202.977 91.5251C197.466 84.5296 190.714 67.5211 203.804 52.4328C207.524 48.1807 210.693 45.0259 213.311 42.4197C220.889 34.8756 222.956 32.8181 220.751 21.4334C219.236 14.1636 220.338 8.81413 223.783 5.79649C228.467 1.68151 235.081 3.46467 235.77 3.739L233.565 10.8716C232.739 10.5973 229.983 10.1858 228.743 11.4203C227.503 12.6548 227.227 15.8096 228.054 20.0617C231.085 35.2871 226.676 39.6764 218.547 47.7692C215.929 50.3754 212.898 53.393 209.315 57.3708C197.052 71.4989 208.213 86.4499 208.764 86.9986L202.977 91.5251Z" fill="#48A1DA"/>
<path d="M306.644 91.525L299.213 91.1234C299.213 90.7218 299.901 80.8155 306.506 75.0591C309.946 72.114 314.212 70.9092 319.303 71.1769C323.156 71.4446 325.908 70.9091 327.146 69.5704C328.522 68.0979 328.11 65.956 328.11 65.956L335.402 64.4834C335.54 65.0189 336.503 70.2398 332.788 74.3897C329.898 77.6026 325.082 78.9413 318.615 78.5397C315.588 78.272 313.249 78.9413 311.322 80.5477C307.194 84.2961 306.644 91.525 306.644 91.525Z" fill="#48A1DA"/>
<path d="M132.804 75.1009L136.851 68.6436C137.269 68.9244 146.06 74.399 148.013 83.2427C148.99 87.7347 148.153 92.2268 145.362 96.5784C143.269 99.8071 142.432 102.615 142.99 104.44C143.688 106.405 145.92 107.107 145.92 107.107L143.688 114.406C143.13 114.266 137.827 112.441 135.874 107.107C134.339 102.896 135.316 97.9822 138.944 92.3671C140.618 89.8404 141.176 87.3136 140.618 84.7868C139.223 79.1718 132.804 75.1009 132.804 75.1009Z" fill="#EFF8FE"/>
<path d="M154.713 21.1715L153.605 13.718C154.021 13.718 164.262 12.1998 171.32 17.5828C174.918 20.3433 177.133 24.3461 177.824 29.3151C178.24 33.1798 179.485 35.8023 181.146 36.7685C182.807 37.7347 185.021 36.9065 185.021 36.9065L187.927 43.8079C187.374 44.0839 182.253 46.0163 177.409 43.2557C173.534 41.0473 171.182 36.6305 170.351 30.2812C169.936 27.2446 168.829 25.1742 166.753 23.656C162.324 20.2053 154.851 21.1715 154.713 21.1715Z" fill="#EFF8FE"/>
<path d="M84.584 128.967L91.2021 132.818C90.9205 133.23 85.5697 141.893 76.8396 144.093C72.3338 145.194 67.828 144.368 63.463 141.756C60.0836 139.693 57.2674 139.006 55.4369 139.693C53.6064 140.381 52.7616 142.581 52.7616 142.581L45.4395 140.518C45.5803 139.968 47.27 134.743 52.6207 132.68C56.845 131.03 61.7733 131.993 67.4056 135.43C70.0809 136.943 72.4746 137.493 75.0092 136.943C80.6415 135.43 84.584 128.967 84.584 128.967Z" fill="#48A1DA"/>
<path d="M272.913 61.4482L256.713 72.9074L261.011 78.9823L277.21 67.5231L272.913 61.4482Z" fill="#EFF8FE"/>
<path d="M161.485 243.374L145.285 254.833L149.582 260.908L165.782 249.448L161.485 243.374Z" fill="#FDE2A0"/>
<path d="M384.996 165.369L376.178 146.932L382.961 143.528L391.779 161.965L384.996 165.369Z" fill="#7ABAE1"/>
<path d="M256.779 38.4822L249.291 38.2043C249.291 37.5097 250.123 21.6723 269.814 16.8099C277.164 15.0039 276.887 13.4757 276.61 10.2804C276.332 7.50193 275.916 3.3342 280.076 0L284.653 5.97375C283.959 6.52945 283.821 6.8073 284.098 9.44687C284.653 14.8649 284.237 20.9776 271.617 24.1729C257.472 27.646 256.779 38.3432 256.779 38.4822Z" fill="#FDE2A0"/>
<path d="M380.417 82.1647L373.835 78.7133C375.618 74.9857 376.578 70.4298 375.755 69.3254C375.481 69.0493 373.835 68.497 369.585 69.6015C366.568 70.4298 362.317 71.2582 359.438 68.497C356.284 65.4598 357.381 60.4897 358.615 54.8293C360.261 47.6503 362.18 38.6766 356.558 32.326C353.542 28.8745 350.251 27.2178 346.686 27.2178C338.87 27.0798 331.603 34.5349 331.603 34.6729L326.255 29.5648C326.666 29.1506 335.716 19.6247 346.823 19.7627C352.582 19.9008 357.792 22.3858 362.18 27.3559C370.407 36.6057 367.665 48.6167 366.02 56.486C365.608 58.6949 364.923 61.5942 364.923 62.9747C365.471 62.9747 366.294 62.8367 367.665 62.4225C374.247 60.6278 378.909 61.318 381.514 64.6314C386.039 70.2918 381.377 80.2319 380.417 82.1647Z" fill="#8ED0F7"/>
<path d="M70.6408 98.8057C70.5021 98.5287 66.2006 90.7733 69.6695 83.2949C72.3059 77.7553 78.4113 74.1546 87.7081 72.6312C91.5933 71.9387 94.0909 70.9693 95.0622 69.5844C96.1723 67.9225 95.3397 64.8757 94.6459 61.6905C93.2584 56.1509 91.177 47.5645 100.335 42.7174C105.608 39.9476 113.794 38.4242 123.785 47.2876C129.196 52.1347 132.665 57.8128 132.804 58.0898L126.282 61.9675C126.144 61.829 115.043 43.4098 103.804 49.5034C100.196 51.4422 100.335 53.7966 101.861 60.0286C102.971 64.4603 104.22 69.5845 101.306 73.8777C99.0862 77.2014 95.0622 79.2788 88.9569 80.2481C82.2965 81.356 77.995 83.5719 76.4686 86.7571C74.526 90.6348 77.1624 95.3435 77.1624 95.3435L70.6408 98.8057Z" fill="#8ED0F7"/>
<path d="M51.6797 259.11L51.9418 245.951L63.4725 243.374L68.3206 252.734L65.0449 256.126L60.0657 249.343L58.2312 255.312V265.215L51.6797 259.11Z" fill="#48A1DA"/>
<path d="M210.418 323.543C209.135 314.7 211.796 296.538 230.741 290.001C236.107 288.174 240.444 287.024 244.027 286.074C254.398 283.324 257.226 282.574 261.019 271.578C263.348 264.503 266.989 260.409 271.496 259.517C277.632 258.294 282.486 263.162 282.948 263.746L277.454 268.835C276.873 268.182 274.684 266.441 272.987 266.891C271.29 267.341 269.469 269.943 268.055 274.052C263.054 288.798 257.02 290.398 245.895 293.348C242.313 294.298 238.164 295.398 233.056 297.056C215.311 303.174 217.514 321.762 217.718 322.515L210.418 323.543Z" fill="#7ABAE1"/>
<path d="M325.215 304.587L324.813 312.018C324.412 312.018 314.505 311.33 308.749 304.725C305.804 301.285 304.599 297.019 304.867 291.928C305.135 288.075 304.599 285.323 303.26 284.085C301.788 282.709 299.646 283.121 299.646 283.121L298.173 275.829C298.709 275.691 303.93 274.728 308.08 278.443C311.293 281.333 312.631 286.149 312.23 292.616C311.962 295.643 312.631 297.982 314.238 299.909C317.986 304.037 325.215 304.587 325.215 304.587Z" fill="#8ED0F7"/>
<path d="M209.2 237.381L216.382 235.434C216.508 235.816 218.958 245.439 214.489 252.975C212.145 256.849 208.472 259.33 203.553 260.671C199.81 261.624 197.365 262.994 196.608 264.654C195.762 266.483 196.826 268.388 196.826 268.388L190.361 272.071C190.063 271.606 187.512 266.949 189.74 261.844C191.478 257.888 195.632 255.108 201.9 253.463C204.858 252.769 206.87 251.4 208.196 249.271C210.942 244.418 209.2 237.381 209.2 237.381Z" fill="#8ED0F7"/>
<path d="M168.383 299.537L161.926 295.49C162.206 295.072 167.681 286.281 176.525 284.328C181.017 283.351 185.509 284.188 189.861 286.979C193.089 289.072 195.897 289.909 197.722 289.351C199.687 288.653 200.389 286.421 200.389 286.421L207.688 288.653C207.548 289.211 205.723 294.514 200.389 296.467C196.177 298.002 191.264 297.025 185.649 293.397C183.122 291.723 180.596 291.165 178.069 291.723C172.454 293.118 168.383 299.537 168.383 299.537Z" fill="#EFF8FE"/>
<path d="M403.59 118.5L396.136 119.607C396.136 119.192 394.618 108.95 400.001 101.892C402.762 98.2938 406.764 96.0795 411.733 95.3875C415.598 94.9723 418.221 93.7267 419.187 92.066C420.153 90.4053 419.325 88.191 419.325 88.191L426.226 85.2847C426.502 85.8382 428.435 90.9589 425.674 95.8027C423.466 99.6777 419.049 102.031 412.7 102.861C409.663 103.276 407.593 104.383 406.074 106.459C402.624 110.888 403.59 118.361 403.59 118.5Z" fill="#48A1DA"/>
<path d="M114.083 269.602L117.933 263.135C118.346 263.41 127.009 268.639 129.209 277.171C130.309 281.574 129.484 285.978 126.871 290.244C124.809 293.546 124.121 296.298 124.809 298.087C125.496 299.876 127.696 300.702 127.696 300.702L125.634 307.857C125.084 307.72 119.858 306.069 117.796 300.839C116.146 296.711 117.108 291.895 120.546 286.391C122.059 283.776 122.609 281.437 122.059 278.96C120.546 273.455 114.083 269.602 114.083 269.602Z" fill="#48A1DA"/>
<path d="M313.774 243.374V263.135H322.095V243.374H313.774Z" fill="#FDE2A0"/>
<path d="M421.94 290.131L403.503 299.537L400.099 292.302L418.537 282.896L421.94 290.131Z" fill="#48A1DA"/>
<path d="M375.138 251.266L374.86 258.975C374.165 258.975 358.328 258.118 353.465 237.847C351.659 230.281 350.131 230.567 346.936 230.852C344.157 231.138 339.99 231.566 336.655 227.283L342.629 222.573C343.185 223.286 343.463 223.429 346.102 223.144C351.52 222.573 357.633 223.001 360.828 235.991C364.301 250.552 374.999 251.266 375.138 251.266Z" fill="#EFF8FE"/>
<path d="M439.621 173.611L436.17 180.192C432.442 178.41 427.886 177.45 426.782 178.273C426.506 178.547 425.954 180.192 427.058 184.443C427.886 187.46 428.715 191.71 425.954 194.59C422.916 197.744 417.946 196.647 412.286 195.413C405.107 193.767 396.133 191.847 389.783 197.469C386.331 200.486 384.674 203.777 384.674 207.342C384.536 215.158 391.991 222.425 392.13 222.425L387.021 227.773C386.607 227.361 377.081 218.311 377.219 207.205C377.357 201.446 379.842 196.235 384.812 191.847C394.062 183.62 406.073 186.363 413.943 188.008C416.152 188.42 419.051 189.105 420.431 189.105C420.431 188.557 420.293 187.734 419.879 186.363C418.084 179.781 418.775 175.119 422.088 172.514C427.748 167.989 437.689 172.651 439.621 173.611Z" fill="#8ED0F7"/>
<path d="M129.684 225.453C129.407 225.591 121.651 229.893 114.173 226.424C108.633 223.788 105.033 217.682 103.509 208.385C102.817 204.5 101.847 202.003 100.463 201.031C98.8009 199.921 95.7542 200.754 92.5689 201.448C87.0293 202.835 78.443 204.916 73.5958 195.758C70.826 190.486 69.3027 182.299 78.166 172.308C83.0131 166.897 88.6912 163.428 88.9682 163.289L92.8459 169.811C92.7074 169.949 74.2883 181.05 80.3818 192.289C82.3207 195.897 84.675 195.758 90.907 194.232C95.3387 193.122 100.463 191.873 104.756 194.787C108.079 197.007 110.157 201.031 111.126 207.137C112.234 213.797 114.45 218.098 117.635 219.625C121.513 221.567 126.222 218.931 126.222 218.931L129.684 225.453Z" fill="#8ED0F7"/>
<path d="M35.9239 82.1644L22.1383 81.8859L19.438 69.6345L29.2443 64.4834L32.7973 67.9639L25.6913 73.2542L31.9445 75.2033H42.3192L35.9239 82.1644Z" fill="#FDE2A0"/>
<path d="M177.089 174V168.52H183.929V153.36C182.142 154.533 179.862 155.12 177.089 155.12V149.8C180.849 149.613 183.316 148.333 184.489 145.96H189.849V168.52H196.449V174H177.089ZM214.422 166.6C215.328 164.973 215.782 162.76 215.782 159.96C215.782 157.133 215.328 154.933 214.422 153.36C213.542 151.76 212.262 150.96 210.582 150.96C208.928 150.96 207.635 151.76 206.702 153.36C205.822 154.96 205.382 157.16 205.382 159.96C205.382 162.76 205.822 164.973 206.702 166.6C207.635 168.2 208.928 169 210.582 169C212.262 169 213.542 168.2 214.422 166.6ZM221.702 159.96C221.702 164.253 220.715 167.747 218.741 170.44C216.795 173.107 214.075 174.44 210.582 174.44C207.088 174.44 204.368 173.107 202.422 170.44C200.448 167.747 199.462 164.253 199.462 159.96C199.462 155.667 200.448 152.187 202.422 149.52C204.368 146.853 207.088 145.52 210.582 145.52C214.075 145.52 216.795 146.853 218.741 149.52C220.715 152.213 221.702 155.693 221.702 159.96ZM251.531 166.6C252.438 164.973 252.891 162.76 252.891 159.96C252.891 157.133 252.438 154.933 251.531 153.36C250.651 151.76 249.371 150.96 247.691 150.96C246.038 150.96 244.744 151.76 243.811 153.36C242.931 154.96 242.491 157.16 242.491 159.96C242.491 162.76 242.931 164.973 243.811 166.6C244.744 168.2 246.038 169 247.691 169C249.371 169 250.651 168.2 251.531 166.6ZM258.811 159.96C258.811 164.253 257.824 167.747 255.851 170.44C253.904 173.107 251.184 174.44 247.691 174.44C244.198 174.44 241.478 173.107 239.531 170.44C237.558 167.747 236.571 164.253 236.571 159.96C236.571 155.667 237.558 152.187 239.531 149.52C241.478 146.853 244.198 145.52 247.691 145.52C251.184 145.52 253.904 146.853 255.851 149.52C257.824 152.213 258.811 155.693 258.811 159.96ZM277.468 166.6C278.375 164.973 278.828 162.76 278.828 159.96C278.828 157.133 278.375 154.933 277.468 153.36C276.588 151.76 275.308 150.96 273.628 150.96C271.975 150.96 270.682 151.76 269.748 153.36C268.868 154.96 268.428 157.16 268.428 159.96C268.428 162.76 268.868 164.973 269.748 166.6C270.682 168.2 271.975 169 273.628 169C275.308 169 276.588 168.2 277.468 166.6ZM284.748 159.96C284.748 164.253 283.762 167.747 281.788 170.44C279.842 173.107 277.122 174.44 273.628 174.44C270.135 174.44 267.415 173.107 265.468 170.44C263.495 167.747 262.508 164.253 262.508 159.96C262.508 155.667 263.495 152.187 265.468 149.52C267.415 146.853 270.135 145.52 273.628 145.52C277.122 145.52 279.842 146.853 281.788 149.52C283.762 152.213 284.748 155.693 284.748 159.96ZM303.406 166.6C304.313 164.973 304.766 162.76 304.766 159.96C304.766 157.133 304.313 154.933 303.406 153.36C302.526 151.76 301.246 150.96 299.566 150.96C297.913 150.96 296.619 151.76 295.686 153.36C294.806 154.96 294.366 157.16 294.366 159.96C294.366 162.76 294.806 164.973 295.686 166.6C296.619 168.2 297.913 169 299.566 169C301.246 169 302.526 168.2 303.406 166.6ZM310.686 159.96C310.686 164.253 309.699 167.747 307.726 170.44C305.779 173.107 303.059 174.44 299.566 174.44C296.073 174.44 293.353 173.107 291.406 170.44C289.433 167.747 288.446 164.253 288.446 159.96C288.446 155.667 289.433 152.187 291.406 149.52C293.353 146.853 296.073 145.52 299.566 145.52C303.059 145.52 305.779 146.853 307.726 149.52C309.699 152.213 310.686 155.693 310.686 159.96Z" fill="#203662"/>
<path d="M199.358 189.333V190.398C199.308 190.388 199.223 190.383 199.103 190.383C198.223 190.383 197.593 190.633 197.213 191.133C196.843 191.623 196.658 192.458 196.658 193.638V196.773H195.548V189.423H196.628V190.398C196.948 190.008 197.288 189.733 197.648 189.573C198.018 189.403 198.478 189.318 199.028 189.318C199.178 189.318 199.288 189.323 199.358 189.333ZM207.121 192.933L207.106 193.443H201.631C201.681 194.213 201.926 194.818 202.366 195.258C202.806 195.688 203.386 195.903 204.106 195.903C204.926 195.903 205.626 195.543 206.206 194.823L206.971 195.528C206.191 196.468 205.236 196.938 204.106 196.938C203.006 196.938 202.126 196.588 201.466 195.888C200.816 195.178 200.491 194.263 200.491 193.143C200.491 192.023 200.791 191.098 201.391 190.368C202.001 189.618 202.816 189.243 203.836 189.243C204.586 189.243 205.216 189.438 205.726 189.828C206.656 190.528 207.121 191.563 207.121 192.933ZM203.866 190.293C203.256 190.293 202.761 190.488 202.381 190.878C202.011 191.268 201.776 191.793 201.676 192.453H205.996C205.946 191.793 205.726 191.268 205.336 190.878C204.956 190.488 204.466 190.293 203.866 190.293ZM209.357 189.423L211.052 195.558L212.747 189.423H214.247L215.942 195.558L217.637 189.423H218.852L216.662 196.773H215.282L213.497 190.698L211.727 196.773H210.332L208.142 189.423H209.357ZM222.463 196.938C221.743 196.938 221.148 196.738 220.678 196.338C220.218 195.928 219.988 195.383 219.988 194.703C219.988 193.983 220.233 193.418 220.723 193.008C221.223 192.598 221.883 192.393 222.703 192.393C223.243 192.393 223.913 192.513 224.713 192.753V192.003C224.713 191.463 224.548 191.043 224.218 190.743C223.888 190.433 223.448 190.278 222.898 190.278C222.468 190.278 222.078 190.393 221.728 190.623C221.388 190.853 221.138 191.143 220.978 191.493L220.213 190.773C220.793 189.753 221.693 189.243 222.913 189.243C223.813 189.243 224.523 189.498 225.043 190.008C225.563 190.508 225.823 191.213 225.823 192.123V196.773H224.743V196.008C224.183 196.628 223.423 196.938 222.463 196.938ZM221.098 194.733C221.098 195.103 221.228 195.398 221.488 195.618C221.758 195.838 222.103 195.948 222.523 195.948C222.953 195.948 223.363 195.838 223.753 195.618C224.153 195.398 224.473 195.118 224.713 194.778V193.788C223.993 193.548 223.343 193.428 222.763 193.428C222.213 193.428 221.798 193.548 221.518 193.788C221.238 194.018 221.098 194.333 221.098 194.733ZM232.098 189.333V190.398C232.048 190.388 231.963 190.383 231.843 190.383C230.963 190.383 230.333 190.633 229.953 191.133C229.583 191.623 229.398 192.458 229.398 193.638V196.773H228.288V189.423H229.368V190.398C229.688 190.008 230.028 189.733 230.388 189.573C230.758 189.403 231.218 189.318 231.768 189.318C231.918 189.318 232.028 189.323 232.098 189.333ZM234.191 190.368C234.841 189.618 235.661 189.243 236.651 189.243C237.641 189.243 238.466 189.628 239.126 190.398V186.258H240.236V196.773H239.171V195.768C238.501 196.548 237.661 196.938 236.651 196.938C235.661 196.938 234.841 196.568 234.191 195.828C233.551 195.098 233.231 194.188 233.231 193.098C233.231 192.008 233.551 191.098 234.191 190.368ZM235.016 191.088C234.586 191.608 234.371 192.278 234.371 193.098C234.371 193.918 234.586 194.588 235.016 195.108C235.456 195.638 236.036 195.903 236.756 195.903C237.486 195.903 238.071 195.638 238.511 195.108C238.951 194.578 239.171 193.908 239.171 193.098C239.171 192.288 238.951 191.618 238.511 191.088C238.071 190.558 237.486 190.293 236.756 190.293C236.036 190.293 235.456 190.558 235.016 191.088ZM248.353 195.798V199.683H247.243V189.423H248.323V190.428C248.993 189.638 249.828 189.243 250.828 189.243C251.828 189.243 252.648 189.618 253.288 190.368C253.928 191.098 254.248 192.008 254.248 193.098C254.248 194.188 253.928 195.098 253.288 195.828C252.638 196.568 251.818 196.938 250.828 196.938C249.818 196.938 248.993 196.558 248.353 195.798ZM252.463 195.108C252.893 194.588 253.108 193.918 253.108 193.098C253.108 192.278 252.893 191.608 252.463 191.088C252.023 190.558 251.443 190.293 250.723 190.293C249.993 190.293 249.408 190.558 248.968 191.088C248.538 191.608 248.323 192.278 248.323 193.098C248.323 193.918 248.538 194.588 248.968 195.108C249.408 195.638 249.993 195.903 250.723 195.903C251.443 195.903 252.023 195.638 252.463 195.108ZM259.728 196.938C258.678 196.938 257.798 196.568 257.088 195.828C256.388 195.088 256.038 194.178 256.038 193.098C256.038 192.018 256.388 191.108 257.088 190.368C257.798 189.618 258.678 189.243 259.728 189.243C260.778 189.243 261.658 189.618 262.368 190.368C263.088 191.118 263.448 192.028 263.448 193.098C263.448 194.158 263.093 195.068 262.383 195.828C261.673 196.568 260.788 196.938 259.728 196.938ZM259.728 195.903C260.478 195.903 261.093 195.638 261.573 195.108C262.053 194.568 262.293 193.898 262.293 193.098C262.293 192.288 262.053 191.623 261.573 191.103C261.093 190.563 260.478 190.293 259.728 190.293C258.988 190.293 258.378 190.563 257.898 191.103C257.418 191.623 257.178 192.288 257.178 193.098C257.178 193.898 257.418 194.568 257.898 195.108C258.378 195.638 258.988 195.903 259.728 195.903ZM266.724 196.773H265.614V189.423H266.724V196.773ZM265.569 187.518C265.409 187.348 265.329 187.148 265.329 186.918C265.329 186.688 265.409 186.493 265.569 186.333C265.739 186.173 265.939 186.093 266.169 186.093C266.399 186.093 266.594 186.173 266.754 186.333C266.924 186.493 267.009 186.688 267.009 186.918C267.009 187.148 266.924 187.348 266.754 187.518C266.594 187.678 266.399 187.758 266.169 187.758C265.939 187.758 265.739 187.678 265.569 187.518ZM269.406 189.423H270.486V190.323C270.736 190.003 271.071 189.743 271.491 189.543C271.921 189.343 272.361 189.243 272.811 189.243C273.751 189.243 274.471 189.528 274.971 190.098C275.481 190.658 275.736 191.458 275.736 192.498V196.773H274.611V192.408C274.611 191.728 274.446 191.203 274.116 190.833C273.786 190.463 273.326 190.278 272.736 190.278C272.026 190.278 271.476 190.533 271.086 191.043C270.706 191.543 270.516 192.238 270.516 193.128V196.773H269.406V189.423ZM280.435 196.803C279.705 196.803 279.165 196.633 278.815 196.293C278.475 195.953 278.305 195.393 278.305 194.613V190.443H277.105V189.423H278.305V187.368H279.415V189.423H281.125V190.443H279.415V194.448C279.415 194.938 279.495 195.283 279.655 195.483C279.815 195.683 280.11 195.783 280.54 195.783L281.125 195.768V196.773C280.865 196.793 280.635 196.803 280.435 196.803ZM286.027 193.728L284.932 193.473C283.542 193.143 282.847 192.438 282.847 191.358C282.847 190.708 283.097 190.193 283.597 189.813C284.097 189.433 284.692 189.243 285.382 189.243C286.362 189.243 287.232 189.638 287.992 190.428L287.242 191.223C286.642 190.593 285.997 190.278 285.307 190.278C284.907 190.278 284.582 190.373 284.332 190.563C284.082 190.753 283.957 191.003 283.957 191.313C283.957 191.873 284.322 192.233 285.052 192.393L286.207 192.663C287.597 192.993 288.292 193.683 288.292 194.733C288.292 195.393 288.042 195.928 287.542 196.338C287.042 196.738 286.377 196.938 285.547 196.938C284.937 196.938 284.367 196.813 283.837 196.563C283.307 196.303 282.887 195.968 282.577 195.558L283.312 194.793C283.912 195.543 284.652 195.918 285.532 195.918C286.052 195.918 286.457 195.818 286.747 195.618C287.037 195.418 287.182 195.143 287.182 194.793C287.182 194.263 286.797 193.908 286.027 193.728Z" fill="#203662"/>
<path d="M294.025 243.689C291.657 246.129 290.041 249.283 288.94 252.497C288.29 254.51 287.937 256.661 287.905 258.745C287.841 260.199 287.729 262.066 288.295 263.488C289.481 266.757 294.008 267.281 295.909 264.369C296.796 263.01 296.781 261.337 295.998 259.994C295.147 258.33 294.4 256.677 293.985 254.855C293.479 252.917 293.397 250.924 293.623 248.967C293.754 247.833 293.897 246.597 294.131 245.476C294.281 245.076 294.341 244.561 294.491 244.16C294.424 243.839 294.381 243.312 294.025 243.689Z" fill="#FDE2A0"/>
<path d="M292.99 247.223C292.785 247.199 292.682 247.188 292.658 247.394C288.883 257.501 291.857 262.439 291.936 262.657C292.027 262.771 292.13 262.783 292.348 262.704C292.463 262.613 292.474 262.51 292.395 262.292C292.395 262.292 289.421 257.355 293.172 247.453C293.172 247.453 293.081 247.338 292.99 247.223Z" fill="#FDE2A0"/>
<path d="M368.79 290.382C369.293 293.745 370.819 296.943 372.705 299.769C373.91 301.507 375.406 303.093 377.043 304.383C378.16 305.317 379.576 306.538 381.049 306.952C384.368 307.993 387.531 304.712 386.37 301.434C385.828 299.904 384.49 298.902 382.947 298.709C381.108 298.375 379.341 297.966 377.641 297.19C375.794 296.416 374.159 295.272 372.741 293.904C371.92 293.112 371.024 292.248 370.275 291.382C370.048 291.02 369.675 290.66 369.448 290.297C369.152 290.156 368.707 289.87 368.79 290.382Z" fill="#FDE2A0"/>
<path d="M370.971 293.349C370.828 293.498 370.756 293.573 370.905 293.717C376.648 302.851 382.377 303.483 382.598 303.553C382.745 303.55 382.817 303.475 382.886 303.254C382.883 303.108 382.808 303.036 382.587 302.966C382.587 302.966 376.858 302.334 371.264 293.344C371.264 293.344 371.118 293.346 370.971 293.349Z" fill="#FDE2A0"/>
<path d="M439.173 159.539C441.926 161.534 445.277 162.685 448.615 163.317C450.7 163.673 452.88 163.716 454.947 163.451C456.396 163.307 458.259 163.152 459.586 162.39C462.653 160.75 462.526 156.194 459.373 154.728C457.901 154.043 456.249 154.297 455.03 155.263C453.504 156.342 451.975 157.317 450.23 157.987C448.384 158.764 446.423 159.13 444.454 159.184C443.313 159.216 442.069 159.251 440.926 159.179C440.509 159.087 439.99 159.101 439.573 159.009C439.265 159.122 438.749 159.24 439.173 159.539Z" fill="#FDE2A0"/>
<path d="M442.818 160.059C442.824 160.266 442.827 160.37 443.034 160.364C453.577 162.661 458.04 159.013 458.244 158.904C458.345 158.797 458.342 158.694 458.233 158.49C458.126 158.389 458.022 158.392 457.818 158.501C457.818 158.501 453.355 162.149 443.02 159.846C443.02 159.846 442.919 159.952 442.818 160.059Z" fill="#FDE2A0"/>
<path d="M117.669 127.83C117.773 124.407 116.84 120.985 115.494 117.874C114.665 115.903 113.526 114.037 112.076 112.481C111.143 111.34 110.004 109.888 108.658 109.162C105.55 107.503 101.925 110.199 102.443 113.622C102.753 115.177 103.893 116.422 105.343 116.94C107.104 117.563 108.761 118.289 110.315 119.326C111.972 120.466 113.319 121.918 114.562 123.474C115.287 124.407 115.908 125.444 116.53 126.481C116.737 126.896 116.944 127.311 117.151 127.726C117.255 127.933 117.669 128.348 117.669 127.83Z" fill="#FDE2A0"/>
<path d="M116.115 124.407C116.323 124.304 116.323 124.2 116.323 124.096C112.283 114.037 106.793 112.377 106.586 112.274C106.482 112.274 106.275 112.274 106.275 112.481C106.275 112.585 106.275 112.792 106.482 112.792C106.586 112.792 111.972 114.555 115.908 124.304C115.805 124.407 115.908 124.407 116.115 124.407Z" fill="#FDE2A0"/>
<path d="M136.363 30.8535C136.467 27.4312 135.534 24.0088 134.188 20.8976C133.359 18.9272 132.22 17.0605 130.77 15.5049C129.838 14.3641 128.698 12.9122 127.352 12.1863C124.244 10.527 120.619 13.2233 121.137 16.6457C121.448 18.2013 122.587 19.4457 124.037 19.9643C125.798 20.5865 127.455 21.3125 129.009 22.3495C130.666 23.4903 132.013 24.9422 133.256 26.4978C133.981 27.4312 134.602 28.4682 135.224 29.5053C135.431 29.9201 135.638 30.3349 135.845 30.7498C135.949 30.9572 136.363 31.372 136.363 30.8535Z" fill="#FDE2A0"/>
<path d="M134.81 27.4315C135.017 27.3278 135.017 27.2241 135.017 27.1204C130.977 17.0609 125.487 15.4016 125.28 15.2979C125.177 15.2979 124.969 15.2978 124.969 15.5053C124.969 15.609 124.969 15.8164 125.177 15.8164C125.28 15.8164 130.666 17.5794 134.602 27.3278C134.499 27.4315 134.602 27.4315 134.81 27.4315Z" fill="#FDE2A0"/>
<path d="M338.448 110.167C339.484 106.952 341.556 103.944 343.938 101.559C345.388 100.107 347.149 98.7589 349.014 97.7218C350.36 96.9958 351.914 96.0625 353.364 95.8551C356.782 95.3365 359.372 99.1737 357.611 102.181C356.782 103.529 355.332 104.359 353.778 104.255C351.914 104.255 350.153 104.359 348.288 104.774C346.424 105.189 344.56 106.122 342.902 107.159C341.866 107.781 340.934 108.507 340.002 109.233C339.691 109.544 339.381 109.855 339.07 110.167C338.863 110.478 338.241 110.685 338.448 110.167Z" fill="#FDE2A0"/>
<path d="M341.141 107.574C341.038 107.47 341.038 107.263 341.141 107.159C348.392 99.1739 354.089 99.485 354.4 99.485C354.503 99.485 354.607 99.5887 354.607 99.7961C354.607 99.8998 354.503 100.003 354.296 100.003C354.193 100.003 348.496 99.6924 341.452 107.574C341.349 107.678 341.245 107.678 341.141 107.574Z" fill="#FDE2A0"/>
<path d="M322.091 16.6958C323.127 13.4809 325.198 10.4734 327.581 8.08824C329.031 6.63635 330.792 5.28816 332.656 4.2511C334.003 3.52515 335.556 2.59179 337.006 2.38437C340.425 1.86584 343.014 5.70299 341.253 8.71049C340.425 10.0586 338.974 10.8883 337.421 10.7846C335.556 10.7846 333.795 10.8883 331.931 11.3031C330.067 11.7179 328.202 12.6513 326.545 13.6884C325.509 14.3106 324.577 15.0365 323.645 15.7625C323.334 16.0736 323.023 16.3847 322.712 16.6958C322.505 17.007 321.884 17.2144 322.091 16.6958Z" fill="#FDE2A0"/>
<path d="M324.784 14.1029C324.68 13.9992 324.68 13.7918 324.784 13.6881C332.035 5.70272 337.732 6.01383 338.042 6.01383C338.146 6.01383 338.249 6.11754 338.249 6.32496C338.249 6.42866 338.146 6.53237 337.939 6.53237C337.835 6.53237 332.138 6.22125 325.095 14.1029C324.991 14.2067 324.888 14.2067 324.784 14.1029Z" fill="#FDE2A0"/>
<path d="M132.467 237.501C131.92 240.834 130.318 244.116 128.316 246.828C127.098 248.479 125.557 250.074 123.867 251.377C122.643 252.294 121.245 253.448 119.842 253.869C116.539 254.889 113.408 251.479 114.703 248.243C115.322 246.787 116.633 245.751 118.185 245.623C120.029 245.346 121.755 244.982 123.537 244.295C125.319 243.608 127.024 242.408 128.509 241.136C129.441 240.367 130.255 239.511 131.069 238.655C131.33 238.301 131.591 237.947 131.852 237.593C132.011 237.255 132.595 236.957 132.467 237.501Z" fill="#FDE2A0"/>
<path d="M130.189 240.465C130.306 240.552 130.337 240.757 130.25 240.875C124.266 249.848 118.586 250.387 118.279 250.433C118.176 250.448 118.058 250.361 118.028 250.156C118.012 250.054 118.099 249.936 118.304 249.905C118.407 249.889 124.086 249.351 129.881 240.511C129.968 240.393 130.071 240.377 130.189 240.465Z" fill="#FDE2A0"/>
<path d="M51.6205 199.577C50.1059 202.596 47.5994 205.252 44.8807 207.245C43.2259 208.459 41.2798 209.522 39.2788 210.262C37.8372 210.774 36.1592 211.459 34.6944 211.443C31.2372 211.433 29.264 207.246 31.4635 204.542C32.4883 203.337 34.0481 202.738 35.5678 203.078C37.4103 203.363 39.1664 203.529 41.0723 203.404C42.9782 203.279 44.9634 202.641 46.7596 201.869C47.8782 201.412 48.9104 200.837 49.9425 200.262C50.2971 200.002 50.6518 199.742 51.0064 199.482C51.2586 199.206 51.9045 199.096 51.6205 199.577Z" fill="#FDE2A0"/>
<path d="M48.5629 201.728C48.6495 201.846 48.6178 202.051 48.4996 202.138C40.1146 208.923 34.532 207.745 34.2249 207.698C34.1225 207.682 34.036 207.564 34.0677 207.359C34.0835 207.256 34.2017 207.169 34.4065 207.201C34.5088 207.217 40.0914 208.394 48.2558 201.681C48.374 201.594 48.4764 201.61 48.5629 201.728Z" fill="#FDE2A0"/>
<path d="M105.174 235.456C105.692 235.767 105.795 236.493 105.485 237.012C105.174 237.53 104.449 237.634 103.931 237.323L99.3737 234.212C98.8558 233.901 98.7522 233.175 99.063 232.656C99.3737 232.138 100.098 232.034 100.616 232.345L105.174 235.456Z" fill="#8ED0F7"/>
<path d="M104.76 233.071C105.07 232.552 104.967 231.93 104.449 231.515C103.931 231.204 103.309 231.308 102.895 231.826L99.7881 236.39C99.4774 236.908 99.581 237.53 100.098 237.945C100.616 238.256 101.238 238.153 101.652 237.634L104.76 233.071Z" fill="#8ED0F7"/>
<path d="M282.768 310.129C283.286 310.44 283.39 311.166 283.079 311.685C282.768 312.203 282.043 312.307 281.525 311.996L276.968 308.885C276.45 308.574 276.346 307.848 276.657 307.329C276.968 306.811 277.693 306.707 278.211 307.018L282.768 310.129Z" fill="#7ABAE1"/>
<path d="M282.251 307.848C282.561 307.329 282.458 306.707 281.94 306.292C281.422 305.981 280.8 306.085 280.386 306.603L277.279 311.166C276.968 311.685 277.072 312.307 277.589 312.722C278.107 313.033 278.729 312.929 279.143 312.411L282.251 307.848Z" fill="#7ABAE1"/>
<path d="M419.296 238.858C419.813 239.169 419.917 239.895 419.606 240.413C419.296 240.932 418.57 241.036 418.053 240.724L413.495 237.613C412.977 237.302 412.873 236.576 413.184 236.058C413.495 235.539 414.22 235.435 414.738 235.747L419.296 238.858Z" fill="#FDE2A0"/>
<path d="M418.881 236.576C419.192 236.058 419.088 235.435 418.57 235.02C418.053 234.709 417.431 234.813 417.017 235.332L413.909 239.895C413.599 240.413 413.702 241.035 414.22 241.45C414.738 241.761 415.359 241.658 415.774 241.139L418.881 236.576Z" fill="#FDE2A0"/>
<path d="M304.968 5.51961C305.485 5.83073 305.589 6.55668 305.278 7.07521C304.968 7.59374 304.242 7.69745 303.725 7.38633L299.167 4.27513C298.649 3.96401 298.546 3.23806 298.856 2.71953C299.167 2.20099 299.892 2.09729 300.41 2.40841L304.968 5.51961Z" fill="#8ED0F7"/>
<path d="M47.9522 172.315C48.263 171.796 48.1594 171.174 47.6415 170.759C47.1236 170.448 46.5021 170.552 46.0878 171.07L42.9804 175.633C42.6697 176.152 42.7733 176.774 43.2912 177.189C43.8091 177.5 44.4306 177.396 44.8449 176.878L47.9522 172.315Z" fill="#8ED0F7"/>
<path d="M394.933 42.5689C395.451 42.88 395.555 43.606 395.244 44.1245C394.933 44.6431 394.208 44.7468 393.69 44.4356L389.133 41.3244C388.615 41.0133 388.511 40.2874 388.822 39.7688C389.133 39.2503 389.858 39.1466 390.376 39.4577L394.933 42.5689Z" fill="#FDE2A0"/>
<path d="M394.415 40.2872C394.726 39.7687 394.623 39.1465 394.105 38.7316C393.587 38.4205 392.965 38.5242 392.551 39.0428L389.444 43.6059C389.133 44.1244 389.236 44.7466 389.754 45.1615C390.272 45.4726 390.894 45.3689 391.308 44.8503L394.415 40.2872Z" fill="#FDE2A0"/>
<path d="M238.37 62.4317C238.888 62.7428 238.991 63.4687 238.68 63.9873C238.37 64.5058 237.645 64.6095 237.127 64.2984L232.569 61.1872C232.051 60.8761 231.948 60.1501 232.258 59.6316C232.569 59.1131 233.294 59.0093 233.812 59.3205L238.37 62.4317Z" fill="#8ED0F7"/>
<path d="M237.955 60.1495C238.266 59.631 238.163 59.0087 237.645 58.5939C237.127 58.2828 236.505 58.3865 236.091 58.905L232.984 63.4681C232.673 63.9866 232.776 64.6089 233.294 65.0237C233.812 65.3348 234.434 65.2311 234.848 64.7126L237.955 60.1495Z" fill="#8ED0F7"/>
<path d="M339.103 283.966L339.724 283.24C339.724 283.24 339.206 282.825 338.792 282.41C338.585 282.203 338.274 281.996 338.067 281.892C337.86 281.685 337.756 281.581 337.756 281.581L337.238 282.307C337.238 282.307 337.342 282.41 337.549 282.514C337.756 282.618 337.963 282.825 338.171 283.033C338.585 283.551 339.103 283.966 339.103 283.966Z" fill="#FDE2A0"/>
<path d="M341.796 286.559L342.417 285.937C342.417 285.937 342.003 285.522 341.485 285.003C341.071 284.588 340.553 284.07 340.553 284.07L339.931 284.692C339.931 284.692 340.346 285.107 340.864 285.522C341.381 286.04 341.796 286.559 341.796 286.559Z" fill="#FDE2A0"/>
<path d="M344.282 289.255L345.007 288.633C345.007 288.633 344.593 288.114 344.178 287.699C343.764 287.285 343.246 286.766 343.246 286.766L342.625 287.388C342.625 287.388 343.039 287.803 343.453 288.322C343.868 288.84 344.282 289.255 344.282 289.255Z" fill="#FDE2A0"/>
<path d="M346.664 292.159L347.389 291.64C347.389 291.64 346.975 291.122 346.56 290.603C346.146 290.085 345.732 289.566 345.732 289.566L345.007 290.188C345.007 290.188 345.421 290.707 345.835 291.122C346.25 291.64 346.664 292.159 346.664 292.159Z" fill="#FDE2A0"/>
<path d="M348.839 295.166L349.564 294.648C349.564 294.648 349.254 294.129 348.839 293.611C348.425 293.092 348.114 292.574 348.114 292.574L347.389 293.092C347.389 293.092 347.804 293.611 348.114 294.129C348.425 294.648 348.839 295.166 348.839 295.166Z" fill="#FDE2A0"/>
<path d="M350.807 298.381L351.636 297.863C351.636 297.863 351.325 297.344 351.014 296.826C350.704 296.307 350.289 295.789 350.289 295.789L349.564 296.307C349.564 296.307 349.875 296.826 350.289 297.344C350.497 297.863 350.807 298.381 350.807 298.381Z" fill="#FDE2A0"/>
<path d="M352.672 301.596L353.5 301.181C353.5 301.181 353.19 300.663 352.879 300.04C352.568 299.522 352.257 298.9 352.257 298.9L351.429 299.314C351.429 299.314 351.739 299.833 352.05 300.455C352.361 301.077 352.672 301.596 352.672 301.596Z" fill="#FDE2A0"/>
<path d="M199.236 9.70663L200.065 9.2918C200.065 9.2918 199.858 8.66956 199.547 8.15103C199.236 7.52879 199.029 7.01025 199.029 7.01025L198.2 7.42508C198.2 7.42508 198.511 7.94361 198.718 8.56585C199.029 9.08439 199.236 9.70663 199.236 9.70663Z" fill="#FDE2A0"/>
<path d="M200.686 13.129L201.515 12.8179C201.515 12.8179 201.308 12.1956 201.101 11.6771C200.997 11.366 200.894 11.0549 200.79 10.8474C200.686 10.64 200.583 10.4326 200.583 10.4326L199.754 10.7437C199.754 10.7437 199.858 10.8474 199.858 11.0549C199.961 11.2623 200.065 11.5734 200.169 11.8845C200.479 12.5068 200.686 13.129 200.686 13.129Z" fill="#FDE2A0"/>
<path d="M201.929 16.6551L202.862 16.3439C202.862 16.3439 202.654 15.7217 202.447 15.0995C202.24 14.4772 202.033 13.855 202.033 13.855L201.101 14.2698C201.101 14.2698 201.308 14.892 201.515 15.4106C201.722 16.0328 201.929 16.6551 201.929 16.6551Z" fill="#FDE2A0"/>
<path d="M202.862 20.2847L203.794 20.0773C203.794 20.0773 203.794 19.8699 203.69 19.6625C203.587 19.4551 203.587 19.144 203.483 18.8329C203.276 18.2106 203.172 17.5884 203.172 17.5884L202.24 17.7958C202.24 17.7958 202.447 18.418 202.551 19.0403C202.654 19.3514 202.758 19.6625 202.758 19.8699C202.758 20.181 202.862 20.2847 202.862 20.2847Z" fill="#FDE2A0"/>
<path d="M203.587 23.9144L204.519 23.8107C204.519 23.8107 204.415 23.1885 204.312 22.5663C204.312 22.2551 204.208 21.944 204.104 21.7366C204.104 21.5292 204.001 21.3218 204.001 21.3218L203.069 21.5292C203.069 21.5292 203.069 21.6329 203.172 21.944C203.276 22.1514 203.276 22.4626 203.379 22.7737C203.483 23.2922 203.587 23.9144 203.587 23.9144Z" fill="#FDE2A0"/>
<path d="M204.001 27.6478L204.933 27.5441C204.933 27.5441 204.933 27.3367 204.933 27.1293C204.933 26.9219 204.83 26.6108 204.83 26.2997C204.726 25.6774 204.622 25.0552 204.622 25.0552L203.69 25.1589C203.69 25.1589 203.794 25.7811 203.897 26.4034C203.897 26.7145 204.001 27.0256 204.001 27.233C204.001 27.5441 204.001 27.6478 204.001 27.6478Z" fill="#FDE2A0"/>
<path d="M204.312 31.3816H205.244C205.244 31.3816 205.244 30.7594 205.244 30.1371C205.244 29.826 205.244 29.5149 205.14 29.3075C205.14 29.1 205.14 28.8926 205.14 28.8926L204.208 28.9963C204.208 28.9963 204.208 29.2038 204.208 29.4112C204.208 29.6186 204.312 29.9297 204.312 30.2408C204.312 30.7594 204.312 31.3816 204.312 31.3816Z" fill="#FDE2A0"/>
<path d="M418.154 148.541L417.394 147.963C417.394 147.963 417.053 148.353 416.734 148.845C416.394 149.236 416.075 149.728 416.075 149.728L416.814 150.206C416.814 150.206 417.154 149.815 417.473 149.323C417.814 148.932 418.154 148.541 418.154 148.541Z" fill="#FDE2A0"/>
<path d="M420.154 145.994L419.495 145.393C419.495 145.393 419.154 145.784 418.814 146.175C418.473 146.566 418.154 147.058 418.154 147.058L418.915 147.636C418.915 147.636 419.255 147.246 419.596 146.855C419.835 146.486 420.154 145.994 420.154 145.994Z" fill="#FDE2A0"/>
<path d="M422.196 143.649L421.537 143.049L420.074 144.634L420.834 145.212L422.196 143.649Z" fill="#FDE2A0"/>
<path d="M424.34 141.282L423.681 140.682L422.218 142.267L422.877 142.867L424.34 141.282Z" fill="#FDE2A0"/>
<path d="M426.528 139.119L425.848 138.417L424.363 139.901L425.043 140.602L426.528 139.119Z" fill="#FDE2A0"/>
<path d="M428.817 136.933L428.238 136.21L426.652 137.715L427.311 138.315L428.817 136.933Z" fill="#FDE2A0"/>
<path d="M431.229 134.827L430.65 134.104L429.042 135.508L429.621 136.231L431.229 134.827Z" fill="#FDE2A0"/>
<path d="M433.663 132.822L433.084 132.099L431.454 133.401L432.033 134.125L433.663 132.822Z" fill="#FDE2A0"/>
<path d="M436.22 130.897L435.641 130.173L433.91 131.498L434.489 132.221L436.22 130.897Z" fill="#FDE2A0"/>
<path d="M438.821 129.174L438.343 128.429C438.343 128.429 437.879 128.74 437.416 129.051C436.952 129.362 436.489 129.674 436.489 129.674L436.966 130.419C436.966 130.419 437.43 130.107 437.792 129.818C438.357 129.485 438.821 129.174 438.821 129.174Z" fill="#FDE2A0"/>
<path d="M441.443 127.552L440.965 126.807C440.965 126.807 440.501 127.119 440.016 127.328C439.552 127.64 439.089 127.951 439.089 127.951L439.567 128.696C439.567 128.696 440.03 128.385 440.494 128.074C440.958 127.762 441.443 127.552 441.443 127.552Z" fill="#FDE2A0"/>
<path d="M444.188 126.01L443.79 125.142C443.79 125.142 443.689 125.164 443.507 125.309C443.305 125.352 443.124 125.497 442.841 125.663C442.377 125.975 441.892 126.185 441.892 126.185L442.392 127.031C442.392 127.031 442.877 126.821 443.341 126.51C443.522 126.365 443.804 126.198 444.007 126.155C444.108 126.133 444.188 126.01 444.188 126.01Z" fill="#FDE2A0"/>
<path d="M447.1 124.75L446.702 123.882L444.782 124.824L445.159 125.59L447.1 124.75Z" fill="#FDE2A0"/>
<path d="M450.033 123.592L449.737 122.702L447.672 123.463L448.071 124.331L450.033 123.592Z" fill="#FDE2A0"/>
<path d="M84.4087 305.223L83.4536 305.248C83.4536 305.248 83.4326 305.765 83.492 306.349C83.471 306.867 83.5304 307.45 83.5304 307.45L84.4052 307.36C84.4052 307.36 84.4262 306.842 84.3668 306.259C84.3878 305.741 84.4087 305.223 84.4087 305.223Z" fill="#FDE2A0"/>
<path d="M84.3737 301.985L83.4841 301.929C83.4841 301.929 83.4631 302.447 83.4422 302.965C83.4212 303.483 83.4806 304.066 83.4806 304.066L84.4357 304.041C84.4357 304.041 84.4567 303.524 84.4776 303.006C84.4331 302.568 84.3737 301.985 84.3737 301.985Z" fill="#FDE2A0"/>
<path d="M84.4994 298.877L83.6097 298.822L83.4604 300.974L84.4156 300.949L84.4994 298.877Z" fill="#FDE2A0"/>
<path d="M84.6909 295.69L83.8012 295.634L83.6519 297.786L84.5416 297.842L84.6909 295.69Z" fill="#FDE2A0"/>
<path d="M85.0424 292.633L84.0724 292.512L83.8428 294.598L84.8128 294.719L85.0424 292.633Z" fill="#FDE2A0"/>
<path d="M85.4599 289.495L84.5554 289.294L84.2603 291.461L85.1498 291.517L85.4599 289.495Z" fill="#FDE2A0"/>
<path d="M86.0232 286.343L85.1187 286.142L84.7432 288.243L85.6477 288.445L86.0232 286.343Z" fill="#FDE2A0"/>
<path d="M86.6664 283.256L85.7618 283.055L85.3062 285.091L86.2107 285.292L86.6664 283.256Z" fill="#FDE2A0"/>
<path d="M87.4561 280.154L86.5516 279.953L86.0303 282.069L86.9348 282.271L87.4561 280.154Z" fill="#FDE2A0"/>
<path d="M88.4059 277.183L87.5669 276.901C87.5669 276.901 87.4001 277.434 87.2334 277.967C87.0666 278.5 86.8999 279.033 86.8999 279.033L87.7389 279.315C87.7389 279.315 87.9057 278.782 88.0069 278.329C88.2392 277.716 88.4059 277.183 88.4059 277.183Z" fill="#FDE2A0"/>
<path d="M89.436 274.277L88.5969 273.995C88.5969 273.995 88.4302 274.528 88.1831 274.996C88.0163 275.529 87.8496 276.062 87.8496 276.062L88.6886 276.343C88.6886 276.343 88.8554 275.811 89.0221 275.278C89.1889 274.745 89.436 274.277 89.436 274.277Z" fill="#FDE2A0"/>
<path d="M90.6117 271.356L89.7579 270.929C89.7579 270.929 89.6924 271.009 89.6418 271.235C89.5108 271.396 89.4602 271.622 89.344 271.929C89.1773 272.462 88.9302 272.929 88.9302 272.929L89.8495 273.277C89.8495 273.277 90.0966 272.809 90.2634 272.276C90.314 272.05 90.4301 271.744 90.5611 271.583C90.6266 271.502 90.6117 271.356 90.6117 271.356Z" fill="#FDE2A0"/>
<path d="M92.0944 268.551L91.2405 268.124L90.3325 270.059L91.1061 270.421L92.0944 268.551Z" fill="#FDE2A0"/>
<path d="M93.6574 265.812L92.8691 265.304L91.7349 267.189L92.5888 267.617L93.6574 265.812Z" fill="#FDE2A0"/>
<path d="M2.39396 107.777L2.02428 106.896C2.02428 106.896 1.5341 107.064 1.01214 107.331C0.521964 107.499 0 107.766 0 107.766L0.401472 108.549C0.401472 108.549 0.891652 108.38 1.41361 108.113C1.90379 107.945 2.39396 107.777 2.39396 107.777Z" fill="#D9E3FD"/>
<path d="M5.39848 106.569L5.1275 105.72C5.1275 105.72 4.63732 105.888 4.14715 106.056C3.65697 106.225 3.13501 106.492 3.13501 106.492L3.50469 107.373C3.50469 107.373 3.99487 107.204 4.48504 107.036C4.87652 106.836 5.39848 106.569 5.39848 106.569Z" fill="#D9E3FD"/>
<path d="M8.33942 105.558L8.06844 104.709L6.00903 105.351L6.37872 106.232L8.33942 105.558Z" fill="#D9E3FD"/>
<path d="M11.3792 104.58L11.1082 103.73L9.04883 104.372L9.31981 105.221L11.3792 104.58Z" fill="#D9E3FD"/>
<path d="M14.3557 103.798L14.1165 102.85L12.0889 103.393L12.3281 104.341L14.3557 103.798Z" fill="#D9E3FD"/>
<path d="M17.4304 103.048L17.2899 102.132L15.1636 102.643L15.4345 103.493L17.4304 103.048Z" fill="#D9E3FD"/>
<path d="M20.5722 102.429L20.4317 101.513L18.3372 101.926L18.4777 102.842L20.5722 102.429Z" fill="#D9E3FD"/>
<path d="M23.65 102.103L23.5096 101.187L21.4468 101.502L21.5873 102.418L23.65 102.103Z" fill="#D9E3FD"/>
<path d="M26.8269 101.713L26.6864 100.797L24.5249 101.08L24.6654 101.995L26.8269 101.713Z" fill="#D9E3FD"/>
<path d="M29.9403 101.52L29.8986 100.636C29.8986 100.636 29.3415 100.674 28.7844 100.712C28.2273 100.75 27.6702 100.788 27.6702 100.788L27.712 101.672C27.712 101.672 28.2691 101.634 28.7275 101.564C29.3833 101.558 29.9403 101.52 29.9403 101.52Z" fill="#D9E3FD"/>
<path d="M33.0217 101.425L32.9799 100.541C32.9799 100.541 32.4229 100.579 31.8976 100.518C31.3405 100.556 30.7834 100.594 30.7834 100.594L30.8252 101.479C30.8252 101.479 31.3823 101.441 31.9393 101.402C32.4964 101.364 33.0217 101.425 33.0217 101.425Z" fill="#D9E3FD"/>
<path d="M36.1703 101.461L36.259 100.51C36.259 100.51 36.1603 100.478 35.9311 100.513C35.7337 100.449 35.5045 100.484 35.1766 100.487C34.6195 100.525 34.0942 100.465 34.0942 100.465L34.1042 101.448C34.1042 101.448 34.6295 101.508 35.1866 101.47C35.4158 101.435 35.7437 101.432 35.9411 101.496C36.0398 101.528 36.1703 101.461 36.1703 101.461Z" fill="#D9E3FD"/>
<path d="M39.322 101.824L39.4108 100.873L37.2778 100.73L37.2209 101.582L39.322 101.824Z" fill="#D9E3FD"/>
<path d="M42.4422 102.286L42.6296 101.367L40.4615 100.994L40.3728 101.945L42.4422 102.286Z" fill="#D9E3FD"/>
<path d="M56.4659 119.059C58.3625 118.674 58.8713 115.903 59.2917 114.373C59.4392 113.76 60.3982 110.501 59.2838 110.11C57.8741 109.49 57.4907 111.958 57.2178 112.874C56.8268 113.99 56.4358 115.106 56.1555 116.125C55.9047 116.731 55.6465 117.441 55.809 118.076C55.7869 118.386 55.8754 118.601 56.0674 118.822C56.1559 119.037 56.2593 119.044 56.4659 119.059Z" fill="#FDE2A0"/>
<path d="M376.805 121.364C376.864 120.537 377.108 118.579 376.097 118.195C375.897 118.077 375.787 118.173 375.573 118.262C374.79 119.038 374.481 120.471 374.09 121.587C373.817 122.503 373.536 123.523 373.677 124.469C373.633 125.089 373.596 125.607 373.876 126.042C374.445 126.811 375.315 126.249 375.677 125.547C376.385 124.35 376.702 122.813 376.805 121.364Z" fill="#FDE2A0"/>
<path d="M101.866 99.3767C102.323 98.7854 102.294 97.7436 102.345 97.0195C102.441 95.6747 102.64 94.3373 102.736 92.9925C102.773 92.4753 102.839 91.5443 102.234 91.2933C101.732 91.0496 101.282 91.5374 101.149 91.9438C100.765 92.9562 100.684 94.0941 100.507 95.1212C100.33 96.1483 100.028 97.4783 100.478 98.4461C100.471 98.5496 100.574 98.5569 100.67 98.6677C100.818 99.51 101.187 100.16 101.866 99.3767Z" fill="#8ED0F7"/>
<path d="M157.811 52.1206C157.641 51.5887 156.837 51.2195 156.482 51.8181C155.789 52.8084 155.789 54.264 155.501 55.3872C155.361 55.897 155.081 56.9168 155.243 57.5521C155.052 58.7861 155.067 60.0348 155.886 60.1971C157.62 60.6325 157.715 56.3766 157.892 55.3495C157.966 54.315 158.055 53.0737 157.811 52.1206Z" fill="#8ED0F7"/>
<path d="M314.026 46.1471C313.768 46.8565 312.993 48.9847 313.333 50.0486C312.809 51.5708 312.477 53.3147 313.459 54.1124C313.555 54.2232 313.762 54.2379 313.976 54.1491C315.082 53.1883 315.097 51.5258 315.407 50.0923C315.716 48.6588 316.624 46.1242 315.679 44.8093C314.919 43.8194 314.159 45.7407 314.026 46.1471Z" fill="#FDE2A0"/>
<path d="M68.6233 221.162C68.3945 221.458 68.2618 221.864 68.2323 222.278C68.0257 222.263 67.9076 222.463 67.8929 222.67C67.9743 224.443 66.9857 226.66 67.8051 228.278C67.8937 228.492 68.1003 228.507 68.3143 228.418C69.2589 228.277 69.458 226.94 69.6202 226.12C69.9226 224.79 70.1438 223.142 69.937 221.672C69.8705 221.147 69.1841 220.578 68.6233 221.162Z" fill="#FDE2A0"/>
<path d="M397.85 204.622C397.348 204.378 396.994 204.977 396.861 205.383C396.47 206.499 396.285 207.629 396.101 208.76C395.924 209.787 395.747 210.814 395.777 211.856C395.762 212.063 395.851 212.277 395.836 212.484C395.998 213.119 396.729 213.067 397.164 212.786C398.707 211.545 398.418 208.301 398.433 206.639C398.477 206.018 398.551 204.984 397.85 204.622Z" fill="#D5E0FD"/>
<path d="M362.813 274.722C363.455 274.456 363.521 273.525 363.669 272.912C363.698 272.498 363.831 272.092 363.853 271.781C363.883 271.368 364.015 270.961 363.934 270.643C363.779 269.905 362.96 269.742 362.502 270.333C362.266 270.733 362.126 271.242 362.089 271.76C361.957 272.166 361.927 272.58 361.898 272.994C361.861 273.511 361.802 274.338 362.296 274.686C362.496 274.804 362.702 274.818 362.813 274.722Z" fill="#D5E0FD"/>
<path d="M122.915 202.54C122.538 203.449 122.457 204.587 122.487 205.628C122.48 205.732 122.576 205.843 122.671 205.953C122.664 206.057 122.753 206.271 122.745 206.375C122.708 206.892 122.738 207.934 123.351 208.081C124.472 208.369 124.745 205.997 124.9 205.28C125.055 204.564 125.107 203.84 125.055 203.108C125.092 202.591 125.187 201.246 124.471 201.091C123.652 200.929 123.062 201.926 122.915 202.54Z" fill="#D5E0FD"/>
</svg>
