<svg width="23" height="23" viewBox="0 0 23 23" fill="none" xmlns="http://www.w3.org/2000/svg">
<path d="M2.87595 3.59383V0.718756C2.87595 0.321433 3.19738 0 3.5948 0C3.99202 0 4.31346 0.321433 4.31346 0.718756V3.59383C4.31346 3.99106 3.99202 4.31249 3.5948 4.31249C3.19738 4.31254 2.87595 3.99106 2.87595 3.59383ZM15.0948 4.31254C15.492 4.31254 15.8136 3.99111 15.8136 3.59388V0.718756C15.8136 0.321433 15.492 0 15.0948 0C14.6975 0 14.3758 0.321433 14.3758 0.718756V3.59383C14.3758 3.99106 14.6975 4.31254 15.0948 4.31254ZM23.0009 17.2499C23.0009 20.4256 20.4264 23.0001 17.2509 23.0001C14.0756 23.0001 11.501 20.4256 11.501 17.2499C11.501 14.0746 14.0756 11.5 17.2509 11.5C20.4264 11.5 23.0009 14.0746 23.0009 17.2499ZM21.5636 17.2499C21.5636 14.8721 19.6291 12.9374 17.2509 12.9374C14.873 12.9374 12.9385 14.8721 12.9385 17.2499C12.9385 19.6281 14.873 21.5625 17.2509 21.5625C19.6291 21.5625 21.5636 19.6281 21.5636 17.2499ZM5.75101 8.62503H2.87595V11.5H5.75101V8.62503ZM2.87595 15.8125H5.75101V12.9374H2.87595V15.8125ZM7.18843 11.5H10.0635V8.62503H7.18843V11.5ZM7.18843 15.8125H10.0635V12.9374H7.18843V15.8125ZM1.43853 17.107V7.18747H17.2509V10.0625H18.6885V4.45579C18.6885 3.58259 17.9921 2.87498 17.1317 2.87498H16.5322V3.59388C16.5322 4.38554 15.8877 5.03134 15.0949 5.03134C14.3018 5.03134 13.6574 4.38554 13.6574 3.59388V2.87498H5.03216V3.59388C5.03216 4.38554 4.38783 5.03134 3.59484 5.03134C2.80167 5.03134 2.15729 4.38554 2.15729 3.59388V2.87498H1.55851C0.698068 2.87498 0.000976562 3.58259 0.000976562 4.45579V17.107C0.000976562 17.9773 0.698068 18.6877 1.55851 18.6877H10.0635V17.2499H1.55851C1.49338 17.2499 1.43853 17.1826 1.43853 17.107ZM14.3758 11.5V8.62503H11.501V11.5H14.3758ZM19.4072 17.2499H17.2509V15.0936C17.2509 14.6965 16.9295 14.375 16.5321 14.375C16.1348 14.375 15.8136 14.6965 15.8136 15.0936V17.9689C15.8136 18.366 16.1348 18.6876 16.5321 18.6876H19.4072C19.8045 18.6876 20.126 18.366 20.126 17.9689C20.126 17.5715 19.8045 17.2499 19.4072 17.2499Z" fill="#23A4EF"/>
</svg>
