<svg width="40" height="40" viewBox="0 0 40 40" fill="none" xmlns="http://www.w3.org/2000/svg">
<g clip-path="url(#clip0)">
<path d="M27.7844 18.3897C28.0899 18.0842 28.0899 17.5879 27.7844 17.2828C27.4796 16.9767 26.9852 16.9767 26.6797 17.2828C26.3748 17.5879 26.3748 18.0842 26.6797 18.3897C26.9852 18.6958 27.4796 18.6958 27.7844 18.3897Z" fill="#23A4EF"/>
<path d="M0.781251 40.1161H39.2188C39.5347 40.1161 39.8197 39.9256 39.9405 39.633C40.0614 39.3403 39.9946 39.0037 39.7712 38.7798L1.33362 0.267418C1.11023 0.0432862 0.774232 -0.0233723 0.482178 0.0977139C0.19043 0.2188 0 0.504086 0 0.820867V39.3333C0 39.7657 0.349732 40.1161 0.781251 40.1161ZM1.5625 2.71055L7.84669 9.00702L6.18897 10.6671C5.8838 10.9728 5.8838 11.4685 6.18897 11.7743C6.49354 12.0797 6.98854 12.0804 7.29371 11.7743L8.95143 10.1139L12.2659 13.4352L10.6085 15.0953C10.3034 15.401 10.3034 15.8967 10.6082 16.2025C10.9131 16.5079 11.4081 16.5086 11.7133 16.2025L13.371 14.5421L16.6852 17.8631L15.0281 19.5238C14.7229 19.8293 14.7229 20.3249 15.0281 20.6307C15.3333 20.9365 15.8277 20.9365 16.1328 20.6307L17.7902 18.97L21.1048 22.2913L19.4477 23.952C19.1425 24.2575 19.1425 24.7531 19.4477 25.0589C19.7528 25.3647 20.2472 25.3647 20.5524 25.0589L22.2098 23.3985L25.5243 26.7192L23.8672 28.3802C23.562 28.686 23.562 29.1816 23.8672 29.4874C24.1724 29.7929 24.6671 29.7929 24.9723 29.4871L26.6291 27.8264L29.9436 31.1474L28.2865 32.8084C27.9816 33.1142 27.9816 33.6098 28.2868 33.9153C28.5917 34.2211 29.0867 34.2211 29.3918 33.9153L31.0486 32.2543L37.3325 38.5505H1.5625V2.71055Z" fill="#23A4EF"/>
<path d="M8.05237 16.3145C7.82898 16.0906 7.49298 16.0237 7.20093 16.1448C6.90918 16.2659 6.71875 16.5514 6.71875 16.8679V32.6024C6.71875 33.0347 7.06848 33.3852 7.5 33.3852H23.2038C23.5199 33.3852 23.8046 33.1947 23.9258 32.902C24.0466 32.6097 23.9795 32.2728 23.7564 32.0489L8.05237 16.3145ZM8.28125 31.8199V18.7579L21.3178 31.8199H8.28125Z" fill="#23A4EF"/>
<path d="M24.4702 16.1761C24.7754 16.4819 25.2698 16.4819 25.5753 16.1761C25.8801 15.8706 25.8801 15.375 25.5753 15.0692L22.2601 11.7479C21.9553 11.4421 21.4606 11.4421 21.1554 11.7479C20.8502 12.0534 20.8502 12.549 21.1554 12.8548L24.4702 16.1761Z" fill="#23A4EF"/>
<path d="M11.8592 8.01702L33.7892 29.9896C34.7047 30.9075 36.1879 30.9075 37.104 29.9896L39.3135 27.7761C40.2269 26.8609 40.2269 25.3709 39.3135 24.4545L17.3838 2.48192C17.2981 2.39599 17.1934 2.33117 17.0784 2.29295L10.4493 0.0791529C10.1689 -0.0144137 9.8591 0.0586661 9.65006 0.268426C9.44071 0.477881 9.36777 0.787935 9.46115 1.06925L11.6706 7.71125C11.7091 7.82652 11.7735 7.9311 11.8592 8.01702ZM38.2081 25.5614C38.513 25.8668 38.513 26.364 38.2084 26.6689L35.9993 28.8827C35.6941 29.1884 35.1994 29.1887 34.8939 28.8827L33.2011 27.1865L36.5156 23.8652L38.2081 25.5614ZM35.4109 22.7583L32.0961 26.0796L30.9913 24.9724L34.3062 21.6517L35.4109 22.7583ZM17.3484 4.66055L33.2011 20.5442L29.8866 23.8655L14.0336 7.98155L17.3484 4.66055ZM16.1604 3.63652L13.0116 6.79118L11.4375 2.05934L16.1604 3.63652Z" fill="#23A4EF"/>
</g>
<defs>
<clipPath id="clip0">
<rect width="40" height="40" fill="white"/>
</clipPath>
</defs>
</svg>
