<svg width="452" height="350" viewBox="0 0 452 350" fill="none" xmlns="http://www.w3.org/2000/svg">
<g clip-path="url(#clip0)">
<path d="M443.927 171.738L265.77 69.0269L149.659 148.015L318.015 245.065C321.417 247.019 325.601 247.019 329.003 245.065L443.927 178.815C446.654 177.251 446.654 173.315 443.927 171.738Z" fill="#EFEFEF"/>
<path d="M223.03 345.269L326.749 285.475C328.99 284.181 328.706 281.93 326.114 280.434C323.522 278.938 319.608 278.776 317.367 280.07L213.648 339.864C211.407 341.158 211.69 343.409 214.282 344.905C216.861 346.401 220.789 346.563 223.03 345.269Z" fill="#EFEFEF"/>
<path d="M334.309 267.238C334.228 267.103 334.079 267.036 333.931 267.063L329.003 268.074L330.907 271.376L334.268 267.642C334.363 267.535 334.39 267.373 334.309 267.238Z" fill="#D4ECFF"/>
<path d="M332.338 269.651C332.338 268.936 331.838 268.087 331.231 267.723C330.947 267.561 330.691 267.534 330.488 267.629C324.805 267.521 319.216 268.963 314.288 271.794L313.938 271.996L319.945 282.429L321.754 281.256C325.588 278.763 328.841 275.474 331.271 271.592L332.054 270.338C332.23 270.203 332.338 269.974 332.338 269.651Z" fill="#23A4EF"/>
<path d="M321.2 279.666C321.2 276.956 319.31 273.654 316.961 272.292C314.613 270.931 312.709 272.023 312.696 274.732C312.696 277.441 314.586 280.744 316.934 282.105C319.283 283.467 321.187 282.375 321.2 279.666Z" fill="#D4ECFF"/>
<path d="M272.277 311.018L319.945 282.415L313.938 271.982L265.19 298.698L272.277 311.018Z" fill="#D4ECFF"/>
<path d="M273.762 307.77C273.776 304.562 271.521 300.666 268.754 299.062C265.973 297.458 263.718 298.752 263.718 301.947C263.705 305.155 265.959 309.05 268.727 310.654C271.494 312.272 273.749 310.978 273.762 307.77Z" fill="#D4ECFF"/>
<path d="M271.683 308.969C271.683 305.761 269.442 301.866 266.675 300.262C263.894 298.658 261.639 299.952 261.639 303.146C261.626 306.354 263.88 310.25 266.648 311.854C269.415 313.458 271.67 312.164 271.683 308.969Z" fill="#D4ECFF"/>
<path d="M263.116 299.895L214.9 327.555L221.989 339.874L270.205 312.213L263.116 299.895Z" fill="#D4ECFF"/>
<path d="M223.475 336.615C223.475 333.407 221.235 329.512 218.467 327.908C215.686 326.304 213.432 327.598 213.432 330.792C213.432 334 215.673 337.896 218.44 339.5C221.208 341.117 223.462 339.823 223.475 336.615Z" fill="#D4ECFF"/>
<path d="M221.666 335.577C221.572 333.69 220.06 331.318 218.278 330.28C216.496 329.242 215.119 329.943 215.214 331.844C215.308 333.731 216.82 336.103 218.602 337.141C220.397 338.165 221.761 337.464 221.666 335.577Z" fill="#23A4EF"/>
<path d="M274.127 307.554C274.127 304.346 271.886 300.451 269.118 298.847C266.337 297.243 264.083 298.537 264.083 301.731C264.083 304.939 266.324 308.835 269.091 310.439C271.859 312.056 274.113 310.762 274.127 307.554Z" fill="#23A4EF"/>
<path d="M274.127 307.554C274.127 304.346 271.886 300.451 269.118 298.847C267.998 298.2 266.972 298.024 266.135 298.254C267.053 297.324 268.538 297.216 270.225 298.2C273.006 299.804 275.247 303.713 275.234 306.907C275.234 308.821 274.424 310.048 273.182 310.385C273.762 309.778 274.127 308.821 274.127 307.554Z" fill="white"/>
<path d="M265.56 298.492L262.833 300.057L269.922 312.376L272.649 310.811L265.56 298.492Z" fill="#23A4EF"/>
<path d="M271.386 309.131C271.4 305.923 269.145 302.028 266.378 300.424C263.597 298.82 261.342 300.114 261.342 303.308C261.329 306.516 263.583 310.412 266.351 312.016C269.132 313.62 271.386 312.326 271.386 309.131Z" fill="#D4ECFF"/>
<path d="M219.399 336.978L216.334 331.667L206.115 337.531C204.643 338.38 204.144 340.254 204.981 341.723C205.831 343.192 207.708 343.691 209.179 342.855L219.399 336.978Z" fill="#FCCC55"/>
<path d="M220.033 335.577C220.033 334.189 219.061 332.517 217.873 331.817C216.672 331.129 215.7 331.682 215.7 333.07C215.7 334.458 216.672 336.13 217.86 336.831C219.061 337.518 220.033 336.952 220.033 335.577Z" fill="#FCCC55"/>
<path d="M231.521 317.03L230.009 316.154C229.145 315.655 227.984 315.763 226.742 316.464L221.491 319.47C220.506 320.036 219.696 321.424 219.696 322.57V325.185C219.696 325.616 219.48 326.128 219.156 326.492L219.345 327.705L218.049 326.951C217.86 326.856 217.738 326.627 217.738 326.317V323.702C217.738 321.316 219.426 318.418 221.491 317.232L226.742 314.226C228.497 313.215 230.144 313.067 231.386 313.781L232.898 314.658C233.762 315.156 234.923 315.048 236.165 314.348L257.333 302.203C257.603 302.041 257.846 302.041 258.035 302.149L259.331 302.904L258.21 303.322C258.048 303.793 257.724 304.238 257.333 304.454L236.165 316.599C234.397 317.583 232.75 317.744 231.521 317.03Z" fill="#23A4EF"/>
<path d="M231.305 316.922C230.441 316.423 229.28 316.531 228.038 317.232L222.787 320.238C221.801 320.804 220.991 322.192 220.991 323.338V325.953C220.991 326.573 220.546 327.328 220.019 327.638C219.479 327.948 219.047 327.692 219.047 327.072V324.457C219.047 322.071 220.735 319.173 222.8 317.987L228.052 314.981C229.807 313.97 231.454 313.822 232.696 314.536L234.208 315.412C235.072 315.911 236.233 315.803 237.475 315.102L258.642 302.958C259.182 302.647 259.614 302.904 259.614 303.524C259.614 304.144 259.169 304.898 258.642 305.209L237.475 317.353C235.72 318.364 234.073 318.526 232.831 317.798L231.305 316.922Z" fill="#23A4EF"/>
<path d="M211.015 349.542L220.695 343.961C221.855 343.287 221.721 342.115 220.371 341.333C219.021 340.551 216.982 340.47 215.821 341.144L206.142 346.725C204.981 347.399 205.116 348.571 206.466 349.353C207.816 350.135 209.854 350.216 211.015 349.542Z" fill="#EFEFEF"/>
<path d="M312.763 68.8246C312.763 61.0606 307.296 57.9064 300.559 61.775L186.081 127.634C184.231 128.699 182.733 131.287 182.719 133.43C182.719 135.56 184.218 136.436 186.067 135.371L300.546 69.512C303.583 67.7597 306.054 69.1885 306.054 72.6931L306.04 85.4713C308.268 85.3365 310.495 85.3365 312.736 85.3635L312.763 68.8246Z" fill="#FF2C9C"/>
<path d="M186.041 158.34L300.519 116.689C307.255 112.821 312.736 103.345 312.75 95.5942L312.763 85.3636C310.509 85.3231 308.281 85.3231 306.067 85.4714L306.054 99.4628C306.054 102.967 303.583 107.227 300.546 108.979L186.068 150.63C184.218 151.695 182.72 154.283 182.706 156.426C182.679 158.542 184.178 159.405 186.041 158.34Z" fill="#D3008D"/>
<path d="M183.557 158.501L322.807 238.959L440.714 168.746L450.07 154.808L449.098 159.741L446.587 146.815L227.728 155.145L189.159 152.665L183.557 158.501Z" fill="#FCCC55"/>
<path d="M188.174 134.212L188.133 151.33L322.726 229.078L326.357 212.769L188.174 134.212Z" fill="#FFEDBF"/>
<path d="M448.328 141.316L309.294 60.9932L183.935 133.781L183.678 135.573L322.929 216.004L448.328 141.316Z" fill="#FCCC55"/>
<path d="M404.008 182.562L436.705 163.206C439.459 161.278 441.619 157.369 441.619 154.107L441.646 151.546C441.646 149.47 440.782 148.136 439.445 147.745L375.092 183.492L322.686 211.798L322.74 229.105L404.008 182.562Z" fill="white"/>
<path d="M327.37 213.348L189.227 133.551L186.297 131.853L183.624 130.303C183.084 131.3 182.733 132.406 182.733 133.417C182.733 134.468 183.098 135.209 183.692 135.56L183.719 135.573H183.732L322.942 215.99L327.37 213.348Z" fill="#FCCC55"/>
<path d="M321.079 237.948L322.807 238.959L323.131 238.406L322.051 237.557L321.079 237.948Z" fill="white"/>
<path d="M321.12 214.966L322.901 215.99L322.456 215.02L321.12 214.966Z" fill="white"/>
<path d="M325.318 208.064L439.796 142.205C446.533 138.337 452 141.491 452 149.255L451.973 151.816C451.959 159.58 446.479 169.042 439.742 172.911L325.264 238.77C323.414 239.835 321.916 238.972 321.916 236.829C321.916 234.699 323.414 232.098 325.277 231.033L439.756 165.174C442.793 163.421 445.264 159.162 445.264 155.657L445.291 153.096C445.291 149.592 442.82 148.176 439.783 149.915L325.304 215.774C323.455 216.839 321.957 215.977 321.957 213.833C321.957 211.69 323.468 209.129 325.318 208.064Z" fill="#FCCC55"/>
<path d="M274.343 144.214L333.823 109.99L385.419 139.792L325.925 174.016L274.343 144.214Z" fill="white"/>
<path d="M321.929 236.842C321.929 234.713 323.428 232.111 325.291 231.046L439.769 165.187C442.807 163.435 445.277 159.175 445.277 155.671L445.304 153.11C445.304 150.818 444.251 149.43 442.658 149.214C443.171 149.888 443.468 150.832 443.468 152.045L443.441 154.606C443.441 158.111 440.971 162.37 437.933 164.122L323.455 229.981C321.605 231.046 320.107 233.634 320.094 235.778C320.094 237.395 320.957 238.285 322.172 238.15C322.01 237.799 321.929 237.355 321.929 236.842Z" fill="white"/>
<path d="M321.97 213.86C321.97 211.731 323.468 209.129 325.331 208.064L439.809 142.205C442.712 140.534 445.371 140.183 447.464 140.925C445.223 139.024 441.807 138.943 437.973 141.14L323.495 206.999C321.646 208.064 320.147 210.652 320.134 212.795C320.134 214.413 320.998 215.303 322.213 215.168C322.064 214.804 321.97 214.373 321.97 213.86Z" fill="white"/>
<path d="M308.187 17.8734C308.2 10.1094 302.719 6.95527 295.983 10.8238L181.505 76.683C179.655 77.7478 178.157 80.3358 178.143 82.479C178.143 84.6087 179.642 85.4849 181.491 84.42L295.969 18.5608C299.007 16.8085 301.477 18.2373 301.477 21.7419L301.464 34.5202C303.691 34.3854 305.919 34.3854 308.16 34.4123L308.187 17.8734Z" fill="#8ED0F7"/>
<path d="M181.451 107.389L295.929 65.738C302.665 61.8695 308.146 52.3936 308.16 44.6431L308.173 34.4124C305.919 34.372 303.691 34.372 301.477 34.5202L301.464 48.5116C301.464 52.0162 298.993 56.2756 295.956 58.0279L181.478 99.6785C179.628 100.743 178.13 103.331 178.116 105.475C178.103 107.591 179.601 108.453 181.451 107.389Z" fill="#8ED0F7"/>
<path d="M178.967 107.55L318.231 188.007L436.138 117.794L445.48 103.857L444.521 108.804L441.997 95.8638L223.138 104.207L184.583 101.727L178.967 107.55Z" fill="#203662"/>
<path d="M183.584 83.2607L183.557 100.379L318.15 178.127L321.781 161.817L183.584 83.2607Z" fill="#86B8E0"/>
<path d="M443.752 90.3643L304.717 10.0554L179.358 82.8294L179.102 84.6222L318.339 165.052L443.752 90.3643Z" fill="#8ED0F7"/>
<path d="M399.432 131.611L432.128 112.255C434.882 110.327 437.042 106.418 437.042 103.156L437.069 100.595C437.069 98.5193 436.205 97.1848 434.869 96.7939L370.515 132.541L318.109 160.847L318.163 178.154L399.432 131.611Z" fill="white"/>
<path d="M322.794 162.41L184.637 82.6003L181.707 80.9019L179.034 79.3518C178.481 80.3493 178.143 81.4546 178.143 82.4655C178.143 83.5169 178.508 84.2582 179.102 84.6087L179.129 84.6222H179.142L318.352 165.039L322.794 162.41Z" fill="#5793CE"/>
<path d="M316.489 186.996L318.231 188.007L318.555 187.455L317.475 186.605L316.489 186.996Z" fill="white"/>
<path d="M316.543 164.014L318.312 165.039L317.866 164.068L316.543 164.014Z" fill="white"/>
<path d="M320.742 157.113L435.22 91.254C441.956 87.3854 447.424 90.5396 447.424 98.3036L447.397 100.865C447.383 108.629 441.902 118.091 435.166 121.96L320.688 187.819C318.838 188.884 317.34 188.021 317.34 185.878C317.34 183.748 318.838 181.147 320.701 180.082L435.179 114.222C438.217 112.47 440.687 108.211 440.687 104.706L440.714 102.145C440.714 98.6405 438.244 97.2252 435.206 98.964L320.728 164.823C318.879 165.888 317.38 165.025 317.38 162.882C317.394 160.779 318.892 158.178 320.742 157.113Z" fill="#8ED0F7"/>
<path d="M269.753 93.2624L329.247 59.0388L380.843 88.8413L321.349 123.065L269.753 93.2624Z" fill="white"/>
<path d="M317.34 185.891C317.34 183.762 318.838 181.16 320.701 180.095L435.179 114.236C438.217 112.484 440.687 108.224 440.687 104.72L440.714 102.159C440.714 99.8672 439.661 98.4789 438.068 98.2632C438.581 98.9371 438.878 99.8807 438.878 101.094L438.851 103.655C438.851 107.159 436.381 111.419 433.343 113.171L318.865 179.03C317.016 180.095 315.517 182.683 315.504 184.826C315.504 186.444 316.368 187.334 317.583 187.199C317.434 186.848 317.34 186.403 317.34 185.891Z" fill="white"/>
<path d="M317.394 162.909C317.394 160.779 318.892 158.178 320.755 157.113L435.233 91.2539C438.136 89.5825 440.795 89.232 442.888 89.9734C440.647 88.0728 437.231 87.992 433.397 90.1891L318.919 156.048C317.07 157.113 315.571 159.701 315.558 161.844C315.558 163.462 316.422 164.351 317.637 164.217C317.475 163.866 317.38 163.421 317.394 162.909Z" fill="white"/>
<path d="M164.697 333.65L3.09145 240.482C-1.48498 237.84 -0.904492 233.243 4.37393 230.197L114.424 166.778C119.703 163.731 127.695 163.408 132.257 166.036L293.877 259.204C298.453 261.846 297.873 266.443 292.594 269.489L182.544 332.908C177.266 335.955 169.274 336.278 164.697 333.65Z" fill="#EFEFEF"/>
<path d="M331.717 94.1653L170.111 0.997357C168.234 -0.0809757 166.331 -0.256205 164.63 0.323399L164.643 0.30992L164.346 0.417753C164.319 0.431233 164.292 0.431233 164.279 0.444712L158.434 2.68225L163.671 5.24329C163.644 5.33765 163.617 5.432 163.59 5.52636L137.266 125.167C135.943 131.152 138.589 138.148 143.165 140.776L300.897 231.707L300.33 238.379L306.715 235.912C308.862 234.915 310.576 232.65 311.292 229.415L337.616 109.774C338.939 103.789 336.293 96.7938 331.717 94.1653Z" fill="#203662"/>
<path d="M331.717 94.1654L170.111 0.997357C168.234 -0.0809757 166.331 -0.256205 164.63 0.323399L164.643 0.30992L164.346 0.417753C164.319 0.431233 164.292 0.431233 164.279 0.444712L158.433 2.68225L163.671 5.24329C163.644 5.33765 163.617 5.432 163.59 5.52636L146.243 84.3795L225.325 145.898L336.82 100.595C335.753 97.8182 333.971 95.4594 331.717 94.1654Z" fill="#2B4271"/>
<path d="M325.628 112.551L337.927 107.321C338.156 102.563 336.185 97.6431 332.945 95.0146L313.465 103.197L325.628 112.551Z" fill="#3C5890"/>
<path d="M294.728 237.759L133.108 144.591C128.532 141.949 125.899 134.967 127.209 128.982L153.533 9.34094C154.856 3.35619 159.622 0.633403 164.198 3.27532L325.818 96.4433C330.394 99.0852 333.026 106.067 331.717 112.052L305.392 231.693C304.069 237.665 299.29 240.387 294.728 237.759Z" fill="#ACDCF9"/>
<path d="M327.37 95.8504L165.75 2.69586C163.537 1.41534 161.282 1.41534 159.392 2.41279C160.918 2.07582 162.565 2.31844 164.198 3.26198L325.818 96.43C330.394 99.0719 333.026 106.054 331.717 112.039L305.392 231.68C304.717 234.767 303.111 236.964 301.086 238.029C303.813 237.436 306.094 234.969 306.931 231.114L333.256 111.473C334.579 105.488 331.946 98.4923 327.37 95.8504Z" fill="white"/>
<path d="M291.217 228.849L139.223 141.275C135.038 138.862 132.622 132.46 133.837 126.987L157.921 17.496C159.122 12.0234 163.496 9.52979 167.681 11.9426L319.675 99.5302C323.86 101.943 326.276 108.346 325.061 113.818L300.978 223.309C299.776 228.782 295.402 231.262 291.217 228.849Z" fill="white"/>
<path d="M291.217 228.849L139.223 141.275C135.038 138.862 132.622 132.46 133.837 126.987L157.921 17.496C159.122 12.0234 163.496 9.52979 167.681 11.9426L319.675 99.5302C323.86 101.943 326.276 108.346 325.061 113.818L300.978 223.309C299.776 228.782 295.402 231.262 291.217 228.849Z" fill="#EFF8FE"/>
<path d="M292.54 228.31L140.546 140.736C136.361 138.323 133.945 131.921 135.16 126.448L159.244 16.9568C159.851 14.1801 161.282 12.1852 163.077 11.1877C160.674 11.8078 158.677 14.0588 157.921 17.496L133.823 126.987C132.622 132.473 135.038 138.862 139.21 141.275L291.204 228.849C293.269 230.035 295.375 230.022 297.13 229.065C295.699 229.429 294.106 229.213 292.54 228.31Z" fill="#2B4271"/>
<path d="M296.955 241.816L274.869 238.905L132.257 156.682C127.681 154.04 119.703 154.377 114.424 157.423L13.3648 215.653L0 213.901V221.463H0.0134998C-0.067499 223.215 0.917986 224.9 3.07795 226.14L164.697 319.308C169.274 321.95 177.252 321.613 182.531 318.566L292.581 255.147C295.551 253.435 297.036 251.225 296.941 249.162V241.816H296.955Z" fill="#8ED0F7"/>
<path d="M189.807 189.867L179.669 184.031H68.2819L13.3648 215.653L0 213.901V221.463H0.0134998C-0.0674989 223.215 0.917986 224.9 3.07795 226.14L164.697 319.308C167.114 320.696 170.489 321.262 173.904 321.033L189.807 189.867Z" fill="#8ED0F7"/>
<path d="M5.93991 214.683L0 213.901V221.463H0.0134998C-0.067499 223.215 0.917986 224.9 3.07795 226.14L5.92641 227.784V214.683H5.93991Z" fill="#7ABAE1"/>
<path d="M166.331 320.063C170.664 321.707 176.861 321.343 181.491 319.119V302.243H166.331V320.063Z" fill="#7ABAE1"/>
<path d="M164.697 311.746L3.09145 218.578C-1.48498 215.936 -0.904492 211.34 4.37393 208.294L114.424 144.874C119.703 141.828 127.695 141.504 132.257 144.133L293.877 237.301C298.453 239.943 297.873 244.539 292.594 247.585L182.544 311.005C177.266 314.051 169.274 314.388 164.697 311.746Z" fill="#E0F1FD"/>
<path d="M292.594 244.822L182.544 308.241C177.266 311.288 169.274 311.611 164.711 308.983L3.09143 215.815C1.59295 214.952 0.661468 213.874 0.242975 212.715C-0.472514 214.871 0.445472 217.055 3.09143 218.578L164.697 311.746C169.274 314.388 177.252 314.051 182.531 311.005L292.581 247.585C296.131 245.536 297.535 242.787 296.698 240.401C296.185 241.991 294.808 243.541 292.594 244.822Z" fill="white"/>
<path d="M71.8189 187.738L64.502 183.519C63.9215 183.182 63.989 182.589 64.664 182.198L73.2904 177.224C73.9654 176.833 74.9913 176.793 75.5853 177.13L82.9022 181.349C83.4827 181.686 83.4152 182.279 82.7402 182.67L74.1139 187.643C73.4389 188.034 72.4129 188.075 71.8189 187.738Z" fill="#203662"/>
<path d="M83.1182 194.248L75.8013 190.029C75.2208 189.692 75.2883 189.099 75.9633 188.708L84.5897 183.735C85.2647 183.344 86.2907 183.303 86.8847 183.64L94.2015 187.859C94.782 188.196 94.7145 188.789 94.0395 189.18L85.4132 194.154C84.7247 194.545 83.6987 194.585 83.1182 194.248Z" fill="#203662"/>
<path d="M94.404 200.759L87.0871 196.54C86.5066 196.203 86.5741 195.61 87.2491 195.219L95.8755 190.245C96.5504 189.854 97.5764 189.814 98.1704 190.151L105.487 194.37C106.068 194.707 106 195.3 105.325 195.691L96.6989 200.664C96.024 201.055 94.998 201.096 94.404 200.759Z" fill="#203662"/>
<path d="M110.023 195.381L102.706 191.162C102.126 190.825 102.193 190.231 102.868 189.841L110.118 185.662C110.793 185.271 111.819 185.231 112.413 185.568L119.73 189.787C120.31 190.124 120.243 190.717 119.568 191.108L112.318 195.286C111.643 195.677 110.617 195.718 110.023 195.381Z" fill="#203662"/>
<path d="M121.323 201.891L114.006 197.672C113.425 197.335 113.493 196.742 114.168 196.351L121.417 192.173C122.092 191.782 123.118 191.741 123.712 192.078L131.029 196.297C131.61 196.634 131.542 197.227 130.867 197.618L123.618 201.797C122.929 202.188 121.903 202.228 121.323 201.891Z" fill="#203662"/>
<path d="M132.608 208.401L125.292 204.182C124.711 203.845 124.779 203.252 125.454 202.861L132.703 198.683C133.378 198.292 134.404 198.251 134.998 198.588L142.315 202.807C142.895 203.144 142.828 203.738 142.153 204.128L134.903 208.307C134.228 208.698 133.202 208.738 132.608 208.401Z" fill="#203662"/>
<path d="M143.908 214.912L136.591 210.693C136.01 210.356 136.078 209.763 136.753 209.372L144.002 205.193C144.677 204.802 145.703 204.762 146.297 205.099L153.614 209.318C154.195 209.655 154.127 210.248 153.452 210.639L146.203 214.817C145.514 215.208 144.488 215.249 143.908 214.912Z" fill="#203662"/>
<path d="M155.194 221.422L147.877 217.203C147.296 216.866 147.364 216.273 148.039 215.882L155.288 211.704C155.963 211.313 156.989 211.272 157.583 211.609L164.9 215.828C165.481 216.165 165.413 216.759 164.738 217.149L157.489 221.328C156.814 221.719 155.788 221.759 155.194 221.422Z" fill="#203662"/>
<path d="M166.493 227.933L159.176 223.714C158.596 223.377 158.663 222.784 159.338 222.393L166.587 218.214C167.262 217.823 168.288 217.783 168.882 218.12L176.199 222.339C176.78 222.676 176.712 223.269 176.037 223.66L168.788 227.838C168.099 228.229 167.073 228.27 166.493 227.933Z" fill="#203662"/>
<path d="M177.779 234.443L170.462 230.224C169.881 229.887 169.949 229.294 170.624 228.903L177.873 224.725C178.548 224.334 179.574 224.293 180.168 224.63L187.485 228.849C188.066 229.186 187.998 229.779 187.323 230.17L180.074 234.349C179.399 234.74 178.373 234.78 177.779 234.443Z" fill="#203662"/>
<path d="M189.078 240.954L181.761 236.735C181.181 236.398 181.248 235.804 181.923 235.414L189.173 231.235C189.848 230.844 190.874 230.804 191.468 231.141L198.784 235.36C199.365 235.697 199.297 236.29 198.622 236.681L191.373 240.859C190.685 241.25 189.659 241.291 189.078 240.954Z" fill="#203662"/>
<path d="M200.364 247.464L193.047 243.245C192.467 242.908 192.534 242.315 193.209 241.924L200.458 237.746C201.133 237.355 202.159 237.314 202.753 237.651L210.07 241.87C210.651 242.207 210.583 242.8 209.908 243.191L202.659 247.37C201.984 247.761 200.958 247.801 200.364 247.464Z" fill="#203662"/>
<path d="M211.663 253.975L204.346 249.756C203.766 249.419 203.833 248.825 204.508 248.435L211.758 244.256C212.433 243.865 213.459 243.825 214.053 244.162L221.37 248.381C221.95 248.718 221.883 249.311 221.208 249.702L213.958 253.88C213.27 254.271 212.244 254.312 211.663 253.975Z" fill="#203662"/>
<path d="M126.669 192.294L119.352 188.075C118.771 187.738 118.839 187.145 119.514 186.754L126.763 182.575C127.438 182.184 128.464 182.144 129.058 182.481L136.375 186.7C136.955 187.037 136.888 187.63 136.213 188.021L128.963 192.199C128.275 192.59 127.249 192.644 126.669 192.294Z" fill="#203662"/>
<path d="M115.207 185.689L107.89 181.47C107.31 181.133 107.377 180.54 108.052 180.149L115.302 175.97C115.977 175.58 117.003 175.539 117.597 175.876L124.914 180.095C125.494 180.432 125.427 181.025 124.752 181.416L117.502 185.595C116.814 185.985 115.788 186.026 115.207 185.689Z" fill="#203662"/>
<path d="M103.732 179.071L87.9782 169.986C87.3977 169.649 87.4652 169.056 88.1402 168.665L95.3896 164.486C96.0646 164.095 97.0906 164.055 97.6846 164.392L113.439 173.477C114.033 173.814 113.952 174.407 113.277 174.798L106.027 178.976C105.339 179.367 104.313 179.408 103.732 179.071Z" fill="#203662"/>
<path d="M111.751 171.024L98.967 163.651C98.3865 163.314 98.454 162.721 99.129 162.33L106.378 158.151C107.053 157.76 108.079 157.72 108.673 158.057L121.458 165.43C122.038 165.767 121.971 166.36 121.296 166.751L114.046 170.929C113.358 171.32 112.332 171.361 111.751 171.024Z" fill="#203662"/>
<path d="M137.954 198.804L130.638 194.585C130.057 194.248 130.125 193.655 130.8 193.264L138.049 189.086C138.724 188.695 139.75 188.654 140.344 188.991L147.661 193.21C148.241 193.547 148.174 194.14 147.499 194.531L140.249 198.71C139.574 199.101 138.548 199.155 137.954 198.804Z" fill="#203662"/>
<path d="M149.254 205.315L141.937 201.096C141.356 200.759 141.424 200.166 142.099 199.775L149.348 195.596C150.023 195.205 151.049 195.165 151.643 195.502L158.96 199.721C159.541 200.058 159.473 200.651 158.798 201.042L151.549 205.22C150.86 205.611 149.834 205.665 149.254 205.315Z" fill="#203662"/>
<path d="M160.539 211.825L153.223 207.606C152.642 207.269 152.71 206.676 153.385 206.285L160.634 202.107C161.309 201.716 162.335 201.675 162.929 202.012L170.246 206.231C170.826 206.568 170.759 207.161 170.084 207.552L162.834 211.731C162.159 212.122 161.133 212.162 160.539 211.825Z" fill="#203662"/>
<path d="M171.839 218.336L164.522 214.117C163.928 213.78 164.009 213.187 164.684 212.796L171.933 208.617C172.608 208.226 173.634 208.186 174.228 208.523L181.545 212.742C182.126 213.079 182.058 213.672 181.383 214.063L174.134 218.241C173.445 218.632 172.419 218.673 171.839 218.336Z" fill="#203662"/>
<path d="M183.125 224.846L175.808 220.627C175.227 220.29 175.295 219.697 175.97 219.306L183.219 215.127C183.894 214.737 184.92 214.696 185.514 215.033L192.831 219.252C193.412 219.589 193.344 220.182 192.669 220.573L185.42 224.751C184.745 225.142 183.719 225.183 183.125 224.846Z" fill="#203662"/>
<path d="M194.424 231.356L187.107 227.137C186.527 226.8 186.594 226.207 187.269 225.816L194.518 221.638C195.193 221.247 196.219 221.207 196.813 221.544L204.13 225.763C204.711 226.1 204.643 226.693 203.968 227.083L196.719 231.262C196.03 231.653 195.004 231.693 194.424 231.356Z" fill="#203662"/>
<path d="M205.71 237.867L198.393 233.648C197.812 233.311 197.88 232.718 198.555 232.327L205.804 228.148C206.479 227.757 207.505 227.717 208.099 228.054L215.416 232.273C215.997 232.61 215.929 233.203 215.254 233.594L208.005 237.773C207.33 238.163 206.304 238.204 205.71 237.867Z" fill="#203662"/>
<path d="M217.009 244.377L209.692 240.158C209.112 239.821 209.179 239.228 209.854 238.837L217.104 234.659C217.779 234.268 218.805 234.228 219.399 234.565L226.715 238.784C227.296 239.12 227.228 239.714 226.553 240.104L219.304 244.283C218.616 244.674 217.59 244.714 217.009 244.377Z" fill="#203662"/>
<path d="M228.308 250.888L220.992 246.669C220.411 246.332 220.479 245.739 221.154 245.348L228.403 241.169C229.078 240.778 230.104 240.738 230.698 241.075L238.015 245.294C238.595 245.631 238.528 246.224 237.853 246.615L230.603 250.793C229.915 251.184 228.889 251.225 228.308 250.888Z" fill="#203662"/>
<path d="M248.383 262.466L232.426 253.274C231.845 252.937 231.913 252.344 232.588 251.953L239.837 247.774C240.512 247.383 241.538 247.343 242.132 247.68L258.089 256.873C258.669 257.21 258.602 257.803 257.927 258.194L250.678 262.372C249.989 262.763 248.963 262.803 248.383 262.466Z" fill="#203662"/>
<path d="M270.36 249.783L256.888 242.019C256.307 241.682 256.375 241.088 257.05 240.698L264.299 236.519C264.974 236.128 266 236.088 266.594 236.425L280.067 244.189C280.647 244.526 280.58 245.119 279.905 245.51L272.655 249.688C271.98 250.079 270.954 250.133 270.36 249.783Z" fill="#203662"/>
<path d="M157.732 197.537L150.415 193.318C149.834 192.981 149.902 192.388 150.577 191.997L157.826 187.819C158.501 187.428 159.527 187.387 160.121 187.724L167.438 191.943C168.018 192.28 167.951 192.874 167.276 193.264L160.027 197.443C159.352 197.834 158.326 197.874 157.732 197.537Z" fill="#203662"/>
<path d="M146.162 190.865L138.845 186.646C138.265 186.309 138.332 185.716 139.007 185.325L146.257 181.146C146.932 180.756 147.958 180.715 148.552 181.052L155.869 185.271C156.449 185.608 156.382 186.201 155.707 186.592L148.457 190.771C147.769 191.161 146.756 191.202 146.162 190.865Z" fill="#203662"/>
<path d="M134.593 184.193L127.276 179.974C126.696 179.637 126.763 179.044 127.438 178.653L134.687 174.474C135.362 174.083 136.388 174.043 136.982 174.38L144.299 178.599C144.88 178.936 144.812 179.529 144.137 179.92L136.888 184.098C136.199 184.489 135.173 184.53 134.593 184.193Z" fill="#203662"/>
<path d="M123.01 177.521L115.693 173.302C115.099 172.965 115.18 172.372 115.855 171.981L123.105 167.802C123.78 167.411 124.806 167.371 125.4 167.708L132.716 171.927C133.297 172.264 133.229 172.857 132.554 173.248L125.305 177.426C124.63 177.817 123.604 177.858 123.01 177.521Z" fill="#203662"/>
<path d="M169.031 204.048L161.714 199.829C161.134 199.492 161.201 198.899 161.876 198.508L169.125 194.329C169.8 193.938 170.826 193.898 171.42 194.235L178.737 198.454C179.318 198.791 179.25 199.384 178.575 199.775L171.326 203.953C170.637 204.344 169.611 204.385 169.031 204.048Z" fill="#203662"/>
<path d="M180.317 210.558L173 206.339C172.419 206.002 172.487 205.409 173.162 205.018L180.411 200.84C181.086 200.449 182.112 200.408 182.706 200.745L190.023 204.964C190.604 205.301 190.536 205.894 189.861 206.285L182.612 210.464C181.937 210.855 180.911 210.895 180.317 210.558Z" fill="#203662"/>
<path d="M191.616 217.069L184.299 212.85C183.719 212.513 183.786 211.919 184.461 211.529L191.711 207.35C192.385 206.959 193.411 206.919 194.005 207.256L201.322 211.475C201.903 211.812 201.835 212.405 201.16 212.796L193.911 216.974C193.222 217.365 192.197 217.405 191.616 217.069Z" fill="#203662"/>
<path d="M202.902 223.579L195.585 219.36C195.004 219.023 195.072 218.43 195.747 218.039L202.996 213.861C203.671 213.47 204.697 213.429 205.291 213.766L212.608 217.985C213.189 218.322 213.121 218.915 212.446 219.306L205.197 223.485C204.522 223.876 203.496 223.916 202.902 223.579Z" fill="#203662"/>
<path d="M214.201 230.089L206.884 225.87C206.29 225.533 206.371 224.94 207.046 224.549L214.296 220.371C214.971 219.98 215.997 219.939 216.591 220.276L223.908 224.495C224.488 224.832 224.421 225.425 223.746 225.816L216.496 229.995C215.808 230.386 214.782 230.426 214.201 230.089Z" fill="#203662"/>
<path d="M225.487 236.6L218.17 232.381C217.59 232.044 217.657 231.451 218.332 231.06L225.581 226.881C226.256 226.49 227.282 226.45 227.876 226.787L235.193 231.006C235.774 231.343 235.706 231.936 235.031 232.327L227.782 236.505C227.107 236.896 226.081 236.937 225.487 236.6Z" fill="#203662"/>
<path d="M236.786 243.11L229.469 238.891C228.889 238.554 228.956 237.961 229.631 237.57L236.881 233.392C237.556 233.001 238.582 232.96 239.176 233.297L246.493 237.516C247.073 237.853 247.006 238.446 246.331 238.837L239.081 243.016C238.393 243.407 237.367 243.447 236.786 243.11Z" fill="#203662"/>
<path d="M248.072 249.621L240.755 245.402C240.175 245.065 240.242 244.472 240.917 244.081L248.167 239.902C248.842 239.511 249.868 239.471 250.462 239.808L257.779 244.027C258.359 244.364 258.292 244.957 257.617 245.348L250.367 249.526C249.692 249.917 248.666 249.958 248.072 249.621Z" fill="#203662"/>
<path d="M259.372 256.131L252.055 251.912C251.474 251.575 251.542 250.982 252.217 250.591L259.466 246.413C260.141 246.022 261.167 245.981 261.761 246.318L269.078 250.537C269.658 250.874 269.591 251.467 268.916 251.858L261.666 256.037C260.978 256.428 259.952 256.468 259.372 256.131Z" fill="#203662"/>
<path d="M151.792 181.43L144.475 177.211C143.894 176.874 143.962 176.281 144.637 175.89L151.886 171.711C152.561 171.32 153.587 171.28 154.181 171.617L161.498 175.836C162.079 176.173 162.011 176.766 161.336 177.157L154.087 181.335C153.398 181.726 152.372 181.78 151.792 181.43Z" fill="#203662"/>
<path d="M140.56 174.96L133.243 170.741C132.662 170.404 132.73 169.811 133.405 169.42L140.654 165.241C141.329 164.85 142.355 164.81 142.949 165.147L150.266 169.366C150.847 169.703 150.779 170.296 150.104 170.687L142.855 174.865C142.166 175.256 141.14 175.297 140.56 174.96Z" fill="#203662"/>
<path d="M129.315 168.476L121.998 164.257C121.417 163.92 121.485 163.327 122.16 162.936L129.409 158.758C130.084 158.367 131.11 158.326 131.704 158.663L139.021 162.882C139.601 163.219 139.534 163.812 138.859 164.203L131.609 168.382C130.934 168.773 129.908 168.813 129.315 168.476Z" fill="#203662"/>
<path d="M118.083 162.006L110.766 157.787C110.185 157.45 110.253 156.857 110.928 156.466L118.177 152.288C118.852 151.897 119.878 151.856 120.472 152.193L127.789 156.412C128.37 156.749 128.302 157.342 127.627 157.733L120.378 161.912C119.689 162.303 118.663 162.343 118.083 162.006Z" fill="#203662"/>
<path d="M129.638 155.347L122.322 151.128C121.741 150.791 121.809 150.198 122.484 149.807L124.873 148.433C125.548 148.042 126.574 148.001 127.168 148.338L134.485 152.557C135.065 152.894 134.998 153.487 134.323 153.878L131.933 155.253C131.245 155.644 130.219 155.684 129.638 155.347Z" fill="#203662"/>
<path d="M144.299 163.799L136.982 159.58C136.402 159.243 136.469 158.65 137.144 158.259L139.534 156.884C140.209 156.493 141.235 156.453 141.829 156.79L149.146 161.009C149.726 161.346 149.659 161.939 148.984 162.33L146.594 163.704C145.906 164.095 144.88 164.136 144.299 163.799Z" fill="#203662"/>
<path d="M155.491 170.242L148.174 166.023C147.593 165.686 147.661 165.093 148.336 164.702L150.725 163.327C151.4 162.936 152.426 162.896 153.02 163.233L160.337 167.452C160.918 167.789 160.85 168.382 160.175 168.773L157.786 170.148C157.097 170.538 156.071 170.579 155.491 170.242Z" fill="#203662"/>
<path d="M166.682 176.698L159.365 172.479C158.771 172.143 158.852 171.549 159.527 171.159L161.917 169.784C162.591 169.393 163.617 169.352 164.211 169.689L171.528 173.908C172.109 174.245 172.041 174.838 171.366 175.229L168.977 176.604C168.288 176.995 167.262 177.035 166.682 176.698Z" fill="#203662"/>
<path d="M177.873 183.141L170.556 178.922C169.976 178.585 170.043 177.992 170.718 177.601L173.108 176.227C173.783 175.836 174.809 175.795 175.403 176.132L182.72 180.351C183.3 180.688 183.233 181.281 182.558 181.672L180.168 183.047C179.48 183.438 178.454 183.478 177.873 183.141Z" fill="#203662"/>
<path d="M240.337 219.158L233.02 214.939C232.439 214.602 232.507 214.009 233.182 213.618L235.571 212.243C236.246 211.852 237.272 211.812 237.866 212.149L245.183 216.367C245.764 216.704 245.696 217.298 245.021 217.688L242.632 219.063C241.957 219.454 240.931 219.495 240.337 219.158Z" fill="#203662"/>
<path d="M251.528 225.614L244.211 221.395C243.631 221.058 243.698 220.465 244.373 220.074L246.763 218.699C247.438 218.309 248.464 218.268 249.058 218.605L256.375 222.824C256.955 223.161 256.888 223.754 256.213 224.145L253.823 225.52C253.135 225.911 252.109 225.951 251.528 225.614Z" fill="#203662"/>
<path d="M262.719 232.057L255.403 227.838C254.822 227.501 254.89 226.908 255.565 226.517L257.954 225.143C258.629 224.752 259.655 224.711 260.249 225.048L267.566 229.267C268.146 229.604 268.079 230.197 267.404 230.588L265.014 231.963C264.326 232.354 263.3 232.394 262.719 232.057Z" fill="#203662"/>
<path d="M273.911 238.514L266.594 234.295C266.013 233.958 266.081 233.365 266.756 232.974L269.145 231.599C269.82 231.208 270.846 231.168 271.44 231.505L278.757 235.724C279.338 236.061 279.27 236.654 278.595 237.045L276.206 238.42C275.517 238.81 274.491 238.851 273.911 238.514Z" fill="#203662"/>
<path d="M163.077 187.94L155.761 183.721C155.18 183.384 155.248 182.791 155.923 182.4L163.172 178.222C163.847 177.831 164.873 177.79 165.467 178.127L172.784 182.346C173.364 182.683 173.297 183.276 172.622 183.667L165.372 187.846C164.697 188.237 163.671 188.277 163.077 187.94Z" fill="#203662"/>
<path d="M174.377 194.45L167.06 190.231C166.479 189.894 166.547 189.301 167.222 188.91L174.471 184.732C175.146 184.341 176.172 184.301 176.766 184.638L184.083 188.857C184.664 189.194 184.596 189.787 183.921 190.177L176.672 194.356C175.983 194.747 174.957 194.787 174.377 194.45Z" fill="#203662"/>
<path d="M185.663 200.961L178.346 196.742C177.765 196.405 177.833 195.812 178.508 195.421L185.757 191.242C186.432 190.851 187.458 190.811 188.052 191.148L195.369 195.367C195.949 195.704 195.882 196.297 195.207 196.688L187.958 200.866C187.283 201.257 186.257 201.298 185.663 200.961Z" fill="#203662"/>
<path d="M196.962 207.471L189.645 203.252C189.065 202.915 189.132 202.322 189.807 201.931L197.056 197.753C197.731 197.362 198.757 197.322 199.351 197.659L206.668 201.878C207.249 202.214 207.181 202.808 206.506 203.198L199.257 207.377C198.568 207.768 197.542 207.808 196.962 207.471Z" fill="#203662"/>
<path d="M208.248 213.982L200.931 209.763C200.35 209.426 200.418 208.833 201.093 208.442L208.342 204.263C209.017 203.872 210.043 203.832 210.637 204.169L217.954 208.388C218.535 208.725 218.467 209.318 217.792 209.709L210.543 213.887C209.868 214.278 208.842 214.319 208.248 213.982Z" fill="#203662"/>
<path d="M219.547 220.492L212.23 216.273C211.65 215.936 211.717 215.343 212.392 214.952L219.642 210.774C220.317 210.383 221.343 210.342 221.936 210.679L229.253 214.898C229.834 215.235 229.766 215.828 229.091 216.219L221.842 220.398C221.154 220.789 220.128 220.829 219.547 220.492Z" fill="#203662"/>
<path d="M230.833 227.003L223.516 222.784C222.936 222.447 223.003 221.854 223.678 221.463L230.927 217.284C231.602 216.893 232.628 216.853 233.222 217.19L240.539 221.409C241.12 221.746 241.052 222.339 240.377 222.73L233.128 226.908C232.453 227.299 231.427 227.34 230.833 227.003Z" fill="#203662"/>
<path d="M242.132 233.513L234.815 229.294C234.235 228.957 234.302 228.364 234.977 227.973L242.227 223.795C242.902 223.404 243.928 223.363 244.522 223.7L251.839 227.919C252.419 228.256 252.352 228.849 251.677 229.24L244.427 233.419C243.739 233.81 242.713 233.85 242.132 233.513Z" fill="#203662"/>
<path d="M253.418 240.024L246.101 235.805C245.521 235.468 245.588 234.875 246.263 234.484L253.513 230.305C254.188 229.914 255.214 229.874 255.808 230.211L263.124 234.43C263.705 234.767 263.637 235.36 262.962 235.751L255.713 239.929C255.038 240.32 254.012 240.361 253.418 240.024Z" fill="#203662"/>
<path d="M98.5215 188.749L76.9893 176.334C76.4088 175.997 76.4763 175.404 77.1513 175.013L84.4007 170.835C85.0757 170.444 86.1017 170.404 86.6957 170.741L108.228 183.155C108.808 183.492 108.741 184.085 108.066 184.476L100.816 188.654C100.128 189.045 99.102 189.086 98.5215 188.749Z" fill="#203662"/>
<path d="M237.259 268.721L215.727 256.306C215.146 255.969 215.214 255.376 215.889 254.985L223.138 250.807C223.813 250.416 224.839 250.376 225.433 250.712L246.965 263.127C247.546 263.464 247.478 264.057 246.803 264.448L239.554 268.626C238.865 269.017 237.839 269.058 237.259 268.721Z" fill="#203662"/>
<path d="M192.089 257.075L184.772 252.856C184.191 252.519 184.259 251.926 184.934 251.535L193.56 246.561C194.235 246.17 195.261 246.13 195.855 246.467L203.172 250.686C203.752 251.023 203.685 251.616 203.01 252.007L194.384 256.98C193.709 257.371 192.683 257.412 192.089 257.075Z" fill="#203662"/>
<path d="M110.091 209.79L98.4 203.05C97.8195 202.713 97.887 202.12 98.562 201.729L107.188 196.755C107.863 196.364 108.889 196.324 109.483 196.661L121.174 203.401C121.755 203.738 121.687 204.331 121.012 204.722L112.386 209.695C111.697 210.086 110.671 210.127 110.091 209.79Z" fill="#203662"/>
<path d="M181.208 250.793L169.517 244.054C168.936 243.717 169.004 243.124 169.679 242.733L178.305 237.759C178.98 237.368 180.006 237.328 180.6 237.665L192.291 244.404C192.872 244.741 192.804 245.334 192.129 245.725L183.503 250.699C182.828 251.09 181.802 251.13 181.208 250.793Z" fill="#203662"/>
<path d="M126.372 219.185L114.681 212.445C114.1 212.108 114.168 211.515 114.843 211.124L123.469 206.15C124.144 205.759 125.17 205.719 125.764 206.056L137.455 212.796C138.049 213.133 137.968 213.726 137.293 214.117L128.667 219.09C127.992 219.481 126.966 219.522 126.372 219.185Z" fill="#203662"/>
<path d="M125.845 206.096L176.685 235.414C177.32 235.778 177.32 236.371 176.685 236.735L167.883 241.803C167.249 242.167 166.223 242.167 165.602 241.803L114.762 212.486L125.845 206.096Z" fill="#203662"/>
<path d="M223.651 268.869L231.791 273.56C232.277 273.843 232.21 274.328 231.656 274.638L228.119 276.673C227.566 276.997 226.729 277.024 226.243 276.754L218.103 272.063C217.617 271.78 217.684 271.295 218.238 270.985L221.775 268.95C222.328 268.626 223.179 268.599 223.651 268.869Z" fill="#203662"/>
<path d="M212.271 262.305L220.411 266.995C220.897 267.278 220.83 267.764 220.276 268.074L216.739 270.109C216.186 270.433 215.349 270.459 214.863 270.19L206.722 265.499C206.236 265.216 206.304 264.731 206.857 264.421L210.394 262.386C210.948 262.062 211.785 262.035 212.271 262.305Z" fill="#203662"/>
<path d="M200.971 255.794L209.112 260.485C209.598 260.768 209.53 261.253 208.977 261.563L205.44 263.599C204.886 263.922 204.049 263.949 203.563 263.679L195.423 258.989C194.937 258.706 195.004 258.22 195.558 257.91L199.095 255.875C199.648 255.552 200.499 255.525 200.971 255.794Z" fill="#203662"/>
<path d="M218.508 258.719L226.648 263.41C227.134 263.693 227.066 264.178 226.513 264.488L222.976 266.523C222.423 266.847 221.586 266.874 221.1 266.604L212.959 261.914C212.473 261.631 212.541 261.145 213.094 260.835L216.631 258.8C217.185 258.476 218.022 258.436 218.508 258.719Z" fill="#203662"/>
<path d="M263.111 131.691L202.281 96.6186L203.064 92.6692L263.894 127.742L263.111 131.691Z" fill="#23A4EF"/>
<path d="M241.322 138.35L198.865 113.872L199.648 109.922L242.105 134.401L241.322 138.35Z" fill="#23A4EF"/>
<path d="M237.313 126.421L200.58 105.245L201.363 101.296L238.096 122.472L237.313 126.421Z" fill="#F18634"/>
<path d="M261.396 140.318L243.037 129.723L243.82 125.774L262.179 136.369L261.396 140.318Z" fill="#FCCC55"/>
<path d="M195.801 62.1793L177.441 51.5847L178.224 47.6353L196.584 58.2299L195.801 62.1793Z" fill="#23A4EF"/>
<path d="M193.816 71.3452L175.443 60.7641L176.226 56.8147L194.599 67.3958L193.816 71.3452Z" fill="#F18634"/>
<path d="M283.955 198.629L265.595 188.034L266.378 184.085L284.738 194.679L283.955 198.629Z" fill="#23A4EF"/>
<path d="M189.821 89.7037L171.461 79.1091L172.244 75.1597L190.604 85.7543L189.821 89.7037Z" fill="#23A4EF"/>
<path d="M229.51 92.5479C228.929 93.8285 227.444 94.2733 226.202 93.5589C224.96 92.8445 224.434 91.227 225.014 89.9599C225.595 88.6794 227.08 88.2346 228.322 88.949C229.564 89.6634 230.09 91.2674 229.51 92.5479Z" fill="#FCCC55"/>
<path d="M237.421 97.1038C236.84 98.3844 235.355 98.8292 234.113 98.1148C232.871 97.4004 232.345 95.7829 232.925 94.5158C233.506 93.2353 234.991 92.7905 236.233 93.5049C237.475 94.2193 238.001 95.8368 237.421 97.1038Z" fill="#F18634"/>
<path d="M245.332 101.66C244.751 102.94 243.266 103.385 242.024 102.671C240.782 101.956 240.256 100.339 240.836 99.0717C241.417 97.7912 242.902 97.3464 244.144 98.0608C245.386 98.7752 245.912 100.393 245.332 101.66Z" fill="#23A4EF"/>
<path d="M253.243 106.229C252.662 107.51 251.177 107.955 249.935 107.24C248.693 106.526 248.167 104.908 248.747 103.641C249.328 102.361 250.813 101.916 252.055 102.63C253.297 103.345 253.823 104.949 253.243 106.229Z" fill="#FCCC55"/>
<path d="M160.472 61.9234L122.956 40.3028C122.214 39.8714 121.471 39.858 120.823 40.141L120.837 40.1141L116.368 42.2168C116.368 42.2168 118.042 42.7964 119.028 43.1469L113.614 70.4287C113.169 72.6528 114.168 75.2273 115.842 76.1843L151.711 96.8479L151.076 100.042L155.599 97.9262L155.572 97.9127C156.341 97.5353 156.949 96.6996 157.192 95.5134L162.726 67.6655C163.145 65.4684 162.146 62.8804 160.472 61.9234Z" fill="#F18634"/>
<path d="M148.795 99.9346L111.279 78.3141C109.605 77.357 108.619 74.769 109.051 72.5585L114.586 44.7105C115.032 42.4864 116.733 41.4755 118.407 42.4325L155.936 64.0531C157.61 65.0101 158.596 67.5981 158.164 69.8087L152.629 97.6567C152.17 99.8807 150.469 100.905 148.795 99.9346Z" fill="#FCCC55"/>
<path d="M127.249 68.7169C126.925 70.3344 125.535 70.9815 124.144 70.1727C122.754 69.364 121.876 67.4095 122.187 65.792C122.511 64.1745 123.901 63.5275 125.292 64.3362C126.696 65.145 127.56 67.1129 127.249 68.7169Z" fill="white"/>
<path d="M134.917 73.1381C134.593 74.7556 133.202 75.4026 131.812 74.5938C130.408 73.7851 129.544 71.8306 129.854 70.2131C130.178 68.5956 131.569 67.9486 132.959 68.7574C134.363 69.5661 135.227 71.5341 134.917 73.1381Z" fill="white"/>
<path d="M142.585 77.5592C142.261 79.1767 140.87 79.8237 139.48 79.015C138.076 78.2062 137.212 76.2517 137.522 74.6342C137.833 73.0167 139.237 72.3698 140.627 73.1785C142.031 73.9872 142.909 75.9552 142.585 77.5592Z" fill="white"/>
<path d="M143.638 26.9043L106.108 5.28374C105.366 4.85241 104.623 4.83893 103.975 5.12199L103.989 5.09503L99.5204 7.19778C99.5204 7.19778 101.194 7.77739 102.18 8.12784L96.7665 35.3962C96.321 37.6203 97.32 40.1948 98.9939 41.1518L134.863 61.8154L134.228 65.0099L138.751 62.8937L138.724 62.8802C139.493 62.5028 140.101 61.6671 140.344 60.4809L145.879 32.633C146.297 30.4493 145.298 27.8613 143.638 26.9043Z" fill="#8ED0F7"/>
<path d="M131.96 64.929L94.431 43.3084C92.757 42.3514 91.7715 39.7634 92.2035 37.5528L97.7384 9.70488C98.1839 7.48082 99.8849 6.46988 101.559 7.4269L139.088 29.0475C140.762 30.0045 141.748 32.5925 141.316 34.8031L135.781 62.651C135.335 64.8616 133.621 65.886 131.96 64.929Z" fill="#E0F1FD"/>
<path d="M110.401 33.6979C110.077 35.3154 108.687 35.9624 107.296 35.1536C105.892 34.3449 105.028 32.3904 105.339 30.7729C105.663 29.1554 107.053 28.5084 108.444 29.3172C109.848 30.1259 110.712 32.0939 110.401 33.6979Z" fill="white"/>
<path d="M118.069 38.119C117.745 39.7365 116.355 40.3835 114.964 39.5748C113.56 38.766 112.696 36.8116 113.007 35.1941C113.331 33.5766 114.721 32.9296 116.112 33.7383C117.516 34.5471 118.393 36.515 118.069 38.119Z" fill="white"/>
<path d="M125.737 42.5402C125.413 44.1577 124.023 44.8047 122.632 43.9959C121.228 43.1872 120.364 41.2327 120.675 39.6152C120.999 37.9977 122.389 37.3507 123.78 38.1595C125.184 38.9682 126.061 40.9362 125.737 42.5402Z" fill="white"/>
</g>
<defs>
<clipPath id="clip0">
<rect width="452" height="350" fill="white"/>
</clipPath>
</defs>
</svg>
