<svg width="35" height="35" viewBox="0 0 35 35" fill="none" xmlns="http://www.w3.org/2000/svg">
<rect width="35" height="35" rx="17.5" fill="white" fill-opacity="0.2"/>
<path d="M25.4 12.428C24.87 12.6685 24.3013 12.8316 23.7038 12.9045C24.3139 12.5303 24.7809 11.9369 25.0022 11.2319C24.43 11.5784 23.7983 11.83 23.1252 11.9664C22.5862 11.3775 21.8195 11.0107 20.9692 11.0107C19.3378 11.0107 18.015 12.3654 18.015 14.0352C18.015 14.272 18.0411 14.5033 18.0915 14.7245C15.6368 14.5982 13.4601 13.3938 12.0033 11.5636C11.7486 12.0097 11.6038 12.5294 11.6038 13.0841C11.6038 14.1338 12.1257 15.0599 12.9175 15.6017C12.4334 15.5851 11.9781 15.4487 11.5795 15.222V15.2598C11.5795 16.725 12.5981 17.9479 13.9487 18.2262C13.7013 18.2944 13.4403 18.3322 13.1704 18.3322C12.9796 18.3322 12.7952 18.3128 12.6143 18.2759C12.9904 19.4785 14.081 20.353 15.3732 20.377C14.3627 21.1879 13.0885 21.6699 11.7046 21.6699C11.4661 21.6699 11.2312 21.6552 11 21.6284C12.3075 22.4882 13.8597 22.9895 15.528 22.9895C20.962 22.9895 23.9324 18.3801 23.9324 14.3826L23.9225 13.9909C24.5028 13.567 25.0049 13.0344 25.4 12.428Z" fill="white"/>
</svg>
