<svg width="375" height="739" viewBox="0 0 375 739" fill="none" xmlns="http://www.w3.org/2000/svg">
<path d="M213.106 10.1439C251.301 21.1989 266.38 50.9794 280.441 80.4887C288.991 98.4315 297.363 110.477 311.971 125.375C322.297 135.67 331.857 146.507 340.597 157.823C344.718 163.242 346.681 174.202 350.11 179.965C351.654 210.331 355.055 238.29 356.635 273.673C355.817 276.827 355.214 280.017 354.829 283.227C352.588 302.521 354.883 322.732 356.64 341.956C360.089 379.631 364.629 416.466 359.155 454.259C350.817 511.785 357.909 565.964 368.112 622.707C371.64 642.329 363.943 657.509 358.484 679.533C335.853 713.972 315.829 713.779 268.67 723.186C235.116 722.537 224.005 719.982 202.276 702.343C175.247 682.475 163.983 674.119 146.564 648.544C131.121 625.861 95.5298 624.792 66.2789 618.253C34.0176 611.06 -14.9461 632.235 -35.5664 603.625C-48.5988 585.53 -38.1523 560.333 -29.7545 542.18C-14.116 508.602 -2.66799 472.704 -15.3906 437.327C-22.4865 417.573 -39.4888 401.754 -49.1718 383.031C-54.0001 373.704 -57.4887 363.537 -55.4666 353.188C-52.1304 336.076 -27.3372 323.389 -50.9454 307.605C-65.7676 297.693 -84.9614 295.656 -100.186 286.325C-129.325 268.466 -141.796 236.414 -132.702 206.727C-125.607 183.569 -104.469 170.092 -82.434 157.143C-56.1999 141.718 -38.2361 125.286 -25.309 99.9377C-8.44352 66.8341 -6.44533 9.7752 52.4919 16.6186C77.9887 19.6211 95.2904 30.2387 121.764 22.2293C153.584 12.5938 178.492 0.113378 213.106 10.1439Z" fill="#23A4EF" fill-opacity="0.03"/>
</svg>
