<svg width="375" height="739" viewBox="0 0 375 739" fill="none" xmlns="http://www.w3.org/2000/svg">
<path d="M213.105 10.1437C251.301 21.1986 266.379 50.9792 280.44 80.4885C288.991 98.4313 297.362 110.477 311.971 125.374C322.296 135.67 331.857 146.507 340.597 157.823C344.718 163.242 346.68 174.202 350.11 179.964C351.654 210.331 355.054 238.29 356.635 273.672C355.817 276.827 355.214 280.017 354.829 283.226C352.588 302.521 354.882 322.731 356.64 341.955C360.089 379.631 364.629 416.466 359.154 454.259C350.816 511.785 357.909 565.964 368.112 622.707C371.64 642.328 363.943 657.509 358.484 679.533C335.853 713.972 315.829 713.779 268.67 723.186C235.116 722.537 224.004 719.982 202.276 702.343C175.247 682.475 163.983 674.119 146.564 648.543C131.12 625.861 95.5295 624.792 66.2786 618.253C34.0173 611.059 -14.9463 632.235 -35.5666 603.625C-48.5991 585.53 -38.1526 560.333 -29.7548 542.18C-14.1162 508.602 -2.66827 472.704 -15.3909 437.327C-22.4868 417.573 -39.4891 401.754 -49.1721 383.031C-54.0004 373.704 -57.489 363.537 -55.4669 353.188C-52.1307 336.076 -27.3374 323.389 -50.9457 307.604C-65.7679 297.693 -84.9617 295.656 -100.187 286.325C-129.326 268.466 -141.796 236.414 -132.703 206.727C-125.608 183.569 -104.47 170.092 -82.4342 157.143C-56.2002 141.717 -38.2364 125.285 -25.3093 99.9375C-8.44379 66.8338 -6.44561 9.77495 52.4917 16.6184C77.9884 19.6209 95.2902 30.2385 121.764 22.229C153.584 12.5935 178.492 0.113134 213.105 10.1437Z" fill="#352726" fill-opacity="0.02"/>
</svg>
