<svg width="35" height="35" viewBox="0 0 35 35" fill="none" xmlns="http://www.w3.org/2000/svg">
<rect width="35" height="35" rx="17.5" fill="white" fill-opacity="0.2"/>
<path fill-rule="evenodd" clip-rule="evenodd" d="M23.297 12.0978C24.3159 12.1551 24.8164 12.306 25.2775 13.1263C25.7577 13.9454 26 15.3564 26 17.8416V17.8448V17.8501C26 20.3236 25.7577 21.7453 25.2786 22.5559C24.8174 23.3762 24.317 23.5249 23.2981 23.594C22.2791 23.6524 19.7196 23.6875 17.5021 23.6875C15.2804 23.6875 12.7198 23.6524 11.7019 23.5929C10.6851 23.5239 10.1847 23.3751 9.71931 22.5549C9.24437 21.7442 9 20.3226 9 17.8491V17.8469V17.8438V17.8406C9 15.3564 9.24437 13.9454 9.71931 13.1263C10.1847 12.3049 10.6862 12.1551 11.703 12.0967C12.7198 12.0287 15.2804 12 17.5021 12C19.7196 12 22.2791 12.0287 23.297 12.0978Z" fill="white"/>
</svg>
